<svg xmlns="http://www.w3.org/2000/svg" viewBox="0 0 12 9" shape-rendering="crispEdges"><path fill="#001C2B" d="M0 4h1v1h-1zM1 3h1v1h-1zM1 5h1v1h-1zM2 2h1v1h-1zM2 4h1v1h-1zM2 6h1v1h-1zM3 1h1v1h-1zM3 3h1v1h-1zM3 5h1v1h-1zM3 7h1v1h-1zM4 0h1v1h-1zM4 2h1v1h-1zM4 6h1v1h-1zM4 8h1v1h-1zM5 1h1v1h-1zM5 3h1v1h-1zM5 5h1v1h-1zM5 7h1v1h-1zM6 2h1v1h-1zM6 4h1v1h-1zM6 6h1v1h-1zM7 3h1v1h-1zM7 5h1v1h-1zM8 4h1v1h-1z"/><path fill="#0098FF" d="M1 4h1v1h-1zM2 3h1v1h-1zM2 5h1v1h-1zM3 2h1v1h-1zM3 6h1v1h-1zM4 1h1v1h-1zM4 7h1v1h-1zM5 2h1v1h-1zM5 6h1v1h-1zM6 3h1v1h-1zM6 5h1v1h-1zM7 4h1v1h-1z"/><path fill="#FF6078" d="M4 4h1v1h-1z"/></svg>