<svg width="1920" height="668" viewBox="0 0 1920 668" fill="none" xmlns="http://www.w3.org/2000/svg">
<g clip-path="url(#clip0_504_3)">
<rect width="1920" height="668" fill="white"/>
<path d="M857 1484C1492.13 1484 2007 969.127 2007 334C2007 -301.128 1492.13 -816 857 -816C221.872 -816 -293 -301.128 -293 334C-293 969.127 221.872 1484 857 1484Z" fill="url(#paint0_linear_504_3)"/>
<path d="M997.29 67.429L1000.7 71.0142C1000.96 71.2765 1001.31 71.3639 1001.66 71.3639L1006.56 70.577C1007.43 70.4021 1008.13 71.3639 1007.7 72.2384L1005.33 76.6106C1005.16 76.9604 1005.16 77.3101 1005.33 77.6599L1007.61 82.0321C1008.05 82.8191 1007.35 83.781 1006.38 83.6061L1001.49 82.7316C1001.14 82.6442 1000.79 82.8191 1000.53 82.994L997.027 86.4917C996.415 87.1038 995.279 86.7541 995.104 85.8796L994.492 80.9828C994.404 80.633 994.229 80.2832 993.88 80.1083L989.42 77.8348C988.633 77.3976 988.633 76.2608 989.42 75.8236L993.88 73.7249C994.229 73.55 994.404 73.2877 994.492 72.9379L995.279 68.0411C995.541 67.0792 996.678 66.7294 997.29 67.429Z" fill="#FBBB16"/>
<path d="M386.356 223.186L391.382 228.47C391.768 228.856 392.284 228.985 392.799 228.985L400.016 227.825C401.304 227.568 402.335 228.985 401.691 230.274L398.211 236.717C397.954 237.233 397.954 237.748 398.211 238.263L401.562 244.707C402.206 245.866 401.175 247.284 399.758 247.026L392.541 245.738C392.026 245.609 391.51 245.866 391.124 246.124L385.969 251.279C385.067 252.181 383.392 251.665 383.134 250.377L382.232 243.16C382.103 242.645 381.846 242.129 381.33 241.872L374.758 238.521C373.598 237.877 373.598 236.202 374.758 235.557L381.33 232.465C381.846 232.207 382.103 231.82 382.232 231.305L383.392 224.088C383.779 222.671 385.454 222.155 386.356 223.186Z" fill="#FB7816"/>
<path d="M231.723 68.8451L231.226 76.2805C231.226 76.8023 231.475 77.3241 231.847 77.7154L237.432 82.2811C238.425 83.0637 238.052 84.89 236.811 85.1509L229.985 86.9771C229.489 87.1076 229.117 87.4989 228.868 88.0207L226.386 94.9343C225.89 96.2388 224.276 96.3692 223.532 95.1952L219.809 88.9338C219.56 88.412 219.064 88.1511 218.568 88.1511L211.493 87.8902C210.252 87.8902 209.508 86.1944 210.376 85.1509L214.844 79.4112C215.217 79.0199 215.341 78.3677 215.093 77.8459L213.231 70.6713C212.859 69.3669 214.1 68.1929 215.341 68.7147L221.918 71.454C222.415 71.7149 222.911 71.5845 223.408 71.3236L229.241 67.1493C230.358 66.6275 231.847 67.5406 231.723 68.8451Z" fill="#FB7816"/>
<path d="M1678.91 151.083L1678.78 156.047C1678.78 156.438 1678.91 156.7 1679.17 156.961L1683.22 159.965C1684 160.488 1683.74 161.664 1682.82 161.925L1677.99 163.362C1677.6 163.492 1677.34 163.754 1677.21 164.015L1675.64 168.717C1675.38 169.632 1674.2 169.763 1673.68 168.979L1670.94 164.799C1670.68 164.537 1670.41 164.276 1670.02 164.276H1665.06C1664.14 164.276 1663.62 163.231 1664.14 162.447L1667.15 158.528C1667.41 158.267 1667.41 157.875 1667.28 157.483L1665.71 152.781C1665.45 151.866 1666.23 151.083 1667.15 151.344L1671.85 153.042C1672.24 153.173 1672.64 153.173 1672.9 152.911L1676.95 150.038C1677.99 149.515 1679.04 150.168 1678.91 151.083Z" fill="#FBBB16"/>
<path d="M1269.55 394.46L1269.43 399.477C1269.43 399.873 1269.55 400.137 1269.8 400.401L1273.7 403.437C1274.46 403.965 1274.2 405.153 1273.32 405.417L1268.67 406.869C1268.3 407.001 1268.04 407.265 1267.92 407.53L1266.41 412.282C1266.16 413.206 1265.03 413.338 1264.53 412.546L1261.89 408.322C1261.63 408.058 1261.38 407.794 1261.01 407.794H1256.23C1255.35 407.794 1254.85 406.737 1255.35 405.945L1258.24 401.985C1258.49 401.721 1258.49 401.325 1258.37 400.929L1257.11 396.308C1256.86 395.384 1257.61 394.592 1258.49 394.856L1263.02 396.572C1263.39 396.704 1263.77 396.704 1264.02 396.44L1267.92 393.536C1268.67 393.008 1269.68 393.536 1269.55 394.46Z" fill="#FBBB16"/>
<path d="M605.635 373.743L605.51 378.727C605.51 379.12 605.635 379.382 605.887 379.645L609.784 382.661C610.538 383.186 610.287 384.366 609.407 384.629L604.755 386.071C604.378 386.203 604.127 386.465 604.001 386.727L602.493 391.449C602.241 392.367 601.11 392.498 600.607 391.711L597.967 387.514C597.716 387.252 597.464 386.989 597.087 386.989H592.31C591.43 386.989 590.927 385.94 591.43 385.153L594.322 381.219C594.573 380.956 594.573 380.563 594.447 380.169L592.939 375.448C592.687 374.53 593.442 373.743 594.322 374.005L598.847 375.71C599.224 375.841 599.601 375.841 599.853 375.579L603.75 372.694C604.63 372.169 605.635 372.694 605.635 373.743Z" fill="#FBBB16"/>
<path d="M1768.73 492.492L1768.6 497.495C1768.6 497.889 1768.73 498.153 1768.98 498.416L1772.88 501.444C1773.63 501.971 1773.38 503.155 1772.5 503.419L1767.85 504.867C1767.47 504.998 1767.22 505.262 1767.09 505.525L1765.59 510.264C1765.33 511.186 1764.2 511.317 1763.7 510.528L1761.06 506.315C1760.81 506.052 1760.56 505.788 1760.18 505.788H1755.4C1754.52 505.788 1754.02 504.735 1754.52 503.945L1757.41 499.996C1757.67 499.733 1757.67 499.338 1757.54 498.943L1756.03 494.203C1755.78 493.282 1756.53 492.492 1757.41 492.755L1761.94 494.467C1762.32 494.598 1762.69 494.598 1762.95 494.335L1766.84 491.439C1767.72 491.044 1768.73 491.57 1768.73 492.492Z" fill="#FBBB16"/>
<path d="M1517.88 239.651L1513.68 242.265C1513.42 242.396 1513.17 242.788 1513.17 243.18L1512.92 248.145C1512.92 249.06 1511.77 249.582 1511.14 248.929L1507.45 245.662C1507.19 245.401 1506.81 245.401 1506.43 245.401L1501.72 246.708C1500.83 246.969 1500.07 246.054 1500.45 245.27L1502.36 240.697C1502.49 240.305 1502.49 239.913 1502.23 239.651L1499.56 235.47C1499.05 234.686 1499.69 233.641 1500.58 233.771L1505.41 234.163C1505.79 234.163 1506.17 234.033 1506.3 233.771L1509.35 229.851C1509.86 229.198 1511.01 229.459 1511.26 230.243L1512.41 235.078C1512.53 235.47 1512.79 235.731 1513.04 235.862L1517.62 237.691C1518.51 237.953 1518.64 239.129 1517.88 239.651Z" fill="#FBBB16"/>
<path d="M1836.47 55.4539L1841.49 60.7374C1841.88 61.1239 1842.4 61.2528 1842.91 61.2528L1850.13 60.093C1851.42 59.8353 1852.45 61.2528 1851.8 62.5414L1848.32 68.9845C1848.07 69.5 1848.07 70.0155 1848.32 70.5309L1851.67 76.9741C1852.32 78.1338 1851.29 79.5513 1849.87 79.2936L1842.65 78.005C1842.14 77.8761 1841.62 78.1338 1841.24 78.3915L1836.08 83.5461C1835.18 84.4481 1833.5 83.9327 1833.25 82.6441L1832.34 75.4277C1832.22 74.9122 1831.96 74.3968 1831.44 74.1391L1824.87 70.7887C1823.71 70.1443 1823.71 68.4691 1824.87 67.8248L1831.44 64.7321C1831.96 64.4744 1832.22 64.0877 1832.34 63.5723L1833.5 56.356C1833.89 55.0673 1835.57 54.5519 1836.47 55.4539Z" fill="#FB7816"/>
<path d="M1531.48 444.51L1536.54 449.779C1536.87 450.218 1537.43 450.328 1537.98 450.218L1545.14 449.12C1546.46 448.901 1547.45 450.328 1546.79 451.535L1543.26 457.901C1543.04 458.34 1543.04 458.889 1543.26 459.438L1546.57 465.914C1547.23 467.121 1546.13 468.438 1544.81 468.219L1537.65 466.901C1537.09 466.792 1536.54 467.011 1536.21 467.341L1531.04 472.499C1530.04 473.487 1528.39 472.938 1528.28 471.511L1527.29 464.267C1527.18 463.718 1526.85 463.279 1526.41 463.06L1519.91 459.767C1518.7 459.109 1518.7 457.462 1519.91 456.804L1526.52 453.621C1526.96 453.401 1527.29 452.962 1527.4 452.413L1528.5 445.279C1528.94 444.071 1530.6 443.523 1531.48 444.51Z" fill="#FB7816"/>
<g clip-path="url(#clip1_504_3)">
<path d="M887.555 62.5591C896.146 53.9677 896.146 40.0382 887.555 31.4467C878.963 22.8553 865.034 22.8553 856.442 31.4467C847.851 40.0382 847.851 53.9677 856.442 62.5591C865.034 71.1506 878.963 71.1506 887.555 62.5591Z" fill="#7EA1F4"/>
</g>
<path d="M534.478 576.792C537.947 576.792 541.265 573.743 541.097 570.173C540.928 566.585 538.183 563.554 534.478 563.554C531.008 563.554 527.69 566.602 527.859 570.173C528.01 573.76 530.756 576.792 534.478 576.792Z" fill="white"/>
<path d="M364.979 34.9998C369.307 34.9998 369.324 28.2629 364.979 28.2629C360.65 28.2629 360.633 34.9998 364.979 34.9998Z" fill="white"/>
<path d="M94.9787 270.631C99.3071 270.631 99.324 263.895 94.9787 263.895C90.6503 263.895 90.6334 270.631 94.9787 270.631Z" fill="white"/>
<path d="M284.136 557.474C288.465 557.474 288.482 550.737 284.136 550.737C279.808 550.737 279.791 557.474 284.136 557.474Z" fill="white"/>
<path d="M571.53 211.318C575 211.318 578.318 208.269 578.149 204.699C577.981 201.111 575.236 198.08 571.53 198.08C568.061 198.08 564.743 201.128 564.911 204.699C565.063 208.286 567.808 211.318 571.53 211.318Z" fill="white"/>
<g opacity="0.12">
<path d="M487.625 78.2379C491.095 78.2379 494.412 75.1895 494.244 71.6189C494.076 68.0316 491.33 65 487.625 65C484.156 65 480.838 68.0484 481.006 71.6189C481.158 75.2063 483.903 78.2379 487.625 78.2379Z" fill="white"/>
</g>
<g opacity="0.12">
<path d="M690.031 321.684C694.36 321.684 694.377 314.947 690.031 314.947C685.703 314.947 685.686 321.684 690.031 321.684Z" fill="white"/>
</g>
<path d="M706.874 471.579C711.202 471.579 711.219 464.842 706.874 464.842C702.545 464.842 702.528 471.579 706.874 471.579Z" fill="white"/>
<g opacity="0.12">
<path d="M440.347 424.421C444.676 424.421 444.693 417.684 440.347 417.684C436.019 417.684 436.002 424.421 440.347 424.421Z" fill="white"/>
</g>
<path d="M36.2672 430.265C39.7367 430.265 43.0546 427.217 42.8861 423.646C42.7177 420.059 39.9725 417.027 36.2672 417.027C32.7977 417.027 29.4798 420.076 29.6482 423.646C29.7998 427.234 32.5451 430.265 36.2672 430.265Z" fill="white"/>
<path d="M92.1364 43.7366C96.4648 43.7366 96.4817 36.9998 92.1364 36.9998C87.808 36.9998 87.7912 43.7366 92.1364 43.7366Z" fill="white"/>
<g opacity="0.12">
<path d="M780.373 33.1073C783.842 33.1073 787.16 30.0588 786.992 26.4883C786.823 22.901 784.078 19.8694 780.373 19.8694C776.903 19.8694 773.585 22.9178 773.754 26.4883C773.905 30.0757 776.651 33.1073 780.373 33.1073Z" fill="white"/>
</g>
<path d="M80.3474 650C84.6758 650 84.6926 643.263 80.3474 643.263C76.0189 643.263 76.0021 650 80.3474 650Z" fill="white"/>
<path d="M1447.32 649.212C1443.85 649.212 1440.53 646.164 1440.7 642.594C1440.87 639.006 1443.61 635.975 1447.32 635.975C1450.79 635.975 1454.11 639.023 1453.94 642.594C1453.77 646.181 1451.02 649.212 1447.32 649.212Z" fill="white"/>
<path d="M1616.8 68.4207C1612.47 68.4207 1612.46 61.6838 1616.8 61.6838C1621.13 61.6838 1621.15 68.4207 1616.8 68.4207Z" fill="white"/>
<path d="M1840.8 357.052C1836.47 357.052 1836.46 350.315 1840.8 350.315C1845.13 350.315 1845.15 357.052 1840.8 357.052Z" fill="white"/>
<path d="M1690.91 645.105C1686.58 645.105 1686.56 638.368 1690.91 638.368C1695.24 638.368 1695.25 645.105 1690.91 645.105Z" fill="white"/>
<path d="M1379.27 279.739C1375.8 279.739 1372.48 276.69 1372.65 273.12C1372.82 269.532 1375.56 266.501 1379.27 266.501C1382.74 266.501 1386.05 269.549 1385.89 273.12C1385.72 276.707 1382.97 279.739 1379.27 279.739Z" fill="white"/>
<g opacity="0.12">
<path d="M1614.06 324.16C1610.59 324.16 1607.27 321.111 1607.44 317.541C1607.61 313.953 1610.35 310.922 1614.06 310.922C1617.53 310.922 1620.84 313.97 1620.68 317.541C1620.51 321.128 1617.76 324.16 1614.06 324.16Z" fill="white"/>
</g>
<g opacity="0.12">
<path d="M1302.75 382.105C1298.42 382.105 1298.4 375.368 1302.75 375.368C1307.08 375.368 1307.09 382.105 1302.75 382.105Z" fill="white"/>
</g>
<path d="M1274.91 544C1270.58 544 1270.56 537.263 1274.91 537.263C1279.24 537.263 1279.25 544 1274.91 544Z" fill="white"/>
<g opacity="0.12">
<path d="M1554.43 507.842C1550.1 507.842 1550.09 501.105 1554.43 501.105C1558.76 501.105 1558.78 507.842 1554.43 507.842Z" fill="white"/>
</g>
<path d="M1889.64 79.1575C1885.32 79.1575 1885.3 72.4207 1889.64 72.4207C1893.97 72.4207 1893.99 79.1575 1889.64 79.1575Z" fill="white"/>
<g opacity="0.12">
<path d="M1201.42 103.528C1197.96 103.528 1194.64 100.479 1194.81 96.909C1194.97 93.3216 1197.72 90.29 1201.42 90.29C1204.89 90.29 1208.21 93.3384 1208.04 96.909C1207.88 100.496 1205.13 103.528 1201.42 103.528Z" fill="white"/>
</g>
<path d="M1695.04 75.8424C1698.91 78.1751 1702.96 81.9812 1702.07 86.4011C1701.21 90.6983 1696.33 92.6474 1692.3 94.3355C1683.44 98.0342 1675.49 103.881 1669.34 111.248C1667.76 113.151 1666.22 115.33 1666.19 117.801C1666.14 122.62 1671.47 125.444 1675.98 127.147C1684.45 130.355 1692.94 133.547 1701.41 136.755C1709.31 139.732 1718.34 143.983 1719.95 152.271C1721.35 159.392 1716.21 166.405 1709.88 169.95C1702.3 174.217 1692.19 174.585 1685.25 169.336C1678.31 164.088 1676.27 152.777 1682.15 146.377C1678.48 144.904 1674.68 143.385 1670.73 143.615C1666.79 143.845 1662.68 146.331 1661.94 150.214C1660.53 157.519 1670.46 161.463 1673.83 168.093C1677.7 175.705 1671.19 185.359 1662.98 187.676C1654.77 189.994 1646.04 187.047 1638.3 183.425C1631.14 180.064 1624.12 175.982 1618.87 170.058C1606.34 155.923 1606.41 134.959 1607.18 116.067L1604.13 113.182C1597.85 123.48 1593.54 135.205 1591.82 147.927C1586.89 184.453 1604.62 218.785 1634.19 236.817C1636.05 228.269 1640.28 220.058 1647.67 215.546C1656.14 210.359 1669.12 212.185 1673.62 221.041C1675.41 224.57 1675.7 228.683 1677.16 232.367C1680.14 239.948 1688.37 245.105 1696.48 244.506C1704.6 243.892 1711.97 237.554 1713.78 229.62C1715.48 222.13 1712.75 213.582 1716.73 206.998C1719.4 202.563 1724.45 200.245 1729.19 198.174C1739.01 193.907 1748.82 189.641 1758.64 185.359C1761.49 184.116 1765.18 183.057 1767.4 185.113C1768.63 180.877 1769.57 176.504 1770.18 172.007C1776.83 122.758 1742.3 77.4385 1693.03 70.7932C1689.39 70.3021 1685.79 70.0565 1682.21 70.0105C1686.69 71.4531 1691.01 73.4022 1695.04 75.8424Z" fill="#4195C2"/>
<path d="M1618.89 170.042C1624.14 175.966 1631.15 180.049 1638.32 183.41C1646.04 187.031 1654.79 189.963 1663 187.661C1671.21 185.343 1677.72 175.69 1673.85 168.078C1670.49 161.448 1660.54 157.504 1661.95 150.199C1662.71 146.316 1666.82 143.83 1670.75 143.599C1674.69 143.369 1678.51 144.873 1682.17 146.362C1676.29 152.762 1678.33 164.072 1685.27 169.321C1692.2 174.57 1702.32 174.186 1709.9 169.935C1716.22 166.374 1721.35 159.361 1719.97 152.255C1718.34 143.968 1709.31 139.717 1701.43 136.739C1692.95 133.532 1684.47 130.34 1676 127.132C1671.48 125.428 1666.16 122.605 1666.21 117.786C1666.22 115.33 1667.76 113.151 1669.34 111.263C1675.49 103.897 1683.44 98.0494 1692.29 94.3508C1696.35 92.6626 1701.21 90.7135 1702.07 86.4163C1702.96 81.981 1698.91 78.1903 1695.04 75.8576C1691.01 73.4174 1686.71 71.4683 1682.23 70.0104C1649.85 69.5193 1620.38 86.5238 1604.14 113.182L1607.2 116.067C1606.43 134.944 1606.35 155.908 1618.89 170.042Z" fill="#6CC385"/>
<path d="M1758.66 185.343C1748.83 189.61 1739.03 193.876 1729.2 198.158C1724.46 200.215 1719.41 202.547 1716.74 206.983C1712.77 213.567 1715.5 222.115 1713.8 229.604C1711.99 237.539 1704.62 243.877 1696.5 244.491C1688.38 245.105 1680.16 239.933 1677.18 232.351C1675.72 228.668 1675.43 224.555 1673.63 221.025C1669.14 212.17 1656.15 210.344 1647.68 215.531C1640.31 220.043 1636.06 228.269 1634.21 236.802C1644.52 243.094 1656.24 247.407 1668.98 249.126C1713.73 255.172 1755.23 227.195 1767.43 185.082C1765.19 183.041 1761.51 184.116 1758.66 185.343Z" fill="#6CC385"/>
<path d="M960.105 2213.21C1425.19 2213.21 1802.21 1836.19 1802.21 1371.11C1802.21 906.025 1425.19 529.002 960.105 529.002C495.023 529.002 118 906.025 118 1371.11C118 1836.19 495.023 2213.21 960.105 2213.21Z" fill="url(#paint1_linear_504_3)"/>
<mask id="mask0_504_3" style="mask-type:alpha" maskUnits="userSpaceOnUse" x="118" y="529" width="1685" height="1685">
<path d="M960.105 2213.21C1425.19 2213.21 1802.21 1836.19 1802.21 1371.11C1802.21 906.025 1425.19 529.002 960.105 529.002C495.023 529.002 118 906.025 118 1371.11C118 1836.19 495.023 2213.21 960.105 2213.21Z" fill="white"/>
</mask>
<g mask="url(#mask0_504_3)">
<path opacity="0.2" d="M618.593 -247.125C772.421 -230.388 913.929 -146.375 1019.83 -33.5579C1125.75 79.2591 1198.71 219.398 1253.23 364.223C1300.11 488.753 1334.6 622.02 1318.17 754.072C1288.68 991.349 1104.99 1176.27 1001.88 1392.01C896.077 1613.41 876.756 1870.37 922.044 2111.55C967.332 2352.7 1074.39 2579.13 1209.63 2783.87C1284.19 2896.75 1377.46 3010.68 1508.53 3044.16C1549.49 3023.76 1557.07 2963.67 1533.18 2924.65C1509.29 2885.61 1464.06 2864.87 1419.56 2854.16C1289.61 2822.88 1151.25 2859.01 1020.27 2832.41C828.773 2793.51 684.075 2621.83 630.744 2433.85C577.412 2245.87 601.544 2044.4 647.185 1854.4C698.795 1639.53 777.431 1431.17 880.637 1235.78C962.773 1080.3 1062.21 927.941 1088.39 754.058C1113.36 588.276 1066.78 415.297 972.977 276.357C879.155 137.403 740.47 31.6569 586.712 -35.1809" fill="#6277C0"/>
</g>
<mask id="mask1_504_3" style="mask-type:alpha" maskUnits="userSpaceOnUse" x="118" y="529" width="1685" height="1685">
<path d="M960.105 2213.21C1425.19 2213.21 1802.21 1836.19 1802.21 1371.11C1802.21 906.025 1425.19 529.002 960.105 529.002C495.023 529.002 118 906.025 118 1371.11C118 1836.19 495.023 2213.21 960.105 2213.21Z" fill="white"/>
</mask>
<g mask="url(#mask1_504_3)">
<path opacity="0.2" d="M605.256 77.7063C665.969 118.774 698.71 189.62 723.492 258.589C852.835 618.435 828.307 1055.7 573.234 1340.58C482.08 1442.38 344.707 1524.61 213.402 1486.79C88.9989 1450.96 16.5442 1321.5 -19.9653 1197.3C-101.777 919.035 -65.9446 608.217 77.0031 355.868" fill="#3C58BC"/>
</g>
<mask id="mask2_504_3" style="mask-type:alpha" maskUnits="userSpaceOnUse" x="118" y="529" width="1685" height="1685">
<path d="M960.105 2213.21C1425.19 2213.21 1802.21 1836.19 1802.21 1371.11C1802.21 906.025 1425.19 529.002 960.105 529.002C495.023 529.002 118 906.025 118 1371.11C118 1836.19 495.023 2213.21 960.105 2213.21Z" fill="white"/>
</mask>
<g mask="url(#mask2_504_3)">
<path opacity="0.2" d="M1720.88 207.021C1822.84 325.666 1875.58 485.365 1864.33 641.41C1853.09 797.454 1777.99 947.938 1660.08 1050.73C1560.28 1137.75 1434 1189.91 1333.78 1276.47C1200.52 1391.57 1122.91 1560.13 1084.49 1731.98C1046.77 1900.7 1044.22 2081.51 1107.16 2242.52C1170.12 2403.54 1305.47 2541.39 1474.05 2579.78C1642.61 2618.16 1838.44 2540.12 1911.91 2383.62C1925.05 2355.65 1932.7 2318.46 1910.48 2296.97C1898.18 2285.07 1880.01 2281.8 1862.94 2280.73C1768.78 2274.84 1679.03 2318.31 1585.69 2332.08C1445.79 2352.72 1286.02 2291.07 1230.49 2161.02C1195.52 2079.11 1205.85 1985.62 1220.91 1897.84C1240.69 1782.49 1275.27 1656.82 1373.47 1593.14C1442.48 1548.39 1528.93 1543.9 1610.63 1534.39C1741.72 1519.11 1877.4 1483.98 1972.85 1392.84C2042.38 1326.44 2084.44 1235.47 2107.38 1142.11C2157.23 939.399 2119.99 716.8 2006.89 541.336" fill="#6FC0FC"/>
</g>
<mask id="mask3_504_3" style="mask-type:alpha" maskUnits="userSpaceOnUse" x="118" y="529" width="1685" height="1685">
<path d="M960.105 2213.21C1425.19 2213.21 1802.21 1836.19 1802.21 1371.11C1802.21 906.025 1425.19 529.002 960.105 529.002C495.023 529.002 118 906.025 118 1371.11C118 1836.19 495.023 2213.21 960.105 2213.21Z" fill="white"/>
</mask>
<g mask="url(#mask3_504_3)">
<path opacity="0.2" d="M2232.01 738.562C1858.93 629.175 1446.99 654.154 1092.16 813.049C737.307 971.944 443.17 1264.44 287.464 1620.69C108.925 2029.17 114.753 2491.16 123.644 2936.87C77.8061 2879.81 61.6189 2805.18 46.8288 2733.51C-77.1231 2132.87 -196.728 1500.14 -10.4406 915.832C28.4822 793.757 80.9391 674.858 156.922 571.694C334.911 329.999 630.714 194.278 928.647 157.824C1226.58 121.357 1528.51 174.492 1818.75 251.011C2055 313.29 2292.98 394.325 2482.13 548.958" fill="#3C58BC"/>
</g>
<path d="M1008.11 541.941L908.857 550.48C892.032 551.929 877.076 539.348 875.628 522.522L863.08 376.687C861.632 359.861 874.213 344.906 891.038 343.457L990.289 334.918C1007.11 333.47 1022.07 346.051 1023.52 362.876L1036.07 508.712C1037.53 525.554 1024.93 540.493 1008.11 541.941Z" fill="#697477"/>
<path opacity="0.21" d="M874.533 362.068C874.533 362.068 907.207 365.284 945.017 362.927C982.828 360.569 1023.03 343.44 1023.03 343.44C1023.03 343.44 1078.36 228.745 938.988 239.322C799.619 249.899 874.533 362.068 874.533 362.068Z" fill="#AEC4CE"/>
<path d="M1021.68 343.609C1021.68 343.609 982.373 360.047 945.724 364.055C909.076 368.064 880.209 362.236 880.209 362.236C880.209 362.236 876.453 474.438 882.701 510.548C888.95 546.657 899.661 586.051 899.661 586.051C899.661 586.051 882.449 596.51 885.884 609.259C889.32 622.009 922.887 607.373 932.503 605.571C952.933 601.731 952.293 590.127 950.524 581.116C948.756 572.106 954.314 547.904 954.314 547.904C954.314 547.904 978.465 546.135 989.059 545.461C989.059 545.461 1002.73 563.819 1008.61 584.485C1011.49 594.624 1063.06 600.603 1070.19 593.866C1077.31 587.129 1075.39 576.165 1061.75 571.819C1061.75 571.819 1059.56 562.489 1057.64 541.318C1056.8 531.92 1044.01 509.285 1043.19 494.666C1040.7 450.034 1043.68 408.72 1040.19 395.516C1040.19 395.516 1085.65 388.661 1096.81 368.148C1108.08 347.466 1114.73 309.369 1090.7 300.476C1066.67 291.584 1054.54 331.179 1049.88 335.878C1044.07 341.756 1021.68 343.609 1021.68 343.609Z" fill="#C9D5D9"/>
<path d="M1096.83 368.147C1108.18 347.516 1114.75 309.368 1090.72 300.476C1072.7 293.789 1061.36 314.404 1054.86 327.12C1052.69 331.347 1055.37 348.257 1061.77 355.364C1071.3 365.941 1092.99 375.12 1096.83 368.147Z" fill="#808E93"/>
<path d="M950.811 583.777C952.444 598.093 948.167 603.179 920.31 609.242C910.76 611.314 886.962 621.066 885.564 607.71C884.2 594.573 899.527 586.219 899.527 586.219C899.527 586.219 916.992 586.977 922.364 586.623C931.055 586.051 950.626 582.16 950.811 583.777Z" fill="#808E93"/>
<path d="M1070.19 593.849C1063.06 600.585 1011.49 594.606 1008.61 584.468C1006.76 577.966 1015.27 574.868 1021.31 573.588C1041.98 569.242 1061.75 571.802 1061.75 571.802C1075.39 576.164 1077.31 587.129 1070.19 593.849Z" fill="#808E93"/>
<path d="M1047.72 364.863C1042.82 351.356 1046.76 338.017 1046.76 338.017C1048.55 337.225 1050.55 335.019 1050.55 335.019C1050.55 335.019 1047.47 351.726 1053.33 362.32C1064.29 382.076 1079.5 383.187 1079.5 383.187L1069.35 388.055C1063.64 391.137 1052.62 378.387 1047.72 364.863Z" fill="#808E93"/>
<path d="M882.954 514.051C882.954 514.051 916.217 513.444 935.35 530.994C954.483 548.543 954.466 548.543 954.466 548.543C954.466 548.543 934.272 515.6 917.278 509.672C900.285 503.76 880.798 502.059 880.798 502.059L882.954 514.051Z" fill="#B27C3B"/>
<path d="M989.144 546.084C989.144 546.084 1011.27 534.918 1024.06 518.396C1036.84 501.857 1043.56 494.531 1043.56 494.531C1043.56 494.531 1046.31 497.764 1044.37 501.571C1042.43 505.377 1033.15 519.356 1018.89 531.145C1004.62 542.935 989.396 548.375 989.396 548.375L989.144 546.084Z" fill="#B27C3B"/>
<path d="M887.4 365.369C887.4 365.369 879.4 396.324 879.097 436.762C878.777 477.15 901.767 470.16 900.183 441.933C898.785 417.057 904.832 409.781 901.699 387.668C899.021 368.821 887.4 365.369 887.4 365.369Z" fill="url(#paint2_linear_504_3)"/>
<path d="M881.32 364.796C881.32 364.796 821.666 402.051 813.312 441.276C804.958 480.501 841.91 503.053 841.91 503.053C841.91 503.053 864.765 517.52 871.232 492.83C877.699 468.139 867.341 451.398 876.891 428.392C886.44 405.386 902.744 396.51 893.699 379.752C884.655 362.994 881.32 364.796 881.32 364.796Z" fill="#C9D5D9"/>
<path d="M812.15 455.187C809.539 482.32 841.91 503.036 841.91 503.036C841.91 503.036 864.765 517.503 871.232 492.813C874.213 481.427 873.623 471.726 873.051 462.328C872.377 451.364 814.76 428.021 812.15 455.187Z" fill="#808E93"/>
<path d="M854.087 420.813C867.493 427.448 873.623 439.389 873.623 439.389L872.95 444.206C872.95 444.206 863.653 430.16 851.594 426.286C829.093 419.044 818.28 427.465 818.28 427.465C818.28 427.465 818.651 424.855 822.019 419.482C825.388 414.109 840.68 414.177 854.087 420.813Z" fill="#808E93"/>
<path d="M873.32 364.611C878.726 361.68 888.444 362.303 895.198 371.583C903.468 382.935 902.103 394.539 898.499 402.455C894.895 410.371 884.621 413.722 884.621 413.722C884.621 413.722 900.2 397.773 894.895 386.64C888.225 372.628 879.973 370.236 873.64 369.882C867.324 369.545 871.889 365.385 873.32 364.611Z" fill="#B27C3B"/>
<path d="M1040.76 398.362C1040.76 398.362 1037.85 363.314 1032.11 349.015C1026.36 334.716 1028.39 345.764 1028.39 345.764L1040.76 398.362Z" fill="#B27C3B"/>
<path d="M889.657 546.169C889.657 546.169 893.396 542.766 909.834 543.507C932.756 544.552 952.175 563.634 952.175 563.634C952.175 563.634 925.952 552.552 912.748 551.996C899.594 551.44 891.914 556.425 891.914 556.425L889.657 546.169Z" fill="#808E93"/>
<path d="M997.346 558.463C997.346 558.463 1026.04 544.602 1040.12 538.724C1054.2 532.846 1057.64 541.301 1057.64 541.301L1057.29 546.758C1057.29 546.758 1052.25 541.436 1043.19 543.945C1034.13 546.472 997.346 558.463 997.346 558.463Z" fill="#808E93"/>
<path d="M1009.32 384.687C1009.32 384.687 1022.31 381.52 1024.85 403.819C1027.39 426.118 1031.86 455.255 1028.2 460.746C1024.55 466.236 946.516 484.207 935.838 479.592C925.16 474.977 921.927 465.023 921.927 465.023C921.927 465.023 958.744 463.289 991.384 455.642C1024.02 448.013 1009.32 384.687 1009.32 384.687Z" fill="url(#paint3_radial_504_3)"/>
<path d="M1026.47 454.665C1026.47 454.665 968.091 473.461 938.937 472.653C931.392 472.451 925.817 470.935 923.695 467.432C913.388 450.421 925.868 391.962 925.868 391.962C925.868 391.962 982.609 389.385 1003.63 384.03C1007.91 382.935 1011.38 385.209 1014.2 389.52C1025.3 406.43 1026.47 454.665 1026.47 454.665Z" fill="#DDE5E8"/>
<path d="M1026.47 454.665C1026.47 454.665 957.632 477.082 931.645 471.861C930.095 463.238 927.754 447.524 927.923 431.44C928.192 407.962 930.668 397.335 930.668 397.335L1014.2 389.52C1025.3 406.429 1026.47 454.665 1026.47 454.665Z" fill="#C9D5D9"/>
<path d="M945.202 422.043L947.88 421.74L948.756 429.403C948.84 430.11 948.739 430.767 948.47 431.356C948.2 431.946 947.796 432.434 947.24 432.805C946.685 433.175 946.045 433.411 945.32 433.495C944.108 433.63 943.131 433.445 942.39 432.906C941.649 432.367 941.211 431.542 941.076 430.413L943.771 430.11C943.821 430.615 943.956 430.986 944.158 431.188C944.36 431.39 944.664 431.474 945.085 431.424C945.455 431.373 945.725 431.205 945.893 430.902C946.061 430.598 946.129 430.194 946.061 429.706L945.202 422.043ZM955.325 429.184C955.274 428.796 955.106 428.493 954.802 428.308C954.499 428.123 953.977 427.954 953.253 427.786C952.529 427.634 951.922 427.466 951.468 427.297C949.935 426.758 949.11 425.866 948.958 424.62C948.891 423.996 949.009 423.441 949.312 422.918C949.615 422.396 950.087 421.975 950.71 421.638C951.333 421.302 952.057 421.083 952.882 420.998C953.691 420.914 954.415 420.965 955.089 421.184C955.762 421.403 956.301 421.756 956.722 422.245C957.144 422.733 957.379 423.323 957.464 423.996L954.786 424.3C954.735 423.845 954.55 423.508 954.247 423.289C953.944 423.07 953.556 422.986 953.068 423.053C952.596 423.104 952.226 423.255 951.973 423.508C951.72 423.744 951.619 424.03 951.653 424.367C951.687 424.653 951.872 424.889 952.209 425.091C952.546 425.293 953.101 425.462 953.91 425.63C954.701 425.798 955.375 425.984 955.897 426.22C957.177 426.775 957.901 427.668 958.036 428.881C958.154 429.857 957.868 430.666 957.194 431.306C956.52 431.946 955.544 432.333 954.264 432.485C953.371 432.586 952.529 432.518 951.754 432.283C950.979 432.047 950.373 431.66 949.952 431.137C949.514 430.615 949.261 429.992 949.177 429.251L951.872 428.948C951.939 429.537 952.141 429.975 952.495 430.211C952.832 430.464 953.354 430.548 954.045 430.464C954.499 430.413 954.836 430.278 955.072 430.06C955.257 429.807 955.358 429.521 955.325 429.184Z" fill="#0070DF"/>
<path d="M968.529 430.666L965.851 430.969L965.312 426.304L961.354 426.758L961.893 431.424L959.198 431.727L957.918 420.577L960.613 420.274L961.118 424.704L965.076 424.249L964.571 419.819L967.249 419.516L968.529 430.666ZM973.514 430.245C972.234 430.396 971.173 430.127 970.297 429.47C969.422 428.813 968.916 427.853 968.782 426.64L968.765 426.421C968.664 425.579 968.731 424.805 968.984 424.131C969.236 423.457 969.624 422.901 970.18 422.464C970.735 422.042 971.443 421.773 972.268 421.689C973.43 421.554 974.39 421.807 975.148 422.447C975.906 423.087 976.361 424.064 976.512 425.344L976.63 426.354L971.493 426.944C971.645 427.398 971.881 427.735 972.217 427.971C972.554 428.207 972.975 428.291 973.481 428.224C974.306 428.122 974.895 427.769 975.3 427.146L976.647 428.409C976.377 428.897 975.956 429.301 975.401 429.621C974.811 429.958 974.188 430.177 973.514 430.245ZM972.47 423.676C971.712 423.76 971.325 424.316 971.291 425.327L973.902 425.024L973.885 424.821C973.851 424.4 973.7 424.097 973.464 423.895C973.211 423.71 972.874 423.626 972.47 423.676ZM982.053 423.087L981.194 423.12C980.386 423.221 979.881 423.525 979.712 424.064L980.318 429.318L977.742 429.621L976.798 421.335L979.224 421.066L979.426 422.11C979.763 421.251 980.318 420.779 981.093 420.678C981.363 420.645 981.615 420.645 981.817 420.695L982.053 423.087ZM982.39 424.805C982.289 423.979 982.373 423.221 982.626 422.531C982.878 421.84 983.283 421.301 983.838 420.88C984.394 420.459 985.085 420.207 985.91 420.122C987.156 419.988 988.167 420.257 988.975 420.948C989.767 421.638 990.255 422.632 990.407 423.962L990.424 424.064C990.575 425.36 990.323 426.421 989.7 427.264C989.076 428.106 988.133 428.594 986.921 428.729C985.742 428.864 984.748 428.611 983.956 427.988C983.165 427.365 982.66 426.455 982.474 425.242L982.39 424.805ZM984.984 424.67C985.068 425.428 985.253 425.984 985.54 426.32C985.826 426.657 986.196 426.792 986.668 426.725C987.594 426.624 987.982 425.849 987.83 424.434L987.796 424.181C987.628 422.699 987.072 422.009 986.112 422.11C985.253 422.211 984.849 422.901 984.933 424.198L984.984 424.67ZM995.712 427.701C994.432 427.853 993.371 427.584 992.495 426.927C991.62 426.253 991.114 425.31 990.98 424.097L990.963 423.878C990.862 423.036 990.929 422.261 991.182 421.588C991.434 420.914 991.822 420.358 992.377 419.92C992.933 419.499 993.641 419.23 994.466 419.146C995.628 419.011 996.588 419.264 997.346 419.904C998.104 420.544 998.558 421.52 998.71 422.8L998.828 423.811L993.691 424.4C993.843 424.855 994.078 425.192 994.415 425.428C994.752 425.664 995.173 425.748 995.678 425.68C996.504 425.579 997.093 425.226 997.497 424.602L998.845 425.866C998.575 426.354 998.154 426.758 997.598 427.078C997.009 427.415 996.386 427.634 995.712 427.701ZM994.668 421.133C993.91 421.217 993.523 421.773 993.489 422.784L996.1 422.48L996.083 422.278C996.049 421.857 995.897 421.554 995.662 421.352C995.409 421.167 995.072 421.082 994.668 421.133ZM1003.98 424.249C1003.96 424.03 1003.83 423.861 1003.58 423.76C1003.32 423.659 1002.89 423.558 1002.21 423.491C1001.56 423.424 1001 423.289 1000.56 423.104C1000.12 422.918 999.771 422.666 999.502 422.362C999.249 422.059 999.097 421.689 999.047 421.251C998.963 420.493 999.198 419.836 999.771 419.264C1000.34 418.708 1001.14 418.354 1002.15 418.236C1003.24 418.118 1004.15 418.253 1004.87 418.674C1005.6 419.095 1006 419.701 1006.09 420.51L1003.49 420.813C1003.41 420.156 1003.04 419.853 1002.33 419.937C1002.06 419.971 1001.84 420.072 1001.67 420.24C1001.51 420.409 1001.44 420.611 1001.47 420.83C1001.51 421.049 1001.62 421.234 1001.88 421.352C1002.11 421.47 1002.48 421.554 1002.99 421.588C1003.49 421.621 1003.93 421.689 1004.32 421.773C1005.62 422.059 1006.32 422.75 1006.46 423.861C1006.54 424.619 1006.27 425.276 1005.67 425.815C1005.04 426.371 1004.2 426.708 1003.14 426.826C1002.43 426.91 1001.78 426.842 1001.19 426.657C1000.6 426.472 1000.12 426.169 999.754 425.765C999.401 425.36 999.182 424.922 999.131 424.434L1001.54 424.165C1001.59 424.552 1001.76 424.821 1002.03 424.956C1002.3 425.108 1002.62 425.158 1003 425.108C1003.36 425.074 1003.61 424.973 1003.78 424.805C1003.95 424.67 1004.02 424.468 1003.98 424.249Z" fill="#0E204D"/>
<path d="M896.748 294.076C887.232 291.718 883.409 277.066 890.887 270.733C895.114 267.162 900.352 268.897 904.697 271.44C911.771 275.583 914.617 281.259 917.194 289.259C909.581 291.095 905.405 292.122 896.748 294.076Z" fill="#77553E"/>
<path d="M897.977 288.737C893.396 287.609 890.28 278.581 893.885 275.533C895.922 273.815 898.718 273.529 900.824 274.758C904.226 276.746 906.988 280.282 906.988 280.282C903.316 281.158 902.154 287.794 897.977 288.737Z" fill="#A68069"/>
<path d="M967.35 274.522C965.969 264.821 978.129 255.794 986.802 260.358C991.703 262.935 991.906 266.758 991.164 271.743C989.969 279.861 985.927 286.312 979.476 291.684C974.929 285.318 972.419 281.815 967.35 274.522Z" fill="#77553E"/>
<path d="M972.2 270.75C972.2 270.75 977.539 260.897 983.501 263.44C985.96 264.484 986.432 266.371 986.095 268.762C985.522 272.67 983.905 275.263 981.127 279.204C978.92 276.139 975.417 273.31 972.2 270.75Z" fill="#A68069"/>
<path d="M942.103 267.162C928.091 268.762 908.857 270.126 895.889 292.375C887.805 306.236 887.889 348.206 885.329 362.825C884.066 370.034 972.908 370.051 1013.6 347.651C1013.6 347.651 993.792 292.611 987.863 284.863C979.527 274.017 970.449 263.912 942.103 267.162Z" fill="#77553E"/>
<path d="M922.617 302.194C922.819 303.676 920.529 302.446 919.064 302.649C917.582 302.851 915.88 304.619 915.662 303.137C915.459 301.655 917.211 300.038 918.693 299.836C920.175 299.634 922.415 300.712 922.617 302.194Z" fill="#423B36"/>
<path d="M962.651 297.596C962.853 299.078 960.563 297.849 959.097 298.051C957.632 298.253 955.914 300.021 955.695 298.539C955.493 297.057 957.245 295.44 958.727 295.238C960.209 295.036 962.449 296.114 962.651 297.596Z" fill="#423B36"/>
<path opacity="0.18" d="M920.293 258.472C920.293 258.472 898.718 262.126 889.859 282.27C881 302.413 884.402 316.947 884.402 316.947L901.851 319.507C901.851 319.507 898.196 298.169 901.312 285.621C905.438 269.082 920.293 258.472 920.293 258.472Z" fill="white"/>
<path opacity="0.18" d="M885.228 322.202L902.339 325.47L903.4 334.143L887.451 332.392L885.228 322.202Z" fill="white"/>
<path d="M874.297 357.79C874.297 357.79 870.188 357.857 870.592 362.236C870.979 366.615 870.979 366.615 870.979 366.615C870.979 366.615 924.335 371.028 950.525 367.71C976.714 364.392 1015.64 356.072 1024.73 348.257C1033.83 340.442 1024.48 337.748 1024.48 337.748C1024.48 337.748 1007.87 351.861 952.613 358.261C922.954 361.714 874.297 357.79 874.297 357.79Z" fill="#B27C3B"/>
<path d="M940.015 335.12C940.015 335.12 947.981 336.956 960.007 335.895C972.032 334.834 975.299 323.566 976.697 323.263C978.095 322.96 982.609 317.284 980.706 310.918C978.786 304.552 945.994 300.425 945.994 300.425L940.015 335.12Z" fill="url(#paint4_linear_504_3)"/>
<path d="M936.697 301.2C943.905 299.297 952.579 299.937 957.8 309.672C961.371 316.324 959.434 324.291 953.034 328.468C949.497 330.775 948.924 335.137 942.794 335.272C935.383 335.423 933.649 332.004 930.499 330.118C925.278 327.002 923.914 321.63 923.779 318.16C923.341 306.472 932.655 302.261 936.697 301.2Z" fill="#A68069"/>
<path d="M932.958 315.803C934.188 313.849 936.63 313.259 938.836 312.939C941.143 312.619 943.636 312.013 945.96 311.963C949.059 311.895 950.373 313.478 950.491 316.56C950.592 319.053 950.104 322.236 947.661 323.163C944.68 324.291 939.358 324.746 936.36 324.207C932.638 323.55 930.449 319.811 932.958 315.803Z" fill="#423B36"/>
<path d="M934.676 329.023C934.676 329.023 937.523 333.907 942.12 333.806C946.718 333.705 951.67 326.48 951.67 326.48C951.67 326.48 946.415 329.107 941.733 329.293C938.449 329.411 934.676 329.023 934.676 329.023Z" fill="url(#paint5_linear_504_3)"/>
<path d="M627.148 126.898C627.148 143.409 613.762 156.795 597.25 156.795C580.739 156.795 567.353 143.409 567.353 126.898C567.353 110.386 580.739 97 597.25 97C613.762 97 627.148 110.386 627.148 126.898Z" fill="#CA57A2" fill-opacity="0.8"/>
<path d="M568.296 135.873C560.382 134.116 558.885 144.294 563.909 148.764C572.283 156.206 590.563 148.964 599.338 145.697C610.837 141.404 621.982 134.375 628.316 123.548C632.043 117.191 633.269 104.607 622.702 104.82C621.923 104.831 621.923 106.034 622.702 106.023C629.955 110.846 631.701 116.13 627.938 121.885C627.16 123.336 626.264 124.692 625.238 125.966C623.539 128.29 621.711 130.389 619.612 132.358C615.189 136.486 610.035 139.718 604.551 142.254C599.373 144.648 593.901 146.405 588.37 147.785C585.987 148.375 583.581 148.905 581.163 149.342C578.64 149.849 576.104 150.203 573.533 150.415C564.392 151.076 562.6 146.452 568.178 136.545C568.579 136.545 568.674 135.956 568.296 135.873Z" fill="white"/>
<path d="M286.376 524.712C363.696 524.712 426.376 462.032 426.376 384.712C426.376 307.392 363.696 244.712 286.376 244.712C209.057 244.712 146.376 307.392 146.376 384.712C146.376 462.032 209.057 524.712 286.376 524.712Z" fill="url(#paint6_linear_504_3)"/>
<mask id="mask4_504_3" style="mask-type:alpha" maskUnits="userSpaceOnUse" x="146" y="244" width="281" height="281">
<path d="M286.376 524.712C363.696 524.712 426.376 462.032 426.376 384.712C426.376 307.392 363.696 244.712 286.376 244.712C209.057 244.712 146.376 307.392 146.376 384.712C146.376 462.032 209.057 524.712 286.376 524.712Z" fill="white"/>
</mask>
<g mask="url(#mask4_504_3)">
<path opacity="0.2" d="M17.4604 442.069C20.1842 416.484 34.1024 392.93 52.8226 375.281C71.5428 357.631 94.8131 345.445 118.871 336.329C139.559 328.488 161.696 322.71 183.659 325.387C223.115 330.204 253.927 360.67 289.824 377.737C326.666 395.245 369.397 398.362 409.483 390.742C449.568 383.122 487.166 365.252 521.158 342.69C539.894 330.252 558.803 314.712 564.33 292.906C560.929 286.104 550.931 284.86 544.444 288.844C537.958 292.827 534.525 300.353 532.762 307.753C527.613 329.37 533.659 352.357 529.298 374.147C522.906 405.998 494.408 430.119 463.171 439.046C431.934 447.973 398.43 444.037 366.831 436.527C331.091 428.025 296.421 415.02 263.893 397.937C238.009 384.334 212.645 367.865 183.722 363.567C156.154 359.473 127.404 367.283 104.339 382.933C81.2729 398.583 63.7492 421.68 52.6809 447.265" fill="#3C58BC"/>
</g>
<mask id="mask5_504_3" style="mask-type:alpha" maskUnits="userSpaceOnUse" x="146" y="244" width="281" height="281">
<path d="M286.376 524.712C363.696 524.712 426.376 462.032 426.376 384.712C426.376 307.392 363.696 244.712 286.376 244.712C209.057 244.712 146.376 307.392 146.376 384.712C146.376 462.032 209.057 524.712 286.376 524.712Z" fill="white"/>
</mask>
<g mask="url(#mask5_504_3)">
<path opacity="0.2" d="M71.4639 444.178C78.2655 434.07 90.0424 428.607 101.489 424.45C161.27 402.818 233.979 406.738 281.432 449.043C298.389 464.158 312.118 486.972 305.868 508.809C299.964 529.498 278.457 541.605 257.816 547.714C211.59 561.412 159.901 555.571 117.894 531.891" fill="url(#paint7_linear_504_3)"/>
</g>
<mask id="mask6_504_3" style="mask-type:alpha" maskUnits="userSpaceOnUse" x="146" y="244" width="281" height="281">
<path d="M286.376 524.712C363.696 524.712 426.376 462.032 426.376 384.712C426.376 307.392 363.696 244.712 286.376 244.712C209.057 244.712 146.376 307.392 146.376 384.712C146.376 462.032 209.057 524.712 286.376 524.712Z" fill="white"/>
</mask>
<g mask="url(#mask6_504_3)">
<path opacity="0.2" d="M92.5615 258.646C112.258 241.657 138.787 232.825 164.734 234.635C190.681 236.446 215.731 248.884 232.861 268.439C247.361 285.002 256.084 305.974 270.506 322.6C289.683 344.721 317.739 357.553 346.331 363.882C374.388 370.085 404.46 370.447 431.21 359.93C457.96 349.413 480.821 326.851 487.15 298.81C493.464 270.769 480.427 238.241 454.386 226.086C449.725 223.913 443.538 222.654 439.979 226.354C438.011 228.401 437.476 231.423 437.303 234.273C436.358 249.923 443.616 264.833 445.947 280.342C449.426 303.596 439.239 330.173 417.638 339.462C404.035 345.303 388.479 343.619 373.884 341.147C354.707 337.903 333.799 332.204 323.171 315.893C315.708 304.431 314.937 290.056 313.315 276.484C310.733 254.694 304.844 232.148 289.651 216.309C278.583 204.768 263.452 197.809 247.912 194.03C214.188 185.812 177.204 192.094 148.061 210.956" fill="url(#paint8_linear_504_3)"/>
</g>
<mask id="mask7_504_3" style="mask-type:alpha" maskUnits="userSpaceOnUse" x="146" y="244" width="281" height="281">
<path d="M286.376 524.712C363.696 524.712 426.376 462.032 426.376 384.712C426.376 307.392 363.696 244.712 286.376 244.712C209.057 244.712 146.376 307.392 146.376 384.712C146.376 462.032 209.057 524.712 286.376 524.712Z" fill="white"/>
</mask>
<g mask="url(#mask7_504_3)">
<path opacity="0.2" d="M181.314 501.048C184.525 507.047 190.115 511.329 195.72 515.187C209.937 524.932 227.429 533.293 243.914 528.254C253.345 525.373 261.296 518.036 264.948 508.889C268.601 499.725 267.861 488.94 262.996 480.36C252.825 462.395 220.423 448.698 200.286 448.729C175.945 448.761 171.851 483.367 181.314 501.048Z" fill="#3C58BC"/>
</g>
<mask id="mask8_504_3" style="mask-type:alpha" maskUnits="userSpaceOnUse" x="146" y="244" width="281" height="281">
<path d="M286.376 524.712C363.696 524.712 426.376 462.032 426.376 384.712C426.376 307.392 363.696 244.712 286.376 244.712C209.057 244.712 146.376 307.392 146.376 384.712C146.376 462.032 209.057 524.712 286.376 524.712Z" fill="white"/>
</mask>
<g mask="url(#mask8_504_3)">
<path opacity="0.2" d="M354.409 221.803C348.851 231.99 343.214 242.334 340.427 253.607C337.625 264.88 337.94 277.381 343.781 287.426C349.622 297.471 361.808 304.21 373.097 301.455C383.709 298.857 390.936 289.143 396.179 279.538C405.405 262.613 411.388 243.924 413.687 224.779C415.072 213.301 415.009 201.099 409.609 190.865" fill="#3C58BC"/>
</g>
<mask id="mask9_504_3" style="mask-type:alpha" maskUnits="userSpaceOnUse" x="146" y="244" width="281" height="281">
<path d="M286.376 524.712C363.696 524.712 426.376 462.032 426.376 384.712C426.376 307.392 363.696 244.712 286.376 244.712C209.057 244.712 146.376 307.392 146.376 384.712C146.376 462.032 209.057 524.712 286.376 524.712Z" fill="white"/>
</mask>
<g mask="url(#mask9_504_3)">
<path opacity="0.2" d="M180.747 173.484C162.704 235.548 167.002 304.021 193.547 362.968C220.092 421.916 268.837 470.708 328.115 496.466C396.1 526.003 472.902 524.869 546.995 523.216C537.533 530.852 525.126 533.576 513.208 536.063C413.387 556.893 308.246 576.999 211.024 546.25C190.713 539.826 170.922 531.151 153.745 518.556C113.502 489.05 90.8301 439.928 84.6582 390.411C78.4864 340.895 87.2088 290.67 99.8202 242.397C110.101 203.067 123.5 163.47 149.132 131.965" fill="#3C58BC"/>
</g>
<g clip-path="url(#clip2_504_3)">
<path d="M1285.24 64.5367C1278.33 69.0816 1269.03 67.172 1264.46 60.2401C1259.92 53.3082 1261.85 44.0084 1268.76 39.4635C1275.67 34.9186 1284.97 36.8282 1289.54 43.7601C1294.08 50.692 1292.15 59.9918 1285.24 64.5367Z" fill="url(#paint9_linear_504_3)"/>
</g>
</g>
<defs>
<linearGradient id="paint0_linear_504_3" x1="-293" y1="334" x2="2007" y2="334" gradientUnits="userSpaceOnUse">
<stop stop-color="#014C97"/>
<stop offset="1" stop-color="#000F32"/>
</linearGradient>
<linearGradient id="paint1_linear_504_3" x1="255.034" y1="953.824" x2="1682.88" y2="1798.87" gradientUnits="userSpaceOnUse">
<stop stop-color="#6FC0FC"/>
<stop offset="1" stop-color="#BEF5A0"/>
</linearGradient>
<linearGradient id="paint2_linear_504_3" x1="857.157" y1="404.296" x2="900.924" y2="419.663" gradientUnits="userSpaceOnUse">
<stop stop-color="#31577D"/>
<stop offset="0.6399" stop-color="#1D3447" stop-opacity="0.3601"/>
<stop offset="1" stop-color="#14242E" stop-opacity="0"/>
</linearGradient>
<radialGradient id="paint3_radial_504_3" cx="0" cy="0" r="1" gradientUnits="userSpaceOnUse" gradientTransform="translate(973.214 432.945) rotate(-6.54013) scale(63.5858 63.5858)">
<stop stop-color="#31577D"/>
<stop offset="0.6399" stop-color="#1D3447" stop-opacity="0.3601"/>
<stop offset="1" stop-color="#14242E" stop-opacity="0"/>
</radialGradient>
<linearGradient id="paint4_linear_504_3" x1="915.736" y1="312.274" x2="971.46" y2="323.086" gradientUnits="userSpaceOnUse">
<stop stop-color="#2A1C00"/>
<stop offset="0.4169" stop-color="#202015" stop-opacity="0.5831"/>
<stop offset="1" stop-color="#14242E" stop-opacity="0"/>
</linearGradient>
<linearGradient id="paint5_linear_504_3" x1="944.687" y1="329.753" x2="938.565" y2="322.828" gradientUnits="userSpaceOnUse">
<stop stop-color="#844949"/>
<stop offset="1"/>
</linearGradient>
<linearGradient id="paint6_linear_504_3" x1="217.255" y1="502.079" x2="357.228" y2="264.389" gradientUnits="userSpaceOnUse">
<stop stop-color="#DC4889"/>
<stop offset="1" stop-color="#6277C0"/>
</linearGradient>
<linearGradient id="paint7_linear_504_3" x1="71.4695" y1="483.274" x2="307.411" y2="483.274" gradientUnits="userSpaceOnUse">
<stop stop-color="#DC4889"/>
<stop offset="1" stop-color="#3C58BC"/>
</linearGradient>
<linearGradient id="paint8_linear_504_3" x1="92.5644" y1="279.392" x2="488.71" y2="279.392" gradientUnits="userSpaceOnUse">
<stop stop-color="#DC4889"/>
<stop offset="1" stop-color="#3C58BC"/>
</linearGradient>
<linearGradient id="paint9_linear_504_3" x1="1262.31" y1="53.1051" x2="1291.82" y2="51.6494" gradientUnits="userSpaceOnUse">
<stop stop-color="#DC3D7B"/>
<stop offset="1" stop-color="#EFC55C"/>
</linearGradient>
<clipPath id="clip0_504_3">
<rect width="1920" height="668" fill="white"/>
</clipPath>
<clipPath id="clip1_504_3">
<rect width="44" height="44" fill="white" transform="translate(850 25)"/>
</clipPath>
<clipPath id="clip2_504_3">
<rect width="30" height="30" fill="white" transform="translate(1262 37)"/>
</clipPath>
</defs>
</svg>
