<svg width="1500" height="635" viewBox="0 0 1500 635" fill="none" xmlns="http://www.w3.org/2000/svg">
<g clip-path="url(#clip0_469_287)">
<rect width="1500" height="634.548" fill="white"/>
<g clip-path="url(#clip1_469_287)">
<rect width="2599.97" height="1365.25" transform="translate(-402.167 -532.694)" fill="#0B1B44"/>
<path opacity="0.47" d="M1273.85 675.089H1098.32H536.223C557.11 614.878 615.752 569.769 679.101 556.628C750.393 541.821 825.313 561.924 889.348 596.736C954.462 480.041 1106.95 420.419 1233.94 461.997C1250.51 390.411 1296.8 326.18 1359.46 287.739C1403.4 260.772 1454.88 246.847 1506.36 246.945V675.187L1273.85 675.089Z" fill="#081330"/>
<path opacity="0.47" d="M422.337 111.738C435.922 98.5911 449.836 83.3625 468.57 80.9522C485.004 78.7611 500.78 87.0875 516.009 93.7706C593.028 127.515 686.591 120.284 757.585 75.3648C809.296 42.6068 847.971 -9.54292 866.157 -67.9375H-9.65186V121.489C41.8405 166.736 108.014 195.441 176.378 200.699C265.997 207.492 357.916 174.296 422.337 111.738Z" fill="#081330"/>
<path opacity="0.47" d="M1121.88 26.8075C1164.96 58.4107 1221.18 71.5526 1273.85 62.2698C1280.94 124.12 1333.51 177.835 1395.15 186.179C1434.27 191.499 1474.63 178.252 1504.98 153.22V-86.6719H1046.37C1057.43 -41.6139 1084.44 -0.623625 1121.88 26.8075Z" fill="#081330"/>
<path opacity="0.47" d="M191.903 638.587C175.559 632.807 158.419 628.123 143.77 619.054C115.767 601.814 98.7256 568.43 101.018 535.743C104.007 494.685 134.502 459.108 136.096 417.951C138.488 358.955 75.9047 312.118 17.0087 315.207C10.5312 315.506 4.15325 316.403 -2.125 317.599V638.985L191.903 638.587Z" fill="#081330"/>
<path opacity="0.47" d="M780.264 233.895C776.867 204.863 764.706 177.583 735.783 173.419C722.417 170.242 701.053 175.063 690.974 180.212C677.279 187.114 667.747 200.152 657.449 211.546C647.15 222.94 633.894 233.786 618.556 233.786C603.546 233.786 590.728 223.816 576.923 217.9C545.809 204.753 503.738 218.01 492.016 249.672C480.841 280.02 499.466 313.873 523.897 334.908C556.326 362.736 600.15 376.76 642.658 373.035C685.167 369.31 725.813 347.727 752.764 314.64C771.389 292.071 783.66 262.928 780.264 233.895Z" fill="#081330"/>
<path d="M801.036 23.4432L806.13 28.799C806.522 29.1909 807.045 29.3215 807.567 29.3215L814.882 28.1458C816.189 27.8846 817.234 29.3215 816.581 30.6278L813.054 37.1592C812.792 37.6817 812.792 38.2042 813.054 38.7268L816.45 45.2582C817.103 46.4338 816.058 47.8708 814.621 47.6095L807.306 46.3032C806.783 46.1726 806.261 46.4338 805.869 46.6951L800.644 51.9202C799.73 52.8346 798.031 52.3121 797.77 51.0058L796.856 43.6906C796.725 43.1681 796.464 42.6456 795.941 42.3844L789.279 38.988C788.104 38.3349 788.104 36.6367 789.279 35.9835L795.941 32.8485C796.464 32.5872 796.725 32.1953 796.856 31.6728L798.031 24.3576C798.423 22.9207 800.121 22.3982 801.036 23.4432Z" fill="#FB7816"/>
<path d="M167.094 182.026L172.189 187.382C172.581 187.774 173.103 187.904 173.626 187.904L180.941 186.729C182.247 186.468 183.292 187.904 182.639 189.211L179.112 195.742C178.851 196.265 178.851 196.787 179.112 197.31L182.509 203.841C183.162 205.017 182.117 206.454 180.68 206.193L173.365 204.886C172.842 204.756 172.32 205.017 171.928 205.278L166.702 210.503C165.788 211.418 164.09 210.895 163.829 209.589L162.914 202.274C162.784 201.751 162.522 201.229 162 200.967L155.338 197.571C154.162 196.918 154.162 195.22 155.338 194.567L162 191.431C162.522 191.17 162.784 190.778 162.914 190.256L164.09 182.941C164.482 181.504 166.18 180.981 167.094 182.026Z" fill="#FB7816"/>
<path d="M54.4322 24.6802L53.9097 32.126C53.9097 32.6485 54.1709 33.1711 54.5628 33.5629L60.4411 38.1349C61.4861 38.9187 61.0943 40.7475 59.788 41.0088L52.6034 42.8376C52.0809 42.9682 51.689 43.3601 51.4277 43.8826L48.8152 50.8059C48.2927 52.1122 46.5945 52.2428 45.8107 51.0672L41.8918 44.797C41.6306 44.2745 41.1081 44.0132 40.5856 44.0132L33.1397 43.752C31.8334 43.752 31.0497 42.0538 31.9641 41.0088L36.6667 35.2611C37.0586 34.8692 37.1892 34.2161 36.928 33.6936L34.9685 26.509C34.5766 25.2027 35.8829 24.0271 37.1892 24.5496L44.1125 27.2928C44.635 27.554 45.1576 27.4234 45.6801 27.1621L51.8196 22.982C52.9953 22.4595 54.5628 23.3739 54.4322 24.6802Z" fill="#FB7816"/>
<path d="M1478.47 106.915L1478.34 111.879C1478.34 112.271 1478.47 112.532 1478.73 112.794L1482.78 115.798C1483.57 116.321 1483.31 117.496 1482.39 117.758L1477.56 119.194C1477.17 119.325 1476.91 119.586 1476.78 119.848L1475.21 124.55C1474.95 125.465 1473.77 125.595 1473.25 124.812L1470.51 120.631C1470.24 120.37 1469.98 120.109 1469.59 120.109H1464.63C1463.71 120.109 1463.19 119.064 1463.71 118.28L1466.72 114.361C1466.98 114.1 1466.98 113.708 1466.85 113.316L1465.28 108.614C1465.02 107.699 1465.8 106.915 1466.72 107.177L1471.42 108.875C1471.81 109.005 1472.2 109.005 1472.46 108.744L1476.51 105.87C1477.56 105.348 1478.6 106.001 1478.47 106.915Z" fill="#FBBB16"/>
<path d="M1069.68 447.281L1069.55 452.245C1069.55 452.636 1069.68 452.898 1069.95 453.159L1074 456.163C1074.78 456.686 1074.52 457.862 1073.6 458.123L1068.77 459.56C1068.38 459.69 1068.12 459.952 1067.99 460.213L1066.42 464.916C1066.16 465.83 1064.98 465.961 1064.46 465.177L1061.72 460.997C1061.46 460.735 1061.19 460.474 1060.8 460.474H1055.84C1054.92 460.474 1054.4 459.429 1054.92 458.645L1057.93 454.726C1058.19 454.465 1058.19 454.073 1058.06 453.681L1056.75 449.109C1056.49 448.195 1057.28 447.411 1058.19 447.673L1062.89 449.371C1063.28 449.501 1063.68 449.501 1063.94 449.24L1067.99 446.366C1068.77 445.844 1069.82 446.366 1069.68 447.281Z" fill="#FBBB16"/>
<path d="M421.767 439.57L421.637 444.534C421.637 444.926 421.767 445.187 422.029 445.449L426.078 448.453C426.862 448.976 426.601 450.151 425.686 450.412L420.853 451.849C420.461 451.98 420.2 452.241 420.069 452.503L418.502 457.205C418.24 458.12 417.065 458.25 416.542 457.466L413.799 453.286C413.538 453.025 413.277 452.764 412.885 452.764H407.921C407.006 452.764 406.484 451.719 407.006 450.935L410.011 447.016C410.272 446.755 410.272 446.363 410.141 445.971L408.574 441.268C408.313 440.354 409.096 439.57 410.011 439.832L414.713 441.53C415.105 441.66 415.497 441.66 415.759 441.399L419.808 438.525C420.722 438.003 421.767 438.525 421.767 439.57Z" fill="#FBBB16"/>
<path d="M1385.86 464.315L1385.73 469.279C1385.73 469.671 1385.86 469.932 1386.12 470.194L1390.17 473.198C1390.95 473.721 1390.69 474.896 1389.78 475.158L1384.95 476.594C1384.55 476.725 1384.29 476.986 1384.16 477.248L1382.59 481.95C1382.33 482.865 1381.16 482.995 1380.64 482.211L1377.89 478.031C1377.63 477.77 1377.37 477.509 1376.98 477.509H1372.01C1371.1 477.509 1370.58 476.464 1371.1 475.68L1374.1 471.761C1374.36 471.5 1374.36 471.108 1374.23 470.716L1372.67 466.014C1372.41 465.099 1373.19 464.315 1374.1 464.577L1378.81 466.275C1379.2 466.405 1379.59 466.405 1379.85 466.144L1383.9 463.27C1384.82 462.878 1385.86 463.401 1385.86 464.315Z" fill="#FBBB16"/>
<path d="M1294.94 195.481L1290.63 198.093C1290.37 198.224 1290.11 198.616 1290.11 199.008L1289.85 203.972C1289.85 204.886 1288.67 205.409 1288.02 204.755L1284.23 201.49C1283.97 201.228 1283.58 201.228 1283.19 201.228L1278.35 202.535C1277.44 202.796 1276.65 201.882 1277.05 201.098L1279.01 196.526C1279.14 196.134 1279.14 195.742 1278.88 195.481L1276.13 191.301C1275.61 190.517 1276.26 189.472 1277.18 189.603L1282.14 189.994C1282.53 189.994 1282.92 189.864 1283.06 189.603L1286.19 185.684C1286.71 185.031 1287.89 185.292 1288.15 186.076L1289.33 190.909C1289.46 191.301 1289.72 191.562 1289.98 191.693L1294.68 193.521C1295.6 193.783 1295.73 194.958 1294.94 195.481Z" fill="#FBBB16"/>
<path d="M460.04 210.542C461.882 210.542 461.882 207.595 460.04 207.595C458.075 207.595 458.075 210.542 460.04 210.542Z" fill="white"/>
<path d="M56.4006 413.651C56.0322 413.651 55.7866 413.774 55.4182 413.774C54.0674 413.897 52.5939 414.879 52.7167 416.476C52.8395 418.072 53.9446 419.054 55.4182 419.177C55.7866 419.177 56.0322 419.3 56.4006 419.3C57.8742 419.423 59.225 417.949 59.225 416.476C59.225 415.002 57.997 413.406 56.4006 413.651Z" fill="white"/>
<path d="M639.327 500.716C641.905 500.716 644.238 498.506 644.116 495.927C643.993 493.349 642.028 491.138 639.327 491.138C636.748 491.138 634.415 493.349 634.537 495.927C634.66 498.506 636.625 500.716 639.327 500.716Z" fill="white"/>
<path d="M610.346 67.8514C613.539 67.8514 613.539 62.9395 610.346 62.9395C607.153 62.9395 607.153 67.8514 610.346 67.8514Z" fill="white"/>
<path d="M167.165 15.6382C170.849 15.6382 170.849 9.8667 167.165 9.8667C163.358 9.8667 163.358 15.6382 167.165 15.6382Z" fill="white"/>
<path d="M217.881 501.085C218.004 500.471 217.758 500.839 217.144 502.436C217.39 502.19 217.635 501.822 217.758 501.576C217.267 502.067 216.899 502.436 216.407 502.927C216.162 503.05 215.916 503.05 215.793 503.173C215.302 503.173 214.688 503.173 214.197 503.173C214.443 503.295 214.934 503.295 215.179 503.295C216.285 503.295 217.144 502.804 217.758 501.945C218.863 500.471 218.74 498.261 217.39 496.91C216.039 495.682 214.074 495.313 212.355 496.173C210.636 497.155 210.145 499.12 210.513 500.962C210.881 502.559 212.601 503.787 214.197 503.787C215.793 503.787 217.512 502.804 217.881 501.085Z" fill="white"/>
<path d="M511.124 0.925187C511.124 1.17078 511.247 1.41638 511.247 1.66198C511.615 3.87236 515.422 3.87236 515.791 1.66198C515.791 1.41638 515.913 1.17078 515.913 0.925187C516.159 -0.671196 515.299 -2.26758 513.58 -2.26758C511.861 -2.26758 510.879 -0.671196 511.124 0.925187Z" fill="white"/>
<path d="M1139.24 44.6408C1141.82 44.6408 1144.4 42.3076 1144.27 39.606C1144.15 36.9045 1142.06 34.5713 1139.24 34.5713C1136.66 34.5713 1134.08 36.9045 1134.21 39.606C1134.33 42.3076 1136.42 44.6408 1139.24 44.6408Z" fill="white"/>
<path d="M1026.76 155.283C1026.76 155.16 1026.63 155.16 1026.63 155.038C1025.77 153.81 1024.42 153.073 1022.95 153.564C1021.6 153.932 1020.49 155.283 1020.49 156.757C1020.49 158.108 1021.23 159.213 1022.46 159.704C1024.05 160.318 1025.65 159.704 1026.51 158.353C1026.51 158.23 1026.63 158.23 1026.63 158.108C1027.25 157.371 1027.25 156.02 1026.76 155.283Z" fill="white"/>
<path d="M1212.8 345.253C1212.06 344.516 1211.2 343.779 1210.09 343.656C1208.38 343.288 1205.8 343.902 1205.06 345.744C1204.57 346.726 1204.32 347.709 1204.45 348.814C1204.69 350.656 1205.18 352.129 1206.9 353.112C1208.25 353.971 1209.85 353.971 1211.32 353.357C1214.27 351.884 1215.37 347.709 1212.8 345.253Z" fill="white"/>
<path d="M1417.87 622.655C1422.29 622.655 1422.29 615.901 1417.87 615.901C1413.45 615.778 1413.45 622.655 1417.87 622.655Z" fill="white"/>
<path d="M1355.73 260.276C1358.07 260.276 1358.07 256.715 1355.73 256.715C1353.4 256.715 1353.4 260.276 1355.73 260.276Z" fill="white"/>
<path d="M134.286 312.849C134.04 312.849 133.794 312.972 133.549 312.972C132.198 313.217 132.198 315.551 133.549 315.796C133.794 315.796 134.04 315.919 134.286 315.919C135.268 316.042 136.25 315.428 136.25 314.445C136.25 313.34 135.268 312.726 134.286 312.849Z" fill="white"/>
<path d="M103.69 606.076C103.97 604.537 103.411 605.516 101.872 609.293C102.432 608.593 102.991 607.894 103.55 607.195C102.432 608.314 101.313 609.433 100.194 610.552C99.6343 610.691 99.0749 610.971 98.5154 611.111C97.2567 611.111 95.9979 611.111 94.7391 611.111C95.1587 611.251 96.4175 611.391 96.9769 611.391C99.4945 611.391 101.732 610.132 103.271 608.174C105.928 604.677 105.788 599.223 102.432 596.006C99.2147 592.929 94.1797 591.95 90.2635 594.327C86.0676 596.845 84.8089 601.6 85.7879 606.076C86.4872 609.852 90.9628 613.069 94.7391 612.929C98.5154 612.65 102.851 610.132 103.69 606.076Z" fill="white"/>
<path d="M1445.99 367.234C1452.5 367.234 1452.5 357.164 1445.99 357.164C1439.48 357.287 1439.48 367.234 1445.99 367.234Z" fill="white"/>
<g opacity="0.88">
<path opacity="0.14" d="M312.385 32.2185C315.816 32.2185 315.816 26.8271 312.385 26.8271C308.954 26.8271 308.954 32.2185 312.385 32.2185Z" fill="white"/>
<path opacity="0.14" d="M682.676 570.5C686.72 570.5 686.72 564.251 682.676 564.251C678.633 564.374 678.633 570.5 682.676 570.5Z" fill="white"/>
<path opacity="0.14" d="M695.175 618.288C699.096 618.288 699.096 612.161 695.175 612.161C691.131 612.161 691.131 618.288 695.175 618.288Z" fill="white"/>
<path opacity="0.14" d="M717.475 323.476C720.048 323.476 720.048 319.432 717.475 319.432C714.902 319.432 714.902 323.476 717.475 323.476Z" fill="white"/>
<path opacity="0.14" d="M839.884 298.356C843.07 298.356 843.07 293.455 839.884 293.455C836.821 293.455 836.821 298.356 839.884 298.356Z" fill="white"/>
<path opacity="0.14" d="M467.02 270.052C469.348 270.052 469.348 266.376 467.02 266.376C464.692 266.499 464.569 270.052 467.02 270.052Z" fill="white"/>
<path opacity="0.14" d="M674.221 119.461C675.324 119.461 675.324 117.746 674.221 117.746C673.118 117.623 673.118 119.461 674.221 119.461Z" fill="white"/>
<path opacity="0.14" d="M64.7478 178.643C69.159 178.643 69.159 171.781 64.7478 171.781C60.3367 171.781 60.3367 178.643 64.7478 178.643Z" fill="white"/>
<path opacity="0.14" d="M96.7289 235.498C97.8317 235.498 97.8317 233.905 96.7289 233.905C95.6262 233.905 95.6262 235.498 96.7289 235.498Z" fill="white"/>
<path opacity="0.14" d="M43.5502 573.074C44.0403 574.789 45.1431 575.892 46.8585 576.504C49.4317 577.362 52.3725 575.769 53.1077 573.074C53.9654 570.133 51.5147 566.702 48.3289 566.824C45.1431 566.947 42.4474 569.888 43.5502 573.074Z" fill="white"/>
<path opacity="0.14" d="M477.068 616.081C479.886 616.081 479.886 611.67 477.068 611.67C474.25 611.67 474.25 616.081 477.068 616.081Z" fill="white"/>
<path opacity="0.14" d="M833.023 570.255C835.473 570.255 835.473 566.579 833.023 566.579C830.572 566.579 830.572 570.255 833.023 570.255Z" fill="white"/>
<path opacity="0.14" d="M776.903 351.903C777.148 351.781 777.271 351.658 777.516 351.536C780.457 349.82 780.457 345.409 777.516 343.694C777.271 343.571 777.148 343.449 776.903 343.326C773.595 341.366 769.429 343.939 769.429 347.615C769.429 351.291 773.717 353.741 776.903 351.903Z" fill="white"/>
<path opacity="0.14" d="M531.349 36.6289C531.104 36.6289 530.736 36.6289 530.491 36.6289C528.653 36.5063 526.938 38.3443 527.06 40.0597C527.183 41.7752 528.531 43.6132 530.491 43.4906C530.736 43.4906 531.104 43.4906 531.349 43.4906C533.064 43.3681 534.78 42.0203 534.78 40.0597C534.657 37.9767 533.31 36.7514 531.349 36.6289Z" fill="white"/>
<path opacity="0.14" d="M1138.46 25.601C1141.65 25.601 1141.65 20.6997 1138.46 20.6997C1135.4 20.8222 1135.4 25.601 1138.46 25.601Z" fill="white"/>
<path opacity="0.14" d="M152.971 404.96C155.789 404.96 155.789 400.671 152.971 400.671C150.152 400.548 150.152 404.96 152.971 404.96Z" fill="white"/>
<path opacity="0.14" d="M33.9924 386.702C35.4628 386.702 35.4628 384.374 33.9924 384.374C32.5221 384.374 32.5221 386.702 33.9924 386.702Z" fill="white"/>
<path opacity="0.14" d="M303.807 492.938C306.748 492.938 306.748 488.404 303.807 488.404C300.989 488.404 300.867 492.938 303.807 492.938Z" fill="white"/>
<path opacity="0.14" d="M725.685 218.711C725.562 217.609 725.439 216.751 724.827 215.771C722.866 212.707 718.455 212.707 716.495 215.771C715.882 216.751 715.759 217.609 715.637 218.711C715.514 219.937 716.25 221.407 717.107 222.265C717.965 223.123 719.435 223.735 720.661 223.735C723.234 223.613 726.052 221.53 725.685 218.711Z" fill="white"/>
<path opacity="0.14" d="M1463.82 56.112C1463.69 56.112 1463.69 56.112 1463.82 56.112C1464.55 56.112 1465.41 56.112 1466.39 56.112C1466.39 56.112 1466.39 56.112 1466.27 56.112C1467 56.4796 1467.74 56.9698 1468.47 57.3374C1469.33 58.3176 1469.33 58.4401 1468.72 57.705C1467.86 56.6022 1468.11 57.0923 1469.45 59.0528C1468.84 57.4599 1467.86 56.2346 1466.14 55.7445C1464.55 55.2543 1462.59 55.7445 1461.49 56.9698C1460.02 58.6852 1459.28 61.2584 1460.63 63.3414C1461.37 64.4442 1462.35 65.3019 1463.69 65.6695C1465.04 66.0371 1466.39 65.7921 1467.74 65.1794C1468.72 64.6893 1469.82 63.3414 1470.07 62.2386C1470.31 61.1358 1470.31 60.0331 1469.82 59.0528C1468.6 56.6022 1466.14 55.4994 1463.82 56.112Z" fill="white"/>
<path opacity="0.14" d="M248.668 575.891C251.976 575.891 251.976 570.867 248.668 570.867C245.359 570.867 245.359 575.891 248.668 575.891Z" fill="white"/>
<path opacity="0.14" d="M309.199 376.654C312.14 376.654 312.14 372.121 309.199 372.121C306.258 372.121 306.258 376.654 309.199 376.654Z" fill="white"/>
<path opacity="0.14" d="M586.489 566.456C587.591 566.456 587.591 564.863 586.489 564.863C585.508 564.863 585.508 566.456 586.489 566.456Z" fill="white"/>
<path opacity="0.14" d="M24.68 458.261C27.3757 458.261 27.3757 454.217 24.68 454.217C21.9843 454.095 21.9843 458.261 24.68 458.261Z" fill="white"/>
<path opacity="0.14" d="M335.666 579.077C341.792 579.077 341.792 569.52 335.666 569.52C329.539 569.52 329.539 579.077 335.666 579.077Z" fill="white"/>
<path opacity="0.14" d="M439.941 490.609C443.249 490.609 443.249 485.462 439.941 485.462C436.632 485.462 436.632 490.609 439.941 490.609Z" fill="white"/>
<path opacity="0.14" d="M202.841 411.576C205.414 411.576 205.414 407.533 202.841 407.533C200.268 407.533 200.146 411.576 202.841 411.576Z" fill="white"/>
<path opacity="0.14" d="M128.832 607.504C132.141 607.504 132.141 602.358 128.832 602.358C125.524 602.358 125.524 607.504 128.832 607.504Z" fill="white"/>
<path opacity="0.14" d="M95.748 294.558C95.6255 294.436 95.503 294.313 95.3804 294.068C94.2777 292.966 92.6847 292.72 91.3369 293.333C89.989 293.946 89.0088 295.294 89.0088 296.764C89.1313 299.95 93.0523 301.788 95.3804 299.46C95.503 299.337 95.6255 299.215 95.748 298.97C96.9734 297.744 96.9734 295.784 95.748 294.558Z" fill="white"/>
<path opacity="0.14" d="M36.6883 189.793C39.8741 189.793 39.8741 184.77 36.6883 184.77C33.3799 184.77 33.3799 189.793 36.6883 189.793Z" fill="white"/>
<path opacity="0.14" d="M1309.55 49.8628C1309.43 48.76 1309.3 47.9022 1308.69 46.922C1306.73 43.8587 1302.32 43.8587 1300.36 46.922C1299.75 47.9022 1299.62 48.76 1299.5 49.8628C1299.38 51.0881 1300.11 52.5585 1300.97 53.4162C1301.83 54.2739 1303.3 54.8866 1304.53 54.8866C1306.98 54.764 1309.92 52.681 1309.55 49.8628Z" fill="white"/>
<path opacity="0.14" d="M741.124 163.082C744.064 163.082 744.064 158.548 741.124 158.548C738.183 158.548 738.183 163.082 741.124 163.082Z" fill="white"/>
<path opacity="0.14" d="M820.157 164.797C822.117 164.797 822.117 161.734 820.157 161.734C818.196 161.734 818.196 164.797 820.157 164.797Z" fill="white"/>
<path opacity="0.14" d="M928.72 69.8359C930.313 69.8359 930.313 67.3853 928.72 67.3853C927.127 67.5078 927.127 69.8359 928.72 69.8359Z" fill="white"/>
<path opacity="0.14" d="M806.678 55.9886C806.801 55.4985 806.801 55.1309 806.801 54.6408C806.801 53.0479 805.453 51.5775 803.86 51.7C802.267 51.8226 800.919 53.0479 800.919 54.6408C800.919 55.1309 801.042 55.4985 801.042 55.9886C801.655 58.6843 806.066 58.6843 806.678 55.9886Z" fill="white"/>
<path opacity="0.14" d="M978.346 141.884C981.286 141.884 981.286 137.35 978.346 137.35C975.405 137.35 975.405 141.884 978.346 141.884Z" fill="white"/>
<path opacity="0.14" d="M1267.89 205.109C1271.32 205.109 1271.32 199.718 1267.89 199.718C1264.46 199.718 1264.46 205.109 1267.89 205.109Z" fill="white"/>
<path opacity="0.14" d="M1193.51 119.46C1193.88 120.196 1194.25 120.686 1194.98 121.176C1196.82 122.401 1199.15 120.073 1197.92 118.235C1197.43 117.5 1197.06 117.132 1196.21 116.765C1194.37 115.907 1192.78 117.5 1193.51 119.46Z" fill="white"/>
<path opacity="0.14" d="M1300.48 74.3685C1302.44 74.3685 1302.44 71.1826 1300.48 71.1826C1298.52 71.1826 1298.52 74.3685 1300.48 74.3685Z" fill="white"/>
<path opacity="0.14" d="M1412.6 215.402C1412.48 215.402 1412.23 215.402 1412.11 215.28C1411.01 215.035 1409.78 215.77 1409.78 216.995C1409.78 218.221 1410.88 218.956 1412.11 218.711C1412.23 218.711 1412.48 218.711 1412.6 218.588C1414.31 218.466 1414.31 215.647 1412.6 215.402Z" fill="white"/>
<path opacity="0.14" d="M1460.63 440.493C1463.69 440.493 1463.69 435.714 1460.63 435.714C1457.57 435.714 1457.57 440.493 1460.63 440.493Z" fill="white"/>
<path opacity="0.14" d="M1222.92 430.813C1223.41 431.303 1223.9 431.671 1224.39 432.161C1224.39 433.754 1224.39 435.347 1224.39 436.94C1225 435.592 1225.25 434.367 1224.88 432.896C1224.88 432.774 1224.88 432.651 1224.76 432.651C1223.65 429.098 1224.76 433.754 1224.76 433.509C1224.51 431.671 1223.53 429.711 1221.45 429.22C1219.73 428.853 1217.9 429.22 1216.67 430.446C1215.2 431.916 1215.08 433.754 1215.32 435.715C1215.57 437.185 1217.28 438.9 1218.75 439.146C1219.86 439.391 1220.59 439.391 1221.82 439.146C1223.53 438.778 1224.88 437.063 1225.12 435.347C1225.25 433.509 1224.39 431.794 1222.92 430.813Z" fill="white"/>
<path opacity="0.14" d="M1459.77 556.653C1459.65 556.653 1459.65 556.653 1459.53 556.653C1459.77 556.775 1459.9 556.898 1460.14 557.02C1460.14 556.775 1460.02 556.775 1459.77 556.653C1458.79 555.672 1456.83 556.408 1456.83 558C1456.83 559.593 1458.79 560.329 1459.9 559.226C1460.02 559.103 1460.14 559.103 1460.14 558.981C1459.9 559.103 1459.77 559.226 1459.53 559.348C1459.65 559.348 1459.65 559.348 1459.77 559.348C1461.12 558.981 1461.12 556.898 1459.77 556.653Z" fill="white"/>
<path opacity="0.14" d="M1173.29 593.168C1174.52 593.168 1174.52 591.207 1173.29 591.207C1172.07 591.207 1172.07 593.168 1173.29 593.168Z" fill="white"/>
<path opacity="0.14" d="M1131.76 491.834C1133.72 491.834 1133.72 488.648 1131.76 488.648C1129.67 488.648 1129.67 491.834 1131.76 491.834Z" fill="white"/>
<path opacity="0.14" d="M1055.91 467.205C1056.77 467.205 1056.77 465.979 1055.91 465.979C1055.05 465.979 1055.05 467.205 1055.91 467.205Z" fill="white"/>
<path opacity="0.14" d="M1285.17 541.827C1285.04 541.827 1285.04 541.827 1284.92 541.827C1282.47 541.705 1280.14 544.033 1280.26 546.484C1280.26 546.606 1280.26 546.606 1280.26 546.729C1280.39 548.689 1281.37 550.405 1283.2 551.14C1284.92 551.875 1287.25 551.63 1288.47 550.16C1289.58 548.934 1290.19 547.096 1289.7 545.381C1289.33 543.298 1287.37 541.95 1285.17 541.827Z" fill="white"/>
<path opacity="0.14" d="M1073.8 601.99C1076.98 601.99 1076.98 597.089 1073.8 597.089C1070.61 597.089 1070.61 601.99 1073.8 601.99Z" fill="white"/>
<path opacity="0.14" d="M489.321 397.484C490.424 397.484 490.424 395.769 489.321 395.769C488.218 395.769 488.218 397.484 489.321 397.484Z" fill="white"/>
<path opacity="0.14" d="M1001.99 639.853C1007.63 639.853 1007.63 631.031 1001.99 631.031C996.357 630.908 996.357 639.853 1001.99 639.853Z" fill="white"/>
<path opacity="0.14" d="M1236.03 633.114C1235.91 632.624 1235.78 632.256 1235.54 631.888C1234.56 630.54 1232.72 630.54 1231.74 631.888C1231.5 632.256 1231.37 632.746 1231.25 633.114C1230.76 634.707 1231.99 636.3 1233.58 636.3C1235.17 636.177 1236.4 634.584 1236.03 633.114Z" fill="white"/>
<path opacity="0.14" d="M858.387 629.192C858.264 628.947 858.142 628.58 857.897 628.335C857.897 629.315 857.897 630.418 857.897 631.398C858.019 631.153 858.142 631.03 858.264 630.785C859.367 628.947 859 626.374 857.529 624.781C856.671 623.923 855.691 623.311 854.588 623.188C853.118 622.943 851.893 623.066 850.667 624.046C849.442 624.904 849.074 626.129 848.952 627.599C848.829 628.702 849.075 629.927 849.81 630.908C850.912 632.623 853.241 633.849 855.446 633.236C855.691 633.113 855.936 633.113 856.181 632.991C855.201 632.746 854.221 632.501 853.241 632.256C853.486 632.501 853.731 632.623 853.976 632.868C855.079 633.726 856.549 633.971 857.652 633.113C858.755 631.888 859 630.418 858.387 629.192Z" fill="white"/>
<path opacity="0.14" d="M742.472 273.238C742.349 272.992 742.349 272.747 742.226 272.625C741.736 271.032 739.408 271.032 738.918 272.625C738.796 272.87 738.796 273.115 738.673 273.238C738.305 274.463 739.286 275.688 740.511 275.688C741.859 275.566 742.839 274.34 742.472 273.238Z" fill="white"/>
<path opacity="0.14" d="M662.948 383.516C663.316 383.516 663.316 383.026 662.948 383.026C662.58 383.026 662.58 383.516 662.948 383.516Z" fill="white"/>
<path opacity="0.14" d="M661.846 374.693C662.458 374.693 662.458 373.713 661.846 373.713C661.233 373.713 661.233 374.693 661.846 374.693Z" fill="white"/>
<path opacity="0.14" d="M634.766 318.696C636.727 318.696 636.727 315.755 634.766 315.755C632.928 315.755 632.928 318.696 634.766 318.696Z" fill="white"/>
<path opacity="0.14" d="M795.038 306.566C796.631 306.566 796.631 304.115 795.038 304.115C793.445 304.115 793.445 306.566 795.038 306.566Z" fill="white"/>
<path opacity="0.14" d="M826.651 355.088C829.224 355.088 829.224 351.167 826.651 351.167C824.078 351.167 824.078 355.088 826.651 355.088Z" fill="white"/>
<path opacity="0.14" d="M861.695 246.28C864.513 246.28 864.513 241.992 861.695 241.992C858.999 241.992 858.999 246.28 861.695 246.28Z" fill="white"/>
<path opacity="0.14" d="M1174.4 213.319C1177.21 213.319 1177.21 208.908 1174.4 208.908C1171.46 208.908 1171.46 213.319 1174.4 213.319Z" fill="white"/>
<path opacity="0.14" d="M1142.05 293.455C1143.03 293.455 1143.03 291.862 1142.05 291.862C1141.07 291.862 1141.07 293.455 1142.05 293.455Z" fill="white"/>
<path opacity="0.14" d="M1253.06 359.254C1255.63 359.254 1255.63 355.333 1253.06 355.333C1250.49 355.333 1250.49 359.254 1253.06 359.254Z" fill="white"/>
<path opacity="0.14" d="M1338.1 216.015C1340.8 216.015 1340.8 211.971 1338.1 211.971C1335.4 211.971 1335.4 216.015 1338.1 216.015Z" fill="white"/>
<path opacity="0.14" d="M1206.01 25.6013C1206.87 25.6013 1206.87 24.376 1206.01 24.376C1205.15 24.376 1205.15 25.6013 1206.01 25.6013Z" fill="white"/>
<path opacity="0.14" d="M1117.42 29.645C1118.89 29.645 1118.89 27.3169 1117.42 27.3169C1115.95 27.3169 1115.95 29.645 1117.42 29.645Z" fill="white"/>
<path opacity="0.14" d="M1455.12 31.7285C1456.59 31.7285 1456.59 29.5229 1455.12 29.5229C1453.77 29.5229 1453.77 31.7285 1455.12 31.7285Z" fill="white"/>
<path opacity="0.14" d="M1460.75 181.706C1464.18 181.706 1464.18 176.438 1460.75 176.438C1457.44 176.438 1457.44 181.706 1460.75 181.706Z" fill="white"/>
<path opacity="0.14" d="M1433.55 502.496C1435.14 502.496 1435.14 500.045 1433.55 500.045C1431.96 500.045 1431.96 502.496 1433.55 502.496Z" fill="white"/>
<path opacity="0.14" d="M1371.06 583.734C1371.31 583.734 1371.31 583.366 1371.06 583.366C1370.82 583.366 1370.82 583.734 1371.06 583.734Z" fill="white"/>
<path opacity="0.14" d="M1394.22 589.493C1394.71 589.493 1394.71 588.635 1394.22 588.635C1393.73 588.757 1393.73 589.493 1394.22 589.493Z" fill="white"/>
<path opacity="0.14" d="M1159.2 634.217C1162.14 634.217 1162.14 629.561 1159.2 629.561C1156.14 629.561 1156.14 634.217 1159.2 634.217Z" fill="white"/>
<path opacity="0.14" d="M1048.56 536.314C1051.13 536.314 1051.13 532.27 1048.56 532.27C1045.98 532.27 1045.98 536.314 1048.56 536.314Z" fill="white"/>
<path opacity="0.14" d="M651.308 424.197C651.063 424.197 650.818 424.197 650.573 424.074C649.225 423.952 648.122 425.3 648.122 426.525C648.122 427.75 649.225 429.098 650.573 428.975C650.818 428.975 651.063 428.975 651.308 428.853C652.533 428.73 653.636 427.873 653.636 426.525C653.636 425.177 652.533 424.319 651.308 424.197Z" fill="white"/>
<path opacity="0.14" d="M409.552 251.918C410.9 251.918 410.9 249.834 409.552 249.834C408.205 249.834 408.205 251.918 409.552 251.918Z" fill="white"/>
<path opacity="0.14" d="M136.245 200.822C139.431 200.822 139.431 195.92 136.245 195.92C133.06 195.92 133.06 200.822 136.245 200.822Z" fill="white"/>
<path opacity="0.14" d="M1204.54 539.377C1205.64 539.377 1205.64 537.661 1204.54 537.661C1203.44 537.661 1203.44 539.377 1204.54 539.377Z" fill="white"/>
<path opacity="0.14" d="M479.518 158.183C482.826 158.183 482.826 153.037 479.518 153.037C476.087 152.914 476.087 158.183 479.518 158.183Z" fill="white"/>
<path opacity="0.14" d="M857.161 396.995C859.734 396.995 859.734 392.951 857.161 392.951C854.588 392.951 854.588 396.995 857.161 396.995Z" fill="white"/>
<path opacity="0.14" d="M781.559 606.157C782.417 606.157 782.417 604.932 781.559 604.932C780.701 604.932 780.824 606.157 781.559 606.157Z" fill="white"/>
<path opacity="0.14" d="M623.616 518.424C625.822 518.424 625.822 515.115 623.616 515.115C621.411 515.115 621.411 518.424 623.616 518.424Z" fill="white"/>
<path opacity="0.14" d="M141.698 505.925C144.516 505.925 144.516 501.514 141.698 501.514C138.88 501.514 138.88 505.925 141.698 505.925Z" fill="white"/>
<path opacity="0.14" d="M269.499 626.865C271.459 626.865 271.459 623.801 269.499 623.801C267.538 623.924 267.538 626.865 269.499 626.865Z" fill="white"/>
<path opacity="0.14" d="M439.205 546.239C441.288 546.239 441.288 543.053 439.205 543.053C437.122 542.931 437.122 546.239 439.205 546.239Z" fill="white"/>
<path opacity="0.14" d="M393.256 601.01C394.604 601.01 394.604 598.927 393.256 598.927C391.908 598.805 391.786 601.01 393.256 601.01Z" fill="white"/>
<path opacity="0.14" d="M641.873 607.136C644.447 607.136 644.447 603.093 641.873 603.093C639.178 603.093 639.178 607.136 641.873 607.136Z" fill="white"/>
<path opacity="0.22" d="M57.2734 358.642C58.0086 357.417 58.6213 356.314 59.3565 355.089C60.0917 353.986 59.6016 352.393 58.4988 351.658C57.2734 350.922 55.8031 351.413 55.0679 352.515C54.3327 353.741 53.72 354.844 52.9848 356.069C52.2496 357.172 52.7398 358.765 53.8426 359.5C55.0679 360.235 56.6608 359.745 57.2734 358.642Z" fill="white"/>
</g>
<path d="M65.8949 306.573C65.8949 318.075 56.1265 327.396 44.0717 327.396C32.017 327.396 22.2485 318.075 22.2485 306.573C22.2485 295.071 32.017 285.75 44.0717 285.75C56.1265 285.75 65.8949 295.071 65.8949 306.573Z" fill="#CA57A2"/>
<path d="M22.9758 312.82C17.1563 311.63 16.1171 318.67 19.7543 321.744C25.8856 326.9 39.1874 321.843 45.6304 319.562C54.0479 316.588 62.1537 311.63 66.8301 304.094C69.532 299.632 70.4673 290.906 62.7772 291.104C62.2576 291.104 62.2576 291.997 62.7772 291.898C68.0771 295.269 69.3242 298.938 66.6222 302.904C66.1026 303.896 65.3752 304.887 64.6478 305.78C63.4007 307.366 62.0498 308.853 60.491 310.242C57.2694 313.117 53.5283 315.398 49.4754 317.083C45.7343 318.769 41.6814 319.959 37.6286 320.95C35.8619 321.347 34.0953 321.744 32.3286 322.041C30.4581 322.438 28.5875 322.636 26.717 322.834C20.0661 323.33 18.7151 320.058 22.768 313.216C23.1837 313.315 23.2876 312.919 22.9758 312.82Z" fill="white"/>
<path d="M116.718 455.606C112.274 451.274 105.948 448.939 99.7546 449.341C93.5608 449.75 87.5932 452.893 83.7579 457.767C85.7236 457.789 87.6899 457.803 89.6556 457.825C87.8695 459.326 86.0245 460.892 85.0472 463.008C84.0699 465.123 84.2346 467.962 86.0528 469.422C87.519 470.601 89.5958 470.585 91.4566 470.336C93.3179 470.079 95.238 469.649 97.0446 470.171C98.8513 470.693 100.42 472.623 99.7694 474.382C98.6896 477.296 93.2674 476.644 92.5592 479.669C92.1501 481.414 93.7984 482.978 95.4538 483.668C101.367 486.151 108.459 482.653 112.01 477.31C115.561 471.968 116.362 465.301 116.727 458.898" fill="url(#paint0_linear_469_287)"/>
<path fill-rule="evenodd" clip-rule="evenodd" d="M118.628 475.706C118.628 475.706 114.053 474.471 102.879 459.884L102.772 459.744C91.608 445.135 91.6162 440.387 91.6162 440.387C144.835 393.705 177.443 402.727 177.443 402.727C177.443 402.727 177.614 436.57 118.628 475.706Z" fill="#D8D8D8"/>
<path fill-rule="evenodd" clip-rule="evenodd" d="M117.444 420.787C117.444 420.787 110.225 425.198 103.742 430.396C97.258 435.594 91.6518 440.428 91.6518 440.428L68.1178 448.983C68.1178 448.983 89.9277 426.823 103.635 420.118C108.519 417.735 117.444 420.787 117.444 420.787Z" fill="#0075BA"/>
<path fill-rule="evenodd" clip-rule="evenodd" d="M163.666 430.718C157.414 439.333 150.051 447.235 143.41 453.019C127.373 466.987 116.256 474.308 116.256 474.308C116.256 474.308 114.551 473.212 111.13 469.649C107.543 465.919 105.011 462.605 105.011 462.605C105.011 462.605 152.463 425.912 156.221 422.473" fill="#B3B3B3"/>
<path fill-rule="evenodd" clip-rule="evenodd" d="M159.225 419.741C168.19 411.518 177.444 402.726 177.444 402.726C177.444 402.726 174.105 413.87 165.721 427.485" fill="#B3B3B3"/>
<path fill-rule="evenodd" clip-rule="evenodd" d="M146.024 406.545C146.024 406.545 148.401 412.288 154.5 420.284C160.656 428.353 165.383 432.287 165.383 432.287C165.383 432.287 169.773 426.353 173.624 417.391C177.411 408.58 177.443 402.727 177.443 402.727C177.443 402.727 171.239 401.075 161.146 402.736C151.007 404.409 146.024 406.545 146.024 406.545Z" fill="#0075BA"/>
<path opacity="0.47" fill-rule="evenodd" clip-rule="evenodd" d="M177.443 402.727C177.443 402.727 168.671 402.575 158.807 405.514C152.779 407.314 148.491 409.251 148.491 409.251C148.491 409.251 149.066 410.546 150.311 412.446C150.311 412.446 154.757 409.908 160.999 407.489C169.741 404.106 177.443 402.727 177.443 402.727Z" fill="white"/>
<path opacity="0.47" fill-rule="evenodd" clip-rule="evenodd" d="M146.591 409.947C146.591 409.947 147.078 410.848 147.5 411.567C148.101 412.601 148.526 413.281 148.526 413.281C148.526 413.281 134.619 421.173 123.779 428.737C114.584 435.147 96.3926 450.676 96.3926 450.676C96.3926 450.676 95.6316 449.491 94.7076 447.87C93.7423 446.175 93.34 445.287 93.34 445.287C93.34 445.287 109.921 431.303 122.439 423.004C133.861 415.427 146.591 409.947 146.591 409.947Z" fill="white"/>
<path fill-rule="evenodd" clip-rule="evenodd" d="M163.666 430.718C174.278 415.818 177.443 402.735 177.443 402.735C177.443 402.735 168.023 413.017 156.221 422.481C156.221 422.481 158.114 424.852 160.128 427.062C161.976 429.081 163.666 430.718 163.666 430.718Z" fill="url(#paint1_linear_469_287)"/>
<path fill-rule="evenodd" clip-rule="evenodd" d="M115.531 421.993C115.531 421.993 109.443 420.566 105.152 422.116C97.0228 425.053 74.3287 445.687 74.3287 445.687L91.6514 440.437C91.6514 440.437 102.304 431.349 106.762 428.092C111.073 424.933 115.531 421.993 115.531 421.993Z" fill="url(#paint2_linear_469_287)"/>
<path fill-rule="evenodd" clip-rule="evenodd" d="M144.293 455.893C144.293 455.893 138.153 461.704 131.428 466.599C124.702 471.494 118.578 475.641 118.578 475.641L104.167 496.114C104.167 496.114 131.262 480.87 141.324 469.386C144.909 465.308 144.293 455.893 144.293 455.893Z" fill="#0075BA"/>
<path fill-rule="evenodd" clip-rule="evenodd" d="M142.628 457.426C142.628 457.426 142.414 463.676 139.797 467.412C134.831 474.49 108.973 490.991 108.973 490.991L118.578 475.649C118.578 475.649 130.139 467.748 134.455 464.295C138.624 460.955 142.628 457.426 142.628 457.426Z" fill="url(#paint3_linear_469_287)"/>
<path d="M139.055 438.167C142.601 438.416 145.677 435.744 145.926 432.198C146.175 428.653 143.503 425.576 139.957 425.327C136.411 425.078 133.335 427.75 133.086 431.296C132.837 434.842 135.509 437.918 139.055 438.167Z" fill="#00263E"/>
<path fill-rule="evenodd" clip-rule="evenodd" d="M146.234 426.604C143.389 422.888 138.079 422.182 134.364 425.019C130.647 427.864 129.941 433.174 132.778 436.889C135.616 440.605 140.933 441.312 144.649 438.467C148.365 435.63 149.079 430.313 146.234 426.604ZM134.399 435.656C132.243 432.832 132.782 428.796 135.598 426.631C138.421 424.475 142.458 425.007 144.614 427.83C146.77 430.654 146.239 434.691 143.415 436.847C140.591 439.018 136.555 438.479 134.399 435.656Z" fill="#585857"/>
<path opacity="0.47" fill-rule="evenodd" clip-rule="evenodd" d="M143.807 424.993C143.821 424.901 143.781 424.805 143.699 424.761C143.244 424.512 141.764 423.757 140.298 423.67C138.918 423.588 137.621 423.861 137.124 423.981C137.006 424.012 136.936 424.123 136.959 424.241L136.983 424.335C137.006 424.453 137.132 424.532 137.25 424.501C139.54 423.996 140.4 424.095 141.533 424.392C142.553 424.657 143.159 424.955 143.471 425.14C143.605 425.227 143.78 425.154 143.807 424.993Z" fill="white"/>
<path opacity="0.28" fill-rule="evenodd" clip-rule="evenodd" d="M141.86 438.264C141.557 438.39 141.047 438.586 140.601 438.656C140.468 438.677 140.382 438.795 140.404 438.921C140.426 439.046 140.536 439.131 140.661 439.125C140.988 439.093 141.607 438.997 142.072 438.775C142.176 438.728 142.23 438.615 142.207 438.505L142.189 438.426C142.153 438.285 141.996 438.204 141.86 438.264Z" fill="white"/>
<path opacity="0.61" fill-rule="evenodd" clip-rule="evenodd" d="M117.444 420.787C117.444 420.787 113.865 429.187 113.813 439.732C113.735 454.629 116.264 474.301 116.264 474.301C116.264 474.301 110.813 471.533 97.106 451.764C90.4252 442.124 91.6601 440.422 91.6601 440.422C91.6601 440.422 102.797 430.949 108.128 427.056C112.839 423.615 117.444 420.787 117.444 420.787Z" fill="url(#paint4_linear_469_287)"/>
<path d="M139.055 438.167C142.601 438.416 145.677 435.744 145.926 432.198C146.175 428.653 143.503 425.576 139.957 425.327C136.411 425.078 133.335 427.75 133.086 431.296C132.837 434.842 135.509 437.918 139.055 438.167Z" fill="url(#paint5_radial_469_287)"/>
<mask id="mask0_469_287" style="mask-type:alpha" maskUnits="userSpaceOnUse" x="1324" y="70" width="89" height="89">
<path d="M1368.78 158.767C1393.13 158.767 1412.88 139.02 1412.88 114.661C1412.88 90.3025 1393.13 70.5557 1368.78 70.5557C1344.42 70.5557 1324.68 90.3025 1324.68 114.661C1324.68 139.02 1344.42 158.767 1368.78 158.767Z" fill="url(#paint6_linear_469_287)"/>
</mask>
<g mask="url(#mask0_469_287)">
<path d="M1368.78 158.767C1393.13 158.767 1412.88 139.02 1412.88 114.661C1412.88 90.3025 1393.13 70.5557 1368.78 70.5557C1344.42 70.5557 1324.68 90.3025 1324.68 114.661C1324.68 139.02 1344.42 158.767 1368.78 158.767Z" fill="url(#paint7_linear_469_287)"/>
<path opacity="0.2" d="M1386.84 199.386C1378.78 198.523 1371.37 194.138 1365.81 188.242C1360.25 182.347 1356.41 175.014 1353.54 167.43C1351.07 160.912 1349.25 153.938 1350.09 147.012C1351.61 134.575 1361.21 124.87 1366.59 113.559C1372.1 101.948 1373.08 88.4923 1370.68 75.8633C1368.29 63.2342 1362.66 51.384 1355.54 40.6841C1351.62 34.7769 1346.72 28.8219 1339.86 27.0845C1337.71 28.1629 1337.33 31.3022 1338.58 33.3511C1339.83 35.388 1342.21 36.4784 1344.53 37.0296C1351.34 38.6591 1358.58 36.742 1365.45 38.1199C1375.49 40.1329 1383.08 49.1074 1385.9 58.9566C1388.71 68.7939 1387.47 79.35 1385.11 89.3071C1382.42 100.57 1378.34 111.486 1372.95 121.742C1368.66 129.89 1363.47 137.894 1362.12 147C1360.82 155.687 1363.29 164.746 1368.21 172.007C1373.14 179.28 1380.42 184.792 1388.48 188.278" fill="#246FE1"/>
<path opacity="0.2" d="M1387.5 182.372C1384.32 180.227 1382.59 176.525 1381.28 172.906C1374.47 154.07 1375.7 131.161 1389.04 116.207C1393.8 110.863 1400.98 106.538 1407.87 108.503C1414.38 110.36 1418.19 117.142 1420.12 123.636C1424.44 138.206 1422.6 154.49 1415.14 167.718" fill="#246FE1"/>
<path opacity="0.2" d="M1329.06 175.721C1323.71 169.515 1320.93 161.163 1321.51 152.979C1322.08 144.808 1326 136.912 1332.16 131.52C1337.38 126.954 1343.98 124.199 1349.21 119.657C1356.17 113.619 1360.22 104.776 1362.21 95.7653C1364.17 86.9226 1364.29 77.4568 1360.97 69.0215C1357.65 60.5981 1350.54 53.385 1341.72 51.3959C1332.89 49.4069 1322.63 53.5168 1318.81 61.7244C1318.13 63.1862 1317.73 65.1393 1318.89 66.2656C1319.54 66.8887 1320.49 67.0564 1321.39 67.1163C1326.32 67.4159 1331.02 65.1273 1335.91 64.3964C1343.22 63.2941 1351.6 66.5053 1354.52 73.311C1356.37 77.6006 1355.83 82.5012 1355.05 87.0904C1354.03 93.1293 1352.23 99.7194 1347.09 103.062C1343.49 105.411 1338.96 105.662 1334.68 106.166C1327.82 106.98 1320.72 108.838 1315.73 113.619C1312.1 117.105 1309.91 121.874 1308.71 126.763C1306.12 137.391 1308.1 149.037 1314.04 158.216" fill="#246FE1"/>
<path opacity="0.2" d="M1405.42 147.756C1407.32 146.749 1408.67 144.976 1409.88 143.214C1412.95 138.733 1415.58 133.221 1414 128.033C1413.09 125.062 1410.78 122.557 1407.9 121.407C1405.03 120.257 1401.61 120.485 1398.92 122.018C1393.26 125.229 1388.94 135.438 1388.95 141.777C1388.95 149.457 1399.85 150.739 1405.42 147.756Z" fill="#246FE1"/>
<path opacity="0.2" d="M1317.46 93.2257C1320.67 94.9751 1323.93 96.7484 1327.47 97.6351C1331.02 98.5098 1334.96 98.4259 1338.12 96.5806C1341.28 94.7354 1343.4 90.9012 1342.54 87.3425C1341.73 83.9995 1338.66 81.723 1335.64 80.0694C1330.31 77.1578 1324.42 75.2767 1318.39 74.5577C1314.77 74.1264 1310.93 74.1383 1307.71 75.8398" fill="#246FE1"/>
<path opacity="0.2" d="M1302.23 147.936C1321.78 153.628 1343.36 152.262 1361.91 143.898C1380.48 135.535 1395.85 120.174 1403.96 101.506C1413.27 80.0939 1412.91 55.8903 1412.4 32.5493C1414.8 35.5328 1415.65 39.439 1416.44 43.1893C1423.01 74.6421 1429.33 107.772 1419.66 138.398C1417.63 144.797 1414.9 151.027 1410.93 156.443C1401.64 169.12 1386.16 176.262 1370.56 178.215C1354.97 180.156 1339.14 177.412 1323.94 173.434C1311.56 170.199 1299.09 165.981 1289.16 157.905" fill="#246FE1"/>
</g>
<path d="M940.138 508.217C948.919 513.344 958.21 521.768 956.335 531.781C954.527 541.508 943.617 546.042 934.546 549.98C914.71 558.627 897.006 572.074 883.403 588.872C879.915 593.188 876.507 598.142 876.555 603.72C876.611 614.592 888.711 620.771 898.927 624.456C918.143 631.381 937.36 638.306 956.576 645.232C974.471 651.68 994.966 660.966 998.903 679.562C1002.27 695.537 990.926 711.518 976.839 719.759C959.899 729.607 937.109 730.801 921.304 719.205C905.5 707.609 900.501 682.208 913.569 667.55C905.279 664.334 896.633 661.088 887.725 661.719C878.853 662.349 869.667 668.101 868.129 676.901C865.214 693.396 887.724 701.977 895.548 716.784C904.506 733.812 890.198 755.772 871.772 761.271C853.345 766.77 833.569 760.421 816.007 752.512C799.734 745.187 783.791 736.223 771.764 723.043C743.015 691.601 742.486 644.351 743.589 601.767L736.602 595.369C722.813 618.778 713.476 645.354 710.034 674.08C700.148 756.556 741.263 833.365 808.538 873.007C812.441 853.69 821.718 835.039 838.188 824.595C857.086 812.586 886.414 816.269 896.835 836.082C901.003 843.979 901.817 853.24 905.208 861.504C912.177 878.491 930.891 889.865 949.162 888.206C967.433 886.547 983.806 872.017 987.623 854.052C991.206 837.085 984.773 817.923 993.502 802.94C999.39 792.867 1010.68 787.439 1021.3 782.625C1043.28 772.667 1065.27 762.709 1087.25 752.75C1093.64 749.883 1101.91 747.343 1106.99 751.886C1109.62 742.289 1111.56 732.417 1112.8 722.237C1126.12 610.999 1046.74 510.032 935.525 496.702C927.304 495.724 919.163 495.313 911.098 495.291C921.202 498.622 930.963 502.847 940.138 508.217Z" fill="#4195C2"/>
<path d="M771.693 723.115C783.72 736.295 799.663 745.259 815.937 752.584C833.463 760.494 853.274 766.806 871.701 761.343C890.127 755.844 904.435 733.884 895.477 716.856C887.653 702.049 865.143 693.468 868.058 676.973C869.597 668.209 878.783 662.457 887.655 661.791C896.527 661.161 905.172 664.407 913.498 667.622C900.466 682.244 905.464 707.681 921.234 719.277C937.038 730.873 959.828 729.679 976.768 719.832C990.891 711.59 1002.23 695.644 998.832 679.634C994.895 661.003 974.4 651.752 956.505 645.304C937.289 638.379 918.072 631.453 898.856 624.528C888.641 620.843 876.541 614.664 876.485 603.792C876.472 598.214 879.844 593.26 883.332 588.944C896.971 572.146 914.674 558.663 934.475 550.052C943.547 546.114 954.456 541.545 956.265 531.853C958.104 521.841 948.848 513.416 940.068 508.289C930.893 502.919 921.131 498.694 910.995 495.542C837.99 495.569 772.146 534.929 736.497 595.513L743.484 601.91C742.45 644.422 742.98 691.672 771.693 723.115Z" fill="#6CC485"/>
<path d="M525.601 48.9996C512.035 64.7067 495.286 76.057 477.139 82.8897C473.715 84.192 470.227 85.3334 466.723 86.298C449.299 91.1211 430.959 91.9732 413.133 88.7578C410.818 88.3398 408.487 87.8575 406.205 87.2948C388.186 82.9701 370.923 74.369 355.926 61.411C345.205 52.1507 336.509 41.4113 329.919 29.7555C325.305 21.6366 321.721 13.0676 319.117 4.24137C308.042 -33.6359 315.822 -76.1915 343.517 -108.281C352.824 -119.053 363.625 -127.782 375.343 -134.422C399.486 -148.071 427.551 -152.814 454.507 -148.296C455.568 -148.136 456.645 -147.943 457.705 -147.718C469.664 -145.403 481.382 -141.223 492.377 -135.162C496.797 -132.75 501.073 -130.017 505.236 -127.011C507.968 -125.049 510.62 -122.959 513.192 -120.708C520.972 -113.988 527.691 -106.464 533.317 -98.3937C564.002 -54.3751 562.282 6.49218 525.601 48.9996Z" fill="#AD6C16"/>
<path d="M533.301 -98.4093C533.044 -88.0719 531.404 -77.4451 527.096 -68.2491C524.589 -62.8794 520.538 -58.8762 519.719 -52.7509C519.027 -47.4937 520.619 -43.2494 522.242 -38.2655C525.987 -26.6419 525.216 -23.2658 517.79 -13.7C515.122 -10.2756 511.875 -7.39786 509.126 -4.11817C505.895 -0.275782 506.458 2.21612 505.943 7.56974C504.706 20.4474 505.815 35.1095 499.401 46.8618C495.608 53.807 489.227 58.7587 482.877 63.1959C479.872 65.302 479.405 65.4789 478.104 68.646C476.4 72.7778 476.351 77.6813 477.123 82.858C473.699 84.1603 470.211 85.3017 466.707 86.2663C449.283 91.0894 430.943 91.9415 413.117 88.7261C410.802 88.3081 408.472 87.8258 406.189 87.2631C388.171 82.9384 370.907 74.3372 355.91 61.3792C345.189 52.1189 336.493 41.3795 329.903 29.7237C325.29 21.6049 321.705 13.0359 319.101 4.20967C308.027 -33.6676 315.806 -76.2232 343.501 -108.313C352.808 -119.084 363.61 -127.814 375.328 -134.454C399.47 -148.103 427.535 -152.846 454.491 -148.328C455.552 -148.167 456.629 -147.975 457.69 -147.749C469.649 -145.434 481.367 -141.254 492.361 -135.193C496.781 -132.782 501.057 -130.049 505.22 -127.042C507.953 -125.081 510.605 -122.991 513.177 -120.74C520.956 -114.004 527.675 -106.48 533.301 -98.4093Z" fill="#00B7DC"/>
<path d="M533.526 -98.4904C533.269 -88.153 531.629 -77.5261 527.322 -68.3301C524.814 -62.9604 520.763 -58.9573 519.944 -52.832C519.253 -47.5748 520.844 -43.3305 522.467 -38.3467C526.213 -26.723 525.457 -23.3469 518.015 -13.7811C515.347 -10.3567 512.1 -7.47897 509.351 -4.19927C506.12 -0.356886 506.683 2.13507 506.168 7.48869C504.931 20.3663 506.04 35.0285 499.626 46.7807C495.833 53.7259 489.452 58.6776 483.103 63.1149C480.097 65.221 479.631 65.3978 478.329 68.5649C476.625 72.6967 476.593 77.6002 477.348 82.7769C473.924 84.0792 470.436 85.2206 466.932 86.1852C449.508 91.0083 431.168 91.8604 413.342 88.645C411.028 88.227 408.697 87.7447 406.414 87.182C388.396 82.8574 371.132 74.2562 356.135 61.2982C345.414 52.0379 336.718 41.2985 330.128 29.6427C325.515 21.5238 321.93 12.9548 319.326 4.12861C308.252 -33.7486 316.031 -76.3043 343.727 -108.394C353.033 -119.165 363.835 -127.895 375.553 -134.535C399.696 -148.184 427.76 -152.927 454.716 -148.409C455.777 -148.249 456.854 -148.056 457.915 -147.831C469.874 -145.515 481.592 -141.335 492.586 -135.274C497.006 -132.863 501.282 -130.146 505.445 -127.123C508.178 -125.162 510.83 -123.072 513.402 -120.821C521.181 -114.069 527.9 -106.561 533.526 -98.4904Z" fill="#C07720"/>
<path d="M492.361 -135.178C492.296 -131.593 491.862 -127.879 491.316 -124.085C489.853 -113.989 489.242 -104.825 484.774 -95.6611C482.395 -90.8059 479.357 -84.9861 482.427 -79.8415C484.34 -76.6261 486.879 -75.2595 488.262 -71.4814C489.692 -67.5908 489.869 -64.5845 489.274 -60.4527C488.39 -54.2631 485.995 -48.5558 482.877 -43.1861C479.759 -37.8164 474.76 -33.9418 471.4 -29.1509C469.005 -25.7104 467.703 -19.2475 467.253 -15.1479C466.433 -7.72037 470.966 -4.42458 471.802 1.90974C475.563 30.9447 435.041 18.0349 422.407 31.6199C414.885 39.7066 417.215 52.761 419.578 62.1178C421.089 68.0824 422.873 75.3974 419.418 81.0243C417.971 83.4037 415.737 86.1368 413.133 88.7413C410.818 88.3233 408.487 87.8409 406.205 87.2783C388.186 82.9536 370.923 74.3524 355.926 61.3944C345.205 52.1341 336.509 41.3947 329.919 29.7389C325.305 21.62 321.721 13.0511 319.117 4.22482C308.042 -33.6524 315.822 -76.2081 343.517 -108.298C352.824 -119.069 363.625 -127.799 375.343 -134.439C399.486 -148.088 427.551 -152.831 454.507 -148.313C455.568 -148.152 456.645 -147.959 457.705 -147.734C469.648 -145.403 481.366 -141.223 492.361 -135.178Z" fill="#D37F22"/>
<path d="M454.491 -148.296C453.061 -145.965 451.485 -143.763 449.781 -141.721C444.943 -135.933 436.022 -131.785 431.972 -125.837C430.171 -123.2 429.77 -122.734 430.139 -119.181C430.557 -114.921 432.004 -112.155 431.634 -107.911C430.975 -100.403 428.259 -97.236 422.118 -92.6058C414.033 -86.5127 389.569 -82.7667 388.717 -71.8826C388.203 -65.3393 391.835 -58.7639 389.039 -52.317C384.827 -42.5744 372.884 -37.5262 363.562 -34.6002C354.833 -31.8511 344.739 -30.3077 344.257 -19.8095C343.839 -10.6456 342.778 -7.70357 334.58 -2.23741C329.839 0.913668 324.599 3.27699 319.101 4.20945C308.027 -33.6678 315.806 -76.2234 343.501 -108.313C352.808 -119.084 363.61 -127.814 375.328 -134.454C399.487 -148.087 427.551 -152.814 454.491 -148.296Z" fill="#F98F26"/>
<path opacity="0.3" d="M387.045 49.0475C387.543 49.3851 388.009 49.9799 388.427 50.414C388.877 50.8802 389.311 51.3625 389.729 51.8609C390.083 52.2789 390.324 52.713 390.758 53.0345C391.256 53.3882 391.674 53.7741 392.044 54.2725C392.976 55.5104 393.185 56.893 393.667 58.3238C393.892 58.983 394.117 59.4975 394.198 60.2049C394.278 60.9605 394.166 61.6679 394.085 62.4074C394.037 62.8736 394.15 63.3398 394.069 63.79C393.989 64.2884 393.635 64.6581 393.169 64.7385C392.526 64.835 391.996 65.1083 391.449 65.4299C390.951 65.7193 390.485 65.9604 389.89 65.9765C389.086 65.9926 388.283 65.671 387.495 65.5585C386.643 65.4459 385.823 65.3012 385.02 64.9958C384.377 64.7546 383.846 64.4331 383.252 64.0955C382.335 63.581 381.5 63.1147 380.632 62.5199C379.908 62.0215 379.217 61.491 378.542 60.9444C378.188 60.655 377.867 60.3334 377.513 60.0601C377.208 59.8351 376.838 59.7225 376.549 59.4653C376.34 59.2724 376.259 59.0634 376.147 58.8061C375.922 58.3238 375.584 58.1148 375.215 57.7611C374.813 57.3753 374.604 56.8126 374.234 56.3946C373.881 55.9927 373.173 55.8158 372.916 55.3175C372.659 54.8191 372.804 54.1921 372.418 53.7419C372.225 53.5168 371.936 53.4364 371.727 53.2435C371.55 53.0667 371.373 52.7612 371.244 52.5361C371.019 52.1342 371.1 51.7484 370.875 51.3304C370.409 50.5104 370.103 49.5941 369.926 48.6616C369.83 48.1793 369.782 47.697 369.782 47.2147C369.782 46.7163 370.007 46.4109 370.071 45.9285C370.119 45.607 369.991 45.2855 370.103 44.9639C370.248 44.5298 370.537 44.3369 370.907 44.0957C371.261 43.8546 371.469 43.4848 371.839 43.2919C372.145 43.1311 372.498 43.0186 372.836 42.9382C373.334 42.8096 373.784 42.8257 374.282 42.8257C374.797 42.8417 375.263 42.6167 375.777 42.6167C376.501 42.6167 377.176 43.0186 377.803 43.2919C378.51 43.6134 379.217 43.9993 379.94 44.2887C380.599 44.5459 381.21 44.6745 381.805 45.1086C382.335 45.4944 382.737 45.8803 383.332 46.1536C383.605 46.2822 383.878 46.4108 384.168 46.5073C384.345 46.5716 384.73 46.6037 384.875 46.7002C385.197 46.9253 385.47 47.5523 385.695 47.8738C386.097 48.4205 386.466 48.6616 387.045 49.0475Z" fill="#3ABFDD"/>
<path d="M386.546 49.5937C387.334 50.3172 388.09 51.0888 388.781 51.8927C389.118 52.2785 389.44 52.6644 389.745 53.0663C389.89 53.2592 390.067 53.4522 390.195 53.6612C390.308 53.8541 390.308 54.0149 390.388 54.2239C390.549 54.6419 390.967 54.9473 391.256 55.2849C391.77 55.8958 391.899 56.346 392.06 57.1338C392.188 57.7608 392.381 57.8412 392.671 58.3395C393.089 59.0469 393.024 60.2206 393.105 61.0083C393.153 61.4906 393.153 61.8765 393.008 62.3427C392.847 62.8571 392.638 63.3394 392.269 63.7414C391.401 64.6899 390.115 65.0115 388.861 64.9632C388.266 64.9472 387.543 64.8989 386.997 64.6899C386.402 64.4648 385.936 63.9825 385.341 63.7414C384.827 63.5324 384.296 63.5646 383.782 63.3716C383.46 63.2591 383.219 63.0179 382.946 62.825C382.239 62.3427 381.242 62.2141 380.583 61.6835C380.31 61.4585 380.149 61.153 379.86 60.9279C379.49 60.6385 379.088 60.4617 378.751 60.1402C378.413 59.8025 378.043 59.481 377.658 59.2077C377.368 58.9987 377.159 58.8861 376.95 58.5646C376.774 58.2752 376.645 57.9698 376.404 57.7125C375.986 57.2624 375.407 57.1177 375.102 56.555C374.909 56.2013 374.845 55.7833 374.636 55.4296C374.33 54.9312 373.88 54.3685 373.446 53.9666C373.205 53.7415 372.932 53.5808 372.723 53.3236C372.466 53.002 372.434 52.6001 372.257 52.2464C371.807 51.3461 371.437 50.3815 371.212 49.4008C370.987 48.3879 370.858 47.2304 371.148 46.2175C371.228 45.9121 371.389 45.4941 371.662 45.3011C371.823 45.1886 371.935 45.2368 372.064 45.1243C372.176 45.0118 372.209 44.7224 372.289 44.5937C372.498 44.2561 372.659 44.2079 373.028 44.1597C373.945 44.0471 374.796 43.8542 375.713 43.9346C376.581 43.9989 377.449 44.2079 378.285 44.4812C380.374 45.1725 382.303 46.2818 384.071 47.5841C384.939 48.195 385.775 48.8702 386.546 49.5937Z" fill="#704807"/>
<path d="M386.547 49.5943C391.433 54.0798 394.005 59.4655 392.976 62.5362C390.003 63.8063 384.425 61.7002 379.539 57.1987C374.652 52.7132 372.08 47.3275 373.109 44.2568C376.099 42.9867 381.676 45.1089 386.547 49.5943Z" fill="#996407"/>
<path opacity="0.3" d="M471.031 56.5075C471.481 56.0895 472.156 55.784 472.671 55.4625C473.233 55.1249 473.796 54.8034 474.374 54.514C474.873 54.2567 475.355 54.1281 475.757 53.7745C476.223 53.3725 476.689 53.051 477.252 52.7937C478.682 52.1667 480.081 52.2793 481.591 52.1185C482.299 52.0542 482.845 51.9416 483.552 52.022C484.324 52.1185 484.967 52.3757 485.69 52.633C486.124 52.7937 486.606 52.7938 487.04 52.9706C487.523 53.1635 487.796 53.5976 487.764 54.0638C487.716 54.7069 487.86 55.3017 488.053 55.9127C488.23 56.4593 488.359 56.9898 488.23 57.5686C488.069 58.3564 487.555 59.0798 487.282 59.8193C486.976 60.6232 486.655 61.3949 486.172 62.1183C485.787 62.6971 485.353 63.1473 484.887 63.6457C484.179 64.4174 483.52 65.1408 482.733 65.8482C482.09 66.443 481.399 67.0058 480.707 67.5363C480.354 67.8096 479.952 68.0508 479.598 68.3401C479.309 68.5813 479.116 68.935 478.795 69.144C478.57 69.3048 478.328 69.3208 478.055 69.3851C477.525 69.4977 477.252 69.771 476.818 70.0603C476.351 70.3658 475.757 70.4462 475.258 70.7035C474.776 70.9607 474.439 71.6038 473.908 71.7484C473.362 71.8931 472.783 71.6037 472.253 71.877C471.995 72.0217 471.851 72.295 471.594 72.4397C471.369 72.5844 471.031 72.6809 470.79 72.7452C470.34 72.8738 469.986 72.697 469.52 72.8417C468.604 73.0989 467.639 73.1954 466.691 73.1632C466.209 73.1471 465.711 73.0828 465.244 72.9703C464.746 72.8577 464.505 72.5684 464.055 72.3915C463.75 72.2629 463.412 72.3272 463.123 72.1504C462.721 71.9092 462.608 71.5877 462.448 71.1697C462.303 70.7677 461.981 70.4784 461.869 70.0764C461.789 69.7388 461.756 69.3691 461.74 69.0314C461.724 68.517 461.837 68.0829 461.965 67.5845C462.094 67.0861 461.981 66.5717 462.11 66.0733C462.271 65.3659 462.817 64.8032 463.235 64.2405C463.701 63.6135 464.248 63.0186 464.698 62.3756C465.1 61.7807 465.373 61.218 465.919 60.7357C466.418 60.3017 466.884 59.9962 467.302 59.4817C467.495 59.2406 467.672 58.9994 467.848 58.7422C467.945 58.5814 468.073 58.2117 468.202 58.0831C468.507 57.8097 469.182 57.6972 469.536 57.5525C470.211 57.2953 470.533 56.9898 471.031 56.5075Z" fill="#3ABFDD"/>
<path d="M471.449 57.1175C472.333 56.5066 473.265 55.9439 474.214 55.4455C474.664 55.2044 475.13 54.9793 475.58 54.7703C475.805 54.6739 476.03 54.5452 476.255 54.4649C476.464 54.4006 476.625 54.4327 476.85 54.4005C477.3 54.3362 477.686 53.9986 478.087 53.8057C478.811 53.4359 479.277 53.4198 480.081 53.4359C480.723 53.452 480.852 53.2913 481.415 53.1144C482.202 52.8733 483.327 53.1948 484.131 53.3073C484.613 53.3716 484.999 53.4681 485.417 53.7092C485.883 53.9826 486.301 54.3041 486.623 54.7542C487.362 55.8314 487.378 57.1497 487.041 58.3715C486.88 58.9342 486.671 59.6416 486.333 60.14C485.98 60.6706 485.401 61.0243 485.031 61.5548C484.71 62.0049 484.613 62.5355 484.324 63.0017C484.131 63.2911 483.842 63.4679 483.601 63.693C482.974 64.2879 482.604 65.2203 481.945 65.7508C481.656 65.9759 481.318 66.0563 481.029 66.2814C480.659 66.5708 480.402 66.9406 480 67.1817C479.598 67.4389 479.197 67.7123 478.843 68.0338C478.57 68.2749 478.409 68.4518 478.055 68.5804C477.734 68.6929 477.396 68.7412 477.107 68.918C476.576 69.2235 476.303 69.754 475.66 69.9309C475.274 70.0434 474.84 70.0113 474.455 70.1399C473.892 70.3167 473.233 70.6382 472.751 70.9759C472.478 71.1527 472.253 71.3939 471.947 71.5386C471.578 71.7154 471.176 71.6672 470.774 71.7476C469.777 71.9726 468.765 72.1334 467.752 72.1173C466.723 72.1012 465.55 71.9726 464.634 71.4582C464.36 71.2974 463.975 71.0563 463.862 70.7508C463.798 70.574 463.862 70.4614 463.782 70.3167C463.701 70.1881 463.412 70.0756 463.316 69.9791C463.042 69.7058 463.026 69.5289 463.058 69.1591C463.171 68.2428 463.155 67.3586 463.444 66.4743C463.717 65.6383 464.119 64.8345 464.569 64.0788C465.711 62.1978 467.254 60.5419 468.925 59.1111C469.713 58.3715 470.565 57.7124 471.449 57.1175Z" fill="#704807"/>
<path d="M471.449 57.1184C476.962 53.3564 482.813 52.0703 485.594 53.7744C486.157 56.9898 482.813 61.9576 477.3 65.7196C471.787 69.4816 465.936 70.7677 463.155 69.0636C462.608 65.8482 465.952 60.8804 471.449 57.1184Z" fill="#996407"/>
<path opacity="0.3" d="M476.818 -4.95457C476.994 -4.3115 477.139 -3.65239 477.187 -2.99324C477.22 -2.54308 477.027 -2.15722 477.027 -1.72314C477.027 -1.36945 477.252 -1.09612 477.236 -0.742426C477.22 -0.40481 477.027 -0.0511101 476.962 0.270428C476.882 0.672352 476.753 1.07424 476.609 1.44401C476.319 2.21571 475.918 2.95525 475.435 3.61441C474.439 4.94879 473.056 5.96162 471.465 6.46001C470.919 6.63685 470.372 6.73335 469.826 6.79766C468.395 6.92627 466.932 6.65296 465.63 6.04204C465.003 5.75266 464.377 5.415 463.927 4.90054C463.525 4.45039 462.866 4.22535 462.625 3.6305C462.432 3.16427 462.078 2.81058 461.74 2.42473C461.339 1.94242 461.258 1.46008 461.033 0.881311C460.824 0.350772 460.39 0.0453201 460.326 -0.565603C460.278 -0.983603 460.326 -1.38551 460.246 -1.80351C460.053 -2.76812 460.053 -3.66845 460.294 -4.63306C460.39 -5.05106 460.728 -5.35651 460.921 -5.72628C461.097 -6.07998 461.13 -6.53012 461.226 -6.91596C461.355 -7.39827 461.435 -7.70373 461.724 -8.12173C462.014 -8.53973 462.335 -8.94169 462.689 -9.31146C462.898 -9.52046 463.139 -9.60081 463.38 -9.77765C463.653 -9.97058 463.878 -10.2439 464.135 -10.4529C464.569 -10.7905 465.02 -11.0638 465.534 -11.2246C466.45 -11.5301 467.431 -11.6426 468.363 -11.8838C469.183 -12.0928 469.858 -11.8034 470.549 -11.3211C470.838 -11.1282 471.192 -11.0638 471.513 -10.9192C471.899 -10.7423 472.285 -10.5494 472.655 -10.3082C473.233 -9.93845 473.78 -9.52044 474.262 -9.03813C474.728 -8.5719 474.969 -8.00921 475.467 -7.59121C475.95 -7.18929 476.239 -7.04458 476.416 -6.41758C476.528 -5.9192 476.673 -5.43688 476.818 -4.95457Z" fill="#3ABFDD"/>
<path d="M475.629 -4.58416C476.963 -0.355925 474.937 4.06525 471.08 5.2871C470.614 5.43179 470.131 5.52824 469.649 5.57647C466.225 5.88194 462.834 3.55077 461.66 -0.163002C460.31 -4.40731 462.368 -8.82846 466.209 -10.0503C467.543 -10.4683 468.926 -10.4522 470.212 -10.0824C472.655 -9.3429 474.761 -7.34939 475.629 -4.58416Z" fill="#704807"/>
<path d="M475.628 -4.58472C476.962 -0.356492 474.937 4.06469 471.079 5.28653C470.613 5.43123 470.131 5.52768 469.649 5.57591C467.221 4.86852 465.1 2.87498 464.216 0.0936678C462.865 -4.15064 464.923 -8.57179 468.765 -9.79363C469.247 -9.93833 469.729 -10.0348 470.211 -10.083C472.654 -9.34347 474.76 -7.34996 475.628 -4.58472Z" fill="#996407"/>
<path opacity="0.31" d="M546.272 -94.5833C546.272 -94.728 546.288 -94.8566 546.288 -95.0013C540.1 -103.876 532.706 -112.139 524.155 -119.535C521.31 -121.995 518.4 -124.31 515.394 -126.464C510.829 -129.792 506.104 -132.766 501.249 -135.435C489.162 -142.091 476.271 -146.689 463.122 -149.245C461.949 -149.47 460.776 -149.695 459.618 -149.872C439.172 -153.296 418.132 -151.882 398.345 -145.74C389.36 -142.975 380.632 -139.229 372.337 -134.534C359.462 -127.236 347.568 -117.638 337.329 -105.789C306.853 -70.5001 298.318 -23.7002 310.485 17.9712C313.33 27.6656 317.301 37.1028 322.364 46.0255C329.629 58.8388 339.193 70.6553 350.975 80.832C367.467 95.0762 386.466 104.546 406.269 109.304C408.793 109.915 411.333 110.462 413.888 110.912C433.482 114.465 453.655 113.516 472.815 108.211C474.76 107.681 476.689 107.086 478.618 106.459C480.595 105.816 482.572 105.124 484.517 104.385V104.369C504.384 96.8447 522.708 84.385 537.576 67.1988C577.825 20.5435 579.802 -46.1757 546.272 -94.5833Z" fill="#47C7E3"/>
</g>
</g>
<defs>
<linearGradient id="paint0_linear_469_287" x1="106.352" y1="460.88" x2="96.6224" y2="468.741" gradientUnits="userSpaceOnUse">
<stop stop-color="#DC3D7B"/>
<stop offset="1" stop-color="#EFC55C"/>
</linearGradient>
<linearGradient id="paint1_linear_469_287" x1="164.671" y1="410.771" x2="176.909" y2="423.881" gradientUnits="userSpaceOnUse">
<stop offset="0.3303" stop-color="#2C285B" stop-opacity="0.6"/>
<stop offset="1" stop-color="#4F80C0" stop-opacity="0"/>
</linearGradient>
<linearGradient id="paint2_linear_469_287" x1="102.738" y1="436.07" x2="84.2373" y2="431.458" gradientUnits="userSpaceOnUse">
<stop stop-color="#152941"/>
<stop offset="1" stop-color="#4F80C0" stop-opacity="0"/>
</linearGradient>
<linearGradient id="paint3_linear_469_287" x1="126.005" y1="466.327" x2="125.611" y2="485.389" gradientUnits="userSpaceOnUse">
<stop stop-color="#152941"/>
<stop offset="1" stop-color="#4F80C0" stop-opacity="0"/>
</linearGradient>
<linearGradient id="paint4_linear_469_287" x1="84.9745" y1="428.483" x2="135.063" y2="458.889" gradientUnits="userSpaceOnUse">
<stop stop-color="#162435"/>
<stop offset="0.0671" stop-color="#1F2C3C" stop-opacity="0.9031"/>
<stop offset="0.175" stop-color="#364251" stop-opacity="0.7472"/>
<stop offset="0.3103" stop-color="#5D6672" stop-opacity="0.5519"/>
<stop offset="0.4676" stop-color="#92989F" stop-opacity="0.3247"/>
<stop offset="0.6414" stop-color="#D6D7D9" stop-opacity="0.0735"/>
<stop offset="0.6923" stop-color="#EBEBEB" stop-opacity="0"/>
</linearGradient>
<radialGradient id="paint5_radial_469_287" cx="0" cy="0" r="1" gradientUnits="userSpaceOnUse" gradientTransform="translate(129.588 430.893) rotate(52.5907) scale(13.2917 13.2914)">
<stop offset="0.1469" stop-color="#0A1126"/>
<stop offset="0.4174" stop-color="#202735" stop-opacity="0.6816"/>
<stop offset="0.9965" stop-color="#4C5454" stop-opacity="0"/>
</radialGradient>
<linearGradient id="paint6_linear_469_287" x1="1405.74" y1="136.435" x2="1330.86" y2="92.3467" gradientUnits="userSpaceOnUse">
<stop stop-color="#4570B4"/>
<stop offset="1" stop-color="#68A8DE"/>
</linearGradient>
<linearGradient id="paint7_linear_469_287" x1="1405.74" y1="136.435" x2="1330.86" y2="92.3467" gradientUnits="userSpaceOnUse">
<stop stop-color="#4570B4"/>
<stop offset="1" stop-color="#43A6FA"/>
</linearGradient>
<clipPath id="clip0_469_287">
<rect width="1500" height="634.548" fill="white"/>
</clipPath>
<clipPath id="clip1_469_287">
<rect width="2599.97" height="1365.25" fill="white" transform="translate(-402.167 -532.694)"/>
</clipPath>
</defs>
</svg>
