<svg width="1148" height="323" viewBox="0 0 1148 323" fill="none" xmlns="http://www.w3.org/2000/svg">
<g clip-path="url(#clip0_475_2)" filter="url(#filter0_d_475_2)">
<rect width="1140" height="315" transform="translate(4)" fill="white"/>
<rect width="1139" height="315" transform="translate(5)" fill="#0B1B44"/>
<path opacity="0.47" d="M157.906 59.2593C162.715 54.9232 167.639 49.9006 174.271 49.1057C180.088 48.383 185.672 51.1292 191.062 53.3333C218.324 64.4625 251.441 62.0777 276.57 47.2629C294.874 36.4589 308.563 19.2593 315 0H5V62.4752C23.2262 77.3984 46.6487 86.8654 70.8469 88.5998C102.568 90.8401 135.104 79.8916 157.906 59.2593Z" fill="#081330"/>
<path opacity="0.47" d="M105 314.741C96.5768 311.762 87.7427 309.348 80.1926 304.674C65.7601 295.789 56.9774 278.583 58.1587 261.737C59.6995 240.576 75.416 222.24 76.2378 201.028C77.4705 170.622 45.2157 146.482 14.8613 148.074C11.5229 148.229 8.23575 148.691 5 149.307V314.947L105 314.741Z" fill="#081330"/>
<path opacity="0.47" d="M641.109 116.811C639.598 104.363 634.186 92.6665 621.315 90.8815C615.367 89.5193 605.86 91.5862 601.375 93.7939C595.281 96.7533 591.039 102.343 586.456 107.228C581.874 112.114 575.974 116.764 569.149 116.764C562.47 116.764 556.766 112.489 550.623 109.953C536.777 104.316 518.055 110 512.839 123.575C507.866 136.587 516.154 151.102 527.026 160.121C541.457 172.052 560.958 178.065 579.875 176.468C598.791 174.871 616.879 165.617 628.872 151.431C637.16 141.754 642.62 129.259 641.109 116.811Z" fill="#081330"/>
<path opacity="0.47" d="M1067.31 315.223H1009.41H824C830.89 295.363 850.233 280.484 871.128 276.149C894.644 271.265 919.356 277.896 940.478 289.379C961.956 250.887 1012.25 231.22 1054.14 244.935C1059.61 221.323 1074.88 200.136 1095.55 187.456C1110.04 178.561 1127.02 173.968 1144 174V315.256L1067.31 315.223Z" fill="#081330"/>
<path opacity="0.47" d="M985.285 47.0139C1003.13 60.1069 1026.42 65.5515 1048.24 61.7057C1051.18 87.33 1072.96 109.584 1098.5 113.041C1114.7 115.244 1131.43 109.757 1144 99.3859V0H954C958.58 18.6673 969.772 35.6493 985.285 47.0139Z" fill="#081330"/>
<path d="M896.922 209.476L896.871 211.483C896.871 211.642 896.922 211.748 897.026 211.853L898.628 213.068C898.938 213.28 898.835 213.755 898.473 213.861L896.561 214.442C896.406 214.495 896.302 214.601 896.251 214.706L895.63 216.608C895.527 216.978 895.062 217.031 894.855 216.714L893.77 215.023C893.666 214.918 893.563 214.812 893.408 214.812H891.444C891.082 214.812 890.875 214.389 891.082 214.072L892.271 212.487C892.374 212.382 892.374 212.223 892.323 212.065L891.702 210.163C891.599 209.793 891.909 209.476 892.271 209.582L894.132 210.268C894.287 210.321 894.442 210.321 894.545 210.216L896.147 209.053C896.509 208.895 896.922 209.106 896.922 209.476Z" fill="#FBBB16"/>
<path d="M559.121 65.9147L561.136 68.0808C561.291 68.2393 561.498 68.2921 561.705 68.2921L564.599 67.8166C565.116 67.7109 565.529 68.2921 565.271 68.8204L563.876 71.462C563.772 71.6733 563.772 71.8846 563.876 72.0959L565.219 74.7375C565.478 75.213 565.064 75.7941 564.496 75.6885L561.601 75.1601C561.395 75.1073 561.188 75.213 561.033 75.3186L558.966 77.4319C558.604 77.8017 557.932 77.5904 557.828 77.0621L557.467 74.1035C557.415 73.8922 557.312 73.6809 557.105 73.5752L554.469 72.2016C554.004 71.9374 554.004 71.2506 554.469 70.9865L557.105 69.7185C557.312 69.6129 557.415 69.4544 557.467 69.243L557.932 66.2845C558.087 65.7034 558.759 65.492 559.121 65.9147Z" fill="#FB7816"/>
<path d="M301.297 106.052L303.313 108.218C303.468 108.376 303.675 108.429 303.882 108.429L306.776 107.954C307.293 107.848 307.706 108.429 307.448 108.958L306.052 111.599C305.949 111.81 305.949 112.022 306.052 112.233L307.396 114.875C307.654 115.35 307.241 115.931 306.672 115.826L303.778 115.297C303.571 115.245 303.365 115.35 303.21 115.456L301.142 117.569C300.78 117.939 300.109 117.728 300.005 117.199L299.643 114.241C299.592 114.029 299.488 113.818 299.282 113.712L296.646 112.339C296.181 112.075 296.181 111.388 296.646 111.124L299.282 109.856C299.488 109.75 299.592 109.592 299.643 109.38L300.109 106.422C300.264 105.841 300.936 105.629 301.297 106.052Z" fill="#FB7816"/>
<path d="M301.297 106.052L303.313 108.218C303.468 108.376 303.675 108.429 303.882 108.429L306.776 107.954C307.293 107.848 307.706 108.429 307.448 108.958L306.052 111.599C305.949 111.81 305.949 112.022 306.052 112.233L307.396 114.875C307.654 115.35 307.241 115.931 306.672 115.826L303.778 115.297C303.571 115.245 303.365 115.35 303.21 115.456L301.142 117.569C300.78 117.939 300.109 117.728 300.005 117.199L299.643 114.241C299.592 114.029 299.488 113.818 299.282 113.712L296.646 112.339C296.181 112.075 296.181 111.388 296.646 111.124L299.282 109.856C299.488 109.75 299.592 109.592 299.643 109.38L300.109 106.422C300.264 105.841 300.936 105.629 301.297 106.052Z" fill="#FB7816"/>
<path d="M249.721 68.4148L249.515 71.4261C249.515 71.6375 249.618 71.8488 249.773 72.0073L252.099 73.8564C252.512 74.1734 252.357 74.913 251.84 75.0187L248.998 75.7583C248.791 75.8111 248.636 75.9696 248.533 76.1809L247.499 78.981C247.292 79.5093 246.62 79.5621 246.31 79.0867L244.76 76.5508C244.656 76.3394 244.449 76.2338 244.243 76.2338L241.297 76.1281C240.78 76.1281 240.47 75.4413 240.832 75.0187L242.692 72.6941C242.847 72.5356 242.899 72.2714 242.796 72.0601L242.02 69.1544C241.865 68.6261 242.382 68.1506 242.899 68.3619L245.638 69.4714C245.845 69.577 246.052 69.5242 246.258 69.4185L248.688 67.7279C249.153 67.5166 249.773 67.8864 249.721 68.4148Z" fill="#FB7816"/>
<path d="M249.721 68.4148L249.515 71.4261C249.515 71.6375 249.618 71.8488 249.773 72.0073L252.099 73.8564C252.512 74.1734 252.357 74.913 251.84 75.0187L248.998 75.7583C248.791 75.8111 248.636 75.9696 248.533 76.1809L247.499 78.981C247.292 79.5093 246.62 79.5621 246.31 79.0867L244.76 76.5508C244.656 76.3394 244.449 76.2338 244.243 76.2338L241.297 76.1281C240.78 76.1281 240.47 75.4413 240.832 75.0187L242.692 72.6941C242.847 72.5356 242.899 72.2714 242.796 72.0601L242.02 69.1544C241.865 68.6261 242.382 68.1506 242.899 68.3619L245.638 69.4714C245.845 69.577 246.052 69.5242 246.258 69.4185L248.688 67.7279C249.153 67.5166 249.773 67.8864 249.721 68.4148Z" fill="#FB7816"/>
<path d="M857.922 64.4978L857.871 66.5054C857.871 66.6639 857.922 66.7695 858.026 66.8752L859.628 68.0903C859.938 68.3016 859.835 68.7771 859.473 68.8828L857.561 69.4639C857.406 69.5168 857.302 69.6224 857.251 69.7281L856.63 71.63C856.527 71.9998 856.062 72.0527 855.855 71.7357L854.77 70.0451C854.666 69.9394 854.563 69.8337 854.408 69.8337H852.444C852.082 69.8337 851.875 69.4111 852.082 69.0941L853.271 67.5092C853.374 67.4035 853.374 67.245 853.323 67.0865L852.702 65.1846C852.599 64.8148 852.909 64.4978 853.271 64.6035L855.132 65.2903C855.287 65.3431 855.442 65.3431 855.545 65.2374L857.147 64.0751C857.561 63.8638 857.974 64.128 857.922 64.4978Z" fill="#FB7816"/>
<path d="M658.414 234.331L658.362 236.338C658.362 236.497 658.414 236.602 658.518 236.708L660.12 237.923C660.43 238.135 660.326 238.61 659.965 238.716L658.052 239.297C657.897 239.35 657.794 239.455 657.742 239.561L657.122 241.463C657.019 241.833 656.554 241.886 656.347 241.569L655.261 239.878C655.158 239.772 655.055 239.667 654.9 239.667H652.936C652.574 239.667 652.367 239.244 652.574 238.927L653.763 237.342C653.866 237.236 653.866 237.078 653.814 236.919L653.297 235.07C653.194 234.701 653.504 234.384 653.866 234.489L655.727 235.176C655.882 235.229 656.037 235.229 656.14 235.123L657.742 233.961C658.052 233.75 658.466 233.961 658.414 234.331Z" fill="#FBBB16"/>
<path d="M402.06 231.212L402.008 233.22C402.008 233.378 402.06 233.484 402.164 233.589L403.766 234.805C404.076 235.016 403.972 235.491 403.611 235.597L401.698 236.178C401.543 236.231 401.44 236.337 401.388 236.442L400.768 238.344C400.665 238.714 400.2 238.767 399.993 238.45L398.907 236.759C398.804 236.654 398.701 236.548 398.546 236.548H396.582C396.22 236.548 396.013 236.125 396.22 235.808L397.409 234.223C397.512 234.118 397.512 233.959 397.46 233.801L396.84 231.899C396.737 231.529 397.047 231.212 397.409 231.318L399.269 232.005C399.424 232.057 399.579 232.057 399.683 231.952L401.285 230.789C401.647 230.578 402.06 230.789 402.06 231.212Z" fill="#FBBB16"/>
<path d="M783.511 241.22L783.46 243.228C783.46 243.386 783.511 243.492 783.615 243.597L785.217 244.813C785.527 245.024 785.424 245.499 785.062 245.605L783.15 246.186C782.995 246.239 782.891 246.345 782.839 246.45L782.219 248.352C782.116 248.722 781.651 248.775 781.444 248.458L780.359 246.767C780.255 246.662 780.152 246.556 779.997 246.556H778.033C777.671 246.556 777.464 246.133 777.671 245.816L778.86 244.231C778.963 244.126 778.963 243.967 778.911 243.809L778.291 241.907C778.188 241.537 778.498 241.22 778.86 241.326L780.72 242.012C780.875 242.065 781.031 242.065 781.134 241.96L782.736 240.797C783.098 240.639 783.511 240.85 783.511 241.22Z" fill="#FBBB16"/>
<path d="M747.539 132.493L745.833 133.55C745.73 133.603 745.627 133.761 745.627 133.92L745.523 135.927C745.523 136.297 745.058 136.509 744.8 136.244L743.301 134.924C743.198 134.818 743.042 134.818 742.887 134.818L740.975 135.346C740.613 135.452 740.303 135.082 740.458 134.765L741.234 132.916C741.285 132.758 741.285 132.599 741.182 132.493L740.096 130.803C739.89 130.486 740.148 130.063 740.51 130.116L742.474 130.274C742.629 130.274 742.784 130.222 742.836 130.116L744.076 128.531C744.283 128.267 744.748 128.373 744.851 128.69L745.317 130.644C745.368 130.803 745.472 130.908 745.575 130.961L747.436 131.701C747.797 131.807 747.849 132.282 747.539 132.493Z" fill="#FBBB16"/>
<path d="M61.0005 127.222L63.0161 129.388C63.1712 129.547 63.3779 129.6 63.5847 129.6L66.479 129.124C66.9958 129.019 67.4093 129.6 67.1509 130.128L65.7554 132.77C65.652 132.981 65.652 133.192 65.7554 133.404L67.0992 136.045C67.3576 136.521 66.9441 137.102 66.3756 136.996L63.4813 136.468C63.2746 136.415 63.0678 136.521 62.9128 136.626L60.8454 138.739C60.4836 139.109 59.8117 138.898 59.7083 138.37L59.3466 135.411C59.2949 135.2 59.1915 134.988 58.9848 134.883L56.3489 133.509C55.8837 133.245 55.8837 132.558 56.3489 132.294L58.9848 131.026C59.1915 130.92 59.2949 130.762 59.3466 130.551L59.8117 127.592C59.9668 127.011 60.6387 126.8 61.0005 127.222Z" fill="#FB7816"/>
<path d="M54.9225 227.476L54.8708 229.483C54.8708 229.642 54.9224 229.748 55.0258 229.853L56.6281 231.068C56.9382 231.28 56.8348 231.755 56.473 231.861L54.5607 232.442C54.4057 232.495 54.3022 232.601 54.2505 232.706L53.6304 234.608C53.527 234.978 53.0618 235.031 52.8551 234.714L51.7697 233.023C51.6664 232.918 51.563 232.812 51.4079 232.812H49.4439C49.0822 232.812 48.8754 232.389 49.0821 232.072L50.2709 230.487C50.3743 230.382 50.3742 230.223 50.3226 230.065L49.7024 228.163C49.599 227.793 49.9091 227.476 50.2709 227.582L52.1315 228.268C52.2866 228.321 52.4416 228.321 52.545 228.216L54.1472 227.053C54.509 226.895 54.9225 227.106 54.9225 227.476Z" fill="#FBBB16"/>
<path d="M968.922 80.4759L968.871 82.4835C968.871 82.642 968.922 82.7476 969.026 82.8533L970.628 84.0684C970.938 84.2797 970.835 84.7552 970.473 84.8609L968.561 85.442C968.406 85.4948 968.302 85.6005 968.251 85.7062L967.63 87.6081C967.527 87.9779 967.062 88.0308 966.855 87.7138L965.77 86.0232C965.666 85.9175 965.563 85.8118 965.408 85.8118H963.444C963.082 85.8118 962.875 85.3892 963.082 85.0722L964.271 83.4873C964.374 83.3816 964.374 83.2231 964.323 83.0646L963.702 81.1627C963.599 80.7929 963.909 80.4759 964.271 80.5816L966.132 81.2684C966.287 81.3212 966.442 81.3212 966.545 81.2155L968.147 80.0532C968.509 79.8947 968.922 80.1061 968.922 80.4759Z" fill="#FBBB16"/>
<path d="M1108.05 102.747L1107.84 105.759C1107.84 105.97 1107.94 106.181 1108.1 106.34L1110.42 108.189C1110.84 108.506 1110.68 109.246 1110.17 109.351L1107.32 110.091C1107.12 110.144 1106.96 110.302 1106.86 110.513L1105.82 113.314C1105.62 113.842 1104.95 113.895 1104.64 113.419L1103.08 110.883C1102.98 110.672 1102.77 110.566 1102.57 110.566L1099.62 110.461C1099.11 110.461 1098.79 109.774 1099.16 109.351L1101.02 107.027C1101.17 106.868 1101.22 106.604 1101.12 106.393L1100.35 103.487C1100.19 102.959 1100.71 102.483 1101.22 102.694L1103.96 103.804C1104.17 103.91 1104.38 103.857 1104.58 103.751L1107.01 102.06C1107.48 101.849 1108.1 102.219 1108.05 102.747Z" fill="#FB7816"/>
<path d="M956.093 177.285C957.551 177.285 957.551 175.001 956.093 175.001C954.636 174.951 954.636 177.285 956.093 177.285Z" fill="white"/>
<path d="M806.984 65.0859C808.296 65.0859 808.296 63 806.984 63C805.672 63 805.672 65.0859 806.984 65.0859Z" fill="white"/>
<path d="M838.169 129.384C838.801 129.384 839.384 128.838 839.335 128.192C839.286 127.546 838.801 127 838.169 127C837.537 127 836.954 127.546 837.003 128.192C837.051 128.838 837.537 129.384 838.169 129.384Z" fill="white"/>
<path d="M890.208 158.288C890.318 157.665 890.097 158.061 889.488 159.589C889.71 159.306 889.931 159.023 890.152 158.74C889.71 159.193 889.267 159.645 888.824 160.098C888.603 160.154 888.381 160.267 888.16 160.324C887.662 160.324 887.164 160.324 886.666 160.324C886.832 160.381 887.33 160.437 887.551 160.437C888.547 160.437 889.433 159.928 890.042 159.136C891.093 157.722 891.038 155.516 889.71 154.215C888.437 152.97 886.445 152.574 884.895 153.536C883.235 154.554 882.737 156.478 883.124 158.288C883.401 159.815 885.172 161.116 886.666 161.059C888.16 160.946 889.876 159.928 890.208 158.288Z" fill="white"/>
<path d="M1013.5 150.729C1013.35 150.729 1013.26 150.779 1013.11 150.779C1012.58 150.829 1011.99 151.226 1012.04 151.872C1012.09 152.517 1012.53 152.915 1013.11 152.964C1013.26 152.964 1013.35 153.014 1013.5 153.014C1014.08 153.064 1014.62 152.468 1014.62 151.872C1014.62 151.276 1014.13 150.63 1013.5 150.729Z" fill="white"/>
<path d="M1064.32 10.7576C1065.78 10.7576 1065.78 8.42334 1064.32 8.42334C1062.82 8.42334 1062.82 10.7576 1064.32 10.7576Z" fill="white"/>
<path d="M1123.39 181.091C1123.44 180.842 1123.34 180.991 1123.1 181.637C1123.2 181.538 1123.29 181.389 1123.34 181.289C1123.15 181.488 1123 181.637 1122.81 181.836C1122.71 181.885 1122.61 181.885 1122.57 181.935C1122.37 181.935 1122.13 181.935 1121.93 181.935C1122.03 181.985 1122.23 181.985 1122.32 181.985C1122.76 181.985 1123.1 181.786 1123.34 181.438C1123.78 180.842 1123.73 179.948 1123.2 179.402C1122.66 178.905 1121.89 178.756 1121.2 179.104C1120.52 179.501 1120.33 180.296 1120.48 181.041C1120.62 181.687 1121.3 182.183 1121.93 182.183C1122.57 182.183 1123.25 181.786 1123.39 181.091Z" fill="white"/>
<path d="M1031.32 109.961C1031.22 109.961 1031.12 110.011 1031.02 110.011C1030.49 110.11 1030.49 111.054 1031.02 111.153C1031.12 111.153 1031.22 111.203 1031.32 111.203C1031.7 111.253 1032.09 111.004 1032.09 110.607C1032.09 110.16 1031.7 109.912 1031.32 109.961Z" fill="white"/>
<path d="M623.312 154.732C625.061 154.732 625.061 152.001 623.312 152.001C621.563 151.951 621.563 154.732 623.312 154.732Z" fill="white"/>
<path opacity="0.12" d="M646.145 72.2973C646.339 72.2973 646.339 72 646.145 72C645.952 72 645.952 72.2973 646.145 72.2973Z" fill="white"/>
<path d="M166.203 63.5845C166.932 63.5845 166.932 62.3926 166.203 62.3926C165.426 62.3926 165.426 63.5845 166.203 63.5845Z" fill="white"/>
<path d="M6.49998 145.729C6.35422 145.729 6.25705 145.779 6.11129 145.779C5.57684 145.829 4.99381 146.226 5.04239 146.872C5.09098 147.517 5.52826 147.915 6.11129 147.964C6.25705 147.964 6.35422 148.014 6.49998 148.014C7.08302 148.064 7.61747 147.468 7.61747 146.872C7.61747 146.276 7.1316 145.63 6.49998 145.729Z" fill="white"/>
<path d="M247.139 173.942C248.16 173.942 249.083 173.048 249.034 172.005C248.986 170.962 248.208 170.068 247.139 170.068C246.119 170.068 245.196 170.962 245.245 172.005C245.293 173.048 246.07 173.942 247.139 173.942Z" fill="white"/>
<path d="M225.673 5.87427C226.936 5.87427 226.936 3.8877 225.673 3.8877C224.41 3.8877 224.41 5.87427 225.673 5.87427Z" fill="white"/>
<path d="M57.3249 5.75757C58.7825 5.75757 58.7825 3.42334 57.3249 3.42334C55.8188 3.42334 55.8188 5.75757 57.3249 5.75757Z" fill="white"/>
<path d="M116.391 176.091C116.44 175.842 116.343 175.991 116.1 176.637C116.197 176.538 116.294 176.389 116.343 176.289C116.148 176.488 116.003 176.637 115.808 176.836C115.711 176.885 115.614 176.885 115.565 176.935C115.371 176.935 115.128 176.935 114.934 176.935C115.031 176.985 115.225 176.985 115.322 176.985C115.76 176.985 116.1 176.786 116.343 176.438C116.78 175.842 116.731 174.948 116.197 174.402C115.663 173.905 114.885 173.756 114.205 174.104C113.525 174.501 113.33 175.296 113.476 176.041C113.622 176.687 114.302 177.183 114.934 177.183C115.565 177.183 116.246 176.786 116.391 176.091Z" fill="white"/>
<path d="M390.429 29.2356C390.429 29.1859 390.38 29.1859 390.38 29.1362C390.04 28.6396 389.506 28.3416 388.923 28.5403C388.388 28.6892 387.951 29.2356 387.951 29.8315C387.951 30.3778 388.243 30.8248 388.729 31.0235C389.36 31.2718 389.992 31.0235 390.332 30.4772C390.332 30.4275 390.38 30.4275 390.38 30.3778C390.623 30.0799 390.623 29.5335 390.429 29.2356Z" fill="white"/>
<path d="M468.037 120.066C467.746 119.768 467.406 119.47 466.969 119.421C466.288 119.272 465.268 119.52 464.977 120.265C464.782 120.662 464.685 121.06 464.734 121.507C464.831 122.252 465.025 122.848 465.705 123.245C466.24 123.592 466.871 123.592 467.454 123.344C468.62 122.748 469.058 121.06 468.037 120.066Z" fill="white"/>
<path d="M520.592 83.6981C521.515 83.6981 521.515 82.2578 520.592 82.2578C519.669 82.2578 519.669 83.6981 520.592 83.6981Z" fill="white"/>
<path d="M24.3159 104.961C24.2187 104.961 24.1215 105.011 24.0244 105.011C23.4899 105.11 23.4899 106.054 24.0244 106.153C24.1215 106.153 24.2187 106.203 24.3159 106.203C24.7046 106.253 25.0933 106.004 25.0933 105.607C25.0933 105.16 24.7046 104.912 24.3159 104.961Z" fill="white"/>
<path d="M556.303 126.956C558.878 126.956 558.878 122.884 556.303 122.884C553.728 122.933 553.728 126.956 556.303 126.956Z" fill="white"/>
<g opacity="0.88">
<path opacity="0.14" d="M1113.98 78.0318C1115.29 78.0318 1115.29 76 1113.98 76C1112.67 76 1112.67 78.0318 1113.98 78.0318Z" fill="white"/>
<path opacity="0.14" d="M1126.09 198.28C1127.55 198.28 1127.55 196 1126.09 196C1124.64 196 1124.64 198.28 1126.09 198.28Z" fill="white"/>
<path opacity="0.14" d="M1069.1 90.5287C1069.29 91.2225 1069.73 91.6685 1070.41 91.9162C1071.43 92.2631 1072.59 91.6189 1072.88 90.5287C1073.22 89.3393 1072.25 87.9517 1070.99 88.0013C1069.73 88.0508 1068.66 89.2402 1069.1 90.5287Z" fill="white"/>
<path opacity="0.14" d="M889.091 81.2796C890.545 81.2796 890.545 79 889.091 79C887.636 79 887.636 81.2796 889.091 81.2796Z" fill="white"/>
<path opacity="0.14" d="M943.836 167.784C944.951 167.784 944.951 166 943.836 166C942.721 166 942.721 167.784 943.836 167.784Z" fill="white"/>
<path opacity="0.14" d="M1121.25 115.496C1121.59 115.496 1121.59 115 1121.25 115C1120.92 115 1120.92 115.496 1121.25 115.496Z" fill="white"/>
<path opacity="0.14" d="M353.836 91.785C354.951 91.785 354.951 90.001 353.836 90.001C352.721 89.9514 352.721 91.785 353.836 91.785Z" fill="white"/>
<path opacity="0.14" d="M976.018 115.181C977.376 115.181 977.424 113.001 976.018 113.001C974.661 112.951 974.661 115.181 976.018 115.181Z" fill="white"/>
<path opacity="0.14" d="M166.582 90.1908C167.357 90.1908 167.357 89.0014 166.582 89.0014C165.806 88.9519 165.806 90.1908 166.582 90.1908Z" fill="white"/>
<path opacity="0.14" d="M605.727 248.487C606.697 248.487 606.697 247 605.727 247C604.758 247 604.758 248.487 605.727 248.487Z" fill="white"/>
<path opacity="0.14" d="M1004.62 158.29C1005.44 158.29 1005.44 157.001 1004.62 157.001C1003.79 156.952 1003.79 158.29 1004.62 158.29Z" fill="white"/>
<path opacity="0.14" d="M1105.8 109.635C1106.82 109.635 1106.82 108 1105.8 108C1104.73 108 1104.73 109.635 1105.8 109.635Z" fill="white"/>
<path opacity="0.14" d="M1016.93 90.5734C1016.83 90.3752 1016.78 90.1274 1016.64 89.9292C1015.81 88.6903 1014.21 88.6903 1013.39 89.9292C1013.24 90.1274 1013.19 90.3752 1013.1 90.5734C1012.66 91.8123 1013.78 93.1008 1014.99 93.1008C1016.25 93.1008 1017.36 91.8123 1016.93 90.5734Z" fill="white"/>
<path opacity="0.14" d="M929.2 121.478C930.751 121.478 930.751 119 929.2 119C927.6 119 927.6 121.478 929.2 121.478Z" fill="white"/>
<path opacity="0.14" d="M529.685 84.8667C529.345 84.4702 528.909 84.2224 528.424 84.0737C527.648 83.826 526.63 84.2224 526.242 84.9658C526.097 85.2631 526 85.61 526 85.9569C526 86.4029 526.242 87.0471 526.582 87.3445C526.921 87.6418 527.164 87.84 527.6 87.9392C527.842 88.0383 528.133 88.0383 528.376 88.0878C528.666 88.1374 529.054 87.9887 529.297 87.84C529.636 87.6418 529.878 87.2949 530.072 86.948C530.363 86.2047 530.169 85.4118 529.685 84.8667Z" fill="white"/>
<path opacity="0.14" d="M360.782 75.4632C362.14 75.4632 362.14 73.2827 360.782 73.2827C359.425 73.2827 359.425 75.4632 360.782 75.4632Z" fill="white"/>
<path opacity="0.14" d="M514.502 68.8707C515.956 68.8707 515.956 66.5415 514.502 66.5415C513.048 66.5415 513.048 68.8707 514.502 68.8707Z" fill="white"/>
<path opacity="0.14" d="M543.291 230.166C544.891 230.166 544.891 227.638 543.291 227.638C541.691 227.688 541.691 230.166 543.291 230.166Z" fill="white"/>
<path opacity="0.14" d="M519.059 187.259C520.078 187.259 520.078 185.624 519.059 185.624C518.041 185.624 518.041 187.259 519.059 187.259Z" fill="white"/>
<path opacity="0.14" d="M567.492 183.1C568.752 183.1 568.752 181.118 567.492 181.118C566.28 181.118 566.28 183.1 567.492 183.1Z" fill="white"/>
<path opacity="0.14" d="M416.965 162.653C417.886 162.653 417.886 161.166 416.965 161.166C416.044 161.216 415.995 162.653 416.965 162.653Z" fill="white"/>
<path opacity="0.14" d="M501.945 99.7479C502.382 99.7479 502.382 99.0541 501.945 99.0541C501.509 99.0046 501.509 99.7479 501.945 99.7479Z" fill="white"/>
<path opacity="0.14" d="M267.803 115.683C269.548 115.683 269.548 112.908 267.803 112.908C266.058 112.908 266.058 115.683 267.803 115.683Z" fill="white"/>
<path opacity="0.14" d="M273.456 148.677C273.892 148.677 273.892 148.033 273.456 148.033C273.02 148.033 273.02 148.677 273.456 148.677Z" fill="white"/>
<path opacity="0.14" d="M542.573 188.756C542.67 188.707 542.718 188.657 542.815 188.608C543.978 187.914 543.978 186.13 542.815 185.436C542.718 185.387 542.67 185.337 542.573 185.287C541.264 184.495 539.615 185.535 539.615 187.022C539.615 188.509 541.312 189.5 542.573 188.756Z" fill="white"/>
<path opacity="0.14" d="M450.417 81.2475C450.32 81.2475 450.175 81.2475 450.078 81.2475C449.35 81.1979 448.672 81.9413 448.72 82.635C448.769 83.3288 449.302 84.0722 450.078 84.0226C450.175 84.0226 450.32 84.0226 450.417 84.0226C451.096 83.9731 451.775 83.428 451.775 82.635C451.726 81.7926 451.193 81.297 450.417 81.2475Z" fill="white"/>
<path opacity="0.14" d="M677.627 63.7874C678.887 63.7874 678.887 61.8052 677.627 61.8052C676.415 61.8547 676.415 63.7874 677.627 63.7874Z" fill="white"/>
<path opacity="0.14" d="M295.709 227.214C296.824 227.214 296.824 225.48 295.709 225.48C294.594 225.43 294.594 227.214 295.709 227.214Z" fill="white"/>
<path opacity="0.14" d="M248.634 206.83C249.216 206.83 249.216 205.889 248.634 205.889C248.052 205.889 248.052 206.83 248.634 206.83Z" fill="white"/>
<path opacity="0.14" d="M351.389 252.796C352.552 252.796 352.552 250.962 351.389 250.962C350.274 250.962 350.225 252.796 351.389 252.796Z" fill="white"/>
<path opacity="0.14" d="M522.308 141.889C522.259 141.443 522.211 141.096 521.969 140.699C521.193 139.46 519.448 139.46 518.672 140.699C518.429 141.096 518.381 141.443 518.332 141.889C518.284 142.384 518.575 142.979 518.914 143.326C519.254 143.673 519.835 143.92 520.32 143.92C521.338 143.871 522.453 143.028 522.308 141.889Z" fill="white"/>
<path opacity="0.14" d="M814.355 71.127C814.307 71.127 814.307 71.127 814.355 71.127C814.646 71.127 814.986 71.127 815.374 71.127C815.374 71.127 815.374 71.127 815.325 71.127C815.616 71.2756 815.907 71.4739 816.198 71.6225C816.537 72.019 816.537 72.0685 816.295 71.7712C815.955 71.3252 816.052 71.5234 816.586 72.3163C816.343 71.6721 815.955 71.1765 815.277 70.9783C814.646 70.7801 813.871 70.9783 813.434 71.4739C812.853 72.1677 812.562 73.2083 813.095 74.0508C813.386 74.4968 813.774 74.8437 814.307 74.9924C814.84 75.1411 815.374 75.0419 815.907 74.7942C816.295 74.5959 816.731 74.0508 816.828 73.6048C816.925 73.1588 816.925 72.7128 816.731 72.3163C816.246 71.3252 815.277 70.8792 814.355 71.127Z" fill="white"/>
<path opacity="0.14" d="M357.522 205.767C358.685 205.767 358.685 203.933 357.522 203.933C356.358 203.933 356.358 205.767 357.522 205.767Z" fill="white"/>
<path opacity="0.14" d="M467.234 282.53C467.67 282.53 467.67 281.886 467.234 281.886C466.846 281.886 466.846 282.53 467.234 282.53Z" fill="white"/>
<path opacity="0.14" d="M244.949 238.772C246.016 238.772 246.016 237.136 244.949 237.136C243.883 237.087 243.883 238.772 244.949 238.772Z" fill="white"/>
<path opacity="0.14" d="M367.994 287.634C370.418 287.634 370.418 283.769 367.994 283.769C365.57 283.769 365.57 287.634 367.994 287.634Z" fill="white"/>
<path opacity="0.14" d="M409.251 251.854C410.56 251.854 410.56 249.773 409.251 249.773C407.942 249.773 407.942 251.854 409.251 251.854Z" fill="white"/>
<path opacity="0.14" d="M315.441 219.891C316.459 219.891 316.459 218.255 315.441 218.255C314.422 218.255 314.374 219.891 315.441 219.891Z" fill="white"/>
<path opacity="0.14" d="M286.158 299.132C287.467 299.132 287.467 297.05 286.158 297.05C284.849 297.05 284.849 299.132 286.158 299.132Z" fill="white"/>
<path opacity="0.14" d="M273.068 150.564C273.02 150.514 272.971 150.465 272.923 150.366C272.487 149.92 271.856 149.821 271.323 150.068C270.79 150.316 270.402 150.861 270.402 151.456C270.45 152.744 272.002 153.488 272.923 152.546C272.971 152.497 273.02 152.447 273.068 152.348C273.553 151.852 273.553 151.059 273.068 150.564Z" fill="white"/>
<path opacity="0.14" d="M218.7 130.193C219.961 130.193 219.961 128.161 218.7 128.161C217.392 128.161 217.392 130.193 218.7 130.193Z" fill="white"/>
<path opacity="0.14" d="M753.318 73.5995C753.27 73.1535 753.221 72.8066 752.979 72.4101C752.203 71.1712 750.458 71.1712 749.682 72.4101C749.44 72.8066 749.391 73.1535 749.343 73.5995C749.294 74.0951 749.585 74.6897 749.924 75.0366C750.264 75.3835 750.846 75.6313 751.33 75.6313C752.3 75.5818 753.464 74.7393 753.318 73.5995Z" fill="white"/>
<path opacity="0.14" d="M528.416 119.39C529.58 119.39 529.58 117.556 528.416 117.556C527.253 117.556 527.253 119.39 528.416 119.39Z" fill="white"/>
<path opacity="0.14" d="M559.686 120.084C560.462 120.084 560.462 118.845 559.686 118.845C558.911 118.845 558.911 120.084 559.686 120.084Z" fill="white"/>
<path opacity="0.14" d="M602.64 81.6772C603.27 81.6772 603.27 80.686 602.64 80.686C602.01 80.7356 602.01 81.6772 602.64 81.6772Z" fill="white"/>
<path opacity="0.14" d="M574.57 49.2672C575.491 49.2672 575.491 47.8301 574.57 47.8301C573.649 47.8301 573.649 49.2672 574.57 49.2672Z" fill="white"/>
<path opacity="0.14" d="M536.9 32.7155C537.919 32.7155 538.888 31.8235 538.84 30.7332C538.791 29.643 537.967 28.751 536.9 28.751C535.882 28.751 534.913 29.643 534.961 30.7332C535.01 31.8235 535.834 32.7155 536.9 32.7155Z" fill="white"/>
<path opacity="0.14" d="M554.353 76.0772C554.402 75.879 554.402 75.7303 554.402 75.5321C554.402 74.8879 553.868 74.2932 553.238 74.3427C552.608 74.3923 552.075 74.8879 552.075 75.5321C552.075 75.7303 552.123 75.879 552.123 76.0772C552.366 77.1675 554.111 77.1675 554.353 76.0772Z" fill="white"/>
<path opacity="0.14" d="M501.316 19.0873C502.479 19.0873 502.479 17.2041 501.316 17.2041C500.152 17.2041 500.152 19.0873 501.316 19.0873Z" fill="white"/>
<path opacity="0.14" d="M687.142 20.6727C688.693 20.6727 688.693 18.1948 687.142 18.1948C685.591 18.1948 685.591 20.6727 687.142 20.6727Z" fill="white"/>
<path opacity="0.14" d="M681.518 17.0058C681.664 16.9562 681.809 16.9066 681.955 16.8075C682.343 16.5597 682.343 15.9651 681.955 15.7173C681.809 15.6182 681.664 15.5686 681.518 15.5191C681.034 15.3208 680.549 15.8164 680.549 16.2624C680.597 16.7084 681.082 17.1544 681.518 17.0058Z" fill="white"/>
<path opacity="0.14" d="M612.579 18.3438C612.579 18.2447 612.53 18.1456 612.53 18.0465C612.385 17.1544 610.93 17.1544 610.785 18.0465C610.785 18.1456 610.737 18.2447 610.737 18.3438C610.64 18.9385 610.979 19.5827 611.658 19.5827C612.336 19.5827 612.676 18.988 612.579 18.3438Z" fill="white"/>
<path opacity="0.14" d="M622.275 110.816C623.439 110.816 623.439 108.983 622.275 108.983C621.111 108.983 621.111 110.816 622.275 110.816Z" fill="white"/>
<path opacity="0.14" d="M736.835 136.388C738.192 136.388 738.192 134.207 736.835 134.207C735.477 134.207 735.477 136.388 736.835 136.388Z" fill="white"/>
<path opacity="0.14" d="M707.407 101.747C707.552 102.045 707.698 102.243 707.989 102.441C708.716 102.937 709.637 101.995 709.152 101.252C708.958 100.955 708.813 100.806 708.474 100.657C707.746 100.31 707.116 100.955 707.407 101.747Z" fill="white"/>
<path opacity="0.14" d="M749.731 83.5106C750.506 83.5106 750.506 82.2222 749.731 82.2222C748.955 82.2222 748.955 83.5106 749.731 83.5106Z" fill="white"/>
<path opacity="0.14" d="M794.091 140.55C794.042 140.55 793.945 140.55 793.897 140.5C793.46 140.401 792.976 140.699 792.976 141.194C792.976 141.69 793.412 141.987 793.897 141.888C793.945 141.888 794.042 141.888 794.091 141.838C794.769 141.789 794.769 140.649 794.091 140.55Z" fill="white"/>
<path opacity="0.14" d="M739.065 23.4481C740.18 23.4481 740.18 21.6641 739.065 21.6641C737.95 21.6641 737.95 23.4481 739.065 23.4481Z" fill="white"/>
<path opacity="0.14" d="M813.095 231.586C814.307 231.586 814.307 229.653 813.095 229.653C811.883 229.653 811.883 231.586 813.095 231.586Z" fill="white"/>
<path opacity="0.14" d="M775.231 24.2905C775.134 24.2905 775.037 24.2905 774.892 24.2905C773.777 24.3401 773.777 26.025 774.892 26.025C774.989 26.025 775.086 26.025 775.231 26.025C776.298 26.0746 776.346 24.241 775.231 24.2905Z" fill="white"/>
<path opacity="0.14" d="M815.373 13.2394C816.149 13.2394 816.149 12.0005 815.373 12.0005C814.598 12.05 814.598 13.2394 815.373 13.2394Z" fill="white"/>
<path opacity="0.14" d="M719.042 227.67C719.236 227.869 719.43 228.017 719.624 228.216C719.624 228.86 719.624 229.504 719.624 230.148C719.866 229.603 719.963 229.108 719.818 228.513C719.818 228.463 719.818 228.414 719.769 228.414C719.333 226.977 719.769 228.86 719.769 228.761C719.673 228.017 719.285 227.224 718.46 227.026C717.782 226.878 717.055 227.026 716.57 227.522C715.988 228.116 715.939 228.86 716.036 229.653C716.133 230.247 716.812 230.941 717.394 231.04C717.83 231.139 718.121 231.139 718.606 231.04C719.285 230.892 719.818 230.198 719.915 229.504C719.963 228.761 719.624 228.067 719.042 227.67Z" fill="white"/>
<path opacity="0.14" d="M699.408 293.333C699.892 293.333 699.892 292.54 699.408 292.54C698.923 292.54 698.923 293.333 699.408 293.333Z" fill="white"/>
<path opacity="0.14" d="M682.973 252.349C683.748 252.349 683.748 251.061 682.973 251.061C682.148 251.061 682.148 252.349 682.973 252.349Z" fill="white"/>
<path opacity="0.14" d="M652.963 242.389C653.302 242.389 653.302 241.893 652.963 241.893C652.624 241.893 652.624 242.389 652.963 242.389Z" fill="white"/>
<path opacity="0.14" d="M743.671 272.569C743.622 272.569 743.622 272.569 743.574 272.569C742.604 272.519 741.683 273.461 741.731 274.452C741.731 274.501 741.731 274.501 741.731 274.551C741.78 275.344 742.168 276.038 742.895 276.335C743.574 276.632 744.495 276.533 744.98 275.939C745.416 275.443 745.658 274.7 745.464 274.006C745.319 273.163 744.543 272.618 743.671 272.569Z" fill="white"/>
<path opacity="0.14" d="M660.041 296.901C661.302 296.901 661.302 294.919 660.041 294.919C658.781 294.919 658.781 296.901 660.041 296.901Z" fill="white"/>
<path opacity="0.14" d="M428.788 214.191C429.225 214.191 429.225 213.498 428.788 213.498C428.352 213.498 428.352 214.191 428.788 214.191Z" fill="white"/>
<path opacity="0.14" d="M631.632 312.214C633.862 312.214 633.862 308.646 631.632 308.646C629.401 308.596 629.401 312.214 631.632 312.214Z" fill="white"/>
<path opacity="0.14" d="M724.23 309.488C724.181 309.29 724.133 309.141 724.036 308.993C723.648 308.448 722.921 308.448 722.533 308.993C722.436 309.141 722.388 309.34 722.339 309.488C722.145 310.133 722.63 310.777 723.26 310.777C723.891 310.727 724.375 310.083 724.23 309.488Z" fill="white"/>
<path opacity="0.14" d="M574.812 307.903C574.764 307.804 574.715 307.655 574.618 307.556C574.618 307.952 574.618 308.398 574.618 308.795C574.667 308.696 574.715 308.646 574.764 308.547C575.2 307.804 575.055 306.763 574.473 306.119C574.134 305.772 573.746 305.524 573.309 305.475C572.728 305.375 572.243 305.425 571.758 305.822C571.273 306.168 571.128 306.664 571.079 307.259C571.031 307.705 571.128 308.2 571.419 308.597C571.855 309.29 572.776 309.786 573.649 309.538C573.746 309.489 573.843 309.489 573.94 309.439C573.552 309.34 573.164 309.241 572.776 309.142C572.873 309.241 572.97 309.29 573.067 309.39C573.503 309.736 574.085 309.836 574.521 309.489C574.958 308.993 575.055 308.398 574.812 307.903Z" fill="white"/>
<path opacity="0.14" d="M528.949 163.941C528.901 163.842 528.901 163.743 528.852 163.693C528.659 163.049 527.737 163.049 527.543 163.693C527.495 163.792 527.495 163.891 527.446 163.941C527.301 164.436 527.689 164.932 528.174 164.932C528.707 164.882 529.095 164.387 528.949 163.941Z" fill="white"/>
<path opacity="0.14" d="M810.719 314.692C811.98 314.692 811.98 312.66 810.719 312.66C809.459 312.71 809.459 314.692 810.719 314.692Z" fill="white"/>
<path opacity="0.14" d="M497.486 208.542C497.631 208.542 497.631 208.344 497.486 208.344C497.34 208.344 497.34 208.542 497.486 208.542Z" fill="white"/>
<path opacity="0.14" d="M497.049 204.974C497.291 204.974 497.291 204.577 497.049 204.577C496.807 204.577 496.807 204.974 497.049 204.974Z" fill="white"/>
<path opacity="0.14" d="M486.335 182.326C487.111 182.326 487.111 181.137 486.335 181.137C485.608 181.137 485.608 182.326 486.335 182.326Z" fill="white"/>
<path opacity="0.14" d="M549.748 177.42C550.378 177.42 550.378 176.429 549.748 176.429C549.117 176.429 549.117 177.42 549.748 177.42Z" fill="white"/>
<path opacity="0.14" d="M562.256 197.045C563.274 197.045 563.274 195.459 562.256 195.459C561.238 195.459 561.238 197.045 562.256 197.045Z" fill="white"/>
<path opacity="0.14" d="M576.121 153.039C577.236 153.039 577.236 151.304 576.121 151.304C575.055 151.304 575.055 153.039 576.121 153.039Z" fill="white"/>
<path opacity="0.14" d="M699.844 139.708C700.959 139.708 700.959 137.924 699.844 137.924C698.68 137.924 698.68 139.708 699.844 139.708Z" fill="white"/>
<path opacity="0.14" d="M687.045 172.117C687.433 172.117 687.433 171.473 687.045 171.473C686.657 171.473 686.657 172.117 687.045 172.117Z" fill="white"/>
<path opacity="0.14" d="M730.969 198.729C731.987 198.729 731.987 197.144 730.969 197.144C729.951 197.144 729.951 198.729 730.969 198.729Z" fill="white"/>
<path opacity="0.14" d="M764.614 140.798C765.681 140.798 765.681 139.163 764.614 139.163C763.548 139.163 763.548 140.798 764.614 140.798Z" fill="white"/>
<path opacity="0.14" d="M712.352 63.7871C712.692 63.7871 712.692 63.2915 712.352 63.2915C712.013 63.2915 712.013 63.7871 712.352 63.7871Z" fill="white"/>
<path opacity="0.14" d="M677.301 65.4225C677.882 65.4225 677.882 64.481 677.301 64.481C676.719 64.481 676.719 65.4225 677.301 65.4225Z" fill="white"/>
<path opacity="0.14" d="M810.913 66.2651C811.495 66.2651 811.495 65.373 810.913 65.373C810.38 65.373 810.38 66.2651 810.913 66.2651Z" fill="white"/>
<path opacity="0.14" d="M813.143 126.922C814.501 126.922 814.501 124.792 813.143 124.792C811.834 124.792 811.834 126.922 813.143 126.922Z" fill="white"/>
<path opacity="0.14" d="M802.381 256.662C803.011 256.662 803.011 255.67 802.381 255.67C801.751 255.67 801.751 256.662 802.381 256.662Z" fill="white"/>
<path opacity="0.14" d="M777.656 289.517C777.753 289.517 777.753 289.369 777.656 289.369C777.559 289.369 777.559 289.517 777.656 289.517Z" fill="white"/>
<path opacity="0.14" d="M786.818 291.846C787.012 291.846 787.012 291.5 786.818 291.5C786.624 291.549 786.624 291.846 786.818 291.846Z" fill="white"/>
<path opacity="0.14" d="M693.832 309.934C694.996 309.934 694.996 308.051 693.832 308.051C692.62 308.051 692.62 309.934 693.832 309.934Z" fill="white"/>
<path opacity="0.14" d="M650.054 270.339C651.072 270.339 651.072 268.704 650.054 268.704C649.036 268.704 649.036 270.339 650.054 270.339Z" fill="white"/>
<path opacity="0.14" d="M492.88 224.995C492.783 224.995 492.686 224.995 492.589 224.946C492.055 224.896 491.619 225.441 491.619 225.937C491.619 226.432 492.055 226.977 492.589 226.928C492.686 226.928 492.783 226.928 492.88 226.878C493.364 226.829 493.801 226.482 493.801 225.937C493.801 225.392 493.364 225.045 492.88 224.995Z" fill="white"/>
<path opacity="0.14" d="M397.228 155.318C397.761 155.318 397.761 154.476 397.228 154.476C396.694 154.476 396.694 155.318 397.228 155.318Z" fill="white"/>
<path opacity="0.14" d="M289.091 134.653C290.352 134.653 290.352 132.671 289.091 132.671C287.831 132.671 287.831 134.653 289.091 134.653Z" fill="white"/>
<path opacity="0.14" d="M711.77 271.578C712.206 271.578 712.206 270.884 711.77 270.884C711.334 270.884 711.334 271.578 711.77 271.578Z" fill="white"/>
<path opacity="0.14" d="M424.91 117.408C426.219 117.408 426.219 115.327 424.91 115.327C423.552 115.277 423.552 117.408 424.91 117.408Z" fill="white"/>
<path opacity="0.14" d="M574.328 213.993C575.346 213.993 575.346 212.358 574.328 212.358C573.309 212.358 573.309 213.993 574.328 213.993Z" fill="white"/>
<path opacity="0.14" d="M544.415 298.586C544.754 298.586 544.754 298.091 544.415 298.091C544.076 298.091 544.124 298.586 544.415 298.586Z" fill="white"/>
<path opacity="0.14" d="M481.923 263.104C482.796 263.104 482.796 261.766 481.923 261.766C481.05 261.766 481.05 263.104 481.923 263.104Z" fill="white"/>
<path opacity="0.14" d="M291.248 251.049C292.363 251.049 292.363 249.265 291.248 249.265C290.133 249.265 290.133 251.049 291.248 251.049Z" fill="white"/>
<path opacity="0.14" d="M341.814 306.962C342.59 306.962 342.59 305.723 341.814 305.723C341.038 305.772 341.038 306.962 341.814 306.962Z" fill="white"/>
<path opacity="0.14" d="M390.78 296.505C391.313 296.505 391.313 295.663 390.78 295.663C390.246 295.613 390.198 296.505 390.78 296.505Z" fill="white"/>
<path opacity="0.22" d="M245.845 191.482C246.136 190.986 246.379 190.54 246.67 190.045C246.96 189.599 246.767 188.954 246.33 188.657C245.845 188.36 245.264 188.558 244.973 189.004C244.682 189.499 244.439 189.945 244.149 190.441C243.858 190.887 244.052 191.531 244.488 191.829C244.973 192.126 245.603 191.928 245.845 191.482Z" fill="white"/>
<path opacity="0.14" d="M98.8363 222.784C99.9513 222.784 99.9513 221 98.8363 221C97.7212 221 97.7212 222.784 98.8363 222.784Z" fill="white"/>
<path opacity="0.14" d="M816.164 188.179C816.115 188.179 816.115 188.179 816.067 188.179C816.164 188.229 816.212 188.278 816.309 188.328C816.309 188.229 816.261 188.229 816.164 188.179C815.776 187.783 815 188.08 815 188.724C815 189.368 815.776 189.666 816.212 189.22C816.26 189.17 816.309 189.17 816.309 189.121C816.212 189.17 816.164 189.22 816.067 189.269C816.115 189.269 816.115 189.269 816.164 189.269C816.697 189.121 816.697 188.278 816.164 188.179Z" fill="white"/>
<path opacity="0.14" d="M177.666 161.628C177.618 161.579 177.569 161.529 177.521 161.43C177.085 160.984 176.454 160.885 175.921 161.133C175.388 161.381 175 161.926 175 162.52C175.048 163.809 176.6 164.552 177.521 163.611C177.569 163.561 177.618 163.511 177.666 163.412C178.151 162.917 178.151 162.124 177.666 161.628Z" fill="white"/>
</g>
<path d="M1051.32 218.378C1055 220.571 1058.89 224.175 1058.1 228.46C1057.34 232.622 1052.77 234.564 1048.97 236.25C1040.66 239.953 1033.24 245.711 1027.54 252.9C1026.08 254.748 1024.65 256.868 1024.67 259.255C1024.7 263.908 1029.76 266.55 1034.04 268.125C1042.09 271.086 1050.14 274.047 1058.19 277.008C1065.68 279.764 1074.27 283.736 1075.91 291.692C1077.32 298.528 1072.57 305.368 1066.67 308.897C1059.57 313.113 1050.02 313.628 1043.4 308.668C1036.78 303.708 1034.69 292.839 1040.17 286.565C1036.7 285.19 1033.08 283.802 1029.34 284.073C1025.63 284.344 1021.78 286.806 1021.13 290.572C1019.91 297.631 1029.34 301.3 1032.61 307.635C1036.36 314.921 1030.37 324.32 1022.65 326.676C1014.93 329.031 1006.65 326.318 999.29 322.935C992.474 319.803 985.796 315.97 980.76 310.331C968.721 296.881 968.506 276.661 968.974 258.438L966.048 255.702C960.269 265.721 956.354 277.094 954.908 289.388C950.756 324.682 967.968 357.545 996.144 374.499C997.782 366.232 1001.67 358.25 1008.57 353.778C1016.49 348.637 1028.77 350.208 1033.14 358.685C1034.88 362.064 1035.22 366.027 1036.64 369.563C1039.56 376.831 1047.4 381.696 1055.05 380.983C1062.7 380.27 1069.56 374.051 1071.17 366.362C1072.67 359.101 1069.98 350.902 1073.64 344.489C1076.1 340.178 1080.83 337.854 1085.28 335.793C1094.49 331.528 1103.7 327.263 1112.91 322.999C1115.59 321.771 1119.06 320.683 1121.18 322.626C1122.28 318.519 1123.1 314.294 1123.62 309.938C1129.22 262.335 1095.98 219.14 1049.39 213.452C1045.95 213.034 1042.54 212.859 1039.16 212.851C1043.39 214.275 1047.48 216.081 1051.32 218.378Z" fill="#4195C2"/>
<path d="M980.727 310.347C985.763 315.986 992.441 319.82 999.257 322.952C1006.6 326.334 1014.9 329.033 1022.62 326.692C1030.34 324.336 1036.33 314.937 1032.58 307.651C1029.31 301.316 1019.88 297.647 1021.1 290.588C1021.75 286.837 1025.6 284.375 1029.31 284.089C1033.03 283.818 1036.65 285.205 1040.14 286.58C1034.68 292.839 1036.77 303.724 1043.37 308.684C1049.99 313.644 1059.54 313.129 1066.63 308.913C1072.55 305.384 1077.31 298.559 1075.88 291.708C1074.24 283.736 1065.65 279.78 1058.16 277.023C1050.11 274.062 1042.06 271.102 1034.01 268.141C1029.73 266.566 1024.66 263.923 1024.64 259.271C1024.64 256.883 1026.05 254.763 1027.51 252.915C1033.23 245.725 1040.65 239.953 1048.94 236.265C1052.74 234.579 1057.31 232.622 1058.07 228.474C1058.84 224.189 1054.97 220.586 1051.29 218.393C1047.45 216.096 1043.36 214.29 1039.11 212.942C1008.53 212.964 980.942 229.817 966 255.747L968.927 258.484C968.488 276.677 968.703 296.896 980.727 310.347Z" fill="#6CC485"/>
<path d="M144.651 38.2896C139.011 44.9648 132.048 49.7883 124.503 52.692C123.08 53.2455 121.63 53.7306 120.173 54.1405C112.929 56.1902 105.304 56.5523 97.8928 55.1858C96.9305 55.0082 95.9615 54.8032 95.0126 54.5641C87.5213 52.7262 80.3441 49.071 74.1092 43.5641C69.6519 39.6287 66.0366 35.0648 63.2967 30.1114C61.3787 26.6611 59.8885 23.0195 58.8059 19.2685C54.2016 3.17169 57.436 -14.9133 68.9502 -28.5506C72.8195 -33.1282 77.3102 -36.8381 82.1819 -39.6599C92.2192 -45.4605 103.887 -47.476 115.094 -45.5561C115.535 -45.4878 115.983 -45.4058 116.424 -45.3101C121.396 -44.3263 126.267 -42.5499 130.838 -39.9741C132.676 -38.9493 134.454 -37.7878 136.184 -36.5102C137.32 -35.6766 138.423 -34.7884 139.492 -33.8319C142.727 -30.976 145.52 -27.7785 147.859 -24.3487C160.616 -5.64194 159.901 20.2251 144.651 38.2896Z" fill="#AD6C16"/>
<path d="M147.852 -24.355C147.745 -19.9619 147.064 -15.4458 145.273 -11.5377C144.23 -9.25573 142.546 -7.55448 142.205 -4.95138C141.918 -2.71723 142.58 -0.913502 143.254 1.20451C144.812 6.14424 144.491 7.57902 141.403 11.6442C140.294 13.0995 138.944 14.3225 137.801 15.7163C136.458 17.3492 136.692 18.4082 136.478 20.6833C135.964 26.156 136.425 32.387 133.758 37.3814C132.181 40.3329 129.528 42.4373 126.889 44.323C125.639 45.218 125.445 45.2932 124.904 46.6392C124.196 48.3951 124.176 50.4789 124.496 52.6789C123.073 53.2323 121.623 53.7174 120.166 54.1273C112.922 56.177 105.297 56.5391 97.8859 55.1727C96.9236 54.995 95.9547 54.7901 95.0057 54.5509C87.5145 52.713 80.3373 49.0578 74.1024 43.5509C69.645 39.6156 66.0297 35.0516 63.2898 30.0982C61.3719 26.6479 59.8817 23.0063 58.7991 19.2554C54.1947 3.15852 57.4291 -14.9265 68.9434 -28.5637C72.8126 -33.1414 77.3034 -36.8513 82.175 -39.673C92.2124 -45.4736 103.88 -47.4891 115.087 -45.5693C115.528 -45.501 115.976 -45.419 116.417 -45.3233C121.389 -44.3395 126.261 -42.5631 130.831 -39.9873C132.669 -38.9625 134.447 -37.801 136.178 -36.5233C137.314 -35.6898 138.416 -34.8016 139.485 -33.8451C142.72 -30.9824 145.513 -27.7848 147.852 -24.355Z" fill="#00B7DC"/>
<path d="M147.946 -24.3897C147.839 -19.9966 147.157 -15.4804 145.366 -11.5724C144.324 -9.29039 142.64 -7.58917 142.299 -4.98607C142.012 -2.75191 142.673 -0.948189 143.348 1.16982C144.905 6.10955 144.591 7.54433 141.497 11.6095C140.388 13.0648 139.038 14.2878 137.895 15.6816C136.552 17.3145 136.786 18.3735 136.572 20.6486C136.057 26.1213 136.519 32.3523 133.852 37.3467C132.275 40.2983 129.622 42.4026 126.982 44.2883C125.733 45.1834 125.539 45.2585 124.998 46.6045C124.289 48.3604 124.276 50.4442 124.59 52.6442C123.167 53.1976 121.716 53.6827 120.26 54.0926C113.016 56.1423 105.391 56.5044 97.9797 55.138C97.0174 54.9603 96.0484 54.7554 95.0995 54.5163C87.6082 52.6784 80.431 49.0231 74.1961 43.5163C69.7388 39.5809 66.1235 35.0169 63.3836 30.0635C61.4657 26.6132 59.9754 22.9716 58.8928 19.2207C54.2885 3.12386 57.5229 -14.9612 69.0371 -28.5984C72.9064 -33.176 77.3971 -36.886 82.2688 -39.7077C92.3061 -45.5083 103.974 -47.5238 115.181 -45.6039C115.622 -45.5356 116.07 -45.4536 116.511 -45.358C121.483 -44.3741 126.354 -42.5978 130.925 -40.022C132.763 -38.9971 134.541 -37.8425 136.271 -36.558C137.407 -35.7245 138.51 -34.8363 139.579 -33.8798C142.814 -31.0102 145.607 -27.8195 147.946 -24.3897Z" fill="#C07720"/>
<path d="M130.832 -39.9805C130.805 -38.4569 130.624 -36.8786 130.397 -35.2662C129.789 -30.9755 129.535 -27.0811 127.677 -23.1867C126.688 -21.1234 125.425 -18.6501 126.702 -16.4638C127.497 -15.0973 128.553 -14.5166 129.128 -12.911C129.722 -11.2576 129.796 -9.97994 129.549 -8.22405C129.181 -5.59362 128.185 -3.16817 126.889 -0.886189C125.592 1.39579 123.514 3.04238 122.117 5.0784C121.122 6.5405 120.58 9.28708 120.393 11.0293C120.052 14.1858 121.937 15.5864 122.284 18.2784C123.848 30.6175 107.001 25.1311 101.749 30.9044C98.6212 34.3411 99.5902 39.8888 100.573 43.8652C101.201 46.4 101.942 49.5087 100.506 51.9C99.9043 52.9112 98.9754 54.0727 97.8928 55.1795C96.9305 55.0019 95.9615 54.7969 95.0126 54.5578C87.5213 52.7199 80.3441 49.0646 74.1092 43.5578C69.6519 39.6224 66.0366 35.0584 63.2967 30.105C61.3787 26.6547 59.8885 23.0131 58.8059 19.2622C54.2016 3.16537 57.436 -14.9197 68.9502 -28.5569C72.8195 -33.1345 77.3102 -36.8445 82.1819 -39.6662C92.2192 -45.4668 103.887 -47.4823 115.094 -45.5624C115.535 -45.4941 115.983 -45.4121 116.424 -45.3165C121.389 -44.3258 126.261 -42.5494 130.832 -39.9805Z" fill="#D37F22"/>
<path d="M115.087 -45.5559C114.492 -44.5653 113.837 -43.6292 113.129 -42.7615C111.118 -40.3019 107.409 -38.5392 105.725 -36.0112C104.976 -34.8908 104.809 -34.6926 104.963 -33.1827C105.137 -31.3721 105.738 -30.197 105.584 -28.3933C105.31 -25.2026 104.181 -23.8566 101.628 -21.8889C98.2669 -19.2995 88.0959 -17.7076 87.7417 -13.0821C87.5278 -10.3014 89.0381 -7.507 87.8753 -4.76725C86.1245 -0.626892 81.1593 1.51846 77.2833 2.76193C73.6546 3.93025 69.4579 4.58614 69.2574 9.04761C69.0837 12.942 68.6426 14.1923 65.2345 16.5153C63.2631 17.8544 61.0846 18.8588 58.7991 19.255C54.1947 3.15819 57.4291 -14.9268 68.9434 -28.5641C72.8126 -33.1417 77.3034 -36.8516 82.175 -39.6734C92.2191 -45.4671 103.887 -47.4758 115.087 -45.5559Z" fill="#F98F26"/>
<path opacity="0.3" d="M71.4227 -2.38277C71.3291 -2.12314 71.1153 -1.86353 70.9683 -1.63123C70.8079 -1.38527 70.6475 -1.13931 70.4737 -0.900176C70.3267 -0.70204 70.1597 -0.551725 70.0661 -0.319428C69.9592 -0.0598021 69.8389 0.158824 69.6585 0.377457C69.2107 0.917207 68.6293 1.15635 68.0546 1.51846C67.7873 1.68926 67.5868 1.83957 67.2928 1.94205C66.9653 2.0582 66.6579 2.0787 66.3238 2.11286C66.1166 2.13336 65.9228 2.23584 65.7157 2.24268C65.4885 2.25634 65.2947 2.14019 65.2145 1.94205C65.1076 1.66876 64.9405 1.45697 64.74 1.24517C64.5663 1.05387 64.4126 0.869393 64.3457 0.602934C64.2589 0.247656 64.319 -0.148614 64.2856 -0.503892C64.2522 -0.893332 64.2255 -1.27595 64.2789 -1.66539C64.319 -1.97284 64.4126 -2.24614 64.4928 -2.54676C64.6264 -3.00452 64.7467 -3.42811 64.9205 -3.87904C65.0675 -4.24798 65.2279 -4.61693 65.4016 -4.97221C65.4952 -5.15668 65.6021 -5.33433 65.689 -5.5188C65.7558 -5.67594 65.7692 -5.86042 65.8493 -6.01073C65.9095 -6.12687 65.9964 -6.17469 66.0966 -6.25668C66.2904 -6.40699 66.3372 -6.5778 66.4575 -6.77594C66.5844 -6.99457 66.8116 -7.14488 66.9587 -7.34985C67.099 -7.54798 67.1057 -7.88275 67.2928 -8.03989C67.4799 -8.20387 67.7739 -8.20389 67.9276 -8.42252C68.0078 -8.53184 68.0078 -8.66848 68.0813 -8.78463C68.1415 -8.88711 68.2618 -8.98959 68.342 -9.07157C68.4957 -9.21505 68.6761 -9.21506 68.8298 -9.35854C69.1439 -9.64549 69.5114 -9.87778 69.8923 -10.0486C70.0928 -10.1374 70.3 -10.2057 70.5072 -10.2604C70.7277 -10.3082 70.8814 -10.2399 71.0952 -10.2604C71.2422 -10.274 71.3692 -10.356 71.5162 -10.3492C71.7167 -10.3355 71.8303 -10.2194 71.9773 -10.0828C72.1177 -9.94611 72.2981 -9.89144 72.4184 -9.74796C72.5186 -9.62498 72.5988 -9.48151 72.6723 -9.34486C72.7793 -9.13306 72.8194 -8.93493 72.8594 -8.70946C72.9062 -8.484 73.0466 -8.29269 73.1 -8.06723C73.1669 -7.74611 73.0666 -7.4045 73.0065 -7.09022C72.9396 -6.74177 72.8394 -6.38649 72.7859 -6.03804C72.7392 -5.71692 72.7458 -5.4368 72.6189 -5.12252C72.5053 -4.84923 72.3783 -4.62376 72.3115 -4.32997C72.2847 -4.19333 72.258 -4.05668 72.238 -3.92003C72.2313 -3.83121 72.258 -3.66041 72.2246 -3.58526C72.1578 -3.41445 71.9105 -3.23682 71.7969 -3.10017C71.5964 -2.8747 71.5296 -2.68339 71.4227 -2.38277Z" fill="#3ABFDD"/>
<path d="M71.1357 -2.55339C70.8951 -2.12979 70.6412 -1.71986 70.3538 -1.32359C70.2201 -1.13912 70.0798 -0.954656 69.9395 -0.777017C69.8726 -0.695029 69.8058 -0.592542 69.7256 -0.517386C69.6521 -0.449064 69.5786 -0.428573 69.4984 -0.373915C69.3314 -0.257766 69.2378 -0.0391321 69.1175 0.11801C68.9037 0.411798 68.7166 0.514295 68.3958 0.664604C68.1352 0.787585 68.1218 0.876396 67.928 1.06087C67.6607 1.32049 67.1461 1.40933 66.8053 1.52548C66.6048 1.5938 66.4311 1.63478 66.2172 1.62112C65.9767 1.60062 65.7495 1.55964 65.5356 1.43666C65.0344 1.14287 64.7671 0.609944 64.6602 0.0428648C64.6134 -0.223594 64.5599 -0.55155 64.6 -0.818008C64.6401 -1.10496 64.8072 -1.36459 64.8473 -1.65155C64.8874 -1.90434 64.8272 -2.13662 64.854 -2.38259C64.874 -2.53973 64.9542 -2.66954 65.0077 -2.81302C65.1413 -3.18196 65.1079 -3.63291 65.2683 -3.98136C65.3351 -4.13167 65.4621 -4.23415 65.5289 -4.38446C65.6158 -4.57576 65.6559 -4.78073 65.7628 -4.95837C65.8764 -5.14284 65.9767 -5.33415 66.0635 -5.53911C66.1304 -5.68942 66.1504 -5.79874 66.2707 -5.92172C66.3776 -6.03104 66.4979 -6.11984 66.5848 -6.24966C66.7385 -6.48195 66.7452 -6.74843 66.959 -6.94656C67.0927 -7.06954 67.2664 -7.13785 67.4001 -7.2745C67.5872 -7.45897 67.7877 -7.71861 67.9213 -7.95091C67.9948 -8.08072 68.0416 -8.22418 68.1285 -8.34033C68.2421 -8.49064 68.4092 -8.5453 68.5495 -8.66145C68.897 -8.95524 69.2779 -9.21487 69.6855 -9.413C70.0999 -9.61114 70.5944 -9.79562 71.0622 -9.7683C71.2025 -9.76146 71.403 -9.73413 71.5099 -9.63164C71.57 -9.57698 71.5634 -9.5155 71.6302 -9.46767C71.6903 -9.42668 71.824 -9.44717 71.8841 -9.41984C72.0512 -9.36518 72.0913 -9.29685 72.1448 -9.13288C72.2784 -8.73661 72.4522 -8.38133 72.5123 -7.95773C72.5658 -7.56145 72.5658 -7.15836 72.5324 -6.75526C72.4388 -5.75775 72.1448 -4.78072 71.7572 -3.85836C71.5834 -3.40743 71.3696 -2.97016 71.1357 -2.55339Z" fill="#704807"/>
<path d="M71.1355 -2.55362C69.6654 0.0768051 67.5804 1.77121 66.1369 1.62773C65.2882 0.425247 65.6558 -2.26668 67.1193 -4.89711C68.5894 -7.52754 70.6744 -9.22194 72.1179 -9.07846C72.9733 -7.87598 72.6057 -5.18405 71.1355 -2.55362Z" fill="#996407"/>
<path opacity="0.3" d="M87.0468 38.3101C87.254 38.4535 87.4478 38.7063 87.6215 38.8908C87.8086 39.0889 87.9891 39.2939 88.1628 39.5057C88.3098 39.6833 88.4101 39.8678 88.5905 40.0045C88.7977 40.1548 88.9714 40.3187 89.1251 40.5306C89.5127 41.0566 89.5996 41.6442 89.8001 42.2523C89.8936 42.5324 89.9872 42.751 90.0206 43.0517C90.054 43.3728 90.0072 43.6734 89.9738 43.9877C89.9538 44.1858 90.0005 44.3839 89.9671 44.5752C89.9337 44.787 89.7867 44.9442 89.5929 44.9783C89.3256 45.0193 89.1051 45.1355 88.8779 45.2722C88.6707 45.3951 88.4769 45.4976 88.2296 45.5044C87.8955 45.5113 87.5614 45.3746 87.2339 45.3268C86.8797 45.279 86.5389 45.2175 86.2048 45.0877C85.9375 44.9852 85.717 44.8485 85.4697 44.7051C85.0888 44.4864 84.7413 44.2883 84.3804 44.0355C84.0797 43.8237 83.7924 43.5982 83.5117 43.3659C83.3647 43.243 83.231 43.1063 83.084 42.9902C82.957 42.8945 82.8033 42.8467 82.683 42.7374C82.5962 42.6554 82.5627 42.5666 82.516 42.4572C82.4224 42.2523 82.2821 42.1635 82.1284 42.0131C81.9613 41.8492 81.8744 41.61 81.7207 41.4324C81.5737 41.2616 81.2797 41.1864 81.1727 40.9746C81.0658 40.7628 81.126 40.4964 80.9656 40.3051C80.8854 40.2094 80.7651 40.1753 80.6782 40.0933C80.6047 40.0181 80.5312 39.8883 80.4778 39.7927C80.3842 39.6218 80.4176 39.4579 80.324 39.2802C80.1303 38.9318 80.0033 38.5423 79.9298 38.1461C79.8897 37.9411 79.8696 37.7361 79.8696 37.5312C79.8696 37.3194 79.9632 37.1896 79.9899 36.9846C80.01 36.848 79.9565 36.7113 80.0033 36.5747C80.0634 36.3902 80.1837 36.3082 80.3374 36.2057C80.4844 36.1032 80.5713 35.9461 80.725 35.8641C80.852 35.7958 80.999 35.7479 81.1393 35.7138C81.3465 35.6591 81.5336 35.666 81.7408 35.666C81.9546 35.6728 82.1484 35.5771 82.3623 35.5771C82.663 35.5771 82.9437 35.7479 83.2043 35.8641C83.4983 36.0007 83.7923 36.1647 84.0931 36.2877C84.3671 36.397 84.621 36.4517 84.8683 36.6361C85.0888 36.8001 85.2558 36.9641 85.5031 37.0802C85.6167 37.1349 85.7303 37.1896 85.8506 37.2305C85.9241 37.2579 86.0845 37.2715 86.1446 37.3125C86.2783 37.4082 86.3919 37.6747 86.4855 37.8113C86.6525 38.0436 86.8062 38.1461 87.0468 38.3101Z" fill="#3ABFDD"/>
<path d="M86.8392 38.5425C87.1667 38.8499 87.4807 39.1779 87.7681 39.5195C87.9084 39.6835 88.0421 39.8474 88.1691 40.0182C88.2292 40.1002 88.3027 40.1822 88.3562 40.271C88.4029 40.353 88.4029 40.4213 88.4364 40.5102C88.5032 40.6878 88.6769 40.8176 88.7972 40.9611C89.0111 41.2207 89.0645 41.412 89.1314 41.7468C89.1848 42.0133 89.265 42.0474 89.3853 42.2592C89.559 42.5598 89.5323 43.0586 89.5657 43.3934C89.5858 43.5984 89.5858 43.7623 89.5256 43.9605C89.4588 44.1791 89.3719 44.3841 89.2182 44.5549C88.8574 44.958 88.3228 45.0946 87.8015 45.0741C87.5542 45.0673 87.2535 45.0468 87.0263 44.958C86.7791 44.8623 86.5853 44.6573 86.338 44.5549C86.1242 44.466 85.9036 44.4797 85.6898 44.3977C85.5561 44.3499 85.4559 44.2474 85.3423 44.1654C85.0483 43.9605 84.6339 43.9058 84.3599 43.6803C84.2463 43.5847 84.1795 43.4549 84.0592 43.3592C83.9055 43.2362 83.7385 43.1611 83.5981 43.0244C83.4578 42.881 83.3041 42.7443 83.1437 42.6282C83.0234 42.5393 82.9365 42.4915 82.8497 42.3549C82.7761 42.2319 82.7227 42.1021 82.6224 41.9928C82.4487 41.8015 82.2081 41.74 82.0812 41.5008C82.001 41.3505 81.9742 41.1729 81.8874 41.0226C81.7604 40.8108 81.5733 40.5717 81.3928 40.4008C81.2926 40.3052 81.179 40.2369 81.0921 40.1276C80.9852 39.9909 80.9718 39.8201 80.8983 39.6698C80.7112 39.2872 80.5575 38.8773 80.4639 38.4605C80.3704 38.0301 80.3169 37.5381 80.4372 37.1077C80.4706 36.9779 80.5375 36.8002 80.6511 36.7182C80.7179 36.6704 80.7647 36.6909 80.8181 36.6431C80.8649 36.5953 80.8783 36.4723 80.9117 36.4176C80.9986 36.2741 81.0654 36.2537 81.2191 36.2332C81.6 36.1853 81.9542 36.1033 82.3351 36.1375C82.696 36.1648 83.0568 36.2537 83.4043 36.3698C84.2731 36.6636 85.075 37.135 85.8101 37.6884C86.1709 37.9481 86.5184 38.235 86.8392 38.5425Z" fill="#704807"/>
<path d="M86.8396 38.5425C88.8712 40.4487 89.9404 42.7375 89.5127 44.0425C88.2764 44.5822 85.9575 43.6872 83.926 41.7742C81.8945 39.868 80.8252 37.5792 81.2529 36.2742C82.4959 35.7344 84.8148 36.6363 86.8396 38.5425Z" fill="#996407"/>
<path opacity="0.3" d="M121.964 41.4806C122.151 41.3029 122.432 41.1731 122.645 41.0365C122.879 40.893 123.113 40.7563 123.354 40.6334C123.561 40.524 123.761 40.4694 123.929 40.3191C124.122 40.1483 124.316 40.0116 124.55 39.9023C125.145 39.6358 125.726 39.6837 126.354 39.6154C126.648 39.588 126.876 39.5402 127.17 39.5743C127.49 39.6153 127.758 39.7247 128.058 39.834C128.239 39.9023 128.439 39.9023 128.62 39.9775C128.82 40.0595 128.934 40.2439 128.92 40.4421C128.9 40.7154 128.961 40.9681 129.041 41.2278C129.114 41.4601 129.168 41.6855 129.114 41.9315C129.047 42.2663 128.834 42.5737 128.72 42.888C128.593 43.2296 128.459 43.5576 128.259 43.865C128.098 44.111 127.918 44.3023 127.724 44.5141C127.43 44.842 127.156 45.1495 126.829 45.4501C126.561 45.7029 126.274 45.942 125.987 46.1675C125.84 46.2837 125.673 46.3861 125.526 46.5091C125.405 46.6116 125.325 46.7619 125.192 46.8507C125.098 46.9191 124.998 46.9259 124.884 46.9532C124.664 47.001 124.55 47.1172 124.37 47.2402C124.176 47.37 123.928 47.4042 123.721 47.5135C123.521 47.6228 123.381 47.8961 123.16 47.9576C122.933 48.0191 122.692 47.8961 122.472 48.0122C122.365 48.0737 122.305 48.1899 122.198 48.2513C122.104 48.3128 121.964 48.3538 121.864 48.3812C121.676 48.4358 121.529 48.3607 121.336 48.4222C120.955 48.5315 120.554 48.5725 120.159 48.5588C119.959 48.552 119.752 48.5246 119.558 48.4768C119.351 48.429 119.251 48.306 119.064 48.2309C118.937 48.1762 118.796 48.2035 118.676 48.1284C118.509 48.0259 118.462 47.8892 118.395 47.7116C118.335 47.5408 118.201 47.4178 118.155 47.247C118.121 47.1035 118.108 46.9464 118.101 46.8029C118.095 46.5843 118.141 46.3998 118.195 46.188C118.248 45.9762 118.201 45.7576 118.255 45.5458C118.322 45.2452 118.549 45.006 118.723 44.7669C118.917 44.5004 119.144 44.2476 119.331 43.9743C119.498 43.7215 119.611 43.4824 119.839 43.2775C120.046 43.093 120.24 42.9632 120.413 42.7445C120.494 42.6421 120.567 42.5396 120.641 42.4303C120.681 42.3619 120.734 42.2048 120.788 42.1501C120.915 42.034 121.195 41.9861 121.342 41.9247C121.623 41.8153 121.757 41.6855 121.964 41.4806Z" fill="#3ABFDD"/>
<path d="M122.137 41.7399C122.504 41.4803 122.892 41.2411 123.286 41.0293C123.473 40.9269 123.667 40.8312 123.854 40.7424C123.948 40.7014 124.041 40.6467 124.135 40.6126C124.222 40.5853 124.289 40.5989 124.382 40.5852C124.569 40.5579 124.73 40.4144 124.897 40.3325C125.198 40.1753 125.391 40.1685 125.725 40.1753C125.993 40.1821 126.046 40.1138 126.28 40.0387C126.608 39.9362 127.075 40.0728 127.41 40.1207C127.61 40.148 127.77 40.189 127.944 40.2915C128.138 40.4076 128.312 40.5443 128.445 40.7356C128.753 41.1933 128.759 41.7536 128.619 42.2728C128.552 42.5119 128.465 42.8126 128.325 43.0244C128.178 43.2498 127.937 43.4002 127.784 43.6256C127.65 43.8169 127.61 44.0424 127.49 44.2405C127.41 44.3635 127.289 44.4386 127.189 44.5343C126.928 44.7871 126.775 45.1834 126.501 45.4088C126.38 45.5045 126.24 45.5387 126.12 45.6343C125.966 45.7573 125.859 45.9144 125.692 46.0169C125.525 46.1262 125.358 46.2424 125.211 46.379C125.097 46.4815 125.03 46.5567 124.883 46.6113C124.75 46.6591 124.609 46.6796 124.489 46.7548C124.269 46.8846 124.155 47.1101 123.888 47.1852C123.727 47.2331 123.547 47.2194 123.387 47.2741C123.153 47.3492 122.879 47.4858 122.678 47.6293C122.565 47.7045 122.471 47.807 122.344 47.8685C122.19 47.9436 122.023 47.9231 121.856 47.9573C121.442 48.0529 121.021 48.1212 120.6 48.1144C120.172 48.1076 119.684 48.0529 119.303 47.8343C119.19 47.766 119.029 47.6635 118.983 47.5337C118.956 47.4585 118.983 47.4107 118.949 47.3492C118.916 47.2945 118.796 47.2467 118.755 47.2057C118.642 47.0896 118.635 47.0144 118.649 46.8573C118.695 46.4678 118.689 46.0921 118.809 45.7163C118.923 45.361 119.09 45.0194 119.277 44.6983C119.751 43.8989 120.393 43.1952 121.088 42.5871C121.415 42.2728 121.769 41.9927 122.137 41.7399Z" fill="#704807"/>
<path d="M122.137 41.7398C124.43 40.1411 126.862 39.5945 128.018 40.3187C128.252 41.6852 126.862 43.7963 124.57 45.3951C122.278 46.9938 119.845 47.5404 118.689 46.8162C118.462 45.4497 119.852 43.3386 122.137 41.7398Z" fill="#996407"/>
<path opacity="0.3" d="M144.27 3.72538C144.23 3.47259 144.284 3.15831 144.304 2.89868C144.324 2.61856 144.344 2.34527 144.377 2.07198C144.404 1.83968 144.477 1.64155 144.444 1.40925C144.411 1.14962 144.417 0.910481 144.464 0.650855C144.584 -0.00504398 144.952 -0.469633 145.259 -1.02988C145.4 -1.28951 145.493 -1.51498 145.687 -1.74044C145.901 -1.9864 146.141 -2.15036 146.402 -2.34167C146.562 -2.45781 146.669 -2.62863 146.836 -2.73111C147.017 -2.84726 147.224 -2.84725 147.384 -2.72427C147.592 -2.55346 147.825 -2.45781 148.086 -2.38266C148.313 -2.31433 148.52 -2.23235 148.694 -2.04788C148.921 -1.80192 149.055 -1.44664 149.242 -1.17335C149.449 -0.872732 149.636 -0.572108 149.77 -0.230494C149.877 0.0427969 149.924 0.302411 149.991 0.589367C150.091 1.02663 150.184 1.42974 150.245 1.87384C150.291 2.24278 150.325 2.61856 150.345 2.9875C150.352 3.17881 150.345 3.37695 150.365 3.56825C150.378 3.72539 150.452 3.88254 150.452 4.03968C150.452 4.16266 150.405 4.24464 150.358 4.35396C150.271 4.56576 150.305 4.72973 150.298 4.94836C150.291 5.18749 150.178 5.41296 150.151 5.65209C150.124 5.88438 150.271 6.15767 150.191 6.37631C150.111 6.60177 149.87 6.73843 149.85 6.99123C149.837 7.12104 149.897 7.23034 149.89 7.36016C149.884 7.46947 149.837 7.61296 149.804 7.71545C149.743 7.89992 149.596 7.98873 149.536 8.18004C149.409 8.56264 149.215 8.92475 148.982 9.24587C148.861 9.40985 148.721 9.56698 148.574 9.71046C148.42 9.85394 148.26 9.87443 148.093 9.98375C147.979 10.0657 147.919 10.1956 147.785 10.2571C147.612 10.339 147.471 10.3049 147.291 10.2571C147.117 10.2161 146.943 10.257 146.783 10.1955C146.649 10.1477 146.516 10.0657 146.395 9.98375C146.215 9.86077 146.095 9.71729 145.954 9.56015C145.814 9.39618 145.614 9.30735 145.466 9.15021C145.266 8.92474 145.199 8.59681 145.106 8.30985C145.005 7.99557 144.925 7.66079 144.812 7.35334C144.705 7.06638 144.571 6.84091 144.538 6.53346C144.504 6.25333 144.511 6.01421 144.431 5.74775C144.391 5.62477 144.357 5.50178 144.304 5.3788C144.27 5.30364 144.17 5.17383 144.163 5.09867C144.143 4.92787 144.264 4.66141 144.29 4.50427C144.35 4.20365 144.317 4.01917 144.27 3.72538Z" fill="#3ABFDD"/>
<path d="M144.578 3.72534C144.578 3.26758 144.604 2.80983 144.658 2.35207C144.685 2.13344 144.711 1.92163 144.751 1.70983C144.771 1.60735 144.778 1.49804 144.812 1.39555C144.838 1.30673 144.892 1.2589 144.932 1.17008C145.019 0.999271 144.992 0.780633 145.019 0.58933C145.065 0.247716 145.166 0.0769131 145.36 -0.196378C145.513 -0.415011 145.486 -0.49699 145.56 -0.742952C145.66 -1.07773 146.041 -1.39203 146.262 -1.65166C146.395 -1.80197 146.522 -1.91811 146.703 -2.00693C146.91 -2.10941 147.117 -2.17773 147.338 -2.17773C147.879 -2.17773 148.34 -1.87028 148.674 -1.45351C148.834 -1.26221 149.022 -1.01624 149.115 -0.783944C149.209 -0.53115 149.195 -0.244206 149.289 0.0154209C149.369 0.234054 149.529 0.398025 149.616 0.609826C149.67 0.746471 149.663 0.889967 149.683 1.03344C149.737 1.39556 149.971 1.74399 149.997 2.1061C150.011 2.25641 149.957 2.39989 149.964 2.55703C149.977 2.75517 150.044 2.9328 150.031 3.13094C150.024 3.33591 150.024 3.54089 150.051 3.74586C150.064 3.903 150.091 3.99864 150.051 4.15578C150.011 4.29243 149.95 4.42225 149.944 4.57256C149.924 4.83219 150.037 5.05765 149.95 5.31728C149.897 5.48125 149.783 5.62473 149.737 5.7887C149.663 6.02783 149.623 6.33527 149.616 6.58807C149.616 6.72471 149.643 6.8682 149.623 7.00485C149.596 7.17566 149.483 7.30546 149.423 7.4626C149.269 7.8657 149.082 8.25516 148.834 8.61044C148.587 8.97255 148.266 9.34832 147.872 9.54646C147.752 9.60795 147.578 9.6831 147.444 9.64894C147.364 9.62844 147.351 9.58062 147.277 9.57379C147.211 9.56696 147.11 9.64894 147.05 9.65578C146.89 9.68994 146.823 9.64894 146.709 9.54646C146.422 9.28683 146.115 9.07502 145.881 8.76757C145.654 8.47378 145.473 8.13901 145.326 7.7974C144.952 6.94336 144.745 6.00733 144.651 5.07814C144.598 4.63404 144.578 4.17627 144.578 3.72534Z" fill="#704807"/>
<path d="M144.578 3.72492C144.584 0.889524 145.52 -1.47442 146.756 -2.0415C147.986 -1.46759 148.908 0.903202 148.901 3.7386C148.895 6.57399 147.959 8.93796 146.723 9.50504C145.487 8.9243 144.571 6.56032 144.578 3.72492Z" fill="#996407"/>
<path opacity="0.3" d="M106.293 5.25597C105.992 4.99634 105.852 4.6479 105.564 4.36094C105.27 4.06032 104.943 3.8007 104.595 3.57524C104.375 3.43176 104.141 3.30876 103.9 3.19945C103.713 3.11746 103.493 3.07648 103.319 2.9535C102.898 2.65288 102.497 2.47523 102.002 2.60504C101.434 2.75535 100.846 2.82368 100.292 3.01498C99.9776 3.1243 99.7036 3.28143 99.4497 3.49323C99.2893 3.62304 99.1556 3.78703 98.9886 3.91001C98.8415 4.01933 98.6945 4.06714 98.5675 4.19696C98.3537 4.42242 98.1532 4.66839 97.9862 4.92801C97.8124 5.18764 97.7656 5.37894 97.6921 5.67273C97.632 5.91186 97.6186 6.18516 97.505 6.40379C97.3914 6.63609 97.1909 6.82738 97.1308 7.08018C96.9838 7.67459 96.9904 8.23483 97.104 8.82924C97.1508 9.08887 97.1174 9.33485 97.1508 9.59447C97.1909 9.96341 97.4515 10.1547 97.5785 10.4827C97.7188 10.8379 97.7589 11.1317 98.0062 11.4324C98.2 11.6715 98.4138 11.8901 98.5341 12.1771C98.6878 12.5392 99.0754 12.6827 99.3227 12.9628C99.6034 13.2771 99.9776 13.4889 100.358 13.6733C101.147 14.0491 102.029 14.2267 102.898 14.1447C103.232 14.1038 103.566 14.0423 103.894 13.933C104.007 13.8988 104.114 13.8373 104.228 13.7963C104.575 13.6802 104.896 13.6597 105.19 13.3932C105.417 13.1882 105.631 12.9491 105.872 12.7646C106.072 12.6143 106.306 12.5392 106.52 12.4162C106.774 12.259 106.814 12.0199 106.847 11.7398C106.881 11.4733 106.894 11.2137 106.954 10.9677C106.974 10.9199 107.001 10.8789 107.014 10.8311C107.041 10.7491 107.068 10.6671 107.095 10.5851C107.108 10.5578 107.121 10.5305 107.135 10.4963C107.215 10.3733 107.235 10.2435 107.222 10.1069V10.1001C107.262 9.89508 107.382 9.67644 107.389 9.47147C107.395 9.25284 107.262 9.07521 107.262 8.86341C107.262 8.59695 107.382 8.351 107.362 8.0777C107.335 7.6746 107.242 7.27148 107.135 6.86838C107.055 6.56776 106.961 6.26715 106.874 5.98019C106.754 5.59075 106.587 5.50876 106.293 5.25597Z" fill="#3ABFDD"/>
<path d="M106.413 7.09401C107.222 9.71077 105.992 12.4437 103.66 13.2021C103.353 13.2977 103.039 13.3524 102.738 13.448C102.451 13.5437 102.29 13.4549 101.996 13.3934C101.749 13.3455 101.508 13.3797 101.268 13.3182C100.773 13.1952 100.272 12.9014 99.9245 12.5188C99.7241 12.3002 99.5035 12.1909 99.2964 11.9927C99.1226 11.8288 99.0491 11.6033 98.8687 11.4393C98.715 11.3027 98.4878 11.2139 98.3942 11.0157C98.3073 10.8381 98.2806 10.64 98.187 10.4555C97.9665 10.0182 97.7527 9.54679 97.7126 9.04803C97.6858 8.74741 97.873 8.4263 97.8663 8.11201C97.8663 7.7499 97.6792 7.38779 97.7259 7.02568C97.7594 6.76606 97.9197 6.4381 98.0467 6.2058C98.2338 5.85736 98.4878 5.56357 98.715 5.24929C98.9021 4.98966 99.0157 4.69587 99.2696 4.49773C99.5436 4.2791 99.9379 4.08098 100.239 3.91701C101.094 3.44558 102.217 3.42506 103.132 3.70519C104.609 4.14929 105.885 5.38594 106.413 7.09401Z" fill="#704807"/>
<path d="M106.414 7.0939C107.222 9.71066 105.993 12.4436 103.66 13.202C103.38 13.2908 103.092 13.3523 102.798 13.3864C101.328 12.9492 100.045 11.7125 99.5172 9.99762C98.7019 7.37402 99.9382 4.64111 102.27 3.88956C102.558 3.79391 102.852 3.73924 103.146 3.71191C104.609 4.14918 105.886 5.38583 106.414 7.0939Z" fill="#996407"/>
<path opacity="0.3" d="M124.369 15.3607C124.443 15.634 124.503 15.9141 124.523 16.1942C124.536 16.3855 124.456 16.5495 124.456 16.734C124.456 16.8843 124.549 17.0005 124.543 17.1508C124.536 17.2942 124.456 17.4446 124.429 17.5812C124.396 17.752 124.342 17.9228 124.282 18.0799C124.162 18.4079 123.995 18.7222 123.794 19.0023C123.38 19.5694 122.805 19.9998 122.144 20.2116C121.917 20.2868 121.689 20.3278 121.462 20.3551C120.867 20.4098 120.259 20.2936 119.718 20.034C119.457 19.911 119.197 19.7675 119.01 19.5489C118.843 19.3576 118.569 19.2619 118.468 19.0091C118.388 18.811 118.241 18.6607 118.101 18.4967C117.934 18.2918 117.9 18.0868 117.807 17.8408C117.72 17.6153 117.539 17.4855 117.513 17.2259C117.493 17.0483 117.513 16.8775 117.479 16.6998C117.399 16.2899 117.399 15.9073 117.499 15.4973C117.539 15.3197 117.68 15.1899 117.76 15.0328C117.833 14.8824 117.847 14.6911 117.887 14.5272C117.94 14.3222 117.974 14.1924 118.094 14.0148C118.214 13.8371 118.348 13.6663 118.495 13.5092C118.582 13.4203 118.682 13.3862 118.782 13.311C118.896 13.229 118.99 13.1129 119.096 13.0241C119.277 12.8806 119.464 12.7644 119.678 12.6961C120.059 12.5663 120.466 12.5185 120.854 12.416C121.195 12.3272 121.475 12.4501 121.763 12.6551C121.883 12.7371 122.03 12.7644 122.164 12.8259C122.324 12.9011 122.485 12.9831 122.638 13.0856C122.879 13.2427 123.106 13.4203 123.307 13.6253C123.5 13.8234 123.601 14.0626 123.808 14.2402C124.008 14.411 124.128 14.4725 124.202 14.739C124.249 14.9508 124.309 15.1557 124.369 15.3607Z" fill="#3ABFDD"/>
<path d="M123.875 15.5179C124.429 17.3147 123.587 19.1936 121.984 19.7129C121.79 19.7744 121.589 19.8154 121.389 19.8359C119.965 19.9657 118.555 18.975 118.067 17.3967C117.506 15.593 118.362 13.7141 119.959 13.1949C120.513 13.0172 121.088 13.0241 121.623 13.1812C122.638 13.4955 123.514 14.3427 123.875 15.5179Z" fill="#704807"/>
<path d="M123.875 15.5183C124.429 17.3152 123.587 19.194 121.983 19.7133C121.79 19.7748 121.589 19.8158 121.389 19.8363C120.38 19.5357 119.498 18.6884 119.13 17.5065C118.569 15.7027 119.424 13.8239 121.021 13.3046C121.222 13.2431 121.422 13.2021 121.623 13.1816C122.638 13.4959 123.514 14.3431 123.875 15.5183Z" fill="#996407"/>
<path opacity="0.31" d="M153.245 -22.7293C153.245 -22.7908 153.252 -22.8455 153.252 -22.9069C150.679 -26.6784 147.605 -30.1902 144.05 -33.333C142.867 -34.3783 141.657 -35.3622 140.408 -36.2777C138.51 -37.692 136.545 -38.956 134.527 -40.0901C129.501 -42.9187 124.142 -44.8727 118.676 -45.959C118.188 -46.0547 117.7 -46.1504 117.219 -46.2255C108.718 -47.6808 99.9708 -47.0795 91.7444 -44.4696C88.0088 -43.2945 84.3801 -41.7025 80.9319 -39.7075C75.5791 -36.6057 70.6339 -32.5268 66.3771 -27.4914C53.7067 -12.4945 50.1582 7.3942 55.217 25.1035C56.3998 29.2233 58.0505 33.2339 60.1555 37.0258C63.1761 42.4711 67.1522 47.4928 72.0506 51.8177C78.907 57.8711 86.8059 61.8953 95.039 63.9176C96.0881 64.1773 97.144 64.4096 98.2065 64.6009C106.353 66.1108 114.739 65.7077 122.705 63.4531C123.514 63.2276 124.316 62.9748 125.118 62.7083C125.94 62.435 126.762 62.1413 127.57 61.827V61.8201C135.83 58.6226 143.448 53.3276 149.63 46.0239C166.363 26.1966 167.185 -2.15731 153.245 -22.7293Z" fill="#47C7E3"/>
<path d="M194.735 267.644C194.735 276.838 187.097 284.288 177.67 284.288C168.244 284.288 160.605 276.838 160.605 267.644C160.605 258.45 168.244 251 177.67 251C187.097 251 194.735 258.45 194.735 267.644Z" fill="#CA57A2"/>
<path d="M161.173 272.637C156.623 271.686 155.81 277.313 158.654 279.77C163.449 283.892 173.85 279.849 178.889 278.027C185.471 275.649 191.809 271.686 195.466 265.662C197.579 262.096 198.31 255.121 192.297 255.28C191.891 255.28 191.891 255.993 192.297 255.914C196.441 258.608 197.417 261.541 195.304 264.711C194.897 265.504 194.329 266.296 193.76 267.01C192.785 268.278 191.728 269.467 190.509 270.576C187.99 272.875 185.065 274.698 181.895 276.045C178.97 277.392 175.801 278.344 172.632 279.136C171.25 279.453 169.869 279.77 168.487 280.008C167.024 280.325 165.562 280.484 164.099 280.642C158.898 281.038 157.842 278.423 161.011 272.954C161.336 273.033 161.417 272.716 161.173 272.637Z" fill="white"/>
<path d="M341.387 188.798C339.647 186.856 337.08 185.708 334.502 185.718C331.924 185.732 329.375 186.905 327.669 188.862C328.484 188.922 329.299 188.978 330.113 189.038C329.337 189.626 328.535 190.239 328.079 191.106C327.624 191.974 327.625 193.176 328.344 193.838C328.924 194.374 329.785 194.42 330.563 194.363C331.341 194.303 332.147 194.17 332.884 194.437C333.621 194.704 334.225 195.558 333.914 196.284C333.397 197.485 331.164 197.071 330.798 198.329C330.587 199.055 331.234 199.757 331.904 200.09C334.296 201.29 337.32 199.996 338.919 197.834C340.519 195.671 341.009 192.879 341.312 190.187" fill="url(#paint0_linear_475_2)"/>
<path fill-rule="evenodd" clip-rule="evenodd" d="M341.705 197.252C341.705 197.252 339.838 196.613 335.553 190.174L335.512 190.113C331.232 183.664 331.348 181.662 331.348 181.662C354.515 163.341 367.817 167.984 367.817 167.984C367.817 167.984 367.084 182.262 341.705 197.252Z" fill="#D8D8D8"/>
<path fill-rule="evenodd" clip-rule="evenodd" d="M342.551 174.111C342.551 174.111 339.457 175.785 336.647 177.809C333.838 179.833 331.401 181.726 331.401 181.726L321.45 184.726C321.45 184.726 331.01 175.948 336.847 173.475C338.927 172.597 342.551 174.111 342.551 174.111Z" fill="#0075BA"/>
<path fill-rule="evenodd" clip-rule="evenodd" d="M361.429 179.444C358.633 182.917 355.393 186.061 352.503 188.33C345.523 193.81 340.741 196.612 340.741 196.612C340.741 196.612 340.061 196.106 338.727 194.515C337.329 192.85 336.358 191.387 336.358 191.387C336.358 191.387 356.9 177.129 358.539 175.775" fill="#B3B3B3"/>
<path fill-rule="evenodd" clip-rule="evenodd" d="M359.854 174.625C363.771 171.384 367.821 167.91 367.821 167.91C367.821 167.91 366.17 172.529 362.367 178.061" fill="#B3B3B3"/>
<path fill-rule="evenodd" clip-rule="evenodd" d="M354.705 168.728C354.705 168.728 355.554 171.212 357.892 174.742C360.252 178.303 362.119 180.084 362.119 180.084C362.119 180.084 364.079 177.694 365.889 174.013C367.668 170.393 367.82 167.925 367.82 167.925C367.82 167.925 365.287 167.069 361.064 167.51C356.821 167.955 354.705 168.728 354.705 168.728Z" fill="#0075BA"/>
<path opacity="0.47" fill-rule="evenodd" clip-rule="evenodd" d="M367.82 167.92C367.82 167.92 364.193 167.631 360.04 168.613C357.502 169.215 355.681 169.92 355.681 169.92C355.681 169.92 355.889 170.479 356.359 171.31C356.359 171.31 358.259 170.357 360.9 169.5C364.599 168.302 367.82 167.92 367.82 167.92Z" fill="white"/>
<path opacity="0.47" fill-rule="evenodd" clip-rule="evenodd" d="M354.875 170.246C354.875 170.246 355.055 170.639 355.213 170.953C355.437 171.404 355.597 171.702 355.597 171.702C355.597 171.702 349.647 174.671 344.975 177.582C341.013 180.049 333.106 186.129 333.106 186.129C333.106 186.129 332.818 185.61 332.474 184.902C332.114 184.163 331.969 183.779 331.969 183.779C331.969 183.779 339.172 178.308 344.556 175.131C349.469 172.229 354.875 170.246 354.875 170.246Z" fill="white"/>
<path fill-rule="evenodd" clip-rule="evenodd" d="M361.437 179.375C366.195 173.358 367.82 167.916 367.82 167.916C367.82 167.916 363.666 172.014 358.543 175.706C358.543 175.706 359.273 176.756 360.056 177.741C360.775 178.641 361.437 179.375 361.437 179.375Z" fill="url(#paint1_linear_475_2)"/>
<path fill-rule="evenodd" clip-rule="evenodd" d="M341.73 174.567C341.73 174.567 339.242 173.81 337.427 174.352C333.99 175.381 324.1 183.493 324.1 183.493L331.4 181.725C331.4 181.725 336.028 178.17 337.952 176.912C339.813 175.691 341.73 174.567 341.73 174.567Z" fill="url(#paint2_linear_475_2)"/>
<path fill-rule="evenodd" clip-rule="evenodd" d="M352.78 189.603C352.78 189.603 350.095 191.897 347.19 193.79C344.284 195.682 341.646 197.275 341.646 197.275L335.184 205.543C335.184 205.543 346.782 199.807 351.228 195.22C352.812 193.592 352.78 189.603 352.78 189.603Z" fill="#0075BA"/>
<path fill-rule="evenodd" clip-rule="evenodd" d="M352.054 190.203C352.054 190.203 351.816 192.836 350.642 194.344C348.415 197.204 337.299 203.502 337.299 203.502L341.647 197.275C341.647 197.275 346.629 194.238 348.501 192.892C350.309 191.59 352.054 190.203 352.054 190.203Z" fill="url(#paint3_linear_475_2)"/>
<path d="M351.066 181.931C352.53 182.127 353.869 181.078 354.056 179.589C354.244 178.1 353.209 176.734 351.745 176.537C350.281 176.341 348.942 177.389 348.755 178.879C348.567 180.368 349.602 181.734 351.066 181.931Z" fill="#00263E"/>
<path fill-rule="evenodd" clip-rule="evenodd" d="M354.317 177.237C353.226 175.597 351.041 175.162 349.433 176.264C347.825 177.368 347.406 179.59 348.494 181.23C349.582 182.87 351.77 183.305 353.378 182.201C354.986 181.099 355.408 178.875 354.317 177.237ZM349.195 180.751C348.369 179.505 348.688 177.816 349.907 176.976C351.129 176.139 352.789 176.466 353.616 177.713C354.443 178.959 354.127 180.649 352.905 181.486C351.682 182.329 350.022 181.998 349.195 180.751Z" fill="#585857"/>
<path opacity="0.47" fill-rule="evenodd" clip-rule="evenodd" d="M353.354 176.484C353.362 176.446 353.348 176.405 353.315 176.384C353.133 176.269 352.538 175.915 351.934 175.841C351.364 175.771 350.821 175.852 350.613 175.89C350.564 175.899 350.532 175.944 350.539 175.994L350.547 176.034C350.553 176.084 350.604 176.12 350.653 176.11C351.612 175.958 351.966 176.021 352.428 176.174C352.843 176.311 353.087 176.452 353.212 176.537C353.265 176.577 353.339 176.551 353.354 176.484Z" fill="white"/>
<path opacity="0.28" fill-rule="evenodd" clip-rule="evenodd" d="M352.216 182.048C352.088 182.093 351.872 182.163 351.685 182.181C351.63 182.187 351.592 182.234 351.598 182.287C351.604 182.341 351.648 182.379 351.699 182.38C351.836 182.375 352.094 182.351 352.292 182.269C352.336 182.252 352.361 182.206 352.354 182.159L352.349 182.125C352.337 182.064 352.274 182.026 352.216 182.048Z" fill="white"/>
<path opacity="0.61" fill-rule="evenodd" clip-rule="evenodd" d="M342.546 174.089C342.546 174.089 340.859 177.545 340.587 181.998C340.2 188.288 340.783 196.662 340.783 196.662C340.783 196.662 338.584 195.352 333.359 186.649C330.813 182.406 331.366 181.718 331.366 181.718C331.366 181.718 336.219 178.004 338.526 176.497C340.565 175.165 342.546 174.089 342.546 174.089Z" fill="url(#paint4_linear_475_2)"/>
<path d="M351.066 181.931C352.53 182.127 353.869 181.078 354.056 179.589C354.244 178.1 353.209 176.734 351.745 176.537C350.281 176.341 348.942 177.389 348.755 178.879C348.567 180.368 349.602 181.734 351.066 181.931Z" fill="url(#paint5_radial_475_2)"/>
<mask id="mask0_475_2" style="mask-type:alpha" maskUnits="userSpaceOnUse" x="932" y="27" width="41" height="42">
<path d="M952.305 68.8639C963.351 68.8639 972.305 59.7091 972.305 48.4161C972.305 37.1231 963.351 27.9683 952.305 27.9683C941.259 27.9683 932.305 37.1231 932.305 48.4161C932.305 59.7091 941.259 68.8639 952.305 68.8639Z" fill="url(#paint6_linear_475_2)"/>
</mask>
<g mask="url(#mask0_475_2)">
<path d="M952.305 68.8639C963.351 68.8639 972.305 59.7091 972.305 48.4161C972.305 37.1231 963.351 27.9683 952.305 27.9683C941.259 27.9683 932.305 37.1231 932.305 48.4161C932.305 59.7091 941.259 68.8639 952.305 68.8639Z" fill="url(#paint7_linear_475_2)"/>
<path opacity="0.2" d="M960.499 87.6947C956.842 87.2948 953.479 85.2616 950.958 82.5286C948.437 79.7956 946.698 76.3959 945.394 72.8797C944.275 69.8578 943.449 66.6248 943.829 63.414C944.519 57.648 948.871 53.1485 951.311 47.9046C953.81 42.5218 954.256 36.2836 953.169 30.4287C952.083 24.5738 949.529 19.0799 946.301 14.1193C944.525 11.3807 942.303 8.61992 939.189 7.81445C938.217 8.3144 938.043 9.7698 938.608 10.7197C939.178 11.664 940.254 12.1695 941.308 12.4251C944.394 13.1806 947.682 12.2918 950.795 12.9306C955.348 13.8638 958.793 18.0245 960.069 22.5906C961.346 27.1513 960.781 32.0452 959.711 36.6614C958.494 41.883 956.641 46.9436 954.196 51.6986C952.251 55.476 949.898 59.1867 949.284 63.4085C948.698 67.4358 949.817 71.6353 952.05 75.0016C954.283 78.3735 957.586 80.9288 961.243 82.5453" fill="#246FE1"/>
<path opacity="0.2" d="M960.797 79.8075C959.352 78.8132 958.57 77.0967 957.978 75.4191C954.886 66.6867 955.446 56.0656 961.493 49.133C963.655 46.6555 966.91 44.6502 970.034 45.5612C972.99 46.4222 974.718 49.5663 975.592 52.5771C977.548 59.3319 976.717 66.8811 973.332 73.0138" fill="#246FE1"/>
<path opacity="0.2" d="M934.294 76.7239C931.865 73.8465 930.604 69.9747 930.865 66.1806C931.126 62.3921 932.903 58.7314 935.695 56.2317C938.064 54.1152 941.058 52.8376 943.433 50.7323C946.589 47.9326 948.426 43.833 949.328 39.6557C950.213 35.5561 950.268 31.1677 948.763 27.257C947.258 23.3519 944.036 20.0078 940.031 19.0857C936.027 18.1636 931.376 20.0689 929.643 23.8741C929.333 24.5518 929.154 25.4572 929.681 25.9794C929.974 26.2683 930.403 26.346 930.811 26.3738C933.049 26.5127 935.179 25.4517 937.396 25.1128C940.716 24.6018 944.514 26.0905 945.839 29.2457C946.676 31.2344 946.432 33.5064 946.079 35.6339C945.617 38.4336 944.802 41.4888 942.471 43.0387C940.835 44.1274 938.782 44.2441 936.842 44.4774C933.729 44.8551 930.507 45.7162 928.246 47.9326C926.6 49.5491 925.606 51.7599 925.063 54.0264C923.889 58.9536 924.785 64.353 927.48 68.6081" fill="#246FE1"/>
<path opacity="0.2" d="M968.925 63.7587C969.784 63.2921 970.398 62.47 970.947 61.6534C972.338 59.5758 973.533 57.0206 972.816 54.6153C972.403 53.2376 971.354 52.0766 970.05 51.5434C968.746 51.0101 967.198 51.1156 965.975 51.8267C963.411 53.3154 961.449 58.0482 961.455 60.9868C961.455 64.5475 966.399 65.1419 968.925 63.7587Z" fill="#246FE1"/>
<path opacity="0.2" d="M929.029 38.4781C930.485 39.2891 931.963 40.1112 933.571 40.5223C935.18 40.9278 936.967 40.8889 938.402 40.0335C939.836 39.178 940.798 37.4004 940.406 35.7506C940.037 34.2008 938.646 33.1453 937.277 32.3787C934.859 31.0289 932.186 30.1568 929.453 29.8235C927.812 29.6235 926.068 29.629 924.606 30.4178" fill="#246FE1"/>
<path opacity="0.2" d="M922.123 63.8424C930.99 66.481 940.776 65.8477 949.192 61.9704C957.613 58.093 964.584 50.9715 968.263 42.3169C972.484 32.3902 972.321 21.1692 972.088 10.3481C973.18 11.7313 973.566 13.5422 973.924 15.2809C976.902 29.8627 979.77 45.2222 975.38 59.4206C974.462 62.387 973.223 65.2756 971.425 67.7864C967.209 73.6635 960.189 76.9743 953.115 77.8797C946.04 78.7796 938.863 77.5076 931.968 75.6633C926.356 74.1635 920.7 72.2081 916.195 68.4641" fill="#246FE1"/>
</g>
</g>
<defs>
<filter id="filter0_d_475_2" x="0" y="0" width="1148" height="323" filterUnits="userSpaceOnUse" color-interpolation-filters="sRGB">
<feFlood flood-opacity="0" result="BackgroundImageFix"/>
<feColorMatrix in="SourceAlpha" type="matrix" values="0 0 0 0 0 0 0 0 0 0 0 0 0 0 0 0 0 0 127 0" result="hardAlpha"/>
<feOffset dy="4"/>
<feGaussianBlur stdDeviation="2"/>
<feComposite in2="hardAlpha" operator="out"/>
<feColorMatrix type="matrix" values="0 0 0 0 0 0 0 0 0 0 0 0 0 0 0 0 0 0 0.25 0"/>
<feBlend mode="normal" in2="BackgroundImageFix" result="effect1_dropShadow_475_2"/>
<feBlend mode="normal" in="SourceGraphic" in2="effect1_dropShadow_475_2" result="shape"/>
</filter>
<linearGradient id="paint0_linear_475_2" x1="336.964" y1="190.756" x2="332.696" y2="193.757" gradientUnits="userSpaceOnUse">
<stop stop-color="#DC3D7B"/>
<stop offset="1" stop-color="#EFC55C"/>
</linearGradient>
<linearGradient id="paint1_linear_475_2" x1="362.329" y1="170.98" x2="367.19" y2="176.75" gradientUnits="userSpaceOnUse">
<stop offset="0.3303" stop-color="#2C285B" stop-opacity="0.6"/>
<stop offset="1" stop-color="#4F80C0" stop-opacity="0"/>
</linearGradient>
<linearGradient id="paint2_linear_475_2" x1="336.096" y1="180.17" x2="328.512" y2="177.849" gradientUnits="userSpaceOnUse">
<stop stop-color="#152941"/>
<stop offset="1" stop-color="#4F80C0" stop-opacity="0"/>
</linearGradient>
<linearGradient id="paint3_linear_475_2" x1="344.948" y1="193.532" x2="344.281" y2="201.561" gradientUnits="userSpaceOnUse">
<stop stop-color="#152941"/>
<stop offset="1" stop-color="#4F80C0" stop-opacity="0"/>
</linearGradient>
<linearGradient id="paint4_linear_475_2" x1="328.872" y1="176.504" x2="349.193" y2="190.293" gradientUnits="userSpaceOnUse">
<stop stop-color="#162435"/>
<stop offset="0.0671" stop-color="#1F2C3C" stop-opacity="0.9031"/>
<stop offset="0.175" stop-color="#364251" stop-opacity="0.7472"/>
<stop offset="0.3103" stop-color="#5D6672" stop-opacity="0.5519"/>
<stop offset="0.4676" stop-color="#92989F" stop-opacity="0.3247"/>
<stop offset="0.6414" stop-color="#D6D7D9" stop-opacity="0.0735"/>
<stop offset="0.6923" stop-color="#EBEBEB" stop-opacity="0"/>
</linearGradient>
<radialGradient id="paint5_radial_475_2" cx="0" cy="0" r="1" gradientUnits="userSpaceOnUse" gradientTransform="translate(347.314 178.619) rotate(56.4006) scale(5.596 5.54001)">
<stop offset="0.1469" stop-color="#0A1126"/>
<stop offset="0.4174" stop-color="#202735" stop-opacity="0.6816"/>
<stop offset="0.9965" stop-color="#4C5454" stop-opacity="0"/>
</radialGradient>
<linearGradient id="paint6_linear_475_2" x1="969.071" y1="58.5105" x2="934.73" y2="38.7299" gradientUnits="userSpaceOnUse">
<stop stop-color="#4570B4"/>
<stop offset="1" stop-color="#68A8DE"/>
</linearGradient>
<linearGradient id="paint7_linear_475_2" x1="969.071" y1="58.5105" x2="934.73" y2="38.7299" gradientUnits="userSpaceOnUse">
<stop stop-color="#4570B4"/>
<stop offset="1" stop-color="#43A6FA"/>
</linearGradient>
<clipPath id="clip0_475_2">
<rect width="1140" height="315" fill="white" transform="translate(4)"/>
</clipPath>
</defs>
</svg>
