<svg width="277" height="316" viewBox="0 0 277 316" fill="none" xmlns="http://www.w3.org/2000/svg">
<g clip-path="url(#clip0_151_433)">
<path opacity="0.42" d="M77.2903 99.0804C77.2903 99.0804 99.2466 104.281 125.215 106.152C151.176 108.021 180.136 100.061 180.136 100.061C180.136 100.061 228.372 27.0333 132.485 21.4102C36.5974 15.787 77.2903 99.0804 77.2903 99.0804Z" fill="#AEC4CE"/>
<path d="M163.72 49.6823C170.706 47.029 172.261 35.5802 166.017 31.4708C162.492 29.1519 160.023 30.9774 156.972 33.2993C151.989 37.0827 149.008 41.614 147.797 47.9014C153.722 48.6113 156.98 48.9989 163.72 49.6823Z" fill="#77553E"/>
<path d="M164.882 44.0635C168.242 42.7825 168.991 37.2741 165.989 35.3003C164.292 34.185 163.102 35.0635 161.638 36.1789C159.241 38.0012 157.802 40.1789 157.22 43.2068C160.071 43.5444 161.64 43.731 164.882 44.0635Z" fill="#A68069"/>
<path d="M114.529 42.6769C118.487 36.3373 112.803 26.4065 105.339 26.7856C93.8791 27.3684 97.9268 45.1492 100.766 50.8915C105.916 47.8663 108.745 46.2021 114.529 42.6769Z" fill="#77553E"/>
<path d="M113.669 37.5408C112.669 33.7413 111.222 29.5386 107.635 29.8495C100.336 30.4842 102.947 42.4959 104.316 45.2576C106.79 43.8016 110.884 39.2415 113.669 37.5408Z" fill="#A68069"/>
<path d="M135.777 34.4659C142.659 34.6825 159.34 35.8934 168.16 45.9145C176.247 55.0998 174.81 67.4032 177.191 78.4722C179.704 90.1531 180.389 101.585 177.397 105.865C159.435 131.563 69.8985 119.615 84.0356 96.5272C88.3612 89.46 90.287 65.4416 98.4095 51.0804C109.115 32.1547 131.611 34.3274 135.777 34.4659Z" fill="#77553E"/>
<path d="M124.254 62.9694C124.232 64.107 125.154 64.1812 126.285 64.2012C127.423 64.2235 128.86 64.3998 128.882 63.2621C128.905 62.1245 127.487 60.9793 126.352 60.9508C125.214 60.9285 124.277 61.8317 124.254 62.9694Z" fill="#423B36"/>
<path d="M155.484 63.6005C155.462 64.7382 156.378 64.8882 157.515 64.9105C158.653 64.9327 159.577 64.8169 159.6 63.6792C159.622 62.5415 158.719 61.6042 157.581 61.5819C156.45 61.5619 155.512 62.465 155.484 63.6005Z" fill="#423B36"/>
<path d="M134.828 86.2021C134.828 86.2021 151.311 87.6762 158.491 89.6726C165.677 91.6712 170.214 86.4311 171.094 86.5617C171.969 86.69 175.92 84.6678 176.321 80.9048C176.722 77.1418 147.242 62.6197 147.242 62.6197L134.828 86.2021Z" fill="url(#paint0_linear_151_433)"/>
<path d="M145.408 62.0218C142.633 61.2799 136.619 62.4477 134.377 64.5572C132.757 66.0779 131.883 68.8272 131.509 70.91C130.756 75.1157 129.584 82.2228 133.225 84.9783C136.633 87.5531 140.653 85.5762 144.706 86.1987C148.538 86.7865 151.632 87.3428 155.385 86.4748C159.495 85.5189 161.363 79.9628 160.768 76.1563C160.255 72.845 157.607 69.5101 154.698 67.6748C152.578 66.3341 148.487 62.8418 145.408 62.0218Z" fill="#A68069"/>
<path d="M161.751 73.4804C160.377 72.3718 158.316 72.5857 156.617 72.5514C154.84 72.5181 152.898 72.2862 151.133 72.462C148.782 72.6952 147.928 74.0091 148.125 76.3617C148.284 78.2556 148.939 81.7083 150.875 82.1787C153.24 82.7565 157.306 82.6129 159.53 81.9325C162.274 81.101 163.38 76.6934 161.751 73.4804Z" fill="#423B36"/>
<path d="M182.117 142.568C182.117 142.568 203.721 157.594 218.374 151.041C233.146 144.43 240.426 131.125 231.002 116.248C221.579 101.371 210.684 113.224 206.174 113.849C200.543 114.627 177.606 97.0994 177.606 97.0994L182.529 142.846" fill="#C9D5D9"/>
<path d="M187.043 137.103C188.201 146.409 182.372 174.276 179.957 204.905C179.166 214.931 185.792 231.525 185.503 238.007C184.851 252.599 185.492 259.151 185.492 259.151C194.391 263.374 194.681 271.012 189.215 274.945C183.748 278.878 149.177 270.052 148.142 262.889C146.04 248.283 138.415 234.515 138.415 234.515C131.136 233.997 114.522 232.979 114.522 232.979C114.522 232.979 108.509 248.953 108.88 255.248C109.25 261.543 108.625 269.512 94.3552 270.246C87.645 270.591 63.4316 277.471 62.2676 268.467C61.1036 259.463 73.7896 253.927 73.7896 253.927C73.7896 253.927 70.1187 226.111 69.185 200.946C68.2513 175.781 81.1388 99.7022 81.1388 99.7022C81.1388 99.7022 100.269 106.335 125.598 106.979C150.92 107.62 182.034 98.4113 182.034 98.4113C186.525 105.154 186.963 122.319 187.043 137.103Z" fill="#C9D5D9"/>
<path d="M108.831 257.09C108.629 266.989 105.246 270.058 85.7094 271.62C79.0176 272.155 61.9025 276.605 62.19 267.372C62.4711 258.3 73.6722 254.021 73.6722 254.021C73.6722 254.021 85.5036 256.141 89.1884 256.402C95.1637 256.825 108.85 255.98 108.831 257.09Z" fill="#808E93"/>
<path d="M189.215 274.945C183.742 278.875 149.171 270.05 148.142 262.889C147.482 258.296 153.556 256.958 157.791 256.654C172.27 255.605 185.49 259.157 185.49 259.157C194.385 263.371 194.675 271.01 189.215 274.945Z" fill="#808E93"/>
<path d="M192.902 128.782C195.853 119.354 203.564 113.709 203.564 113.709C204.862 114.02 206.884 113.658 206.884 113.658C206.884 113.658 198.234 121.507 197.029 129.741C194.787 145.101 202.565 151.725 202.565 151.725C202.565 151.725 197.854 150.922 195.385 149.446C192.144 147.488 189.952 138.21 192.902 128.782Z" fill="#808E93"/>
<path d="M69.0353 203.361C69.0353 203.361 91.7494 206.006 103.155 219.722C114.56 233.438 114.56 233.438 114.56 233.438C114.56 233.438 103.843 209.137 92.812 203.548C81.7743 197.957 68.6645 195.002 68.6645 195.002L69.0353 203.361Z" fill="#B27C3B"/>
<path d="M138.405 234.949C138.405 234.949 154.509 229.383 164.732 219.297C174.954 209.211 180.211 204.845 180.211 204.845C180.211 204.845 181.777 207.307 180.112 209.71C178.444 212.119 170.836 220.791 160.036 227.508C149.235 234.225 138.37 236.528 138.37 236.528L138.405 234.949Z" fill="#B27C3B"/>
<path d="M81.7019 105.484C81.7019 105.484 65.4025 122.104 62.6078 149.525C59.8132 176.945 65.0074 202.868 65.0074 202.868C65.0074 202.868 81.69 211.065 84.2868 193.715C86.8836 176.365 78.5645 165.699 83.3864 149.266C88.2083 132.834 98.6848 125.566 91.2689 114.783C83.8529 104.001 81.7019 105.484 81.7019 105.484Z" fill="url(#paint1_linear_151_433)"/>
<path d="M77.2284 101.689C77.2284 101.689 39.2235 131.558 36.4203 158.982C33.6171 186.406 60.5276 199.07 60.5276 199.07C60.5276 199.07 77.2102 207.267 79.807 189.917C82.4038 172.567 74.0847 161.901 78.9066 145.469C83.7286 129.036 94.2051 121.768 86.7891 110.986C79.3731 100.203 77.2284 101.689 77.2284 101.689Z" fill="#C9D5D9"/>
<path d="M36.6492 168.579C36.8728 187.309 60.5255 199.077 60.5255 199.077C60.5255 199.077 77.2081 207.274 79.8049 189.924C81 181.92 79.8801 175.342 78.7954 168.968C77.5254 161.504 36.4282 149.821 36.6492 168.579Z" fill="#808E93"/>
<path d="M62.7642 141.985C72.4096 145.528 77.4828 153.237 77.4828 153.237L77.377 156.58C77.377 156.58 69.9854 147.673 61.4551 145.919C45.5398 142.635 38.7849 149.187 38.7849 149.187C38.7849 149.187 38.8462 147.37 40.7505 143.453C42.6507 139.527 53.1125 138.44 62.7642 141.985Z" fill="#808E93"/>
<path d="M75.3706 99.8812C75.3706 99.8812 86.731 100.515 90.4869 107.461C95.0804 115.958 93.0757 123.729 89.9013 128.794C86.7269 133.858 82.841 135.451 82.841 135.451C82.841 135.451 89.9809 123.561 88.9102 117.693C86.9943 107.197 79.5162 103.725 75.2333 102.909C70.9462 102.085 75.3706 99.8812 75.3706 99.8812Z" fill="#B27C3B"/>
<path d="M187.157 139.087C187.157 139.087 188.396 114.949 185.806 104.684C183.215 94.4184 183.572 102.13 183.572 102.13L187.157 139.087Z" fill="#B27C3B"/>
<path d="M70.6461 225.856C70.6461 225.856 73.5008 223.876 84.6305 225.9C100.149 228.72 111.62 243.505 111.62 243.505C111.62 243.505 94.776 233.541 85.8359 231.949C76.9295 230.361 71.2337 233.047 71.2337 233.047L70.6461 225.856Z" fill="#808E93"/>
<path d="M142.855 244.139C142.855 244.139 163.673 237.347 173.809 234.64C183.945 231.934 185.5 238.013 185.5 238.013L184.754 241.691C184.754 241.691 181.811 237.602 175.41 238.48C169.009 239.357 142.855 244.139 142.855 244.139Z" fill="#808E93"/>
<path d="M77.5235 96.1425C77.5235 96.1425 74.7243 95.8163 74.5892 98.8377C74.454 101.859 74.454 101.859 74.454 101.859C74.454 101.859 110.383 109.772 128.523 109.923C146.663 110.073 173.94 107.989 180.852 103.5C187.764 99.0107 181.647 96.3177 181.647 96.3177C181.647 96.3177 169.042 104.399 130.817 103.674C110.307 103.283 77.5235 96.1425 77.5235 96.1425Z" fill="#B27C3B"/>
<path d="M125.96 61.4649C125.951 61.7941 125.439 62.3296 125.11 62.3207C124.781 62.3119 124.689 62.2093 124.696 61.8864C124.705 61.5571 125.246 61.0812 125.577 61.1048C125.777 61.1182 125.963 61.1335 125.96 61.4649Z" fill="white"/>
<path d="M157.241 62.1918C157.232 62.521 156.72 63.0565 156.391 63.0476C156.062 63.0388 155.97 62.9362 155.977 62.6133C155.984 62.2903 156.527 61.8081 156.858 61.8317C157.06 61.8388 157.25 61.8626 157.241 62.1918Z" fill="white"/>
<path d="M132.708 78.498C132.708 78.498 132.091 82.334 134.584 84.286C137.078 86.2379 142.853 84.541 142.853 84.541C142.853 84.541 138.913 83.654 136.345 81.7116C134.548 80.3564 132.708 78.498 132.708 78.498Z" fill="url(#paint2_linear_151_433)"/>
<path opacity="0.36" d="M117.984 32.7327C117.984 32.7327 102.953 33.2361 95.0647 46.1375C87.1759 59.0389 88.1668 69.2482 88.1668 69.2482L99.8101 72.597C99.8101 72.597 99.2792 57.7261 102.566 49.4621C106.898 38.5863 117.984 32.7327 117.984 32.7327Z" fill="white"/>
<path opacity="0.36" d="M88.2363 72.8997L99.5924 76.7068L99.5252 82.7146L88.8245 80.0482L88.2363 72.8997Z" fill="white"/>
<path d="M167.006 126.887C167.006 126.887 178.756 127.339 178.441 142.77C178.126 158.201 179.165 185.637 176.17 189.032C173.173 192.433 117.352 190.504 110.5 186.373C103.647 182.243 100.098 173.552 100.098 173.552C100.098 173.552 125.341 175.757 148.273 173.563C171.204 171.369 167.006 126.887 167.006 126.887Z" fill="url(#paint3_radial_151_433)"/>
<path d="M172.237 176.128C172.237 176.128 130.75 183.555 110.971 180.323C105.854 179.485 102.194 177.939 101.071 175.362C95.6174 162.825 109.491 124.161 109.491 124.161C109.491 124.161 148.364 127.629 163.173 125.917C166.187 125.569 168.341 127.438 169.872 130.63C175.891 143.167 172.237 176.128 172.237 176.128Z" fill="#DDE5E8"/>
<path d="M172.238 176.128C172.238 176.128 130.75 183.555 110.971 180.323C110.709 174.306 110.548 163.036 112.149 152.105C114.488 136.143 117.153 129.133 117.153 129.133L169.884 130.635C175.891 143.167 172.238 176.128 172.238 176.128Z" fill="#C9D5D9"/>
<path d="M119.894 146.422L121.748 146.461L121.64 151.754C121.631 152.246 121.506 152.684 121.269 153.06C121.035 153.445 120.708 153.734 120.298 153.938C119.888 154.141 119.43 154.236 118.924 154.229C118.082 154.211 117.43 153.99 116.974 153.555C116.518 153.12 116.298 152.514 116.315 151.735L118.183 151.771C118.174 152.122 118.232 152.382 118.352 152.544C118.472 152.707 118.678 152.785 118.959 152.791C119.218 152.797 119.414 152.703 119.564 152.515C119.708 152.325 119.786 152.062 119.789 151.709L119.894 146.422ZM126.139 152.214C126.143 151.94 126.055 151.725 125.861 151.573C125.666 151.42 125.335 151.255 124.858 151.082C124.375 150.906 123.985 150.748 123.681 150.586C122.691 150.078 122.203 149.391 122.221 148.528C122.229 148.099 122.359 147.728 122.619 147.408C122.873 147.087 123.235 146.838 123.691 146.665C124.148 146.492 124.664 146.411 125.232 146.425C125.787 146.435 126.286 146.545 126.716 146.752C127.145 146.959 127.49 147.248 127.727 147.621C127.965 147.994 128.075 148.407 128.064 148.884L126.211 148.846C126.216 148.529 126.13 148.287 125.939 148.107C125.745 147.933 125.495 147.839 125.163 147.837C124.832 147.834 124.569 147.898 124.371 148.041C124.173 148.184 124.073 148.368 124.072 148.594C124.067 148.79 124.172 148.975 124.377 149.139C124.581 149.302 124.953 149.474 125.482 149.659C126.011 149.844 126.446 150.038 126.785 150.241C127.608 150.74 128.01 151.411 127.992 152.253C127.976 152.926 127.715 153.45 127.195 153.827C126.681 154.206 125.978 154.378 125.093 154.359C124.468 154.346 123.904 154.22 123.405 153.99C122.9 153.757 122.53 153.437 122.278 153.045C122.028 152.646 121.916 152.197 121.924 151.691L123.791 151.727C123.781 152.141 123.887 152.447 124.093 152.646C124.306 152.847 124.644 152.951 125.13 152.958C125.438 152.967 125.679 152.902 125.865 152.776C126.04 152.639 126.131 152.459 126.139 152.214Z" fill="#0070DF"/>
<path d="M134.998 154.443L133.151 154.407L133.215 151.184L130.478 151.126L130.414 154.349L128.552 154.315L128.706 146.598L130.568 146.633L130.504 149.693L133.242 149.75L133.306 146.69L135.152 146.726L134.998 154.443ZM138.428 154.622C137.55 154.605 136.841 154.329 136.308 153.79C135.773 153.257 135.518 152.567 135.53 151.723L135.532 151.575C135.545 150.992 135.662 150.475 135.887 150.03C136.113 149.586 136.437 149.246 136.858 149.011C137.279 148.777 137.779 148.661 138.349 148.669C139.149 148.687 139.785 148.951 140.245 149.458C140.704 149.965 140.918 150.669 140.903 151.561L140.887 152.256L137.335 152.183C137.392 152.507 137.528 152.766 137.74 152.947C137.951 153.133 138.228 153.23 138.572 153.237C139.14 153.251 139.582 153.059 139.908 152.671L140.705 153.649C140.479 153.952 140.157 154.186 139.747 154.368C139.331 154.548 138.893 154.628 138.428 154.622ZM138.313 150.049C137.787 150.036 137.47 150.378 137.363 151.069L139.162 151.102L139.168 150.963C139.182 150.678 139.112 150.455 138.964 150.291C138.818 150.141 138.6 150.058 138.313 150.049ZM144.898 150.53L144.309 150.473C143.748 150.461 143.385 150.631 143.213 150.981L143.141 154.612L141.351 154.574L141.465 148.837L143.143 148.871L143.19 149.609C143.504 149.054 143.923 148.783 144.464 148.795C144.654 148.797 144.822 148.821 144.961 148.869L144.898 150.53ZM144.967 151.728C144.975 151.158 145.103 150.651 145.335 150.209C145.567 149.767 145.891 149.427 146.316 149.201C146.737 148.966 147.229 148.855 147.796 148.869C148.653 148.885 149.325 149.169 149.807 149.712C150.283 150.253 150.524 150.98 150.501 151.898L150.5 151.962C150.485 152.855 150.218 153.56 149.712 154.077C149.207 154.593 148.528 154.837 147.684 154.825C146.869 154.81 146.218 154.547 145.733 154.053C145.25 153.552 144.996 152.883 144.976 152.049L144.967 151.728ZM146.75 151.869C146.742 152.397 146.811 152.788 146.978 153.038C147.137 153.291 147.385 153.413 147.707 153.42C148.347 153.431 148.679 152.945 148.716 151.968L148.723 151.787C148.741 150.761 148.43 150.235 147.769 150.224C147.172 150.213 146.843 150.65 146.769 151.529L146.75 151.869ZM153.784 154.932C152.906 154.915 152.196 154.639 151.663 154.1C151.128 153.567 150.874 152.877 150.885 152.033L150.887 151.885C150.9 151.302 151.017 150.785 151.243 150.34C151.468 149.896 151.792 149.556 152.213 149.321C152.635 149.086 153.134 148.971 153.704 148.979C154.504 148.997 155.14 149.261 155.6 149.768C156.059 150.274 156.273 150.978 156.259 151.871L156.243 152.566L152.69 152.493C152.747 152.817 152.883 153.076 153.096 153.256C153.306 153.443 153.584 153.54 153.928 153.547C154.495 153.561 154.937 153.369 155.264 152.981L156.061 153.959C155.835 154.262 155.513 154.496 155.103 154.678C154.686 154.858 154.248 154.938 153.784 154.932ZM153.668 150.359C153.143 150.346 152.825 150.687 152.719 151.378L154.517 151.412L154.523 151.273C154.538 150.988 154.467 150.765 154.319 150.601C154.167 150.449 153.955 150.367 153.668 150.359ZM159.73 153.33C159.732 153.182 159.658 153.05 159.499 152.96C159.34 152.869 159.046 152.759 158.595 152.651C158.145 152.544 157.79 152.406 157.503 152.235C157.221 152.073 157.002 151.869 156.855 151.641C156.708 151.413 156.64 151.142 156.645 150.846C156.658 150.321 156.886 149.891 157.321 149.555C157.763 149.222 158.333 149.067 159.036 149.079C159.794 149.096 160.395 149.277 160.844 149.632C161.293 149.987 161.517 150.439 161.507 150.995L159.717 150.957C159.728 150.501 159.492 150.263 159.007 150.257C158.817 150.254 158.66 150.298 158.532 150.402C158.398 150.504 158.339 150.631 158.334 150.786C158.328 150.946 158.404 151.072 158.559 151.175C158.714 151.279 158.96 151.364 159.297 151.432C159.633 151.5 159.936 151.585 160.193 151.681C161.052 151.995 161.471 152.537 161.451 153.301C161.438 153.827 161.2 154.246 160.729 154.562C160.258 154.879 159.652 155.035 158.915 155.018C158.423 155.009 157.992 154.908 157.604 154.723C157.222 154.541 156.928 154.29 156.717 153.983C156.506 153.676 156.407 153.351 156.418 153.016L158.083 153.045C158.088 153.316 158.17 153.507 158.339 153.63C158.502 153.75 158.725 153.821 158.991 153.829C159.236 153.836 159.416 153.786 159.542 153.689C159.665 153.619 159.73 153.493 159.73 153.33Z" fill="#0E204D"/>
<path d="M206.211 107.661L203.591 109.801L210.306 134.162C210.682 135.517 212.006 136.361 213.265 136.036C217.376 135.399 221.647 128.511 220.65 124.882L215.269 105.349L206.211 107.661Z" fill="#3C70A0"/>
<path d="M213.265 136.036C212.006 136.361 210.682 135.517 210.306 134.162L203.591 109.801L212.647 107.496L218.027 127.029C219.143 131.045 217.013 135.082 213.265 136.036Z" fill="#4D88C9"/>
<path d="M213.575 110.832L212.655 107.492L203.599 109.797L204.329 112.448C206.528 110.098 210.212 109.976 213.575 110.832Z" fill="#3C70A0"/>
<path d="M204.904 108.329C199.509 109.706 193.834 106.114 192.238 100.311L192.116 99.8718C190.514 94.0666 193.592 88.2467 198.992 86.8718L204.904 108.329Z" fill="#C9D5D9"/>
<path d="M196.625 87.2335C195.97 87.408 195.448 87.9116 195.25 88.5992C194.793 90.2143 194.321 93.6343 195.837 99.1554C197.361 104.679 199.531 107.416 200.762 108.609C201.287 109.11 201.998 109.302 202.654 109.142C228.128 103.027 259.012 110.241 259.012 110.241L252.014 84.8478L245.02 59.4421C245.02 59.4421 221.904 80.4215 196.625 87.2335Z" fill="#C9D5D9"/>
<path d="M227.883 77.9969C224.709 80.771 220.932 84.643 220.755 89.4458C220.515 95.7678 227.891 98.8015 232.584 99.9228C248.949 103.823 259.027 110.239 259.027 110.239L245.02 59.442C245.02 59.442 241.628 65.9796 227.883 77.9969Z" fill="#DDE5E8"/>
<path d="M244.706 58.0525C241.904 58.2202 240.375 62.2968 240.328 65.3491C240.222 72.6653 241.404 79.9151 243.369 87.0491C245.27 93.9416 247.792 101.121 251.834 107.064C252.966 108.725 254.383 110.662 256.193 111.534C261.57 114.117 262.516 106.238 262.558 102.612C262.633 96.034 261.302 89.3121 259.548 82.9305C257.937 77.0935 255.857 71.2626 252.924 65.9476C251.539 63.4348 249.793 60.7185 247.483 59.0499C246.453 58.2944 245.528 58.007 244.706 58.0525Z" fill="#3C70A0"/>
<path d="M259.063 109.294C262.833 108.249 262.846 96.4276 259.092 82.8911C255.338 69.3545 249.239 59.2284 245.469 60.2737C241.7 61.3191 241.687 73.1401 245.441 86.6766C249.195 100.213 255.294 110.339 259.063 109.294Z" fill="#C9D5D9"/>
<path d="M254.414 106.552C256.205 106.058 255.077 96.3166 251.896 84.7949C248.714 73.2731 244.683 64.3339 242.892 64.8285C241.1 65.3231 242.228 75.0643 245.409 86.5861C248.591 98.1078 252.622 107.047 254.414 106.552Z" fill="#DDE5E8"/>
<path d="M216.223 107.054C214.428 105.006 212.378 100.607 210.917 95.3104C209.46 90.0224 208.97 85.2271 209.474 82.5887C209.663 81.6012 209.993 80.9176 210.462 80.6285C205.893 82.7603 201.101 84.6167 196.24 85.9252C195.163 86.2142 194.335 87.0492 194.021 88.149C193.544 89.8419 192.981 93.5626 194.61 99.4695C196.24 105.376 198.641 108.343 199.927 109.583C200.762 110.391 201.912 110.721 203.001 110.458C207.909 109.279 213.037 108.607 218.112 108.286C217.553 108.267 216.905 107.836 216.223 107.054Z" fill="#4D88C9"/>
<path d="M210.74 80.4995L210.731 80.5036C210.738 80.5058 210.738 80.5058 210.74 80.4995Z" fill="#4E35E7"/>
<path d="M218.393 108.271C218.364 108.274 218.336 108.272 218.307 108.276C218.336 108.272 218.366 108.268 218.393 108.271Z" fill="#4E35E7"/>
<path d="M210.468 80.6307C210.553 80.5897 210.644 80.5509 210.736 80.512C210.636 80.5339 210.551 80.5749 210.468 80.6307Z" fill="black"/>
<path d="M218.307 108.276C218.241 108.281 218.176 108.287 218.112 108.286C218.182 108.289 218.247 108.283 218.307 108.276Z" fill="black"/>
<path d="M219.522 106.84C219.032 106.867 218.541 106.894 218.049 106.927C218.047 106.934 218.045 106.94 218.038 106.938C218.032 106.936 218.026 106.933 218.019 106.931C217.162 106.674 214.34 102.989 212.139 95.0088C209.945 87.0524 210.49 82.5123 211.101 81.8558C211.101 81.8558 211.103 81.8495 211.105 81.8432C211.108 81.8369 211.116 81.8328 211.118 81.8265C211.125 81.8287 211.131 81.8309 211.137 81.8331C211.577 81.626 212.017 81.4189 212.459 81.2055C211.834 80.6268 211.253 80.3674 210.755 80.4976C210.749 80.4954 210.746 80.5017 210.738 80.5059L210.729 80.51C210.644 80.551 210.553 80.5898 210.462 80.6287C209.993 80.9177 209.663 81.6013 209.474 82.5889C208.97 85.2273 209.454 90.0203 210.917 95.3105C212.372 100.605 214.428 105.006 216.223 107.054C216.905 107.836 217.553 108.267 218.112 108.286C218.178 108.28 218.243 108.275 218.307 108.276C218.336 108.272 218.364 108.274 218.389 108.262C218.396 108.264 218.404 108.26 218.404 108.26C218.908 108.132 219.281 107.633 219.522 106.84Z" fill="#3C70A0"/>
<path d="M218.047 106.934C218.049 106.927 218.051 106.921 218.057 106.923C218.049 106.927 218.036 106.923 218.028 106.927C218.028 106.927 218.04 106.931 218.047 106.934Z" fill="black"/>
<path d="M211.103 81.8494C211.118 81.8475 211.129 81.8371 211.144 81.8352C211.137 81.833 211.131 81.8308 211.125 81.8286C211.118 81.8264 211.112 81.8453 211.103 81.8494Z" fill="black"/>
<path d="M257.836 90.9167C258.13 89.8736 258.474 87.5898 257.473 83.9529C256.471 80.3222 254.993 78.4985 254.206 77.7359C253.693 77.2389 252.987 77.0348 252.315 77.1964C249.474 77.8808 246.519 78.285 243.575 78.495C244.021 81.0475 244.627 83.7478 245.395 86.5328C246.254 89.661 247.241 92.6074 248.302 95.2825C250.935 94.08 253.687 93.0396 256.472 92.2932C257.131 92.1061 257.643 91.5917 257.836 90.9167Z" fill="#4D88C9"/>
<path d="M256.96 90.7472C257.891 90.4891 257.871 87.4863 256.916 84.0401C255.96 80.5939 254.431 78.0093 253.5 78.2674C252.57 78.5254 252.589 81.5283 253.545 84.9745C254.5 88.4207 256.029 91.0052 256.96 90.7472Z" fill="#3C70A0"/>
<path d="M214.855 146.433C230.69 143.078 241.728 135.681 235.581 119.175C230.972 106.791 226.089 106.784 216.558 109.094C213.382 109.866 202.463 117.553 201.631 124.071C200.399 133.781 209.511 147.566 214.855 146.433Z" fill="#808E93"/>
</g>
<defs>
<linearGradient id="paint0_linear_151_433" x1="126.776" y1="65.4272" x2="170.084" y2="96.4639" gradientUnits="userSpaceOnUse">
<stop stop-color="#2A1C00"/>
<stop offset="0.4169" stop-color="#202015" stop-opacity="0.5831"/>
<stop offset="1" stop-color="#14242E" stop-opacity="0"/>
</linearGradient>
<linearGradient id="paint1_linear_151_433" x1="42.6277" y1="138.272" x2="89.2438" y2="162.07" gradientUnits="userSpaceOnUse">
<stop stop-color="#31577D"/>
<stop offset="0.6399" stop-color="#1D3447" stop-opacity="0.3601"/>
<stop offset="1" stop-color="#14242E" stop-opacity="0"/>
</linearGradient>
<linearGradient id="paint2_linear_151_433" x1="137.8" y1="83.4369" x2="137.558" y2="77.089" gradientUnits="userSpaceOnUse">
<stop stop-color="#844949"/>
<stop offset="1"/>
</linearGradient>
<radialGradient id="paint3_radial_151_433" cx="0" cy="0" r="1" gradientUnits="userSpaceOnUse" gradientTransform="translate(139.472 158.426) rotate(1.15848) scale(45.8259 45.8259)">
<stop stop-color="#31577D"/>
<stop offset="0.6399" stop-color="#1D3447" stop-opacity="0.3601"/>
<stop offset="1" stop-color="#14242E" stop-opacity="0"/>
</radialGradient>
<clipPath id="clip0_151_433">
<rect width="200" height="264.034" fill="white" transform="translate(87.6206 0.402344) rotate(19.2365)"/>
</clipPath>
</defs>
</svg>
