<svg width="500" height="500" viewBox="0 0 500 500" fill="none" xmlns="http://www.w3.org/2000/svg">
<path d="M241.017 126.416L132.057 172.488C113.505 180.332 104.825 201.73 112.669 220.282L180.359 380.369C188.203 398.921 209.601 407.601 228.153 399.757L337.113 353.685C355.664 345.841 364.345 324.443 356.5 305.892L288.811 145.804C280.967 127.252 259.569 118.572 241.017 126.416Z" fill="#697477"/>
<path opacity="0.21" d="M120.24 199.59C147.438 193.213 174.143 184.892 200.15 174.69C241.98 158.15 281.15 124.05 281.15 124.05C281.15 124.05 301.5 -25.79 148 37.3C-5.50002 100.39 120.24 199.59 120.24 199.59Z" fill="#AEC4CE"/>
<path d="M279.66 124.73C279.66 124.73 241.28 157.73 201.37 175.73C161.46 193.73 126.7 197.73 126.7 197.73C126.7 197.73 163.64 325.78 184 364.26C204.36 402.74 230.87 443.26 230.87 443.26C230.87 443.26 215.26 461.39 223.87 474.54C232.48 487.69 264.98 458.83 275.16 453.26C296.83 441.44 291.84 428.56 286.54 419.04C281.24 409.52 278.64 380.14 278.64 380.14C278.64 380.14 305.27 369.28 316.99 364.63C316.99 364.63 339.18 380.35 353.39 401.52C360.39 411.9 420.8 399.74 426.39 389.52C431.98 379.3 425.77 367.63 408.76 367.72C408.76 367.72 402.85 357.99 392.94 334.78C388.53 324.48 365.79 303.6 359.5 287.4C340.31 237.9 328.5 190.15 319.74 176.52C319.74 176.52 368.55 152.11 373.64 124.84C378.78 97.35 372.32 51.89 341.91 50.65C311.5 49.41 312.34 98.65 308.79 105.65C304.24 114.42 279.66 124.73 279.66 124.73Z" fill="#C9D5D9"/>
<path d="M373.52 124.88C378.76 97.41 372.2 51.93 341.79 50.69C318.98 49.76 313.79 77.2 311.07 93.93C310.17 99.51 319.4 117.62 329.24 123.3C343.88 131.75 371.76 134.16 373.52 124.88Z" fill="#808E93"/>
<path d="M287.74 422C294.85 437.57 291.87 444.88 262.63 461.95C252.63 467.8 229.3 487.55 222.83 472.95C216.48 458.61 230.71 443.56 230.71 443.56C230.71 443.56 250.71 437.99 256.65 435.64C266.26 431.8 286.94 420.23 287.74 422Z" fill="#808E93"/>
<path d="M426.27 389.56C420.7 399.78 360.27 411.94 353.27 401.56C348.81 394.9 357.27 388.27 363.63 384.62C385.38 372.13 408.63 367.76 408.63 367.76C425.65 367.66 431.83 379.34 426.27 389.56Z" fill="#808E93"/>
<path d="M316.86 139.19C306.37 125.73 305.93 109.19 305.93 109.19C307.247 107.785 308.324 106.174 309.12 104.42C309.12 104.42 311.76 124.42 322.28 134.23C341.91 152.51 359.49 148.23 359.49 148.23L349.81 157.45C344.47 163 327.35 152.65 316.86 139.19Z" fill="#808E93"/>
<path d="M185.52 368.15C185.52 368.15 222.87 355.25 250.9 368.06L278.9 380.86C278.9 380.86 244.01 351.06 222.64 350.62C201.27 350.18 178.64 355.41 178.64 355.41L185.52 368.15Z" fill="#B27C3B"/>
<path d="M317.19 365.35C317.19 365.35 338.1 344.62 346.46 321.25C354.82 297.88 359.74 287.15 359.74 287.15C359.74 287.15 364.02 289.81 363.23 294.8C362.44 299.79 357.1 319 345.31 337.56C337.941 348.997 328.831 359.214 318.31 367.84L317.19 365.35Z" fill="#B27C3B"/>
<path d="M136 198.58C136 198.58 138.33 236.48 152.82 282.27C167.31 328.06 190.68 311.66 178.54 280.36C167.83 252.77 171.99 242.36 160.33 218.52C150.37 198.21 136 198.58 136 198.58Z" fill="url(#paint0_linear_305_87)"/>
<path d="M128.9 200.16C128.9 200.16 75.2 264.16 80.16 311.49C85.12 358.82 135.16 370.76 135.16 370.76C135.16 370.76 166.28 378.76 164.53 348.46C162.78 318.16 144.94 303.11 147.28 273.61C149.62 244.11 164.76 228.11 148.41 212.5C132.06 196.89 128.9 200.16 128.9 200.16Z" fill="#C9D5D9"/>
<path d="M84 327.64C91 359.24 135.17 370.76 135.17 370.76C135.17 370.76 166.29 378.76 164.54 348.46C163.73 334.51 159.54 323.78 155.41 313.38C150.58 301.22 76.94 296 84 327.64Z" fill="#808E93"/>
<path d="M118.7 273.42C129.465 275.122 139.501 279.925 147.58 287.24L148.58 292.93C148.58 292.93 132.92 280.49 117.87 280.53C89.8 280.61 80.69 294.07 80.69 294.07C80.69 294.07 80.15 291 82 283.68C83.85 276.36 101.13 270.84 118.7 273.42Z" fill="#808E93"/>
<path d="M119.8 202.9C124.8 197.62 136.02 194.75 147.07 202.75C160.58 212.54 163.29 226.14 162.13 236.4C160.97 246.66 150.6 254.21 150.6 254.21C150.6 254.21 162.34 230.49 152.27 219.86C139.61 206.47 129.4 206.8 122.12 208.74C114.84 210.68 118.46 204.31 119.8 202.9Z" fill="#B27C3B"/>
<path d="M321.29 179.57C321.29 179.57 305.13 141.06 293.41 127C281.69 112.94 288.01 124.7 288.01 124.7L321.29 179.57Z" fill="#B27C3B"/>
<path d="M204.88 402C204.88 402 207.88 396.78 226.69 391.59C252.97 384.35 281.9 398.78 281.9 398.78C281.9 398.78 248.22 395.89 233.1 400.1C217.98 404.31 211.19 412.76 211.19 412.76L204.88 402Z" fill="#808E93"/>
<path d="M331 376.32C331 376.32 358.32 350.14 372.07 338.32C385.82 326.5 392.8 334.81 392.8 334.81L394.39 341.1C394.39 341.1 386.75 336.94 377.39 343.1C368.03 349.26 331 376.32 331 376.32Z" fill="#808E93"/>
<path d="M280.76 175.67C280.76 175.67 294.26 167.32 305.32 191.58C316.38 215.84 332.12 247.1 330 254.64C327.88 262.18 246.36 311.12 232.6 309.82C228.515 309.408 224.552 308.194 220.938 306.246C217.324 304.298 214.13 301.656 211.54 298.47C211.54 298.47 252.54 282.99 286.54 262.39C320.54 241.79 280.76 175.67 280.76 175.67Z" fill="url(#paint1_radial_305_87)"/>
<path d="M325.81 248.41C325.81 248.41 266.81 291.06 233.56 300.84C224.96 303.37 218.1 303.71 214.43 300.54C196.54 285.11 189.18 214.54 189.18 214.54C189.18 214.54 252.31 190.81 274.08 177.05C278.51 174.25 283.27 175.54 288.08 179.37C306.79 194.35 325.81 248.41 325.81 248.41Z" fill="#DDE5E8"/>
<path d="M325.81 248.41C325.81 248.41 256.29 299 225 302.63C220.09 293.46 211.67 276.57 206 258.35C197.68 231.74 196.57 218.83 196.57 218.83L288.04 179.34C306.79 194.35 325.81 248.41 325.81 248.41Z" fill="#C9D5D9"/>
<path d="M222.05 241.38L224.97 240.05L228.77 248.37C229.11 249.093 229.248 249.895 229.17 250.69C229.094 251.456 228.795 252.182 228.31 252.78C227.798 253.42 227.14 253.928 226.39 254.26C225.307 254.837 224.046 254.984 222.86 254.67C222.316 254.476 221.821 254.166 221.409 253.762C220.996 253.358 220.676 252.869 220.47 252.33L223.4 251C223.557 251.441 223.851 251.819 224.24 252.08C224.421 252.157 224.617 252.19 224.813 252.178C225.009 252.166 225.2 252.108 225.37 252.01C225.556 251.936 225.72 251.817 225.848 251.663C225.975 251.51 226.062 251.326 226.1 251.13C226.168 250.642 226.081 250.145 225.85 249.71L222.06 241.39L222.05 241.38ZM236.11 245.73C236.032 245.535 235.909 245.36 235.751 245.221C235.592 245.082 235.404 244.983 235.2 244.93C234.56 244.831 233.909 244.831 233.27 244.93C232.536 245.015 231.798 245.051 231.06 245.04C229.14 244.98 227.87 244.28 227.25 242.93C226.961 242.305 226.883 241.603 227.03 240.93C227.208 240.174 227.592 239.481 228.14 238.93C228.777 238.287 229.53 237.772 230.36 237.41C231.16 237.028 232.033 236.82 232.92 236.8C233.702 236.787 234.471 236.995 235.14 237.4C235.794 237.806 236.307 238.403 236.61 239.11L233.69 240.44C233.603 240.219 233.469 240.02 233.296 239.857C233.123 239.695 232.916 239.573 232.69 239.5C232.214 239.374 231.709 239.427 231.27 239.65C230.821 239.828 230.441 240.147 230.19 240.56C230.091 240.721 230.034 240.905 230.026 241.095C230.017 241.284 230.056 241.472 230.14 241.642C230.224 241.812 230.35 241.958 230.506 242.066C230.661 242.174 230.842 242.241 231.03 242.26C231.729 242.371 232.441 242.371 233.14 242.26C233.959 242.155 234.786 242.132 235.61 242.19C236.327 242.207 237.025 242.425 237.625 242.819C238.224 243.213 238.7 243.768 239 244.42C239.238 244.895 239.357 245.421 239.346 245.952C239.336 246.484 239.196 247.005 238.94 247.47C238.27 248.565 237.258 249.408 236.06 249.87C235.15 250.304 234.158 250.539 233.15 250.56C232.285 250.6 231.429 250.381 230.69 249.93C229.994 249.488 229.447 248.847 229.12 248.09L232.05 246.75C232.15 247.021 232.306 247.268 232.507 247.474C232.709 247.681 232.952 247.843 233.22 247.95C233.847 248.088 234.503 247.988 235.06 247.67C235.473 247.502 235.823 247.208 236.06 246.83C236.144 246.666 236.188 246.484 236.188 246.3C236.188 246.116 236.144 245.934 236.06 245.77L236.11 245.73Z" fill="#4D88C9"/>
<path d="M251.57 242.56L248.67 243.89L246.35 238.82L242.05 240.82L244.36 245.89L241.44 247.23L235.9 235.1L238.83 233.76L241.03 238.58L245.33 236.58L243.13 231.76L246.03 230.43L251.57 242.56ZM257.05 240.26C256.448 240.568 255.79 240.753 255.115 240.805C254.44 240.857 253.762 240.773 253.12 240.56C252.501 240.339 251.937 239.989 251.463 239.534C250.989 239.079 250.616 238.529 250.37 237.92L250.26 237.69C249.859 236.854 249.654 235.937 249.66 235.01C249.675 234.183 249.936 233.378 250.41 232.7C250.936 231.975 251.648 231.406 252.47 231.05C253.013 230.77 253.61 230.609 254.22 230.576C254.83 230.543 255.44 230.64 256.01 230.86C257.205 231.413 258.138 232.41 258.61 233.64L259.11 234.73L253.53 237.28C253.814 237.708 254.238 238.022 254.73 238.17C255.237 238.305 255.776 238.244 256.24 238C256.645 237.839 257.006 237.585 257.295 237.259C257.583 236.932 257.791 236.542 257.9 236.12L259.9 237.05C259.734 237.738 259.389 238.369 258.9 238.88C258.386 239.468 257.752 239.939 257.04 240.26H257.05ZM253.45 233.26C252.63 233.63 252.39 234.4 252.73 235.56L255.56 234.27L255.46 234.05C255.394 233.852 255.286 233.671 255.145 233.517C255.004 233.364 254.832 233.242 254.64 233.16C254.446 233.091 254.239 233.065 254.034 233.082C253.829 233.099 253.63 233.16 253.45 233.26ZM264.05 229.07L263.1 229.42C262.21 229.83 261.77 230.36 261.77 231.03L264.38 236.74L261.57 238L257.46 229L260.09 227.8L260.71 228.91C260.697 228.447 260.82 227.99 261.064 227.596C261.307 227.201 261.66 226.886 262.08 226.69C262.341 226.561 262.621 226.473 262.91 226.43L264.05 229.07ZM265.05 230.89C264.656 230.063 264.461 229.156 264.48 228.24C264.502 227.411 264.77 226.607 265.25 225.93C265.778 225.218 266.485 224.659 267.3 224.31C267.876 224.01 268.51 223.836 269.158 223.802C269.807 223.767 270.455 223.872 271.06 224.11C272.305 224.681 273.281 225.714 273.78 226.99V227.09C274.402 228.287 274.532 229.679 274.14 230.97C273.92 231.576 273.573 232.129 273.123 232.591C272.673 233.053 272.13 233.414 271.53 233.65C270.977 233.935 270.372 234.105 269.752 234.15C269.131 234.195 268.508 234.113 267.92 233.91C266.728 233.434 265.765 232.517 265.23 231.35L265.05 230.89ZM267.93 229.78C268.175 230.436 268.601 231.008 269.16 231.43C269.376 231.554 269.621 231.619 269.87 231.619C270.119 231.619 270.364 231.554 270.58 231.43C271.58 230.97 271.74 229.97 271.06 228.43L270.93 228.15C270.19 226.53 269.31 225.96 268.28 226.43C267.25 226.9 267.15 227.78 267.7 229.21L267.93 229.78ZM281.18 229.27C280.578 229.578 279.92 229.763 279.245 229.815C278.57 229.866 277.892 229.783 277.25 229.57C276.631 229.349 276.067 228.999 275.593 228.544C275.119 228.089 274.746 227.539 274.5 226.93L274.39 226.7C273.989 225.864 273.784 224.947 273.79 224.02C273.805 223.193 274.066 222.388 274.54 221.71C275.063 220.982 275.776 220.412 276.6 220.06C277.142 219.778 277.739 219.615 278.349 219.582C278.96 219.549 279.57 219.648 280.14 219.87C281.335 220.423 282.268 221.42 282.74 222.65L283.24 223.74L277.66 226.29C277.944 226.718 278.368 227.032 278.86 227.18C279.367 227.315 279.906 227.254 280.37 227.01C280.772 226.841 281.129 226.58 281.412 226.249C281.695 225.917 281.896 225.524 282 225.1L284 226.03C283.834 226.718 283.489 227.349 283 227.86C282.486 228.448 281.852 228.919 281.14 229.24L281.18 229.27ZM277.58 222.27C276.76 222.64 276.52 223.41 276.86 224.57L279.69 223.28L279.59 223.06C279.524 222.862 279.416 222.681 279.275 222.527C279.134 222.374 278.962 222.252 278.77 222.17C278.576 222.101 278.369 222.075 278.164 222.092C277.959 222.109 277.76 222.17 277.58 222.27ZM289.25 222.35C289.19 222.231 289.098 222.131 288.986 222.061C288.873 221.99 288.743 221.952 288.61 221.95C288.06 221.942 287.512 222.009 286.98 222.15C286.325 222.302 285.651 222.36 284.98 222.32C284.465 222.296 283.963 222.144 283.52 221.88C283.113 221.617 282.79 221.242 282.59 220.8C282.406 220.402 282.319 219.966 282.337 219.528C282.354 219.09 282.475 218.662 282.69 218.28C283.215 217.374 284.028 216.669 285 216.28C285.998 215.769 287.135 215.597 288.24 215.79C288.688 215.871 289.11 216.062 289.467 216.344C289.825 216.627 290.107 216.993 290.29 217.41L287.47 218.7C287.419 218.54 287.33 218.394 287.212 218.273C287.094 218.153 286.95 218.062 286.791 218.008C286.631 217.954 286.461 217.937 286.295 217.96C286.128 217.983 285.969 218.045 285.83 218.14C285.562 218.259 285.34 218.463 285.2 218.72C285.141 218.836 285.11 218.965 285.11 219.095C285.11 219.225 285.141 219.354 285.2 219.47C285.26 219.595 285.352 219.702 285.465 219.781C285.579 219.86 285.712 219.908 285.85 219.92C286.302 219.946 286.755 219.895 287.19 219.77C287.708 219.63 288.236 219.533 288.77 219.48C289.401 219.341 290.06 219.422 290.639 219.709C291.217 219.997 291.68 220.473 291.95 221.06C292.133 221.458 292.213 221.896 292.181 222.333C292.15 222.77 292.008 223.192 291.77 223.56C291.178 224.497 290.307 225.224 289.28 225.64C288.576 225.973 287.809 226.151 287.03 226.16C286.352 226.175 285.683 226.009 285.09 225.68C284.565 225.391 284.145 224.943 283.89 224.4L286.52 223.2C286.586 223.381 286.696 223.542 286.842 223.668C286.987 223.794 287.162 223.881 287.35 223.92C287.745 223.988 288.151 223.928 288.51 223.75C288.83 223.631 289.099 223.405 289.27 223.11C289.327 222.997 289.357 222.872 289.357 222.745C289.357 222.618 289.327 222.493 289.27 222.38L289.25 222.35Z" fill="black"/>
<path d="M120.37 114.64C108.77 115.46 99.07 100.32 105.19 90.42C108.65 84.83 115.19 84.87 121.05 86.15C130.57 88.24 135.87 93.6 141.7 101.69C133.79 106.56 129.44 109.25 120.37 114.64Z" fill="#77553E"/>
<path d="M119.8 108.16C114.22 108.56 107.39 99.51 110.33 94.75C111.085 93.4736 112.215 92.4606 113.565 91.8487C114.916 91.2368 116.423 91.0557 117.88 91.33C121.078 92.1635 124.118 93.5146 126.88 95.33C123.05 97.65 124.17 105.57 119.8 108.16Z" fill="#A68069"/>
<path d="M192.94 66.6401C187.83 56.1901 198.24 41.5301 209.71 43.5001C216.19 44.6101 217.81 48.8601 218.82 54.7501C220.45 64.3501 218.25 73.1301 212.94 81.57C205.45 76.0601 201.33 73.0001 192.94 66.6401Z" fill="#77553E"/>
<path d="M197 60.61C197 60.61 199.42 47.53 207.07 48.2C210.23 48.48 211.47 50.43 211.95 53.26C212.73 57.89 211.86 61.42 210.17 66.89C206.6 64.24 201.6 62.32 197 60.61Z" fill="#A68069"/>
<path d="M161.73 67.59C146.49 74.59 125.27 83.13 118.79 113.02C114.79 131.63 130.24 179.02 132.71 196.46C133.93 205.06 234.27 172.46 272.01 132.26C272.01 132.26 229.44 77.36 219.9 70.8C206.51 61.6 192.54 53.52 161.73 67.59Z" fill="#77553E"/>
<path d="M152.57 114.31C153.35 115.9 150.31 115.31 148.72 116.13C147.13 116.95 145.84 119.53 145.06 117.94C144.28 116.35 145.69 113.87 147.28 113.1C148.87 112.33 151.79 112.72 152.57 114.31Z" fill="#423B36"/>
<path d="M196.11 94.43C196.88 96.02 193.85 95.43 192.26 96.25C190.67 97.07 189.38 99.65 188.6 98.06C187.82 96.47 189.23 93.99 190.82 93.22C192.41 92.45 195.33 92.84 196.11 94.43Z" fill="#423B36"/>
<path opacity="0.18" d="M133.9 65.8C133.9 65.8 110.9 77.8 108.26 103.8C105.62 129.8 114.84 145 114.84 145L135.48 141.48C135.48 141.48 123.48 118.72 122.48 103.4C121 83.22 133.9 65.8 133.9 65.8Z" fill="white"/>
<path opacity="0.18" d="M117.68 150.63L138.21 148.04L142.6 157.45L123.94 161.31L117.68 150.63Z" fill="white"/>
<path d="M118.41 194.84C117.787 195.046 117.217 195.385 116.739 195.834C116.261 196.283 115.888 196.831 115.644 197.44C115.4 198.048 115.292 198.703 115.328 199.358C115.363 200.012 115.542 200.651 115.85 201.23L117.91 206.03C117.91 206.03 179.78 191.43 208.14 178.08C236.5 164.73 277.41 141.08 284.8 128.87C292.19 116.66 280.65 117.1 280.65 117.1C280.65 117.1 267.08 139.1 207.02 166.64C174.8 181.4 118.41 194.84 118.41 194.84Z" fill="#B27C3B"/>
<path d="M184.29 145.12C184.29 145.12 193.96 144.28 207.16 138.67C220.36 133.06 219.9 119.14 221.36 118.28C222.82 117.42 225.85 109.35 221.36 102.87C216.87 96.39 178.36 103.75 178.36 103.75L184.29 145.12Z" fill="url(#paint2_linear_305_87)"/>
<path d="M168.11 108C175.55 103.21 185.59 100.74 195.06 109.82C198.204 112.734 200.112 116.742 200.393 121.019C200.673 125.297 199.306 129.52 196.57 132.82C193.42 136.72 194.39 141.82 187.5 144.25C179.19 147.15 175.98 143.91 171.73 142.94C164.73 141.33 161.19 135.77 159.73 131.94C155 118.87 163.93 110.71 168.11 108Z" fill="#A68069"/>
<path d="M169.24 125.89C169.91 123.22 172.46 121.67 174.84 120.5C177.329 119.115 179.897 117.876 182.53 116.79C186 115.58 188.07 116.88 189.33 120.32C190.33 123.1 190.97 126.87 188.55 128.8C184.858 131.459 180.629 133.278 176.16 134.13C171.73 134.75 167.88 131.33 169.24 125.89Z" fill="#423B36"/>
<path d="M176 140.19C176 140.19 181 144.67 186.17 142.86C191.34 141.05 194.26 131.08 194.26 131.08C194.26 131.08 189.26 135.98 184.07 137.9C181.429 138.828 178.734 139.593 176 140.19Z" fill="url(#paint3_linear_305_87)"/>
<defs>
<linearGradient id="paint0_linear_305_87" x1="116.183" y1="253.675" x2="171.255" y2="254.968" gradientUnits="userSpaceOnUse">
<stop stop-color="#31577D"/>
<stop offset="0.26" stop-color="#294967" stop-opacity="0.72"/>
<stop offset="0.76" stop-color="#1A2E3E" stop-opacity="0.2"/>
<stop offset="1" stop-color="#14242E" stop-opacity="0"/>
</linearGradient>
<radialGradient id="paint1_radial_305_87" cx="0" cy="0" r="1" gradientUnits="userSpaceOnUse" gradientTransform="translate(257.765 243.448) rotate(-24.54) scale(75.51 75.51)">
<stop stop-color="#31577D"/>
<stop offset="0.26" stop-color="#294967" stop-opacity="0.72"/>
<stop offset="0.76" stop-color="#1A2E3E" stop-opacity="0.2"/>
<stop offset="1" stop-color="#14242E" stop-opacity="0"/>
</radialGradient>
<linearGradient id="paint2_linear_305_87" x1="144.138" y1="132.831" x2="210.898" y2="124.407" gradientUnits="userSpaceOnUse">
<stop stop-color="#2A1C00"/>
<stop offset="0.37" stop-color="#211F12" stop-opacity="0.6"/>
<stop offset="1" stop-color="#14242E" stop-opacity="0"/>
</linearGradient>
<linearGradient id="paint3_linear_305_87" x1="191.56" y1="135.418" x2="182.113" y2="129.817" gradientUnits="userSpaceOnUse">
<stop stop-color="#844949"/>
<stop offset="1"/>
</linearGradient>
</defs>
</svg>
