<svg width="140" height="134" viewBox="0 0 140 134" fill="none" xmlns="http://www.w3.org/2000/svg">
<path d="M80.8352 4.67271C83.8966 6.42497 86.9579 9.22861 86.3457 12.4995C85.7334 15.6536 81.9373 17.1722 78.7535 18.3404C71.8961 21.0272 65.651 25.4663 60.8753 30.8399C59.6508 32.2417 58.4262 33.8771 58.4262 35.7462C58.4262 39.3675 62.4672 41.3534 66.0184 42.6384C72.6309 44.9748 79.2433 47.4279 85.7334 49.7643C91.8561 51.9838 98.8359 55.138 100.183 61.2125C101.285 66.4693 97.244 71.726 92.3459 74.296C86.4681 77.4501 78.6311 77.6837 73.2431 73.8288C67.8552 69.9738 66.2633 61.5629 70.794 56.7733C67.9776 55.722 65.0387 54.5538 61.9774 54.6706C58.916 54.7875 55.7322 56.6566 55.12 59.577C54.0179 64.9506 61.7325 67.871 64.304 72.7774C67.3653 78.3846 62.2223 85.6273 55.8547 87.2628C49.4871 89.0151 42.6297 86.7955 36.6295 84.1087C31.119 81.6555 25.6086 78.6183 21.5676 74.1792C11.7713 63.6656 11.8938 48.1289 12.5061 34.1108L10.1795 32.0081C5.2813 39.6012 1.97505 48.3625 0.62806 57.7079C-3.16801 84.8096 10.5468 110.276 33.5681 123.593C35.0376 117.285 38.3438 111.21 43.9767 107.823C50.5892 103.968 60.6304 105.369 64.1815 111.911C65.5285 114.481 65.7734 117.519 66.8755 120.322C69.2021 125.929 75.5697 129.784 81.9373 129.317C88.3049 128.85 93.9378 124.177 95.4072 118.336C96.7542 112.729 94.6725 106.421 97.7339 101.515C99.8156 98.2437 103.734 96.4914 107.408 94.9727C115 91.8187 122.714 88.6646 130.307 85.5105C132.511 84.576 135.327 83.7582 137.164 85.2769C138.144 82.1228 138.878 78.8519 139.368 75.581C144.511 39.1339 117.694 5.49043 79.4883 0.584088C76.6718 0.233635 73.8554 0 71.039 0C74.3452 1.40181 77.6515 2.80362 80.8352 4.67271Z" fill="#4D88C9"/>
<path d="M21.6899 74.4129C25.7309 78.8519 31.2413 81.7724 36.7518 84.3424C42.752 87.0292 49.4869 89.2487 55.977 87.4964C62.3446 85.7442 67.3652 78.6183 64.4263 73.011C61.8548 68.1047 54.1402 65.1843 55.2423 59.8106C55.8545 56.8902 59.0383 55.1379 62.0997 54.9043C65.161 54.7875 68.0999 55.8388 70.9163 57.007C66.3856 61.7965 67.9775 70.0906 73.3654 74.0624C78.7534 77.9174 86.5904 77.6837 92.4682 74.5296C97.3664 71.8428 101.407 66.7028 100.305 61.4461C99.0807 55.2547 91.9784 52.1007 85.8557 49.9979C79.2432 47.6616 72.6307 45.2084 66.1407 42.8721C62.5895 41.5871 58.5485 39.4843 58.5485 35.9798C58.5485 34.1107 59.7731 32.5921 60.9976 31.0735C65.7733 25.583 71.896 21.2608 78.8758 18.574C82.0596 17.289 85.8557 15.8872 86.468 12.7331C87.2027 9.46225 84.0189 6.65862 80.9576 4.90635C77.7738 3.15409 74.4675 1.63544 71.0388 0.584084C45.9358 0.233631 23.0369 12.85 10.4242 32.5921L12.7508 34.6949C12.0161 48.4793 11.8936 64.0161 21.6899 74.4129Z" fill="#65B37B"/>
<path d="M130.306 85.7442C122.714 88.8983 115 92.0523 107.408 95.2064C103.734 96.725 99.8155 98.4773 97.7338 101.748C94.6724 106.655 96.7541 112.963 95.4071 118.57C94.0601 124.411 88.3048 129.2 81.9372 129.551C75.5696 130.018 69.202 126.163 66.8754 120.556C65.7733 117.869 65.5284 114.832 64.1814 112.145C60.6303 105.603 50.5891 104.201 43.9766 108.056C38.2212 111.444 34.915 117.519 33.568 123.827C41.5275 128.499 50.7115 131.654 60.6303 132.939C95.4071 137.378 127.612 116.701 137.164 85.5106C135.327 84.1088 132.511 84.9265 130.306 85.7442Z" fill="#65B37B"/>
</svg>
