<svg width="140" height="67" viewBox="0 0 140 67" fill="none" xmlns="http://www.w3.org/2000/svg">
<path d="M80.8218 5.42008C83.8832 7.17235 86.9445 9.97598 86.3322 13.2469C85.72 16.401 81.9239 17.9196 78.7401 19.0878C71.8827 21.7746 65.6376 26.2136 60.8619 31.5873C59.6373 32.9891 58.4128 34.6245 58.4128 36.4935C58.4128 40.1149 62.4538 42.1008 66.0049 43.3858C72.6174 45.7222 79.2299 48.1753 85.72 50.5117C91.8427 52.7312 98.8225 55.8853 100.17 61.9598C101.272 67.2166 97.2306 72.4734 92.3325 75.0434C86.4547 78.1974 78.6177 78.4311 73.2297 74.5761C67.8417 70.7212 66.2498 62.3102 70.7806 57.5207C67.9642 56.4694 65.0253 55.3012 61.9639 55.418C58.9026 55.5348 55.7188 57.4039 55.1065 60.3244C54.0045 65.698 61.719 68.6184 64.2906 73.5248C67.3519 79.132 62.2089 86.3747 55.8413 88.0102C49.4737 89.7624 42.6163 87.5429 36.616 84.8561C31.1056 82.4029 25.5952 79.3656 21.5542 74.9266C11.7579 64.413 11.8804 48.8763 12.4926 34.8581L10.166 32.7554C5.26787 40.3486 1.96162 49.1099 0.614632 58.4553C-3.18143 85.557 10.5334 111.023 33.5547 124.34C35.0241 118.032 38.3304 111.958 43.9633 108.57C50.5758 104.715 60.617 106.117 64.1681 112.659C65.5151 115.229 65.76 118.266 66.8621 121.07C69.1887 126.677 75.5563 130.532 81.9239 130.065C88.2915 129.597 93.9244 124.925 95.3938 119.084C96.7408 113.476 94.6591 107.168 97.7204 102.262C99.8022 98.991 103.721 97.2387 107.394 95.7201C114.986 92.566 122.701 89.412 130.293 86.2579C132.497 85.3234 135.314 84.5056 137.151 86.0243C138.13 82.8702 138.865 79.5993 139.355 76.3284C144.498 39.8813 117.68 6.2378 79.4748 1.33146C76.6584 0.981011 73.842 0.747375 71.0255 0.747375C74.3318 2.14919 77.638 3.551 80.8218 5.42008Z" fill="#4D88C9"/>
<path d="M21.6765 75.1602C25.7175 79.5993 31.2279 82.5197 36.7383 85.0897C42.7386 87.7765 49.4735 89.9961 55.9636 88.2438C62.3312 86.4916 67.3518 79.3656 64.4129 73.7584C61.8413 68.8521 54.1268 65.9316 55.2288 60.558C55.8411 57.6376 59.0249 55.8853 62.0862 55.6517C65.1476 55.5348 68.0865 56.5862 70.9029 57.7544C66.3721 62.5439 67.964 70.838 73.352 74.8098C78.74 78.6648 86.577 78.4311 92.4548 75.277C97.3529 72.5902 101.394 67.4502 100.292 62.1934C99.0673 56.0021 91.965 52.848 85.8423 50.7453C79.2298 48.409 72.6173 45.9558 66.1272 43.6195C62.5761 42.3345 58.5351 40.2317 58.5351 36.7272C58.5351 34.8581 59.7596 33.3395 60.9842 31.8208C65.7599 26.3304 71.8826 22.0082 78.8624 19.3214C82.0462 18.0364 85.8423 16.6346 86.4545 13.4805C87.1893 10.2096 84.0055 7.40599 80.9441 5.65373C77.7603 3.90146 74.4541 2.38282 71.0254 1.33146C45.9224 0.981006 23.0235 13.5973 10.4108 33.3395L12.7374 35.4422C12.0027 49.2267 11.8802 64.7635 21.6765 75.1602Z" fill="#65B37B"/>
</svg>
