<svg width="301" height="329" viewBox="0 0 301 329" fill="none" xmlns="http://www.w3.org/2000/svg">
<path d="M176.302 97.3282L107.749 94.4459C96.0766 93.9552 86.2168 103.019 85.7261 114.691L81.4913 215.412C81.0005 227.084 90.0647 236.944 101.737 237.435L170.29 240.317C181.962 240.808 191.822 231.744 192.313 220.072L196.547 119.351C197.038 107.679 187.974 97.819 176.302 97.3282Z" fill="#697477"/>
<path opacity="0.21" d="M94.829 105.722C110.67 109.127 126.735 111.391 142.9 112.496C168.933 114.203 197.929 106.045 197.929 106.045C197.929 106.045 245.776 32.5412 149.649 27.5297C53.5234 22.5181 94.829 105.722 94.829 105.722Z" fill="#AEC4CE"/>
<path d="M196.979 106.032C196.979 106.032 168.67 113.81 143.281 113.344C117.892 112.878 98.6771 106.35 98.6771 106.35C98.6771 106.35 86.2711 182.646 87.3972 207.87C88.5232 233.095 92.3672 260.915 92.3672 260.915C92.3672 260.915 79.6853 266.547 80.9363 275.577C82.1873 284.607 106.386 277.541 113.105 277.147C127.398 276.327 127.978 268.337 127.562 262.031C127.145 255.725 133.072 239.678 133.072 239.678C133.072 239.678 149.727 240.592 157.025 241.062C157.025 241.062 164.758 254.809 166.955 269.433C168.049 276.611 202.736 285.225 208.202 281.255C213.669 277.284 213.309 269.625 204.369 265.452C204.369 265.452 203.685 258.884 204.248 244.258C204.492 237.764 197.751 221.175 198.473 211.122C200.695 180.41 206.351 152.447 205.141 143.128C205.141 143.128 236.786 142.442 246.221 129.408C255.736 116.272 263.629 90.8368 247.994 82.6414C232.359 74.446 220.582 100.468 216.984 103.257C212.423 106.726 196.979 106.032 196.979 106.032Z" fill="#C9D5D9"/>
<path d="M246.148 129.399C255.711 116.298 263.556 90.828 247.921 82.6326C236.194 76.4854 226.665 89.583 221.088 97.6788C219.231 100.381 219.577 112.165 223.326 117.584C228.904 125.647 242.923 133.828 246.148 129.399Z" fill="#808E93"/>
<path d="M127.456 263.88C127.32 273.807 123.944 276.9 104.38 278.594C97.6861 279.179 80.555 283.745 80.7856 274.485C81.0147 265.392 92.209 261.033 92.209 261.033C92.209 261.033 104.076 263.075 107.773 263.317C113.764 263.688 127.476 262.754 127.456 263.88Z" fill="#808E93"/>
<path d="M208.13 281.246C202.674 285.222 167.976 276.603 166.882 269.424C166.196 264.826 172.276 263.449 176.516 263.114C191.018 261.963 204.291 265.44 204.291 265.44C213.238 269.611 213.58 277.268 208.13 281.246Z" fill="#808E93"/>
<path d="M212.893 122.843C210.734 113.184 214.607 104.404 214.607 104.404C215.646 103.994 216.61 103.416 217.463 102.694C217.463 102.694 213.884 113.834 216.965 121.587C222.721 136.041 232.999 138.159 232.999 138.159L225.637 140.591C221.46 142.176 215.053 132.502 212.893 122.843Z" fill="#808E93"/>
<path d="M87.2289 210.287C87.2289 210.287 110.01 212.791 121.527 226.462L133.03 240.12C133.03 240.12 122.133 215.84 111.039 210.307C99.9445 204.774 86.7831 201.901 86.7831 201.901L87.2289 210.287Z" fill="#B27C3B"/>
<path d="M156.951 241.489C156.951 241.489 173.057 235.809 183.238 225.632C193.42 215.455 198.661 211.05 198.661 211.05C198.661 211.05 200.245 213.507 198.593 215.927C196.94 218.347 189.375 227.092 178.589 233.897C171.888 238.065 164.577 241.16 156.921 243.072L156.951 241.489Z" fill="#B27C3B"/>
<path d="M103.342 109.103C103.342 109.103 95.1595 129.55 91.3944 157.151C87.6294 184.751 103.95 181.952 105.352 162.531C106.583 145.41 111.347 140.984 111.149 125.593C110.967 112.475 103.342 109.103 103.342 109.103Z" fill="url(#paint0_linear_151_94)"/>
<path d="M99.2276 108.17C99.2276 108.17 55.1958 128.398 46.0525 154.441C36.9093 180.484 60.1801 199.16 60.1801 199.16C60.1801 199.16 74.5098 211.075 81.1104 194.756C87.711 178.437 82.0926 166.121 90.6389 151.236C99.1851 136.352 111.092 131.72 106.394 119.48C101.696 107.24 99.2276 108.17 99.2276 108.17Z" fill="#C9D5D9"/>
<path d="M44.0584 163.86C39.8876 182.164 60.1853 199.162 60.1853 199.162C60.1853 199.162 74.5149 211.078 81.1155 194.759C84.1522 187.245 84.6179 180.58 85.0332 174.103C85.5182 166.53 48.2077 145.522 44.0584 163.86Z" fill="#808E93"/>
<path d="M75.7029 144.045C80.9241 147.609 84.9937 152.617 87.4142 158.456L86.5267 161.687C86.5267 161.687 81.4036 151.28 73.5037 147.567C58.7682 140.644 50.6526 145.44 50.6526 145.44C50.6526 145.44 51.1312 143.697 53.9173 140.318C56.7034 136.94 67.132 138.333 75.7029 144.045Z" fill="#808E93"/>
<path d="M93.777 107.348C97.7083 105.821 104.302 107.1 108.11 114.036C112.764 122.52 110.81 130.322 107.656 135.413C104.503 140.504 97.1928 141.889 97.1928 141.889C97.1928 141.889 109.233 132.367 106.591 124.296C103.277 114.135 97.8421 111.775 93.5442 110.985C89.2463 110.196 92.7247 107.755 93.777 107.348Z" fill="#B27C3B"/>
<path d="M205.197 145.111C205.197 145.111 206.28 120.913 203.624 110.634C200.968 100.355 201.364 108.088 201.364 108.088L205.197 145.111Z" fill="#B27C3B"/>
<path d="M88.9794 232.836C88.9794 232.836 91.8474 230.844 102.996 232.79C118.57 235.515 130.156 250.258 130.156 250.258C130.156 250.258 113.216 240.387 104.245 238.842C95.2739 237.298 89.6177 240.043 89.6177 240.043L88.9794 232.836Z" fill="#808E93"/>
<path d="M161.469 250.666C161.469 250.666 182.288 243.72 192.429 240.935C202.57 238.15 204.167 244.239 204.167 244.239L203.44 247.931C203.44 247.931 200.467 243.854 194.032 244.761C187.596 245.668 161.469 250.666 161.469 250.666Z" fill="#808E93"/>
<path d="M184.916 133.01C184.916 133.01 194.066 131.983 193.844 147.445C193.623 162.908 194.119 183.201 191.136 186.628C188.154 190.055 133.274 195.485 126.383 191.389C124.344 190.16 122.568 188.539 121.156 186.622C119.745 184.704 118.726 182.526 118.159 180.213C118.159 180.213 143.494 182.271 166.43 179.907C189.365 177.544 184.916 133.01 184.916 133.01Z" fill="url(#paint1_radial_151_94)"/>
<path d="M190.486 182.322C190.486 182.322 148.973 190.042 129.115 186.919C123.978 186.112 120.298 184.588 119.16 182.015C113.61 169.487 127.261 130.665 127.261 130.665C127.261 130.665 166.245 133.888 181.072 132.076C184.089 131.708 186.264 133.565 187.836 136.766C193.928 149.262 190.486 182.322 190.486 182.322Z" fill="#DDE5E8"/>
<path d="M190.486 182.322C190.486 182.322 141.487 191.594 124.183 185.734C123.884 179.708 123.661 168.764 125.209 157.806C127.45 141.791 130.071 134.748 130.071 134.748L187.822 136.741C193.928 149.262 190.486 182.322 190.486 182.322Z" fill="#C9D5D9"/>
<path d="M137.834 152.892L139.695 152.919L139.622 158.223C139.621 158.687 139.495 159.141 139.256 159.539C139.026 159.921 138.689 160.228 138.287 160.421C137.86 160.63 137.389 160.733 136.913 160.721C136.202 160.755 135.505 160.519 134.961 160.06C134.724 159.823 134.541 159.538 134.425 159.224C134.309 158.909 134.263 158.574 134.289 158.24L136.155 158.27C136.127 158.54 136.188 158.811 136.327 159.044C136.403 159.129 136.497 159.196 136.603 159.238C136.709 159.28 136.823 159.297 136.937 159.288C137.052 159.296 137.168 159.274 137.273 159.225C137.378 159.176 137.469 159.101 137.538 159.008C137.695 158.769 137.772 158.487 137.759 158.201L137.837 152.899L137.834 152.892ZM144.125 158.661C144.133 158.539 144.112 158.417 144.063 158.305C144.015 158.193 143.941 158.093 143.847 158.015C143.536 157.805 143.195 157.643 142.835 157.537C142.429 157.399 142.033 157.235 141.649 157.046C140.657 156.538 140.165 155.856 140.175 154.994C140.179 154.595 140.312 154.208 140.556 153.891C140.837 153.539 141.21 153.271 141.634 153.118C142.128 152.939 142.651 152.856 143.175 152.872C143.69 152.87 144.199 152.978 144.669 153.188C145.082 153.375 145.434 153.675 145.684 154.053C145.926 154.428 146.047 154.868 146.03 155.314L144.169 155.287C144.179 155.15 144.158 155.012 144.107 154.884C144.057 154.755 143.979 154.64 143.878 154.546C143.66 154.362 143.382 154.264 143.097 154.272C142.817 154.254 142.539 154.327 142.305 154.481C142.213 154.541 142.137 154.624 142.086 154.721C142.034 154.818 142.008 154.926 142.01 155.036C142.012 155.146 142.042 155.254 142.096 155.349C142.151 155.444 142.229 155.524 142.323 155.581C142.662 155.813 143.035 155.989 143.429 156.105C143.885 156.253 144.324 156.446 144.742 156.681C145.113 156.867 145.425 157.155 145.642 157.51C145.858 157.866 145.97 158.275 145.965 158.691C145.972 158.999 145.904 159.304 145.767 159.58C145.629 159.856 145.427 160.095 145.177 160.275C144.554 160.683 143.814 160.874 143.072 160.819C142.487 160.82 141.909 160.697 141.375 160.458C140.912 160.265 140.517 159.937 140.242 159.518C139.987 159.113 139.859 158.641 139.875 158.163L141.744 158.188C141.729 158.355 141.75 158.523 141.804 158.681C141.858 158.84 141.945 158.985 142.059 159.107C142.354 159.335 142.722 159.446 143.094 159.417C143.352 159.432 143.608 159.364 143.826 159.225C143.911 159.16 143.979 159.075 144.025 158.979C144.071 158.882 144.093 158.776 144.089 158.669L144.125 158.661Z" fill="#0070DF"/>
<path d="M153.017 160.835L151.167 160.812L151.208 157.579L148.458 157.56L148.411 160.791L146.547 160.769L146.653 153.036L148.521 153.06L148.479 156.133L151.229 156.151L151.272 153.079L153.122 153.101L153.017 160.835ZM156.46 160.989C156.068 161.001 155.677 160.935 155.311 160.794C154.944 160.654 154.609 160.442 154.326 160.171C154.056 159.901 153.847 159.578 153.711 159.222C153.576 158.866 153.517 158.485 153.539 158.104L153.538 157.957C153.536 157.419 153.656 156.887 153.889 156.403C154.102 155.972 154.438 155.616 154.855 155.378C155.311 155.129 155.825 155.006 156.345 155.024C156.699 155.012 157.051 155.075 157.379 155.21C157.707 155.344 158.003 155.546 158.247 155.803C158.737 156.389 158.979 157.143 158.921 157.905L158.912 158.601L155.354 158.553C155.397 158.848 155.542 159.118 155.763 159.317C155.995 159.514 156.293 159.616 156.596 159.603C156.849 159.619 157.101 159.576 157.334 159.476C157.566 159.376 157.771 159.223 157.933 159.029L158.751 160.013C158.493 160.332 158.156 160.578 157.773 160.724C157.357 160.905 156.908 160.994 156.455 160.986L156.46 160.989ZM156.31 156.426C155.788 156.416 155.471 156.76 155.362 157.453L157.165 157.479L157.168 157.338C157.182 157.218 157.171 157.097 157.135 156.981C157.099 156.866 157.039 156.759 156.959 156.668C156.874 156.584 156.772 156.519 156.66 156.477C156.549 156.435 156.429 156.418 156.31 156.426V156.426ZM162.907 156.859L162.322 156.807C161.753 156.801 161.391 156.97 161.225 157.321L161.177 160.962L159.391 160.925L159.469 155.187L161.146 155.211L161.195 155.946C161.304 155.7 161.481 155.492 161.707 155.345C161.932 155.199 162.196 155.121 162.464 155.123C162.633 155.12 162.802 155.143 162.964 155.192L162.907 156.859ZM162.979 158.061C162.978 157.53 163.101 157.006 163.338 156.531C163.555 156.101 163.895 155.746 164.315 155.511C164.768 155.268 165.278 155.151 165.791 155.17C166.168 155.155 166.543 155.222 166.892 155.365C167.24 155.508 167.554 155.724 167.812 155.998C168.323 156.607 168.578 157.39 168.524 158.183L168.499 158.235C168.528 159.017 168.25 159.779 167.725 160.359C167.459 160.622 167.14 160.825 166.79 160.956C166.439 161.087 166.065 161.141 165.692 161.116C165.331 161.128 164.972 161.067 164.635 160.937C164.299 160.806 163.992 160.609 163.735 160.357C163.228 159.811 162.95 159.092 162.959 158.347L162.979 158.061ZM164.765 158.194C164.73 158.598 164.812 159.004 165 159.364C165.083 159.483 165.195 159.577 165.325 159.639C165.456 159.701 165.6 159.728 165.744 159.717C166.383 159.723 166.715 159.239 166.74 158.263L166.742 158.084C166.756 157.051 166.436 156.534 165.779 156.525C165.123 156.515 164.852 156.952 164.785 157.838L164.765 158.194ZM171.837 161.214C171.445 161.226 171.054 161.16 170.688 161.02C170.321 160.879 169.986 160.667 169.703 160.396C169.433 160.127 169.224 159.803 169.088 159.447C168.953 159.091 168.894 158.71 168.916 158.33L168.915 158.182C168.913 157.644 169.033 157.113 169.266 156.628C169.479 156.198 169.815 155.841 170.232 155.603C170.687 155.352 171.202 155.229 171.721 155.249C172.076 155.236 172.429 155.299 172.757 155.433C173.085 155.567 173.381 155.77 173.624 156.028C174.114 156.615 174.355 157.369 174.298 158.131L174.289 158.826L170.731 158.779C170.774 159.073 170.919 159.344 171.14 159.543C171.372 159.739 171.67 159.841 171.973 159.828C172.226 159.84 172.478 159.792 172.709 159.688C172.939 159.584 173.143 159.428 173.302 159.232L174.12 160.215C173.862 160.535 173.525 160.78 173.141 160.927C172.726 161.107 172.277 161.197 171.824 161.189L171.837 161.214ZM171.687 156.651C171.165 156.642 170.848 156.986 170.739 157.678L172.542 157.704L172.545 157.564C172.559 157.444 172.548 157.322 172.512 157.207C172.476 157.091 172.416 156.985 172.336 156.894C172.251 156.81 172.149 156.745 172.037 156.703C171.926 156.661 171.806 156.643 171.687 156.651V156.651ZM177.785 159.589C177.783 159.512 177.76 159.437 177.718 159.372C177.677 159.307 177.618 159.254 177.549 159.22C177.263 159.079 176.958 158.979 176.645 158.921C176.263 158.838 175.896 158.701 175.554 158.514C175.29 158.373 175.064 158.169 174.898 157.921C174.75 157.681 174.673 157.405 174.678 157.124C174.68 156.869 174.743 156.619 174.861 156.394C174.979 156.169 175.148 155.974 175.356 155.827C175.856 155.482 176.457 155.315 177.063 155.352C177.713 155.332 178.352 155.524 178.883 155.899C179.098 156.053 179.272 156.257 179.389 156.494C179.506 156.731 179.564 156.993 179.556 157.257L177.757 157.234C177.77 157.137 177.76 157.038 177.728 156.946C177.696 156.854 177.643 156.77 177.573 156.702C177.503 156.634 177.418 156.583 177.325 156.554C177.232 156.525 177.133 156.518 177.037 156.533C176.867 156.529 176.7 156.581 176.562 156.681C176.503 156.727 176.455 156.787 176.422 156.855C176.39 156.924 176.374 156.998 176.376 157.074C176.377 157.154 176.398 157.233 176.438 157.303C176.479 157.373 176.536 157.431 176.606 157.471C176.836 157.597 177.086 157.683 177.345 157.725C177.651 157.78 177.953 157.86 178.245 157.965C178.611 158.049 178.936 158.255 179.168 158.549C179.4 158.843 179.525 159.208 179.521 159.582C179.518 159.837 179.451 160.086 179.326 160.307C179.201 160.528 179.022 160.715 178.806 160.848C178.263 161.192 177.626 161.358 176.984 161.321C176.533 161.321 176.086 161.224 175.676 161.035C175.317 160.875 175.007 160.622 174.778 160.302C174.574 160.02 174.465 159.681 174.466 159.334L176.143 159.357C176.132 159.468 176.151 159.58 176.195 159.682C176.24 159.784 176.311 159.873 176.399 159.94C176.59 160.074 176.817 160.143 177.05 160.139C177.247 160.156 177.444 160.104 177.607 159.992C177.665 159.947 177.712 159.889 177.743 159.822C177.775 159.756 177.79 159.683 177.788 159.609L177.785 159.589Z" fill="#0E204D"/>
<path d="M115.975 61.2195C109.69 58.7712 108.362 48.4273 114.026 44.7557C117.227 42.6837 120.646 44.3274 123.4 46.4524C127.873 49.9102 129.321 54.0352 130.37 59.7229C125.015 60.3133 122.067 60.6442 115.975 61.2195Z" fill="#77553E"/>
<path d="M117.284 57.6811C114.259 56.5063 112.924 50.0672 115.647 48.3012C116.359 47.8194 117.203 47.5686 118.063 47.583C118.923 47.5973 119.757 47.8762 120.453 48.3816C121.923 49.612 123.182 51.0747 124.179 52.7117C121.595 52.9776 120.218 57.4076 117.284 57.6811Z" fill="#A68069"/>
<path d="M165.929 54.0617C165.843 47.3154 174.938 42.2128 180.463 46.0915C183.584 48.2813 183.379 50.9113 182.447 54.2497C180.92 59.6869 177.588 63.744 172.71 66.8511C170.15 62.1041 168.75 59.4776 165.929 54.0617Z" fill="#77553E"/>
<path d="M169.554 51.9079C169.554 51.9079 174.068 45.6512 177.912 47.9005C179.499 48.8314 179.666 50.1613 179.215 51.7641C178.475 54.3849 177.143 56.0196 174.9 58.4679C173.686 56.1929 171.541 53.9457 169.554 51.9079Z" fill="#A68069"/>
<path d="M149.332 46.8159C139.605 46.7043 126.362 45.9163 115.549 59.9783C108.834 68.7421 105.175 97.4197 102.143 107.175C100.649 111.987 161.34 119.792 191.1 108.082C191.1 108.082 182.405 68.738 179.031 62.9319C174.294 54.7865 168.975 47.0843 149.332 46.8159Z" fill="#77553E"/>
<path d="M132.938 69.0361C132.952 70.0631 131.505 68.9996 130.468 69.0349C129.431 69.0703 128.114 70.1028 128.1 69.0757C128.085 68.0486 129.44 67.0983 130.465 67.0892C131.489 67.08 132.923 68.009 132.938 69.0361Z" fill="#423B36"/>
<path d="M160.696 69.4172C160.705 70.4418 159.263 69.3807 158.226 69.416C157.189 69.4514 155.873 70.4839 155.858 69.4568C155.844 68.4297 157.198 67.4794 158.223 67.4703C159.248 67.4611 160.682 68.3901 160.696 69.4172Z" fill="#423B36"/>
<path opacity="0.18" d="M135.186 38.9724C135.186 38.9724 120.151 39.5566 112.316 52.532C104.481 65.5075 105.543 75.7637 105.543 75.7637L117.237 79.0395C117.237 79.0395 116.593 64.1302 119.87 55.8506C124.101 44.904 135.186 38.9724 135.186 38.9724Z" fill="white"/>
<path opacity="0.18" d="M105.635 79.4198L117.04 83.1559L117.007 89.1783L106.267 86.572L105.635 79.4198Z" fill="white"/>
<path d="M95.0482 102.778C94.6708 102.731 94.2877 102.768 93.9258 102.884C93.5639 103.001 93.2319 103.196 92.953 103.454C92.6742 103.713 92.4552 104.029 92.3114 104.381C92.1676 104.734 92.1025 105.113 92.1207 105.493L92.0097 108.52C92.0097 108.52 128.067 116.217 146.248 116.255C164.428 116.293 191.743 114.045 198.646 109.478C205.55 104.91 199.391 102.278 199.391 102.278C199.391 102.278 186.818 110.444 148.499 109.98C127.945 109.724 95.0482 102.778 95.0482 102.778Z" fill="#B27C3B"/>
<path d="M141.922 93.0585C141.922 93.0585 147.2 95.0175 155.512 95.3516C163.824 95.6858 167.037 88.2741 168.016 88.1855C168.994 88.0969 172.585 84.618 171.839 80.1068C171.093 75.5956 149.078 69.899 149.078 69.899L141.922 93.0585Z" fill="url(#paint2_linear_151_94)"/>
<path d="M142.65 69.5838C147.739 68.9187 153.615 70.1149 156.327 77.2248C157.252 79.5327 157.258 82.1071 156.344 84.4192C155.43 86.7314 153.665 88.6057 151.412 89.6572C148.793 90.9202 148.036 93.8345 143.821 93.3989C138.745 92.8573 137.866 90.3623 135.878 88.7993C132.608 86.2184 132.132 82.4252 132.317 80.0551C133.08 72.0296 139.786 69.9674 142.65 69.5838Z" fill="#A68069"/>
<path d="M138.804 79.2428C139.817 78.0093 141.539 77.8294 143.077 77.8066C144.725 77.6982 146.379 77.6859 148.029 77.7697C150.148 77.9963 150.911 79.1914 150.718 81.3075C150.552 83.013 149.952 85.1482 148.205 85.5596C145.61 86.0374 142.941 85.9418 140.387 85.2796C137.911 84.5055 136.741 81.7573 138.804 79.2428Z" fill="#423B36"/>
<path d="M138.799 88.417C138.799 88.417 140.309 92.0062 143.469 92.3401C146.628 92.674 150.633 88.1718 150.633 88.1718C150.633 88.1718 146.796 89.5 143.598 89.2188C141.984 89.0501 140.381 88.7823 138.799 88.417V88.417Z" fill="url(#paint3_linear_151_94)"/>
<defs>
<linearGradient id="paint0_linear_151_94" x1="79.2827" y1="133.069" x2="107.833" y2="147.412" gradientUnits="userSpaceOnUse">
<stop stop-color="#31577D"/>
<stop offset="0.26" stop-color="#294967" stop-opacity="0.72"/>
<stop offset="0.76" stop-color="#1A2E3E" stop-opacity="0.2"/>
<stop offset="1" stop-color="#14242E" stop-opacity="0"/>
</linearGradient>
<radialGradient id="paint1_radial_151_94" cx="0" cy="0" r="1" gradientUnits="userSpaceOnUse" gradientTransform="translate(156.044 162.837) rotate(0.787561) scale(43.7958 43.7958)">
<stop stop-color="#31577D"/>
<stop offset="0.26" stop-color="#294967" stop-opacity="0.72"/>
<stop offset="0.76" stop-color="#1A2E3E" stop-opacity="0.2"/>
<stop offset="1" stop-color="#14242E" stop-opacity="0"/>
</radialGradient>
<linearGradient id="paint2_linear_151_94" x1="123.922" y1="76.6538" x2="161.011" y2="88.8016" gradientUnits="userSpaceOnUse">
<stop stop-color="#2A1C00"/>
<stop offset="0.37" stop-color="#211F12" stop-opacity="0.6"/>
<stop offset="1" stop-color="#14242E" stop-opacity="0"/>
</linearGradient>
<linearGradient id="paint3_linear_151_94" x1="148.141" y1="89.776" x2="144.578" y2="84.4959" gradientUnits="userSpaceOnUse">
<stop stop-color="#844949"/>
<stop offset="1"/>
</linearGradient>
</defs>
</svg>
