<svg width="69" height="56" viewBox="0 0 69 56" fill="none" xmlns="http://www.w3.org/2000/svg">
<path d="M64.1852 27.9021C64.1852 43.1895 51.1995 55.5775 35.1745 55.5775C19.1496 55.5775 6.16382 43.1895 6.16382 27.9021C6.16382 12.6147 19.1496 0.226624 35.1745 0.226624C51.1995 0.226624 64.1852 12.6147 64.1852 27.9021Z" fill="#CD6E95"/>
<path d="M7.13084 36.2047C-0.605348 34.6232 -1.98682 43.9802 2.8483 48.0656C10.9989 54.9186 28.6817 48.1974 37.2467 45.1663C48.4366 41.2126 59.2119 34.6232 65.4285 24.6074C69.0203 18.6769 70.2637 7.07959 60.0408 7.34316C59.3501 7.34316 59.3501 8.52925 60.0408 8.39746C67.0863 12.8782 68.744 17.7544 65.1522 23.0259C64.4615 24.3438 63.4945 25.6617 62.5275 26.8478C60.8697 28.9564 59.0738 30.9332 57.0016 32.7782C52.7191 36.6001 47.7458 39.6312 42.3581 41.8716C37.3849 44.112 31.9972 45.6934 26.6095 47.0113C24.261 47.5384 21.9125 48.0656 19.564 48.461C17.0774 48.9881 14.5907 49.2517 12.1041 49.5153C3.26275 50.1742 1.46685 45.8252 6.85455 36.7318C7.40714 36.8636 7.54528 36.3365 7.13084 36.2047Z" fill="white"/>
</svg>
