<svg width="307" height="286" viewBox="0 0 307 286" fill="none" xmlns="http://www.w3.org/2000/svg">
<g clip-path="url(#clip0_360_799)">
<path d="M141.98 166.226C128.242 154.596 109.46 149.129 91.6204 151.549C73.7804 153.991 57.1507 164.299 47.0429 179.179C52.7355 178.842 58.4282 178.484 64.1208 178.148C59.2574 182.854 54.2371 187.761 51.839 194.08C49.4409 200.399 50.4943 208.579 56.0525 212.433C60.5349 215.548 66.5413 215.077 71.8754 213.979C77.2095 212.859 82.678 211.223 88.0121 212.366C93.3461 213.508 98.2768 218.774 96.7527 223.996C94.2202 232.645 78.3973 231.861 76.9629 240.757C76.1337 245.889 81.2212 250.079 86.1518 251.737C103.768 257.72 123.58 246.158 132.769 229.979C141.958 213.8 142.922 194.349 142.675 175.75" fill="url(#paint0_linear_360_799)"/>
<path fill-rule="evenodd" clip-rule="evenodd" d="M151.595 223.996C151.595 223.996 138.103 221.351 102.804 181.419L102.468 181.038C67.1913 141.039 66.25 127.303 66.25 127.303C210.763 -18.5766 306.955 0.896377 306.955 0.896377C306.955 0.896377 314.329 98.7768 151.595 223.996Z" fill="#D8D8D8"/>
<path fill-rule="evenodd" clip-rule="evenodd" d="M137.005 65.3433C137.005 65.3433 117.013 79.5728 99.3077 95.931C81.6022 112.289 66.362 127.415 66.362 127.415L0 156.949C0 156.949 58.6075 88.4017 96.9096 66.2173C110.559 58.3295 137.005 65.3433 137.005 65.3433Z" fill="#0075BA"/>
<path fill-rule="evenodd" clip-rule="evenodd" d="M272.777 84.6819C256.438 110.877 236.738 135.236 218.697 153.319C175.128 196.993 144.446 220.433 144.446 220.433C144.446 220.433 139.291 217.609 128.667 207.996C117.529 197.935 109.528 188.859 109.528 188.859C109.528 188.859 239.383 73.0519 249.558 62.3406" fill="#B3B3B3"/>
<path fill-rule="evenodd" clip-rule="evenodd" d="M257.694 53.8253C281.966 28.2124 306.955 0.896362 306.955 0.896362C306.955 0.896362 299.559 33.8145 278.066 74.9117" fill="#B3B3B3"/>
<path fill-rule="evenodd" clip-rule="evenodd" d="M216.814 18.3302C216.814 18.3302 224.86 34.4644 244.134 56.3575C263.588 78.4523 278.066 88.8723 278.066 88.8723C278.066 88.8723 289.563 70.811 298.887 44.1C308.053 17.8372 306.955 0.896397 306.955 0.896397C306.955 0.896397 288.667 -2.62174 259.8 4.23527C230.799 11.1371 216.814 18.3302 216.814 18.3302Z" fill="#0075BA"/>
<path opacity="0.47" fill-rule="evenodd" clip-rule="evenodd" d="M306.955 0.896362C306.955 0.896362 281.54 2.24087 253.592 12.7505C236.514 19.1817 224.501 25.6578 224.501 25.6578C224.501 25.6578 226.429 29.288 230.418 34.5316C230.418 34.5316 242.767 26.2852 260.338 18.0165C284.947 6.45368 306.955 0.896362 306.955 0.896362Z" fill="white"/>
<path opacity="0.47" fill-rule="evenodd" clip-rule="evenodd" d="M219.145 28.0555C219.145 28.0555 220.736 30.5653 222.103 32.5597C224.053 35.4279 225.42 37.3103 225.42 37.3103C225.42 37.3103 186.782 62.968 156.951 87.0572C131.648 107.471 82.1625 156.098 82.1625 156.098C82.1625 156.098 79.7196 152.826 76.7164 148.322C73.5787 143.616 72.234 141.129 72.234 141.129C72.234 141.129 117.372 97.2979 151.909 70.7438C183.42 46.4978 219.145 28.0555 219.145 28.0555Z" fill="white"/>
<path fill-rule="evenodd" clip-rule="evenodd" d="M272.777 84.6819C300.456 39.4167 306.955 0.918823 306.955 0.918823C306.955 0.918823 281.786 32.5821 249.558 62.363C249.558 62.363 255.52 68.8391 261.795 74.8221C267.555 80.2898 272.777 84.6819 272.777 84.6819Z" fill="url(#paint1_linear_360_799)"/>
<path fill-rule="evenodd" clip-rule="evenodd" d="M131.716 69.22C131.716 69.22 113.808 66.3293 101.706 71.685C78.7783 81.836 17.3021 146.148 17.3021 146.148L66.362 127.437C66.362 127.437 95.3408 98.9786 107.578 88.6482C119.411 78.6316 131.716 69.22 131.716 69.22Z" fill="url(#paint2_linear_360_799)"/>
<path fill-rule="evenodd" clip-rule="evenodd" d="M221.834 161.453C221.834 161.453 205.249 179.515 186.782 195.044C168.314 210.573 151.438 223.816 151.438 223.816L113.898 285.978C113.898 285.978 189.202 236.365 215.985 201.094C225.532 188.568 221.834 161.453 221.834 161.453Z" fill="#0075BA"/>
<path fill-rule="evenodd" clip-rule="evenodd" d="M217.329 166.226C217.329 166.226 217.979 184.355 211.166 195.694C198.234 217.183 126.762 270.18 126.762 270.18L151.438 223.839C151.438 223.839 183.286 198.629 195.074 187.761C206.46 177.251 217.329 166.226 217.329 166.226Z" fill="url(#paint3_linear_360_799)"/>
<path d="M203.075 111.236C213.386 111.236 221.745 102.879 221.745 92.5696C221.745 82.2605 213.386 73.9033 203.075 73.9033C192.765 73.9033 184.406 82.2605 184.406 92.5696C184.406 102.879 192.765 111.236 203.075 111.236Z" fill="#00263E"/>
<path fill-rule="evenodd" clip-rule="evenodd" d="M221.498 76.3235C212.511 66.15 197.002 65.1865 186.827 74.1499C176.652 83.1357 175.688 98.6424 184.653 108.816C193.618 118.989 209.149 119.953 219.324 110.967C229.499 102.004 230.485 86.4746 221.498 76.3235ZM189.09 104.917C182.277 97.1859 183.017 85.399 190.726 78.5644C198.459 71.7522 210.247 72.4693 217.061 80.2002C223.874 87.9311 223.157 99.718 215.424 106.53C207.692 113.387 195.904 112.648 189.09 104.917Z" fill="#585857"/>
<path opacity="0.47" fill-rule="evenodd" clip-rule="evenodd" d="M214.147 72.1555C214.169 71.8866 214.035 71.6177 213.788 71.5056C212.421 70.8782 207.984 68.9959 203.725 69.0407C199.714 69.0855 196.016 70.1387 194.604 70.5869C194.267 70.6989 194.088 71.0351 194.178 71.3712L194.267 71.6401C194.357 71.9762 194.738 72.1779 195.074 72.0659C201.596 70.1387 204.106 70.2508 207.446 70.8782C210.449 71.4384 212.264 72.1779 213.206 72.6485C213.609 72.8726 214.102 72.6261 214.147 72.1555Z" fill="white"/>
<path opacity="0.28" fill-rule="evenodd" clip-rule="evenodd" d="M211.211 110.945C210.359 111.37 208.925 112.043 207.647 112.334C207.266 112.424 207.042 112.782 207.132 113.141C207.222 113.499 207.558 113.723 207.916 113.678C208.858 113.522 210.628 113.118 211.928 112.379C212.22 112.222 212.354 111.886 212.264 111.572L212.197 111.348C212.063 110.945 211.592 110.743 211.211 110.945Z" fill="white"/>
<path opacity="0.61" fill-rule="evenodd" clip-rule="evenodd" d="M137.005 65.3433C137.005 65.3433 128.354 90.3736 130.348 120.894C133.15 164.008 144.468 220.41 144.468 220.41C144.468 220.41 128.13 213.508 84.4485 159.101C63.1571 132.569 66.3844 127.392 66.3844 127.392C66.3844 127.392 96.6855 97.7236 111.321 85.3765C124.252 74.4635 137.005 65.3433 137.005 65.3433Z" fill="url(#paint4_linear_360_799)"/>
<path d="M203.075 111.236C213.386 111.236 221.745 102.879 221.745 92.5696C221.745 82.2605 213.386 73.9033 203.075 73.9033C192.765 73.9033 184.406 82.2605 184.406 92.5696C184.406 102.879 192.765 111.236 203.075 111.236Z" fill="url(#paint5_radial_360_799)"/>
</g>
<defs>
<linearGradient id="paint0_linear_360_799" x1="113.058" y1="183.591" x2="86.5041" y2="208.32" gradientUnits="userSpaceOnUse">
<stop stop-color="#DC3D7B"/>
<stop offset="1" stop-color="#EFC55C"/>
</linearGradient>
<linearGradient id="paint1_linear_360_799" x1="271.632" y1="26.7649" x2="309.703" y2="62.2151" gradientUnits="userSpaceOnUse">
<stop offset="0.3303" stop-color="#2C285B" stop-opacity="0.6"/>
<stop offset="1" stop-color="#4F80C0" stop-opacity="0"/>
</linearGradient>
<linearGradient id="paint2_linear_360_799" x1="97.5546" y1="112.549" x2="43.0834" y2="102.963" gradientUnits="userSpaceOnUse">
<stop stop-color="#152941"/>
<stop offset="1" stop-color="#4F80C0" stop-opacity="0"/>
</linearGradient>
<linearGradient id="paint3_linear_360_799" x1="171.034" y1="195.359" x2="173.77" y2="250.59" gradientUnits="userSpaceOnUse">
<stop stop-color="#152941"/>
<stop offset="1" stop-color="#4F80C0" stop-opacity="0"/>
</linearGradient>
<linearGradient id="paint4_linear_360_799" x1="44.6118" y1="94.2119" x2="195.72" y2="172.022" gradientUnits="userSpaceOnUse">
<stop stop-color="#162435"/>
<stop offset="0.0671" stop-color="#1F2C3C" stop-opacity="0.9031"/>
<stop offset="0.175" stop-color="#364251" stop-opacity="0.7472"/>
<stop offset="0.3103" stop-color="#5D6672" stop-opacity="0.5519"/>
<stop offset="0.4676" stop-color="#92989F" stop-opacity="0.3247"/>
<stop offset="0.6414" stop-color="#D6D7D9" stop-opacity="0.0735"/>
<stop offset="0.6923" stop-color="#EBEBEB" stop-opacity="0"/>
</linearGradient>
<radialGradient id="paint5_radial_360_799" cx="0" cy="0" r="1" gradientUnits="userSpaceOnUse" gradientTransform="translate(174.203 92.1155) rotate(48.5671) scale(38.5529 38.5537)">
<stop offset="0.1469" stop-color="#0A1126"/>
<stop offset="0.4174" stop-color="#202735" stop-opacity="0.6816"/>
<stop offset="0.9965" stop-color="#4C5454" stop-opacity="0"/>
</radialGradient>
<clipPath id="clip0_360_799">
<rect width="307" height="286" fill="white"/>
</clipPath>
</defs>
</svg>
