<svg xmlns="http://www.w3.org/2000/svg" viewBox="0 0 243 8" shape-rendering="crispEdges"><g transform="translate(0 0.5)"><rect x="0" y="3" width="1" height="1" fill="#F3F1EA"/><rect x="1" y="2" width="1" height="1" fill="#F3F1EA"/><rect x="1" y="4" width="1" height="1" fill="#F3F1EA"/><rect x="2" y="1" width="1" height="1" fill="#F3F1EA"/><rect x="2" y="5" width="1" height="1" fill="#F3F1EA"/><rect x="3" y="0" width="1" height="1" fill="#F3F1EA"/><rect x="3" y="6" width="1" height="1" fill="#F3F1EA"/><rect x="4" y="1" width="1" height="1" fill="#F3F1EA"/><rect x="4" y="5" width="1" height="1" fill="#F3F1EA"/><rect x="5" y="2" width="1" height="1" fill="#F3F1EA"/><rect x="5" y="4" width="1" height="1" fill="#F3F1EA"/><rect x="6" y="3" width="1" height="1" fill="#F3F1EA"/><rect x="2" y="3" width="1" height="1" fill="#65D4BB"/><rect x="3" y="2" width="1" height="1" fill="#65D4BB"/><rect x="3" y="3" width="1" height="1" fill="#65D4BB"/><rect x="3" y="4" width="1" height="1" fill="#65D4BB"/><rect x="4" y="3" width="1" height="1" fill="#65D4BB"/></g><g transform="translate(10 1.5)"><rect x="2" y="0" width="1" height="1" fill="#1AA6FF"/><rect x="1" y="1" width="1" height="1" fill="#1AA6FF"/><rect x="2" y="1" width="1" height="1" fill="#1AA6FF"/><rect x="3" y="1" width="1" height="1" fill="#1AA6FF"/><rect x="0" y="2" width="1" height="1" fill="#1AA6FF"/><rect x="1" y="2" width="1" height="1" fill="#1AA6FF"/><rect x="2" y="2" width="1" height="1" fill="#1AA6FF"/><rect x="3" y="2" width="1" height="1" fill="#1AA6FF"/><rect x="4" y="2" width="1" height="1" fill="#1AA6FF"/><rect x="1" y="3" width="1" height="1" fill="#1AA6FF"/><rect x="2" y="3" width="1" height="1" fill="#1AA6FF"/><rect x="3" y="3" width="1" height="1" fill="#1AA6FF"/><rect x="2" y="4" width="1" height="1" fill="#1AA6FF"/></g><g transform="translate(18 0.0)"><path d="M1 0L2 1L1 2L0 1Z" fill="#FFCC67"/><path d="M1 2L2 3L1 4L0 3Z" fill="#FFCC67"/><path d="M1 4L2 5L1 6L0 5Z" fill="#FFCC67"/><path d="M1 6L2 7L1 8L0 7Z" fill="#FFCC67"/><path d="M3 0L4 1L3 2L2 1Z" fill="#FFCC67"/><path d="M3 6L4 7L3 8L2 7Z" fill="#FFCC67"/><path d="M5 0L6 1L5 2L4 1Z" fill="#FFCC67"/><path d="M5 6L6 7L5 8L4 7Z" fill="#FFCC67"/><path d="M7 0L8 1L7 2L6 1Z" fill="#FFCC67"/><path d="M7 2L8 3L7 4L6 3Z" fill="#FFCC67"/><path d="M7 4L8 5L7 6L6 5Z" fill="#FFCC67"/><path d="M7 6L8 7L7 8L6 7Z" fill="#FFCC67"/><path d="M3 2L4 3L3 4L2 3Z" fill="#FF6078"/><path d="M5 2L6 3L5 4L4 3Z" fill="#FF6078"/><path d="M3 4L4 5L3 6L2 5Z" fill="#FF6078"/><path d="M5 4L6 5L5 6L4 5Z" fill="#FF6078"/><path d="M4 3L5 4L4 5L3 4Z" fill="#FF6078"/></g><g transform="translate(29 1.0)"><path d="M1 0L2 1L1 2L0 1Z" fill="#FF6078"/><path d="M3 0L4 1L3 2L2 1Z" fill="#FF6078"/><path d="M5 0L6 1L5 2L4 1Z" fill="#FF6078"/><path d="M2 1L3 2L2 3L1 2Z" fill="#FF6078"/><path d="M4 1L5 2L4 3L3 2Z" fill="#FF6078"/><path d="M1 2L2 3L1 4L0 3Z" fill="#FF6078"/><path d="M3 2L4 3L3 4L2 3Z" fill="#FF6078"/><path d="M5 2L6 3L5 4L4 3Z" fill="#FF6078"/><path d="M2 3L3 4L2 5L1 4Z" fill="#FF6078"/><path d="M4 3L5 4L4 5L3 4Z" fill="#FF6078"/><path d="M1 4L2 5L1 6L0 5Z" fill="#FF6078"/><path d="M3 4L4 5L3 6L2 5Z" fill="#FF6078"/><path d="M5 4L6 5L5 6L4 5Z" fill="#FF6078"/></g><g transform="translate(38 0.5)"><rect x="0" y="3" width="1" height="1" fill="#FFCC67"/><rect x="1" y="2" width="1" height="1" fill="#FFCC67"/><rect x="1" y="4" width="1" height="1" fill="#FFCC67"/><rect x="2" y="1" width="1" height="1" fill="#FFCC67"/><rect x="2" y="5" width="1" height="1" fill="#FFCC67"/><rect x="3" y="0" width="1" height="1" fill="#FFCC67"/><rect x="3" y="6" width="1" height="1" fill="#FFCC67"/><rect x="4" y="1" width="1" height="1" fill="#FFCC67"/><rect x="4" y="5" width="1" height="1" fill="#FFCC67"/><rect x="5" y="2" width="1" height="1" fill="#FFCC67"/><rect x="5" y="4" width="1" height="1" fill="#FFCC67"/><rect x="6" y="3" width="1" height="1" fill="#FFCC67"/><rect x="2" y="3" width="1" height="1" fill="#FF6078"/><rect x="3" y="2" width="1" height="1" fill="#FF6078"/><rect x="3" y="3" width="1" height="1" fill="#FF6078"/><rect x="3" y="4" width="1" height="1" fill="#FF6078"/><rect x="4" y="3" width="1" height="1" fill="#FF6078"/></g><g transform="translate(48 1.5)"><rect x="2" y="0" width="1" height="1" fill="#65D4BB"/><rect x="1" y="1" width="1" height="1" fill="#65D4BB"/><rect x="2" y="1" width="1" height="1" fill="#65D4BB"/><rect x="3" y="1" width="1" height="1" fill="#65D4BB"/><rect x="0" y="2" width="1" height="1" fill="#65D4BB"/><rect x="1" y="2" width="1" height="1" fill="#65D4BB"/><rect x="2" y="2" width="1" height="1" fill="#65D4BB"/><rect x="3" y="2" width="1" height="1" fill="#65D4BB"/><rect x="4" y="2" width="1" height="1" fill="#65D4BB"/><rect x="1" y="3" width="1" height="1" fill="#65D4BB"/><rect x="2" y="3" width="1" height="1" fill="#65D4BB"/><rect x="3" y="3" width="1" height="1" fill="#65D4BB"/><rect x="2" y="4" width="1" height="1" fill="#65D4BB"/></g><g transform="translate(56 0.0)"><path d="M1 0L2 1L1 2L0 1Z" fill="#F3F1EA"/><path d="M1 2L2 3L1 4L0 3Z" fill="#F3F1EA"/><path d="M1 4L2 5L1 6L0 5Z" fill="#F3F1EA"/><path d="M1 6L2 7L1 8L0 7Z" fill="#F3F1EA"/><path d="M3 0L4 1L3 2L2 1Z" fill="#F3F1EA"/><path d="M3 6L4 7L3 8L2 7Z" fill="#F3F1EA"/><path d="M5 0L6 1L5 2L4 1Z" fill="#F3F1EA"/><path d="M5 6L6 7L5 8L4 7Z" fill="#F3F1EA"/><path d="M7 0L8 1L7 2L6 1Z" fill="#F3F1EA"/><path d="M7 2L8 3L7 4L6 3Z" fill="#F3F1EA"/><path d="M7 4L8 5L7 6L6 5Z" fill="#F3F1EA"/><path d="M7 6L8 7L7 8L6 7Z" fill="#F3F1EA"/><path d="M3 2L4 3L3 4L2 3Z" fill="#65D4BB"/><path d="M5 2L6 3L5 4L4 3Z" fill="#65D4BB"/><path d="M3 4L4 5L3 6L2 5Z" fill="#65D4BB"/><path d="M5 4L6 5L5 6L4 5Z" fill="#65D4BB"/><path d="M4 3L5 4L4 5L3 4Z" fill="#65D4BB"/></g><g transform="translate(67 1.0)"><path d="M1 0L2 1L1 2L0 1Z" fill="#1AA6FF"/><path d="M3 0L4 1L3 2L2 1Z" fill="#1AA6FF"/><path d="M5 0L6 1L5 2L4 1Z" fill="#1AA6FF"/><path d="M2 1L3 2L2 3L1 2Z" fill="#1AA6FF"/><path d="M4 1L5 2L4 3L3 2Z" fill="#1AA6FF"/><path d="M1 2L2 3L1 4L0 3Z" fill="#1AA6FF"/><path d="M3 2L4 3L3 4L2 3Z" fill="#1AA6FF"/><path d="M5 2L6 3L5 4L4 3Z" fill="#1AA6FF"/><path d="M2 3L3 4L2 5L1 4Z" fill="#1AA6FF"/><path d="M4 3L5 4L4 5L3 4Z" fill="#1AA6FF"/><path d="M1 4L2 5L1 6L0 5Z" fill="#1AA6FF"/><path d="M3 4L4 5L3 6L2 5Z" fill="#1AA6FF"/><path d="M5 4L6 5L5 6L4 5Z" fill="#1AA6FF"/></g><g transform="translate(76 0.5)"><rect x="0" y="3" width="1" height="1" fill="#F3F1EA"/><rect x="1" y="2" width="1" height="1" fill="#F3F1EA"/><rect x="1" y="4" width="1" height="1" fill="#F3F1EA"/><rect x="2" y="1" width="1" height="1" fill="#F3F1EA"/><rect x="2" y="5" width="1" height="1" fill="#F3F1EA"/><rect x="3" y="0" width="1" height="1" fill="#F3F1EA"/><rect x="3" y="6" width="1" height="1" fill="#F3F1EA"/><rect x="4" y="1" width="1" height="1" fill="#F3F1EA"/><rect x="4" y="5" width="1" height="1" fill="#F3F1EA"/><rect x="5" y="2" width="1" height="1" fill="#F3F1EA"/><rect x="5" y="4" width="1" height="1" fill="#F3F1EA"/><rect x="6" y="3" width="1" height="1" fill="#F3F1EA"/><rect x="2" y="3" width="1" height="1" fill="#65D4BB"/><rect x="3" y="2" width="1" height="1" fill="#65D4BB"/><rect x="3" y="3" width="1" height="1" fill="#65D4BB"/><rect x="3" y="4" width="1" height="1" fill="#65D4BB"/><rect x="4" y="3" width="1" height="1" fill="#65D4BB"/></g><g transform="translate(86 1.5)"><rect x="2" y="0" width="1" height="1" fill="#1AA6FF"/><rect x="1" y="1" width="1" height="1" fill="#1AA6FF"/><rect x="2" y="1" width="1" height="1" fill="#1AA6FF"/><rect x="3" y="1" width="1" height="1" fill="#1AA6FF"/><rect x="0" y="2" width="1" height="1" fill="#1AA6FF"/><rect x="1" y="2" width="1" height="1" fill="#1AA6FF"/><rect x="2" y="2" width="1" height="1" fill="#1AA6FF"/><rect x="3" y="2" width="1" height="1" fill="#1AA6FF"/><rect x="4" y="2" width="1" height="1" fill="#1AA6FF"/><rect x="1" y="3" width="1" height="1" fill="#1AA6FF"/><rect x="2" y="3" width="1" height="1" fill="#1AA6FF"/><rect x="3" y="3" width="1" height="1" fill="#1AA6FF"/><rect x="2" y="4" width="1" height="1" fill="#1AA6FF"/></g><g transform="translate(94 0.0)"><path d="M1 0L2 1L1 2L0 1Z" fill="#FFCC67"/><path d="M1 2L2 3L1 4L0 3Z" fill="#FFCC67"/><path d="M1 4L2 5L1 6L0 5Z" fill="#FFCC67"/><path d="M1 6L2 7L1 8L0 7Z" fill="#FFCC67"/><path d="M3 0L4 1L3 2L2 1Z" fill="#FFCC67"/><path d="M3 6L4 7L3 8L2 7Z" fill="#FFCC67"/><path d="M5 0L6 1L5 2L4 1Z" fill="#FFCC67"/><path d="M5 6L6 7L5 8L4 7Z" fill="#FFCC67"/><path d="M7 0L8 1L7 2L6 1Z" fill="#FFCC67"/><path d="M7 2L8 3L7 4L6 3Z" fill="#FFCC67"/><path d="M7 4L8 5L7 6L6 5Z" fill="#FFCC67"/><path d="M7 6L8 7L7 8L6 7Z" fill="#FFCC67"/><path d="M3 2L4 3L3 4L2 3Z" fill="#FF6078"/><path d="M5 2L6 3L5 4L4 3Z" fill="#FF6078"/><path d="M3 4L4 5L3 6L2 5Z" fill="#FF6078"/><path d="M5 4L6 5L5 6L4 5Z" fill="#FF6078"/><path d="M4 3L5 4L4 5L3 4Z" fill="#FF6078"/></g><g transform="translate(105 1.0)"><path d="M1 0L2 1L1 2L0 1Z" fill="#FF6078"/><path d="M3 0L4 1L3 2L2 1Z" fill="#FF6078"/><path d="M5 0L6 1L5 2L4 1Z" fill="#FF6078"/><path d="M2 1L3 2L2 3L1 2Z" fill="#FF6078"/><path d="M4 1L5 2L4 3L3 2Z" fill="#FF6078"/><path d="M1 2L2 3L1 4L0 3Z" fill="#FF6078"/><path d="M3 2L4 3L3 4L2 3Z" fill="#FF6078"/><path d="M5 2L6 3L5 4L4 3Z" fill="#FF6078"/><path d="M2 3L3 4L2 5L1 4Z" fill="#FF6078"/><path d="M4 3L5 4L4 5L3 4Z" fill="#FF6078"/><path d="M1 4L2 5L1 6L0 5Z" fill="#FF6078"/><path d="M3 4L4 5L3 6L2 5Z" fill="#FF6078"/><path d="M5 4L6 5L5 6L4 5Z" fill="#FF6078"/></g><g transform="translate(114 0.5)"><rect x="0" y="3" width="1" height="1" fill="#FFCC67"/><rect x="1" y="2" width="1" height="1" fill="#FFCC67"/><rect x="1" y="4" width="1" height="1" fill="#FFCC67"/><rect x="2" y="1" width="1" height="1" fill="#FFCC67"/><rect x="2" y="5" width="1" height="1" fill="#FFCC67"/><rect x="3" y="0" width="1" height="1" fill="#FFCC67"/><rect x="3" y="6" width="1" height="1" fill="#FFCC67"/><rect x="4" y="1" width="1" height="1" fill="#FFCC67"/><rect x="4" y="5" width="1" height="1" fill="#FFCC67"/><rect x="5" y="2" width="1" height="1" fill="#FFCC67"/><rect x="5" y="4" width="1" height="1" fill="#FFCC67"/><rect x="6" y="3" width="1" height="1" fill="#FFCC67"/><rect x="2" y="3" width="1" height="1" fill="#FF6078"/><rect x="3" y="2" width="1" height="1" fill="#FF6078"/><rect x="3" y="3" width="1" height="1" fill="#FF6078"/><rect x="3" y="4" width="1" height="1" fill="#FF6078"/><rect x="4" y="3" width="1" height="1" fill="#FF6078"/></g><g transform="translate(124 1.5)"><rect x="2" y="0" width="1" height="1" fill="#65D4BB"/><rect x="1" y="1" width="1" height="1" fill="#65D4BB"/><rect x="2" y="1" width="1" height="1" fill="#65D4BB"/><rect x="3" y="1" width="1" height="1" fill="#65D4BB"/><rect x="0" y="2" width="1" height="1" fill="#65D4BB"/><rect x="1" y="2" width="1" height="1" fill="#65D4BB"/><rect x="2" y="2" width="1" height="1" fill="#65D4BB"/><rect x="3" y="2" width="1" height="1" fill="#65D4BB"/><rect x="4" y="2" width="1" height="1" fill="#65D4BB"/><rect x="1" y="3" width="1" height="1" fill="#65D4BB"/><rect x="2" y="3" width="1" height="1" fill="#65D4BB"/><rect x="3" y="3" width="1" height="1" fill="#65D4BB"/><rect x="2" y="4" width="1" height="1" fill="#65D4BB"/></g><g transform="translate(132 0.0)"><path d="M1 0L2 1L1 2L0 1Z" fill="#F3F1EA"/><path d="M1 2L2 3L1 4L0 3Z" fill="#F3F1EA"/><path d="M1 4L2 5L1 6L0 5Z" fill="#F3F1EA"/><path d="M1 6L2 7L1 8L0 7Z" fill="#F3F1EA"/><path d="M3 0L4 1L3 2L2 1Z" fill="#F3F1EA"/><path d="M3 6L4 7L3 8L2 7Z" fill="#F3F1EA"/><path d="M5 0L6 1L5 2L4 1Z" fill="#F3F1EA"/><path d="M5 6L6 7L5 8L4 7Z" fill="#F3F1EA"/><path d="M7 0L8 1L7 2L6 1Z" fill="#F3F1EA"/><path d="M7 2L8 3L7 4L6 3Z" fill="#F3F1EA"/><path d="M7 4L8 5L7 6L6 5Z" fill="#F3F1EA"/><path d="M7 6L8 7L7 8L6 7Z" fill="#F3F1EA"/><path d="M3 2L4 3L3 4L2 3Z" fill="#65D4BB"/><path d="M5 2L6 3L5 4L4 3Z" fill="#65D4BB"/><path d="M3 4L4 5L3 6L2 5Z" fill="#65D4BB"/><path d="M5 4L6 5L5 6L4 5Z" fill="#65D4BB"/><path d="M4 3L5 4L4 5L3 4Z" fill="#65D4BB"/></g><g transform="translate(143 1.0)"><path d="M1 0L2 1L1 2L0 1Z" fill="#1AA6FF"/><path d="M3 0L4 1L3 2L2 1Z" fill="#1AA6FF"/><path d="M5 0L6 1L5 2L4 1Z" fill="#1AA6FF"/><path d="M2 1L3 2L2 3L1 2Z" fill="#1AA6FF"/><path d="M4 1L5 2L4 3L3 2Z" fill="#1AA6FF"/><path d="M1 2L2 3L1 4L0 3Z" fill="#1AA6FF"/><path d="M3 2L4 3L3 4L2 3Z" fill="#1AA6FF"/><path d="M5 2L6 3L5 4L4 3Z" fill="#1AA6FF"/><path d="M2 3L3 4L2 5L1 4Z" fill="#1AA6FF"/><path d="M4 3L5 4L4 5L3 4Z" fill="#1AA6FF"/><path d="M1 4L2 5L1 6L0 5Z" fill="#1AA6FF"/><path d="M3 4L4 5L3 6L2 5Z" fill="#1AA6FF"/><path d="M5 4L6 5L5 6L4 5Z" fill="#1AA6FF"/></g><g transform="translate(152 0.5)"><rect x="0" y="3" width="1" height="1" fill="#F3F1EA"/><rect x="1" y="2" width="1" height="1" fill="#F3F1EA"/><rect x="1" y="4" width="1" height="1" fill="#F3F1EA"/><rect x="2" y="1" width="1" height="1" fill="#F3F1EA"/><rect x="2" y="5" width="1" height="1" fill="#F3F1EA"/><rect x="3" y="0" width="1" height="1" fill="#F3F1EA"/><rect x="3" y="6" width="1" height="1" fill="#F3F1EA"/><rect x="4" y="1" width="1" height="1" fill="#F3F1EA"/><rect x="4" y="5" width="1" height="1" fill="#F3F1EA"/><rect x="5" y="2" width="1" height="1" fill="#F3F1EA"/><rect x="5" y="4" width="1" height="1" fill="#F3F1EA"/><rect x="6" y="3" width="1" height="1" fill="#F3F1EA"/><rect x="2" y="3" width="1" height="1" fill="#65D4BB"/><rect x="3" y="2" width="1" height="1" fill="#65D4BB"/><rect x="3" y="3" width="1" height="1" fill="#65D4BB"/><rect x="3" y="4" width="1" height="1" fill="#65D4BB"/><rect x="4" y="3" width="1" height="1" fill="#65D4BB"/></g><g transform="translate(162 1.5)"><rect x="2" y="0" width="1" height="1" fill="#1AA6FF"/><rect x="1" y="1" width="1" height="1" fill="#1AA6FF"/><rect x="2" y="1" width="1" height="1" fill="#1AA6FF"/><rect x="3" y="1" width="1" height="1" fill="#1AA6FF"/><rect x="0" y="2" width="1" height="1" fill="#1AA6FF"/><rect x="1" y="2" width="1" height="1" fill="#1AA6FF"/><rect x="2" y="2" width="1" height="1" fill="#1AA6FF"/><rect x="3" y="2" width="1" height="1" fill="#1AA6FF"/><rect x="4" y="2" width="1" height="1" fill="#1AA6FF"/><rect x="1" y="3" width="1" height="1" fill="#1AA6FF"/><rect x="2" y="3" width="1" height="1" fill="#1AA6FF"/><rect x="3" y="3" width="1" height="1" fill="#1AA6FF"/><rect x="2" y="4" width="1" height="1" fill="#1AA6FF"/></g><g transform="translate(170 0.0)"><path d="M1 0L2 1L1 2L0 1Z" fill="#FFCC67"/><path d="M1 2L2 3L1 4L0 3Z" fill="#FFCC67"/><path d="M1 4L2 5L1 6L0 5Z" fill="#FFCC67"/><path d="M1 6L2 7L1 8L0 7Z" fill="#FFCC67"/><path d="M3 0L4 1L3 2L2 1Z" fill="#FFCC67"/><path d="M3 6L4 7L3 8L2 7Z" fill="#FFCC67"/><path d="M5 0L6 1L5 2L4 1Z" fill="#FFCC67"/><path d="M5 6L6 7L5 8L4 7Z" fill="#FFCC67"/><path d="M7 0L8 1L7 2L6 1Z" fill="#FFCC67"/><path d="M7 2L8 3L7 4L6 3Z" fill="#FFCC67"/><path d="M7 4L8 5L7 6L6 5Z" fill="#FFCC67"/><path d="M7 6L8 7L7 8L6 7Z" fill="#FFCC67"/><path d="M3 2L4 3L3 4L2 3Z" fill="#FF6078"/><path d="M5 2L6 3L5 4L4 3Z" fill="#FF6078"/><path d="M3 4L4 5L3 6L2 5Z" fill="#FF6078"/><path d="M5 4L6 5L5 6L4 5Z" fill="#FF6078"/><path d="M4 3L5 4L4 5L3 4Z" fill="#FF6078"/></g><g transform="translate(181 1.0)"><path d="M1 0L2 1L1 2L0 1Z" fill="#FF6078"/><path d="M3 0L4 1L3 2L2 1Z" fill="#FF6078"/><path d="M5 0L6 1L5 2L4 1Z" fill="#FF6078"/><path d="M2 1L3 2L2 3L1 2Z" fill="#FF6078"/><path d="M4 1L5 2L4 3L3 2Z" fill="#FF6078"/><path d="M1 2L2 3L1 4L0 3Z" fill="#FF6078"/><path d="M3 2L4 3L3 4L2 3Z" fill="#FF6078"/><path d="M5 2L6 3L5 4L4 3Z" fill="#FF6078"/><path d="M2 3L3 4L2 5L1 4Z" fill="#FF6078"/><path d="M4 3L5 4L4 5L3 4Z" fill="#FF6078"/><path d="M1 4L2 5L1 6L0 5Z" fill="#FF6078"/><path d="M3 4L4 5L3 6L2 5Z" fill="#FF6078"/><path d="M5 4L6 5L5 6L4 5Z" fill="#FF6078"/></g><g transform="translate(190 0.5)"><rect x="0" y="3" width="1" height="1" fill="#FFCC67"/><rect x="1" y="2" width="1" height="1" fill="#FFCC67"/><rect x="1" y="4" width="1" height="1" fill="#FFCC67"/><rect x="2" y="1" width="1" height="1" fill="#FFCC67"/><rect x="2" y="5" width="1" height="1" fill="#FFCC67"/><rect x="3" y="0" width="1" height="1" fill="#FFCC67"/><rect x="3" y="6" width="1" height="1" fill="#FFCC67"/><rect x="4" y="1" width="1" height="1" fill="#FFCC67"/><rect x="4" y="5" width="1" height="1" fill="#FFCC67"/><rect x="5" y="2" width="1" height="1" fill="#FFCC67"/><rect x="5" y="4" width="1" height="1" fill="#FFCC67"/><rect x="6" y="3" width="1" height="1" fill="#FFCC67"/><rect x="2" y="3" width="1" height="1" fill="#FF6078"/><rect x="3" y="2" width="1" height="1" fill="#FF6078"/><rect x="3" y="3" width="1" height="1" fill="#FF6078"/><rect x="3" y="4" width="1" height="1" fill="#FF6078"/><rect x="4" y="3" width="1" height="1" fill="#FF6078"/></g><g transform="translate(200 1.5)"><rect x="2" y="0" width="1" height="1" fill="#65D4BB"/><rect x="1" y="1" width="1" height="1" fill="#65D4BB"/><rect x="2" y="1" width="1" height="1" fill="#65D4BB"/><rect x="3" y="1" width="1" height="1" fill="#65D4BB"/><rect x="0" y="2" width="1" height="1" fill="#65D4BB"/><rect x="1" y="2" width="1" height="1" fill="#65D4BB"/><rect x="2" y="2" width="1" height="1" fill="#65D4BB"/><rect x="3" y="2" width="1" height="1" fill="#65D4BB"/><rect x="4" y="2" width="1" height="1" fill="#65D4BB"/><rect x="1" y="3" width="1" height="1" fill="#65D4BB"/><rect x="2" y="3" width="1" height="1" fill="#65D4BB"/><rect x="3" y="3" width="1" height="1" fill="#65D4BB"/><rect x="2" y="4" width="1" height="1" fill="#65D4BB"/></g><g transform="translate(208 0.0)"><path d="M1 0L2 1L1 2L0 1Z" fill="#F3F1EA"/><path d="M1 2L2 3L1 4L0 3Z" fill="#F3F1EA"/><path d="M1 4L2 5L1 6L0 5Z" fill="#F3F1EA"/><path d="M1 6L2 7L1 8L0 7Z" fill="#F3F1EA"/><path d="M3 0L4 1L3 2L2 1Z" fill="#F3F1EA"/><path d="M3 6L4 7L3 8L2 7Z" fill="#F3F1EA"/><path d="M5 0L6 1L5 2L4 1Z" fill="#F3F1EA"/><path d="M5 6L6 7L5 8L4 7Z" fill="#F3F1EA"/><path d="M7 0L8 1L7 2L6 1Z" fill="#F3F1EA"/><path d="M7 2L8 3L7 4L6 3Z" fill="#F3F1EA"/><path d="M7 4L8 5L7 6L6 5Z" fill="#F3F1EA"/><path d="M7 6L8 7L7 8L6 7Z" fill="#F3F1EA"/><path d="M3 2L4 3L3 4L2 3Z" fill="#65D4BB"/><path d="M5 2L6 3L5 4L4 3Z" fill="#65D4BB"/><path d="M3 4L4 5L3 6L2 5Z" fill="#65D4BB"/><path d="M5 4L6 5L5 6L4 5Z" fill="#65D4BB"/><path d="M4 3L5 4L4 5L3 4Z" fill="#65D4BB"/></g><g transform="translate(219 1.0)"><path d="M1 0L2 1L1 2L0 1Z" fill="#1AA6FF"/><path d="M3 0L4 1L3 2L2 1Z" fill="#1AA6FF"/><path d="M5 0L6 1L5 2L4 1Z" fill="#1AA6FF"/><path d="M2 1L3 2L2 3L1 2Z" fill="#1AA6FF"/><path d="M4 1L5 2L4 3L3 2Z" fill="#1AA6FF"/><path d="M1 2L2 3L1 4L0 3Z" fill="#1AA6FF"/><path d="M3 2L4 3L3 4L2 3Z" fill="#1AA6FF"/><path d="M5 2L6 3L5 4L4 3Z" fill="#1AA6FF"/><path d="M2 3L3 4L2 5L1 4Z" fill="#1AA6FF"/><path d="M4 3L5 4L4 5L3 4Z" fill="#1AA6FF"/><path d="M1 4L2 5L1 6L0 5Z" fill="#1AA6FF"/><path d="M3 4L4 5L3 6L2 5Z" fill="#1AA6FF"/><path d="M5 4L6 5L5 6L4 5Z" fill="#1AA6FF"/></g><g transform="translate(228 0.5)"><rect x="0" y="3" width="1" height="1" fill="#F3F1EA"/><rect x="1" y="2" width="1" height="1" fill="#F3F1EA"/><rect x="1" y="4" width="1" height="1" fill="#F3F1EA"/><rect x="2" y="1" width="1" height="1" fill="#F3F1EA"/><rect x="2" y="5" width="1" height="1" fill="#F3F1EA"/><rect x="3" y="0" width="1" height="1" fill="#F3F1EA"/><rect x="3" y="6" width="1" height="1" fill="#F3F1EA"/><rect x="4" y="1" width="1" height="1" fill="#F3F1EA"/><rect x="4" y="5" width="1" height="1" fill="#F3F1EA"/><rect x="5" y="2" width="1" height="1" fill="#F3F1EA"/><rect x="5" y="4" width="1" height="1" fill="#F3F1EA"/><rect x="6" y="3" width="1" height="1" fill="#F3F1EA"/><rect x="2" y="3" width="1" height="1" fill="#65D4BB"/><rect x="3" y="2" width="1" height="1" fill="#65D4BB"/><rect x="3" y="3" width="1" height="1" fill="#65D4BB"/><rect x="3" y="4" width="1" height="1" fill="#65D4BB"/><rect x="4" y="3" width="1" height="1" fill="#65D4BB"/></g><g transform="translate(238 1.5)"><rect x="2" y="0" width="1" height="1" fill="#1AA6FF"/><rect x="1" y="1" width="1" height="1" fill="#1AA6FF"/><rect x="2" y="1" width="1" height="1" fill="#1AA6FF"/><rect x="3" y="1" width="1" height="1" fill="#1AA6FF"/><rect x="0" y="2" width="1" height="1" fill="#1AA6FF"/><rect x="1" y="2" width="1" height="1" fill="#1AA6FF"/><rect x="2" y="2" width="1" height="1" fill="#1AA6FF"/><rect x="3" y="2" width="1" height="1" fill="#1AA6FF"/><rect x="4" y="2" width="1" height="1" fill="#1AA6FF"/><rect x="1" y="3" width="1" height="1" fill="#1AA6FF"/><rect x="2" y="3" width="1" height="1" fill="#1AA6FF"/><rect x="3" y="3" width="1" height="1" fill="#1AA6FF"/><rect x="2" y="4" width="1" height="1" fill="#1AA6FF"/></g></svg>