<svg width="1200" height="630" viewBox="0 0 1200 630" fill="none" xmlns="http://www.w3.org/2000/svg">
<g clip-path="url(#clip0_316_2)">
<rect width="1200" height="630" fill="#121C5E"/>
<g clip-path="url(#clip1_316_2)">
<path opacity="0.47" d="M886.8 662.5C887.2 658.9 887.8 655.3 888.6 651.8C890.9 641.9 894.7 632.5 900 623.9C906 614.2 913.7 605.6 922.8 598.7C933.5 590.6 946.2 584.7 960.2 581.9C974.2 579.1 988.2 579.6 1001.2 582.9C1008.3 584.7 1015.1 587.4 1021.5 590.8C1029.3 594.9 1036.4 600.1 1042.7 606.2C1047 610.4 1051 615.1 1054.4 620.1C1059.5 627.5 1063.6 635.8 1066.3 644.7C1067.2 647.7 1068.1 650.9 1068.7 654.1C1069.3 656.9 1069.7 659.6 1070 662.4V662.5H1308.6V225.8C1256.1 225.7 1203.6 239.9 1158.8 267.4C1094.9 306.6 1047.7 372.1 1030.8 445.1C901.3 402.7 745.8 463.5 679.4 582.5C614.1 547 537.7 526.5 465 541.6C400.4 555 340.6 601 319.3 662.4H886.8V662.5Z" fill="#0D153D"/>
<path opacity="0.47" d="M311.3 126.1C323.7 114.1 336.4 100.2 353.5 98C368.5 96 382.9 103.6 396.8 109.7C467.1 140.5 552.5 133.9 617.3 92.9C664.5 63 699.8 15.4 716.4 -37.9H-83V135C-36 176.3 24.4 202.5 86.8 207.3C168.6 213.5 252.5 183.2 311.3 126.1Z" fill="#0D153D"/>
<path opacity="0.47" d="M890.5 53.8C931.8 84.1 985.7 96.7 1036.2 87.8C1043 147.1 1093.4 198.6 1152.5 206.6C1190 211.7 1228.7 199 1257.8 175V-55H818.1C828.7 -11.8 854.6 27.5 890.5 53.8Z" fill="#0D153D"/>
<path opacity="0.47" d="M187.8 631.5C171.4 625.7 154.2 621 139.5 611.9C111.4 594.6 94.3 561.1 96.6 528.3C99.6 487.1 130.2 451.4 131.8 410.1C134.2 350.9 71.4 303.9 12.3 307C5.79998 307.3 -0.600024 308.2 -6.90002 309.4V631.9L187.8 631.5Z" fill="#0D153D"/>
<path opacity="0.47" d="M638 237.6C634.9 211.1 623.8 186.2 597.4 182.4C585.2 179.5 565.7 183.9 556.5 188.6C544 194.9 535.3 206.8 525.9 217.2C516.5 227.6 504.4 237.5 490.4 237.5C476.7 237.5 465 228.4 452.4 223C424 211 385.6 223.1 374.9 252C364.7 279.7 381.7 310.6 404 329.8C433.6 355.2 473.6 368 512.4 364.6C551.2 361.2 588.3 341.5 612.9 311.3C629.9 290.7 641.1 264.1 638 237.6Z" fill="#0D153D"/>
</g>
<g clip-path="url(#clip2_316_2)">
<path d="M736.325 549.465L740.925 554.265C741.225 554.665 741.725 554.765 742.225 554.665L748.725 553.665C749.925 553.465 750.825 554.765 750.225 555.865L747.025 561.665C746.825 562.065 746.825 562.565 747.025 563.065L750.025 568.965C750.625 570.065 749.625 571.265 748.425 571.065L741.925 569.865C741.425 569.765 740.925 569.965 740.625 570.265L735.925 574.965C735.025 575.865 733.525 575.365 733.425 574.065L732.525 567.465C732.425 566.965 732.125 566.565 731.725 566.365L725.825 563.365C724.725 562.765 724.725 561.265 725.825 560.665L731.825 557.765C732.225 557.565 732.525 557.165 732.625 556.665L733.625 550.165C734.025 549.065 735.525 548.565 736.325 549.465Z" fill="#EAC689"/>
<path d="M637.8 33.4L641.7 37.5C642 37.8 642.4 37.9 642.8 37.9L648.4 37C649.4 36.8 650.2 37.9 649.7 38.9L647 43.9C646.8 44.3 646.8 44.7 647 45.1L649.6 50.1C650.1 51 649.3 52.1 648.2 51.9L642.6 50.9C642.2 50.8 641.8 51 641.5 51.2L637.5 55.2C636.8 55.9 635.5 55.5 635.3 54.5L634.6 48.9C634.5 48.5 634.3 48.1 633.9 47.9L628.8 45.3C627.9 44.8 627.9 43.5 628.8 43L633.9 40.6C634.3 40.4 634.5 40.1 634.6 39.7L635.5 34.1C635.8 33 637.1 32.6 637.8 33.4Z" fill="#EAC689"/>
<path d="M902.6 575.3L906.5 579.4C906.8 579.7 907.2 579.8 907.6 579.8L913.2 578.9C914.2 578.7 915 579.8 914.5 580.8L911.8 585.8C911.6 586.2 911.6 586.6 911.8 587L914.4 592C914.9 592.9 914.1 594 913 593.8L907.4 592.8C907 592.7 906.6 592.9 906.3 593.1L902.3 597.1C901.6 597.8 900.3 597.4 900.1 596.4L899.4 590.8C899.3 590.4 899.1 590 898.7 589.8L893.6 587.2C892.7 586.7 892.7 585.4 893.6 584.9L898.7 582.5C899.1 582.3 899.3 582 899.4 581.6L900.3 576C900.6 575 901.9 574.6 902.6 575.3Z" fill="#EAC689"/>
<path d="M152.5 154.8L156.4 158.9C156.7 159.2 157.1 159.3 157.5 159.3L163.1 158.4C164.1 158.2 164.9 159.3 164.4 160.3L161.7 165.3C161.5 165.7 161.5 166.1 161.7 166.5L164.3 171.5C164.8 172.4 164 173.5 162.9 173.3L157.3 172.3C156.9 172.2 156.5 172.4 156.2 172.6L152.2 176.6C151.5 177.3 150.2 176.9 150 175.9L149.3 170.3C149.2 169.9 149 169.5 148.6 169.3L143.5 166.7C142.6 166.2 142.6 164.9 143.5 164.4L148.6 162C149 161.8 149.2 161.5 149.3 161.1L150.2 155.5C150.5 154.4 151.8 154 152.5 154.8Z" fill="#EAC689"/>
<path d="M51.4 46.5L51 52.2C51 52.6 51.2 53 51.5 53.3L56 56.8C56.8 57.4 56.5 58.8 55.5 59L50 60.4C49.6 60.5 49.3 60.8 49.1 61.2L47.1 66.5C46.7 67.5 45.4 67.6 44.8 66.7L41.8 61.9C41.6 61.5 41.2 61.3 40.8 61.3L35.1 61.1C34.1 61.1 33.5 59.8 34.2 59L37.8 54.6C38.1 54.3 38.2 53.8 38 53.4L36.5 47.9C36.2 46.9 37.2 46 38.2 46.4L43.5 48.5C43.9 48.7 44.3 48.6 44.7 48.4L49.4 45.2C50.3 44.8 51.5 45.5 51.4 46.5Z" fill="#EAC689"/>
<path d="M1164.5 97.3L1164.4 101.1C1164.4 101.4 1164.5 101.6 1164.7 101.8L1167.8 104.1C1168.4 104.5 1168.2 105.4 1167.5 105.6L1163.8 106.7C1163.5 106.8 1163.3 107 1163.2 107.2L1162 110.8C1161.8 111.5 1160.9 111.6 1160.5 111L1158.4 107.8C1158.2 107.6 1158 107.4 1157.7 107.4H1153.9C1153.2 107.4 1152.8 106.6 1153.2 106L1155.5 103C1155.7 102.8 1155.7 102.5 1155.6 102.2L1154.4 98.6C1154.2 97.9 1154.8 97.3 1155.5 97.5L1159.1 98.8C1159.4 98.9 1159.7 98.9 1159.9 98.7L1163 96.5C1163.8 96.1 1164.6 96.6 1164.5 97.3Z" fill="#EAC689"/>
<path d="M328.9 577.7L328.8 581.5C328.8 581.8 328.9 582 329.1 582.2L332.2 584.5C332.8 584.9 332.6 585.8 331.9 586L328.2 587.1C327.9 587.2 327.7 587.4 327.6 587.6L326.4 591.2C326.2 591.9 325.3 592 324.9 591.4L322.8 588.2C322.6 588 322.4 587.8 322.1 587.8H318.3C317.6 587.8 317.2 587 317.6 586.4L319.9 583.4C320.1 583.2 320.1 582.9 320 582.6L318.8 579C318.6 578.3 319.2 577.7 319.9 577.9L323.5 579.2C323.8 579.3 324.1 579.3 324.3 579.1L327.4 576.9C328.1 576.6 328.9 577 328.9 577.7Z" fill="#EAC689"/>
<path d="M843.459 357.859L843.359 361.659C843.359 361.959 843.459 362.159 843.659 362.359L846.759 364.659C847.359 365.059 847.159 365.959 846.459 366.159L842.759 367.259C842.459 367.359 842.259 367.559 842.159 367.759L840.959 371.359C840.759 372.059 839.859 372.159 839.459 371.559L837.359 368.359C837.159 368.159 836.959 367.959 836.659 367.959H832.859C832.159 367.959 831.759 367.159 832.159 366.559L834.459 363.559C834.659 363.359 834.659 363.059 834.559 362.759L833.559 359.259C833.359 358.559 833.959 357.959 834.659 358.159L838.259 359.459C838.559 359.559 838.859 359.559 839.059 359.359L842.159 357.159C842.759 356.759 843.559 357.159 843.459 357.859Z" fill="#EAC689"/>
<path d="M347.459 351.957L347.359 355.757C347.359 356.057 347.459 356.257 347.659 356.457L350.759 358.757C351.359 359.157 351.159 360.057 350.459 360.257L346.759 361.357C346.459 361.457 346.259 361.657 346.159 361.857L344.959 365.457C344.759 366.157 343.859 366.257 343.459 365.657L341.359 362.457C341.159 362.257 340.959 362.057 340.659 362.057H336.859C336.159 362.057 335.759 361.257 336.159 360.657L338.459 357.657C338.659 357.457 338.659 357.157 338.559 356.857L337.359 353.257C337.159 352.557 337.759 351.957 338.459 352.157L342.059 353.457C342.359 353.557 342.659 353.557 342.859 353.357L345.959 351.157C346.659 350.757 347.459 351.157 347.459 351.957Z" fill="#EAC689"/>
<path d="M1085.5 370.9L1085.4 374.7C1085.4 375 1085.5 375.2 1085.7 375.4L1088.8 377.7C1089.4 378.1 1089.2 379 1088.5 379.2L1084.8 380.3C1084.5 380.4 1084.3 380.6 1084.2 380.8L1083 384.4C1082.8 385.1 1081.9 385.2 1081.5 384.6L1079.4 381.4C1079.2 381.2 1079 381 1078.7 381H1074.9C1074.2 381 1073.8 380.2 1074.2 379.6L1076.5 376.6C1076.7 376.4 1076.7 376.1 1076.6 375.8L1075.4 372.2C1075.2 371.5 1075.8 370.9 1076.5 371.1L1080.1 372.4C1080.4 372.5 1080.7 372.5 1080.9 372.3L1084 370.1C1084.7 369.8 1085.5 370.2 1085.5 370.9Z" fill="#EAC689"/>
<path d="M1015.9 165.1L1012.6 167.1C1012.4 167.2 1012.2 167.5 1012.2 167.8L1012 171.6C1012 172.3 1011.1 172.7 1010.6 172.2L1007.7 169.7C1007.5 169.5 1007.2 169.5 1006.9 169.5L1003.2 170.5C1002.5 170.7 1001.9 170 1002.2 169.4L1003.7 165.9C1003.8 165.6 1003.8 165.3 1003.6 165.1L1001.5 161.9C1001.1 161.3 1001.6 160.5 1002.3 160.6L1006.1 160.9C1006.4 160.9 1006.7 160.8 1006.8 160.6L1009.2 157.6C1009.6 157.1 1010.5 157.3 1010.7 157.9L1011.6 161.6C1011.7 161.9 1011.9 162.1 1012.1 162.2L1015.7 163.6C1016.4 163.8 1016.5 164.7 1015.9 165.1Z" fill="#EAC689"/>
</g>
<g clip-path="url(#clip3_316_2)">
<g opacity="0.88">
<path opacity="0.12" d="M64.8999 335.5C64.7999 335.4 64.6999 335.3 64.5999 335.1C63.6999 334.2 62.3999 334 61.2999 334.5C60.1999 335 59.3999 336.1 59.3999 337.3C59.4999 339.9 62.6999 341.4 64.5999 339.5C64.6999 339.4 64.7999 339.3 64.8999 339.1C65.8999 338.1 65.8999 336.5 64.8999 335.5Z" fill="white"/>
</g>
<g opacity="0.88">
<path opacity="0.12" d="M152.3 433C154.4 433 154.4 429.7 152.3 429.7C150.2 429.7 150.1 433 152.3 433Z" fill="white"/>
</g>
<g opacity="0.8">
<path opacity="0.12" d="M91.9 590.9C94.6 590.9 94.6 586.7 91.9 586.7C89.2 586.7 89.2 590.9 91.9 590.9Z" fill="white"/>
</g>
<g opacity="0.8">
<path opacity="0.12" d="M260.7 567.7C265.7 567.7 265.7 559.9 260.7 559.9C255.7 559.9 255.7 567.7 260.7 567.7Z" fill="white"/>
</g>
<g opacity="0.88">
<path opacity="0.12" d="M345.8 495.5C348.5 495.5 348.5 491.3 345.8 491.3C343.1 491.3 343.1 495.5 345.8 495.5Z" fill="white"/>
</g>
<g opacity="0.8">
<path opacity="0.12" d="M465.4 557.4C466.3 557.4 466.3 556.1 465.4 556.1C464.6 556.1 464.6 557.4 465.4 557.4Z" fill="white"/>
</g>
<g opacity="0.88">
<path opacity="0.12" d="M6.9 469.1C9.1 469.1 9.1 465.8 6.9 465.8C4.7 465.7 4.7 469.1 6.9 469.1Z" fill="white"/>
</g>
<g opacity="0.8">
<path opacity="0.12" d="M189.7 565.1C192.4 565.1 192.4 561 189.7 561C187 561 187 565.1 189.7 565.1Z" fill="white"/>
</g>
<g opacity="0.88">
<path opacity="0.12" d="M281.1 374.5C283.5 374.5 283.5 370.8 281.1 370.8C278.7 370.8 278.7 374.5 281.1 374.5Z" fill="white"/>
</g>
<g opacity="0.88">
<path opacity="0.12" d="M22.3 562.8C22.7 564.2 23.6 565.1 25 565.6C27.1 566.3 29.5 565 30.1 562.8C30.8 560.4 28.8 557.6 26.2 557.7C23.6 557.8 21.4 560.2 22.3 562.8Z" fill="white"/>
</g>
<path d="M327.7 181.7C329.2 181.7 329.2 179.3 327.7 179.3C326.1 179.3 326.1 181.7 327.7 181.7Z" fill="white"/>
<g opacity="0.8">
<path opacity="0.12" d="M376.1 597.9C378.4 597.9 378.4 594.3 376.1 594.3C373.8 594.3 373.8 597.9 376.1 597.9Z" fill="white"/>
</g>
<path d="M501.7 407C503.8 407 505.7 405.2 505.6 403.1C505.5 401 503.9 399.2 501.7 399.2C499.6 399.2 497.7 401 497.8 403.1C497.9 405.2 499.5 407 501.7 407Z" fill="white"/>
<path d="M423.2 564.1C425.9 564.1 425.9 559.9 423.2 559.9C420.5 559.9 420.5 564.1 423.2 564.1Z" fill="white"/>
<path d="M461.2 616C462.5 616 463.7 614.9 463.6 613.6C463.5 612.3 462.5 611.2 461.2 611.2C459.9 611.2 458.7 612.3 458.8 613.6C458.9 614.9 459.9 616 461.2 616Z" fill="white"/>
<g opacity="0.8">
<path opacity="0.12" d="M543.9 560.7C547.2 560.7 547.2 555.6 543.9 555.6C540.6 555.7 540.6 560.7 543.9 560.7Z" fill="white"/>
</g>
<g opacity="0.8">
<path opacity="0.12" d="M554.1 605.7C557.3 605.7 557.3 600.7 554.1 600.7C550.8 600.7 550.8 605.7 554.1 605.7Z" fill="white"/>
</g>
<g opacity="0.88">
<path opacity="0.12" d="M666.6 560.5C668.6 560.5 668.6 557.5 666.6 557.5C664.6 557.5 664.6 560.5 666.6 560.5Z" fill="white"/>
</g>
<g opacity="0.8">
<path opacity="0.12" d="M620.8 382.3C621 382.2 621.1 382.1 621.3 382C623.7 380.6 623.7 377 621.3 375.6C621.1 375.5 621 375.4 620.8 375.3C618.1 373.7 614.7 375.8 614.7 378.8C614.7 381.8 618.2 383.8 620.8 382.3Z" fill="white"/>
</g>
<g opacity="0.8">
<path opacity="0.12" d="M572.3 359.1C574.4 359.1 574.4 355.8 572.3 355.8C570.2 355.8 570.2 359.1 572.3 359.1Z" fill="white"/>
</g>
<g opacity="0.8">
<path opacity="0.12" d="M672.2 338.6C674.8 338.6 674.8 334.6 672.2 334.6C669.7 334.6 669.7 338.6 672.2 338.6Z" fill="white"/>
</g>
<g opacity="0.8">
<path opacity="0.12" d="M367.9 315.5C369.8 315.5 369.8 312.5 367.9 312.5C366 312.6 365.9 315.5 367.9 315.5Z" fill="white"/>
</g>
<g opacity="0.88">
<path opacity="0.12" d="M537 192.6C537.9 192.6 537.9 191.2 537 191.2C536.1 191.1 536.1 192.6 537 192.6Z" fill="white"/>
</g>
<g opacity="0.88">
<path opacity="0.12" d="M562.9 85.9C565.9 85.9 565.9 81.2 562.9 81.2C559.9 81.2 559.9 85.9 562.9 85.9Z" fill="white"/>
</g>
<path d="M478.1 75.5C480.7 75.5 480.7 71.5 478.1 71.5C475.5 71.5 475.5 75.5 478.1 75.5Z" fill="white"/>
<g opacity="0.88">
<path opacity="0.12" d="M241.7 148.4C244.5 148.4 244.5 144 241.7 144C238.9 144 238.9 148.4 241.7 148.4Z" fill="white"/>
</g>
<g opacity="0.88">
<path opacity="0.12" d="M39.6 240.9C43.2 240.9 43.2 235.3 39.6 235.3C36 235.3 36 240.9 39.6 240.9Z" fill="white"/>
</g>
<g opacity="0.88">
<path opacity="0.12" d="M299.1 45.7C298.9 45.3 298.8 44.8 298.5 44.4C296.8 41.9 293.5 41.9 291.8 44.4C291.5 44.8 291.4 45.3 291.2 45.7C290.3 48.2 292.6 50.8 295.1 50.8C297.7 50.8 300 48.2 299.1 45.7Z" fill="white"/>
</g>
<path d="M117.2 25.8C120.2 25.8 120.2 21.1 117.2 21.1C114.1 21.1 114.1 25.8 117.2 25.8Z" fill="white"/>
<g opacity="0.88">
<path opacity="0.12" d="M420.4 42C420.2 42 419.9 42 419.7 42C418.2 41.9 416.8 43.4 416.9 44.8C417 46.2 418.1 47.7 419.7 47.6C419.9 47.6 420.2 47.6 420.4 47.6C421.8 47.5 423.2 46.4 423.2 44.8C423.1 43.1 422 42.1 420.4 42Z" fill="white"/>
</g>
<g opacity="0.8">
<path opacity="0.12" d="M55.9999 24.5C58.7999 24.5 58.8999 20.1 55.9999 20.1C53.1999 20 53.1999 24.5 55.9999 24.5Z" fill="white"/>
</g>
<g opacity="0.88">
<path opacity="0.12" d="M19.5 24.1C21.1 24.1 21.1 21.7 19.5 21.7C17.9 21.6 17.9 24.1 19.5 24.1Z" fill="white"/>
</g>
<g opacity="0.88">
<path opacity="0.12" d="M213.6 16.6C215.9 16.6 215.9 13 213.6 13C211.3 12.9 211.3 16.6 213.6 16.6Z" fill="white"/>
</g>
<g opacity="0.88">
<path opacity="0.12" d="M915.875 116C918.475 116 918.475 112 915.875 112C913.375 112.1 913.375 116 915.875 116Z" fill="white"/>
</g>
<g opacity="0.12">
<path opacity="0.12" d="M354.3 77.9C357.3 77.9 357.3 73.3 354.3 73.3C351.3 73.3 351.3 77.9 354.3 77.9Z" fill="white"/>
</g>
<g opacity="0.12">
<path opacity="0.12" d="M78.6 92.3C79.3 92.3 79.3 91.3 78.6 91.3C77.9 91.3 77.9 92.3 78.6 92.3Z" fill="white"/>
</g>
<g opacity="0.12">
<path opacity="0.12" d="M16.7 250C19.3 250 19.3 245.9 16.7 245.9C14 245.9 14 250 16.7 250Z" fill="white"/>
</g>
<g opacity="0.12">
<path opacity="0.12" d="M106.7 287.3C107.6 287.3 107.6 286 106.7 286C105.8 286 105.8 287.3 106.7 287.3Z" fill="white"/>
</g>
<g opacity="0.12">
<path opacity="0.12" d="M111.6 425.6C113.9 425.6 113.9 422.1 111.6 422.1C109.3 422 109.3 425.6 111.6 425.6Z" fill="white"/>
</g>
<g opacity="0.12">
<path opacity="0.12" d="M14.5 410.7C15.7 410.7 15.7 408.8 14.5 408.8C13.3 408.8 13.3 410.7 14.5 410.7Z" fill="white"/>
</g>
<g opacity="0.12">
<path opacity="0.12" d="M234.7 497.4C237.1 497.4 237.1 493.7 234.7 493.7C232.4 493.7 232.3 497.4 234.7 497.4Z" fill="white"/>
</g>
<path d="M194.5 409.3C194.6 408.8 194.4 409.1 193.9 410.4C194.1 410.2 194.3 409.9 194.4 409.7C194 410.1 193.7 410.4 193.3 410.8C193.1 410.9 192.9 410.9 192.8 411C192.4 411 191.9 411 191.5 411C191.7 411.1 192.1 411.1 192.3 411.1C193.2 411.1 193.9 410.7 194.4 410C195.3 408.8 195.2 407 194.1 405.9C193 404.9 191.4 404.6 190 405.3C188.6 406.1 188.2 407.7 188.5 409.2C188.8 410.5 190.2 411.5 191.5 411.5C192.8 411.5 194.2 410.7 194.5 409.3Z" fill="white"/>
<g opacity="0.12">
<path opacity="0.12" d="M579 273.6C578.9 272.7 578.8 272 578.3 271.2C576.7 268.7 573.1 268.7 571.5 271.2C571 272 570.9 272.7 570.8 273.6C570.7 274.6 571.3 275.8 572 276.5C572.7 277.2 573.9 277.7 574.9 277.7C577 277.6 579.3 275.9 579 273.6Z" fill="white"/>
</g>
<g opacity="0.12">
<path opacity="0.12" d="M1055.5 135.8C1055.4 134.9 1055.3 134.2 1054.8 133.4C1053.2 130.9 1049.6 130.9 1048 133.4C1047.5 134.2 1047.4 134.9 1047.3 135.8C1047.2 136.8 1047.8 138 1048.5 138.7C1049.2 139.4 1050.4 139.9 1051.4 139.9C1053.4 139.8 1055.8 138.1 1055.5 135.8Z" fill="white"/>
</g>
<g opacity="0.12">
<path opacity="0.12" d="M591.6 228.2C594 228.2 594 224.5 591.6 224.5C589.2 224.5 589.2 228.2 591.6 228.2Z" fill="white"/>
</g>
<g opacity="0.12">
<path opacity="0.12" d="M656.1 229.6C657.7 229.6 657.7 227.1 656.1 227.1C654.5 227.1 654.5 229.6 656.1 229.6Z" fill="white"/>
</g>
<g opacity="0.12">
<path opacity="0.12" d="M744.7 152.1C746 152.1 746 150.1 744.7 150.1C743.4 150.2 743.4 152.1 744.7 152.1Z" fill="white"/>
</g>
<g opacity="0.12">
<path opacity="0.12" d="M686.8 86.7C688.7 86.7 688.7 83.8 686.8 83.8C684.9 83.8 684.9 86.7 686.8 86.7Z" fill="white"/>
</g>
<g opacity="0.12">
<path opacity="0.12" d="M609.1 53.3C611.2 53.3 613.2 51.5 613.1 49.3C613 47.1 611.3 45.3 609.1 45.3C607 45.3 605 47.1 605.1 49.3C605.2 51.5 606.9 53.3 609.1 53.3Z" fill="white"/>
</g>
<g opacity="0.12">
<path opacity="0.12" d="M536.4 25C539.4 25 539.4 20.4 536.4 20.4C533.4 20.4 533.4 25 536.4 25Z" fill="white"/>
</g>
<path d="M397.3 5.99999C397.3 6.19999 397.4 6.39999 397.4 6.59999C397.7 8.39999 400.8 8.39999 401.1 6.59999C401.1 6.39999 401.2 6.19999 401.2 5.99999C401.4 4.69999 400.7 3.39999 399.3 3.39999C397.9 3.39999 397.1 4.69999 397.3 5.99999Z" fill="white"/>
<g opacity="0.12">
<path opacity="0.12" d="M907.4 21.6C907.7 21.5 908 21.4 908.3 21.2C909.1 20.7 909.1 19.5 908.3 19C908 18.8 907.7 18.7 907.4 18.6C906.4 18.2 905.4 19.2 905.4 20.1C905.5 21 906.5 21.9 907.4 21.6Z" fill="white"/>
</g>
<g opacity="0.12">
<path opacity="0.12" d="M785.2 210.9C787.6 210.9 787.6 207.2 785.2 207.2C782.8 207.2 782.8 210.9 785.2 210.9Z" fill="white"/>
</g>
<path d="M968.7 301.4C968.1 300.8 967.4 300.2 966.5 300.1C965.1 299.8 963 300.3 962.4 301.8C962 302.6 961.8 303.4 961.9 304.3C962.1 305.8 962.5 307 963.9 307.8C965 308.5 966.3 308.5 967.5 308C969.9 306.8 970.8 303.4 968.7 301.4Z" fill="white"/>
<g opacity="0.12">
<path opacity="0.12" d="M1021.5 262.5C1024.3 262.5 1024.3 258.1 1021.5 258.1C1018.7 258.1 1018.7 262.5 1021.5 262.5Z" fill="white"/>
</g>
<g opacity="0.12">
<path opacity="0.12" d="M960.8 192.6C961.1 193.2 961.4 193.6 962 194C963.5 195 965.4 193.1 964.4 191.6C964 191 963.7 190.7 963 190.4C961.5 189.7 960.2 191 960.8 192.6Z" fill="white"/>
</g>
<g opacity="0.12">
<path opacity="0.12" d="M1048.1 155.8C1049.7 155.8 1049.7 153.2 1048.1 153.2C1046.5 153.2 1046.5 155.8 1048.1 155.8Z" fill="white"/>
</g>
<g opacity="0.12">
<path opacity="0.12" d="M1139.6 270.9C1139.5 270.9 1139.3 270.9 1139.2 270.8C1138.3 270.6 1137.3 271.2 1137.3 272.2C1137.3 273.2 1138.2 273.8 1139.2 273.6C1139.3 273.6 1139.5 273.6 1139.6 273.5C1141 273.4 1141 271.1 1139.6 270.9Z" fill="white"/>
</g>
<g opacity="0.12">
<path opacity="0.12" d="M1199.4 131.9C1199.3 131.9 1199.3 131.9 1199.4 131.9C1200 131.9 1200.7 131.9 1201.5 131.9C1201.5 131.9 1201.5 131.9 1201.4 131.9C1202 132.2 1202.6 132.6 1203.2 132.9C1203.9 133.7 1203.9 133.8 1203.4 133.2C1202.7 132.3 1202.9 132.7 1204 134.3C1203.5 133 1202.7 132 1201.3 131.6C1200 131.2 1198.4 131.6 1197.5 132.6C1196.3 134 1195.7 136.1 1196.8 137.8C1197.4 138.7 1198.2 139.4 1199.3 139.7C1200.4 140 1201.5 139.8 1202.6 139.3C1203.4 138.9 1204.3 137.8 1204.5 136.9C1204.7 136 1204.7 135.1 1204.3 134.3C1203.3 132.3 1201.3 131.4 1199.4 131.9Z" fill="white"/>
</g>
<g opacity="0.12">
<path opacity="0.12" d="M1100.7 36.3C1100.5 36.3 1100.3 36.3 1100 36.3C1097.7 36.4 1097.7 39.8 1100 39.8C1100.2 39.8 1100.4 39.8 1100.7 39.8C1102.9 39.9 1103 36.2 1100.7 36.3Z" fill="white"/>
</g>
<g opacity="0.12">
<path opacity="0.12" d="M984.8 446.7C985.2 447.1 985.6 447.4 986 447.8C986 449.1 986 450.4 986 451.7C986.5 450.6 986.7 449.6 986.4 448.4C986.4 448.3 986.4 448.2 986.3 448.2C985.4 445.3 986.3 449.1 986.3 448.9C986.1 447.4 985.3 445.8 983.6 445.4C982.2 445.1 980.7 445.4 979.7 446.4C978.5 447.6 978.4 449.1 978.6 450.7C978.8 451.9 980.2 453.3 981.4 453.5C982.3 453.7 982.9 453.7 983.9 453.5C985.3 453.2 986.4 451.8 986.6 450.4C986.7 448.9 986 447.5 984.8 446.7Z" fill="white"/>
</g>
<path d="M1135.7 527.3C1139.3 527.3 1139.3 521.8 1135.7 521.8C1132.1 521.7 1132.1 527.3 1135.7 527.3Z" fill="white"/>
<g opacity="0.12">
<path opacity="0.12" d="M1199.8 454.6C1202.3 454.6 1202.3 450.7 1199.8 450.7C1197.3 450.7 1197.3 454.6 1199.8 454.6Z" fill="white"/>
</g>
<g opacity="0.12">
<path opacity="0.12" d="M1194.1 549.4C1194 549.4 1194 549.4 1193.9 549.4C1194.1 549.5 1194.2 549.6 1194.4 549.7C1194.4 549.5 1194.3 549.5 1194.1 549.4C1193.3 548.6 1191.7 549.2 1191.7 550.5C1191.7 551.8 1193.3 552.4 1194.2 551.5C1194.3 551.4 1194.4 551.4 1194.4 551.3C1194.2 551.4 1194.1 551.5 1193.9 551.6C1194 551.6 1194 551.6 1194.1 551.6C1195.2 551.3 1195.2 549.6 1194.1 549.4Z" fill="white"/>
</g>
<g opacity="0.12">
<path opacity="0.12" d="M1051.4 608.6C1051.8 608.6 1051.8 608 1051.4 608C1051 608 1051 608.6 1051.4 608.6Z" fill="white"/>
</g>
<g opacity="0.12">
<path opacity="0.12" d="M944.3 579.2C945.3 579.2 945.3 577.6 944.3 577.6C943.3 577.6 943.3 579.2 944.3 579.2Z" fill="white"/>
</g>
<g opacity="0.12">
<path opacity="0.12" d="M910.4 496.5C912 496.5 912 493.9 910.4 493.9C908.7 493.9 908.7 496.5 910.4 496.5Z" fill="white"/>
</g>
<g opacity="0.12">
<path opacity="0.12" d="M804.5 617.3C809.1 617.3 809.1 610.1 804.5 610.1C799.9 610 799.9 617.3 804.5 617.3Z" fill="white"/>
</g>
<g opacity="0.12">
<path opacity="0.12" d="M848.5 476.4C849.2 476.4 849.2 475.4 848.5 475.4C847.8 475.4 847.8 476.4 848.5 476.4Z" fill="white"/>
</g>
<g opacity="0.12">
<path opacity="0.12" d="M863.1 586.4C865.7 586.4 865.7 582.4 863.1 582.4C860.5 582.4 860.5 586.4 863.1 586.4Z" fill="white"/>
</g>
<g opacity="0.12">
<path opacity="0.12" d="M687.3 622.6C687.2 622.4 687.1 622.1 686.9 621.9C686.9 622.7 686.9 623.6 686.9 624.4C687 624.2 687.1 624.1 687.2 623.9C688.1 622.4 687.8 620.3 686.6 619C685.9 618.3 685.1 617.8 684.2 617.7C683 617.5 682 617.6 681 618.4C680 619.1 679.7 620.1 679.6 621.3C679.5 622.2 679.7 623.2 680.3 624C681.2 625.4 683.1 626.4 684.9 625.9C685.1 625.8 685.3 625.8 685.5 625.7C684.7 625.5 683.9 625.3 683.1 625.1C683.3 625.3 683.5 625.4 683.7 625.6C684.6 626.3 685.8 626.5 686.7 625.8C687.6 624.8 687.8 623.6 687.3 622.6Z" fill="white"/>
</g>
<g opacity="0.12">
<path opacity="0.12" d="M995.5 627.8C995.4 627.4 995.3 627.1 995.1 626.8C994.3 625.7 992.8 625.7 992 626.8C991.8 627.1 991.7 627.5 991.6 627.8C991.2 629.1 992.2 630.4 993.5 630.4C994.8 630.3 995.8 629 995.5 627.8Z" fill="white"/>
</g>
<g opacity="0.12">
<path opacity="0.12" d="M1035.6 537.3C1035.5 537.3 1035.5 537.3 1035.4 537.3C1033.4 537.2 1031.5 539.1 1031.6 541.1C1031.6 541.2 1031.6 541.2 1031.6 541.3C1031.7 542.9 1032.5 544.3 1034 544.9C1035.4 545.5 1037.3 545.3 1038.3 544.1C1039.2 543.1 1039.7 541.6 1039.3 540.2C1039 538.5 1037.4 537.4 1035.6 537.3Z" fill="white"/>
</g>
<g opacity="0.12">
<path opacity="0.12" d="M1173.9 622.3C1176.5 622.3 1176.5 618.2 1173.9 618.2C1171.3 618.3 1171.3 622.3 1173.9 622.3Z" fill="white"/>
</g>
<g opacity="0.12">
<path opacity="0.12" d="M504.8 355.2C506.4 355.2 506.4 352.8 504.8 352.8C503.3 352.8 503.3 355.2 504.8 355.2Z" fill="white"/>
</g>
<g opacity="0.88">
<path opacity="0.12" d="M592.7 318.1C592.6 317.9 592.6 317.7 592.5 317.6C592.1 316.3 590.2 316.3 589.8 317.6C589.7 317.8 589.7 318 589.6 318.1C589.3 319.1 590.1 320.1 591.1 320.1C592.2 320 593 319 592.7 318.1Z" fill="white"/>
</g>
<g opacity="0.12">
<path opacity="0.12" d="M527.8 408.1C528.1 408.1 528.1 407.7 527.8 407.7C527.5 407.7 527.5 408.1 527.8 408.1Z" fill="white"/>
</g>
<g opacity="0.12">
<path opacity="0.12" d="M516.9 400.9C517.4 400.9 517.4 400.1 516.9 400.1C516.4 400.1 516.4 400.9 516.9 400.9Z" fill="white"/>
</g>
<g opacity="0.12">
<path opacity="0.12" d="M386.1 419.5C387 419.5 387 418.1 386.1 418.1C385.2 418.1 385.2 419.5 386.1 419.5Z" fill="white"/>
</g>
<g opacity="0.12">
<path opacity="0.12" d="M635.6 345.3C636.9 345.3 636.9 343.3 635.6 343.3C634.3 343.3 634.3 345.3 635.6 345.3Z" fill="white"/>
</g>
<g opacity="0.12">
<path opacity="0.12" d="M661.4 384.9C663.5 384.9 663.5 381.7 661.4 381.7C659.3 381.7 659.3 384.9 661.4 384.9Z" fill="white"/>
</g>
<g opacity="0.12">
<path opacity="0.12" d="M690 296.1C692.3 296.1 692.3 292.6 690 292.6C687.8 292.6 687.8 296.1 690 296.1Z" fill="white"/>
</g>
<g opacity="0.12">
<path opacity="0.12" d="M945.2 269.2C947.5 269.2 947.5 265.6 945.2 265.6C942.8 265.6 942.8 269.2 945.2 269.2Z" fill="white"/>
</g>
<g opacity="0.12">
<path opacity="0.12" d="M918.8 334.6C919.6 334.6 919.6 333.3 918.8 333.3C918 333.3 918 334.6 918.8 334.6Z" fill="white"/>
</g>
<g opacity="0.12">
<path opacity="0.12" d="M1009.4 388.3C1011.5 388.3 1011.5 385.1 1009.4 385.1C1007.3 385.1 1007.3 388.3 1009.4 388.3Z" fill="white"/>
</g>
<g opacity="0.12">
<path opacity="0.12" d="M1078.8 271.4C1081 271.4 1081 268.1 1078.8 268.1C1076.6 268.1 1076.6 271.4 1078.8 271.4Z" fill="white"/>
</g>
<path d="M1085.1 232.2C1087 232.2 1087 229.3 1085.1 229.3C1083.2 229.3 1083.2 232.2 1085.1 232.2Z" fill="white"/>
<g opacity="0.12">
<path opacity="0.12" d="M971 116C971.7 116 971.7 115 971 115C970.3 115 970.3 116 971 116Z" fill="white"/>
</g>
<g opacity="0.12">
<path opacity="0.12" d="M898.7 119.3C899.9 119.3 899.9 117.4 898.7 117.4C897.5 117.4 897.5 119.3 898.7 119.3Z" fill="white"/>
</g>
<g opacity="0.12">
<path opacity="0.12" d="M1165.3 113C1166.5 113 1166.5 111.2 1165.3 111.2C1164.2 111.2 1164.2 113 1165.3 113Z" fill="white"/>
</g>
<g opacity="0.12">
<path opacity="0.12" d="M1156.7 505.2C1158 505.2 1158 503.2 1156.7 503.2C1155.4 503.2 1155.4 505.2 1156.7 505.2Z" fill="white"/>
</g>
<g opacity="0.12">
<path opacity="0.12" d="M1105.7 571.5C1105.9 571.5 1105.9 571.2 1105.7 571.2C1105.5 571.2 1105.5 571.5 1105.7 571.5Z" fill="white"/>
</g>
<g opacity="0.8">
<path opacity="0.12" d="M1124.6 576.2C1125 576.2 1125 575.5 1124.6 575.5C1124.2 575.6 1124.2 576.2 1124.6 576.2Z" fill="white"/>
</g>
<g opacity="0.8">
<path opacity="0.12" d="M932.8 612.7C935.2 612.7 935.2 608.9 932.8 608.9C930.3 608.9 930.3 612.7 932.8 612.7Z" fill="white"/>
</g>
<g opacity="0.8">
<path opacity="0.12" d="M842.5 532.8C844.6 532.8 844.6 529.5 842.5 529.5C840.4 529.5 840.4 532.8 842.5 532.8Z" fill="white"/>
</g>
<g opacity="0.8">
<path opacity="0.12" d="M969.8 535.3C970.7 535.3 970.7 533.9 969.8 533.9C968.9 533.9 968.9 535.3 969.8 535.3Z" fill="white"/>
</g>
<g opacity="0.88">
<path opacity="0.12" d="M378.1 224.202C380.8 224.202 380.8 220.002 378.1 220.002C375.3 219.902 375.3 224.202 378.1 224.202Z" fill="white"/>
</g>
<path d="M233.425 284.013C233.225 284.013 233.025 284.113 232.825 284.113C231.725 284.313 231.725 286.213 232.825 286.413C233.025 286.413 233.225 286.513 233.425 286.513C234.225 286.613 235.025 286.113 235.025 285.313C235.025 284.413 234.225 283.913 233.425 284.013Z" fill="white"/>
<path d="M63.7 512.5C63.9 511.4 63.5 512.1 62.4 514.8C62.8 514.3 63.2 513.8 63.6 513.3C62.8 514.1 62 514.9 61.2 515.7C60.8 515.8 60.4 516 60 516.1C59.1 516.1 58.2 516.1 57.3 516.1C57.6 516.2 58.5 516.3 58.9 516.3C60.7 516.3 62.3 515.4 63.4 514C65.3 511.5 65.2 507.6 62.8 505.3C60.5 503.1 56.9 502.4 54.1 504.1C51.1 505.9 50.2 509.3 50.9 512.5C51.4 515.2 54.6 517.5 57.3 517.4C60 517.2 63.1 515.4 63.7 512.5Z" fill="white"/>
<g opacity="0.8">
<path opacity="0.12" d="M624.6 589.8C625.3 589.8 625.3 588.8 624.6 588.8C623.9 588.8 624 589.8 624.6 589.8Z" fill="white"/>
</g>
<g opacity="0.88">
<path opacity="0.12" d="M686.3 419.1C688.4 419.1 688.4 415.8 686.3 415.8C684.2 415.8 684.2 419.1 686.3 419.1Z" fill="white"/>
</g>
<g opacity="0.8">
<path opacity="0.12" d="M518.3 441.3C518.1 441.3 517.9 441.3 517.7 441.2C516.6 441.1 515.7 442.2 515.7 443.2C515.7 444.2 516.6 445.3 517.7 445.2C517.9 445.2 518.1 445.2 518.3 445.1C519.3 445 520.2 444.3 520.2 443.2C520.2 442.1 519.3 441.4 518.3 441.3Z" fill="white"/>
</g>
<g opacity="0.88">
<path opacity="0.12" d="M495.7 518.2C497.5 518.2 497.5 515.5 495.7 515.5C493.9 515.5 493.9 518.2 495.7 518.2Z" fill="white"/>
</g>
<g opacity="0.88">
<path opacity="0.12" d="M510.6 589.6C512.7 589.6 512.7 586.3 510.6 586.3C508.4 586.3 508.4 589.6 510.6 589.6Z" fill="white"/>
</g>
<g opacity="0.88">
<path opacity="0.12" d="M319.7 585.6C320.8 585.6 320.8 583.9 319.7 583.9C318.6 583.8 318.5 585.6 319.7 585.6Z" fill="white"/>
</g>
<g opacity="0.88">
<path opacity="0.12" d="M345.2 540.9C346.9 540.9 346.9 538.3 345.2 538.3C343.5 538.2 343.5 540.9 345.2 540.9Z" fill="white"/>
</g>
<g opacity="0.88">
<path opacity="0.12" d="M288 300.7C289.1 300.7 289.1 299 288 299C286.9 299 286.9 300.7 288 300.7Z" fill="white"/>
</g>
<path opacity="0.12" d="M206.7 606.7C208.3 606.7 208.3 604.2 206.7 604.2C205.1 604.3 205.1 606.7 206.7 606.7Z" fill="white"/>
<g opacity="0.88">
<path opacity="0.12" d="M152.95 254C155.55 254 155.55 250 152.95 250C150.35 250 150.35 254 152.95 254Z" fill="white"/>
</g>
<g opacity="0.88">
<path opacity="0.12" d="M102.4 508C104.7 508 104.7 504.4 102.4 504.4C100.1 504.4 100.1 508 102.4 508Z" fill="white"/>
</g>
<g opacity="0.88">
<path opacity="0.12" d="M33.5 387.8C34.1 386.8 34.6 385.9 35.2 384.9C35.8 384 35.4 382.7 34.5 382.1C33.5 381.5 32.3 381.9 31.7 382.8C31.1 383.8 30.6 384.7 30 385.7C29.4 386.6 29.8 387.9 30.7 388.5C31.7 389.1 33 388.7 33.5 387.8Z" fill="white"/>
</g>
<path d="M1158.6 319.3C1163.9 319.3 1163.9 311.1 1158.6 311.1C1153.3 311.2 1153.3 319.3 1158.6 319.3Z" fill="white"/>
</g>
<g clip-path="url(#clip4_316_2)">
<path d="M80.8218 568.42C83.8832 570.172 86.9445 572.976 86.3322 576.247C85.72 579.401 81.9239 580.92 78.7401 582.088C71.8827 584.775 65.6376 589.214 60.8619 594.587C59.6373 595.989 58.4128 597.624 58.4128 599.494C58.4128 603.115 62.4538 605.101 66.0049 606.386C72.6174 608.722 79.2299 611.175 85.72 613.512C91.8427 615.731 98.8225 618.885 100.17 624.96C101.272 630.217 97.2306 635.473 92.3325 638.043C86.4547 641.197 78.6177 641.431 73.2297 637.576C67.8417 633.721 66.2498 625.31 70.7806 620.521C67.9642 619.469 65.0253 618.301 61.9639 618.418C58.9026 618.535 55.7188 620.404 55.1065 623.324C54.0045 628.698 61.719 631.618 64.2906 636.525C67.3519 642.132 62.2089 649.375 55.8413 651.01C49.4737 652.762 42.6163 650.543 36.616 647.856C31.1056 645.403 25.5952 642.366 21.5542 637.927C11.7579 627.413 11.8804 611.876 12.4926 597.858L10.166 595.755C5.26787 603.349 1.96162 612.11 0.614632 621.455C-3.18143 648.557 10.5334 674.023 33.5547 687.34C35.0241 681.032 38.3304 674.958 43.9633 671.57C50.5758 667.715 60.617 669.117 64.1681 675.659C65.5151 678.229 65.76 681.266 66.8621 684.07C69.1887 689.677 75.5563 693.532 81.9239 693.065C88.2915 692.597 93.9244 687.925 95.3938 682.084C96.7408 676.476 94.6591 670.168 97.7204 665.262C99.8022 661.991 103.721 660.239 107.394 658.72C114.986 655.566 122.701 652.412 130.293 649.258C132.497 648.323 135.314 647.506 137.151 649.024C138.13 645.87 138.865 642.599 139.355 639.328C144.498 602.881 117.68 569.238 79.4748 564.331C76.6584 563.981 73.842 563.747 71.0255 563.747C74.3318 565.149 77.638 566.551 80.8218 568.42Z" fill="#4D88C9"/>
<path d="M21.6765 638.16C25.7175 642.599 31.2279 645.52 36.7383 648.09C42.7386 650.777 49.4735 652.996 55.9636 651.244C62.3312 649.492 67.3518 642.366 64.4129 636.758C61.8413 631.852 54.1268 628.932 55.2288 623.558C55.8411 620.638 59.0249 618.885 62.0862 618.652C65.1476 618.535 68.0865 619.586 70.9029 620.754C66.3721 625.544 67.964 633.838 73.352 637.81C78.74 641.665 86.577 641.431 92.4548 638.277C97.3529 635.59 101.394 630.45 100.292 625.193C99.0673 619.002 91.965 615.848 85.8423 613.745C79.2298 611.409 72.6173 608.956 66.1272 606.619C62.5761 605.334 58.5351 603.232 58.5351 599.727C58.5351 597.858 59.7596 596.339 60.9842 594.821C65.7599 589.33 71.8826 585.008 78.8624 582.321C82.0462 581.036 85.8423 579.635 86.4545 576.481C87.1893 573.21 84.0055 570.406 80.9441 568.654C77.7603 566.901 74.4541 565.383 71.0254 564.331C45.9224 563.981 23.0235 576.597 10.4108 596.34L12.7374 598.442C12.0027 612.227 11.8802 627.763 21.6765 638.16Z" fill="#65B37B"/>
<path d="M551.414 46.4155C559.406 38.7912 559.406 26.4295 551.414 18.8051C543.421 11.1808 530.463 11.1808 522.471 18.8052C514.479 26.4296 514.479 38.7911 522.471 46.4155C530.463 54.0399 543.421 54.0399 551.414 46.4155Z" fill="#7EA1F4"/>
<mask id="mask0_316_2" style="mask-type:alpha" maskUnits="userSpaceOnUse" x="1119" y="147" width="100" height="96">
<path d="M1218.5 194.699C1218.5 220.744 1196.36 241.897 1169 241.897C1141.64 241.897 1119.5 220.744 1119.5 194.699C1119.5 168.654 1141.64 147.5 1169 147.5C1196.36 147.5 1218.5 168.654 1218.5 194.699Z" fill="#D9D9D9" stroke="black"/>
</mask>
<g mask="url(#mask0_316_2)">
<path d="M1169 242.397C1196.61 242.397 1219 221.042 1219 194.699C1219 168.355 1196.61 147 1169 147C1141.39 147 1119 168.355 1119 194.699C1119 221.042 1141.39 242.397 1169 242.397Z" fill="url(#paint0_linear_316_2)"/>
<path opacity="0.2" d="M1177.64 277.446C1186.64 275.821 1194.67 270.483 1200.39 263.635C1206.1 256.788 1209.75 248.548 1212.31 240.192C1214.5 232.997 1215.96 225.337 1214.38 217.91C1211.58 204.679 1199.78 195.047 1192.72 183.325C1185.42 171.256 1183.11 156.865 1184.57 143.054C1186.15 129.244 1191.38 116.013 1198.44 103.827C1202.21 97.0962 1207.2 90.249 1214.74 87.8118C1217.3 88.7403 1218.03 92.1059 1216.81 94.427C1215.59 96.7481 1213.04 98.1407 1210.48 98.9531C1202.94 101.274 1194.55 99.8816 1187 101.971C1175.81 104.988 1168.15 115.317 1165.84 126.226C1163.53 137.019 1165.96 148.277 1169.49 158.838C1173.5 170.675 1179.22 182.165 1186.15 192.726C1191.75 201.082 1198.32 209.322 1200.75 218.954C1203.06 228.239 1201.12 238.103 1196.13 246.459C1191.26 254.699 1183.48 261.314 1174.72 265.724" fill="#6277C0"/>
<path opacity="0.2" d="M1164.62 114.04C1157.69 117.638 1153.67 125.066 1153.18 132.609C1152.7 140.037 1155.37 147.464 1159.15 153.963C1162.07 158.954 1165.84 164.176 1165.11 169.863C1164.99 170.907 1164.62 171.952 1163.89 172.648C1162.43 173.925 1160.24 173.693 1158.29 173.228C1139.07 168.586 1122.89 156.517 1107.32 144.795" fill="#6277C0"/>
<path opacity="0.2" d="M1170.22 256.324C1173.62 253.771 1175.2 249.593 1176.3 245.647C1182.26 224.757 1178.73 200.269 1162.31 185.298C1156.47 179.96 1147.95 175.898 1140.29 178.683C1133.11 181.236 1129.46 188.896 1127.88 196.091C1124.35 212.107 1127.88 229.515 1137.61 243.094" fill="#6277C0"/>
<path opacity="0.2" d="M1248.93 272.804C1255.37 264.448 1258.05 253.655 1256.47 243.326C1254.89 232.997 1248.81 223.596 1240.05 217.329C1232.63 212.107 1223.62 209.322 1216.2 204.099C1206.35 197.252 1200.02 186.459 1196.49 175.317C1192.97 164.408 1191.75 152.455 1195.28 141.545C1198.81 130.636 1207.32 120.772 1218.76 117.406C1230.19 114.04 1244.18 118.102 1250.14 128.083C1251.24 129.824 1251.97 132.261 1250.51 133.77C1249.78 134.582 1248.44 134.93 1247.35 135.046C1240.9 135.975 1234.45 133.538 1227.88 133.073C1218.15 132.493 1207.32 137.367 1204.28 146.188C1202.33 151.758 1203.55 157.909 1205.01 163.596C1206.96 171.139 1210.12 179.263 1217.3 182.861C1222.28 185.414 1228.37 185.298 1234.09 185.53C1243.21 185.878 1252.82 187.503 1259.88 192.958C1265.11 197.02 1268.51 202.706 1270.58 208.857C1275.2 221.972 1273.74 236.827 1266.93 249.013" fill="#6277C0"/>
<path opacity="0.2" d="M1148.44 207.465C1146.62 206.768 1145.28 205.26 1144.06 203.867C1140.9 200.153 1138.1 195.627 1139.19 190.985C1139.8 188.316 1141.75 185.995 1144.3 184.834C1146.86 183.673 1150.02 183.557 1152.58 184.718C1157.93 187.155 1162.67 195.743 1163.16 201.198C1163.65 207.813 1153.79 209.67 1148.44 207.465Z" fill="#6277C0"/>
<path opacity="0.2" d="M1211.09 257.252C1188.83 251.45 1168.76 238.103 1155.86 219.883C1142.84 201.662 1137.13 178.915 1140.29 157.097C1143.94 132.145 1158.54 109.978 1172.89 88.7403C1168.76 90.1329 1165.72 93.2664 1162.67 96.2839C1137.73 121.584 1112.07 148.509 1103.31 182.165C1101.48 189.244 1100.39 196.44 1101.12 203.751C1102.58 220.695 1113.4 236.014 1127.27 246.575C1141.14 257.136 1158.05 263.519 1175.2 268.394C1189.07 272.34 1203.67 275.473 1218.03 273.732" fill="#6277C0"/>
</g>
<path d="M841.362 56.2115C837.56 58.6293 832.386 57.6219 829.851 53.9951C827.317 50.3682 828.373 45.4317 832.175 43.0138C835.976 40.5959 841.151 41.6034 843.686 45.2302C846.22 48.9578 845.164 53.8943 841.362 56.2115Z" fill="url(#paint1_linear_316_2)"/>
<path d="M1048.76 565.35C1058.42 565.35 1066.26 557.875 1066.26 548.655C1066.26 539.435 1058.42 531.96 1048.76 531.96C1039.09 531.96 1031.26 539.435 1031.26 548.655C1031.26 557.875 1039.09 565.35 1048.76 565.35Z" fill="url(#paint2_linear_316_2)"/>
<path d="M241.185 63.9021C241.185 79.1895 228.199 91.5775 212.175 91.5775C196.15 91.5775 183.164 79.1895 183.164 63.9021C183.164 48.6147 196.15 36.2266 212.175 36.2266C228.199 36.2266 241.185 48.6147 241.185 63.9021Z" fill="#CD6E95"/>
<path d="M184.131 72.2047C176.395 70.6232 175.013 79.9802 179.848 84.0656C187.999 90.9186 205.682 84.1974 214.247 81.1663C225.437 77.2126 236.212 70.6232 242.429 60.6074C246.02 54.6769 247.264 43.0796 237.041 43.3432C236.35 43.3432 236.35 44.5292 237.041 44.3975C244.086 48.8782 245.744 53.7544 242.152 59.0259C241.462 60.3438 240.494 61.6617 239.527 62.8478C237.87 64.9564 236.074 66.9332 234.002 68.7782C229.719 72.6001 224.746 75.6312 219.358 77.8716C214.385 80.112 208.997 81.6934 203.609 83.0113C201.261 83.5384 198.912 84.0656 196.564 84.461C194.077 84.9881 191.591 85.2517 189.104 85.5153C180.263 86.1742 178.467 81.8252 183.855 72.7318C184.407 72.8636 184.545 72.3365 184.131 72.2047Z" fill="white"/>
<g opacity="0.8">
<path opacity="0.12" d="M1064.65 61.5C1066.95 61.5 1066.95 58 1064.65 58C1062.45 58 1062.45 61.5 1064.65 61.5Z" fill="white"/>
</g>
<path d="M1066.28 16.6C1067.98 16.6 1067.98 14 1066.28 14C1064.58 14 1064.58 16.6 1066.28 16.6Z" fill="white"/>
</g>
</g>
<defs>
<linearGradient id="paint0_linear_316_2" x1="1129.32" y1="221.628" x2="1207.21" y2="164.11" gradientUnits="userSpaceOnUse">
<stop stop-color="#DC3D7B"/>
<stop offset="1" stop-color="#EFC55C"/>
</linearGradient>
<linearGradient id="paint1_linear_316_2" x1="828.646" y1="50.163" x2="844.964" y2="49.3193" gradientUnits="userSpaceOnUse">
<stop stop-color="#DC3D7B"/>
<stop offset="1" stop-color="#EFC55C"/>
</linearGradient>
<linearGradient id="paint2_linear_316_2" x1="1031.42" y1="549.942" x2="1065.95" y2="548.157" gradientUnits="userSpaceOnUse">
<stop stop-color="#DC3D7B"/>
<stop offset="1" stop-color="#EFC55C"/>
</linearGradient>
<clipPath id="clip0_316_2">
<rect width="1200" height="630" fill="white"/>
</clipPath>
<clipPath id="clip1_316_2">
<rect width="1416.8" height="746.9" fill="white" transform="translate(-108 -58)"/>
</clipPath>
<clipPath id="clip2_316_2">
<rect width="1137.2" height="565.5" fill="white" transform="translate(31 32)"/>
</clipPath>
<clipPath id="clip3_316_2">
<rect width="1238" height="771.2" fill="white" transform="translate(-19 -69)"/>
</clipPath>
<clipPath id="clip4_316_2">
<rect width="1200" height="757" fill="white" transform="translate(0 -67)"/>
</clipPath>
</defs>
</svg>
