<svg width="253" height="69" viewBox="0 0 253 69" fill="none" xmlns="http://www.w3.org/2000/svg">
<path d="M18.7632 26.2177H28.8278V54.9017C28.8278 57.5617 28.1808 59.934 26.9587 62.0188C25.7366 64.1036 24.0112 65.6852 21.7826 66.8354C19.554 67.9857 17.1098 68.5608 14.378 68.5608C9.8489 68.5608 6.25441 67.4106 3.73827 65.1101C1.22213 62.8096 0 59.5746 0 55.3331H10.0646C10.0646 57.2741 10.424 58.64 11.071 59.5027C11.718 60.3654 12.8683 60.7967 14.378 60.7967C15.7439 60.7967 16.8222 60.2935 17.613 59.2151C18.3319 58.1368 18.7632 56.699 18.7632 54.8298V26.2177ZM53.1266 56.9147C53.1266 55.4769 52.6233 54.2547 51.545 53.4639C50.4666 52.6732 48.6694 51.8105 46.0814 50.8759C43.4214 50.0132 41.3366 49.1506 39.6832 48.2879C34.2914 45.6279 31.5596 41.9616 31.5596 37.3606C31.5596 35.0601 32.2066 32.9753 33.5725 31.25C34.9385 29.4527 36.8076 28.0868 39.3237 27.0804C41.768 26.0739 44.5717 25.6426 47.5911 25.6426C50.6104 25.6426 53.2704 26.1458 55.6427 27.2242C58.0151 28.3025 59.8842 29.8122 61.1782 31.8251C62.4723 33.7661 63.1912 36.0666 63.1912 38.5827H53.1985C53.1985 36.8574 52.6952 35.5634 51.6169 34.6288C50.5385 33.6942 49.1726 33.2629 47.3754 33.2629C45.5781 33.2629 44.1403 33.6223 43.1339 34.4131C42.0555 35.2039 41.5523 36.2104 41.5523 37.4325C41.5523 38.5109 42.1274 39.4454 43.2777 40.3081C44.4279 41.1708 46.4408 42.1053 49.3164 43.0399C52.192 43.9745 54.5644 44.9809 56.4335 46.0593C60.9626 48.6473 63.1912 52.2418 63.1912 56.7709C63.1912 60.4373 61.8252 63.3128 59.0215 65.3977C56.2897 67.4825 52.4796 68.4889 47.663 68.4889C44.2841 68.4889 41.1929 67.9138 38.4611 66.6917C35.7292 65.4695 33.6444 63.8161 32.2785 61.6594C30.9126 59.5746 30.1937 57.1303 30.1937 54.3266H40.2583C40.2583 56.5552 40.8334 58.2087 41.9837 59.287C43.1339 60.3654 45.003 60.8686 47.5911 60.8686C49.2445 60.8686 50.5385 60.5091 51.545 59.7902C52.6233 59.2151 53.1266 58.2087 53.1266 56.9147Z" fill="#0098FF"/>
<path d="M101.292 67.9848H91.2997V50.5156H76.4904V67.9848H66.4258V26.2168H76.4904V42.8233H91.2997V26.2168H101.292V67.9848ZM119.912 68.5599C115.167 68.5599 111.285 67.1221 108.338 64.3184C105.39 61.5147 103.952 57.7764 103.952 53.2474V52.4566C103.952 49.2934 104.527 46.4897 105.75 44.0455C106.972 41.6012 108.625 39.7321 110.926 38.4381C113.154 37.1441 115.886 36.4252 118.977 36.4252C123.363 36.4252 126.741 37.7911 129.329 40.451C131.846 43.1828 133.14 46.9211 133.14 51.7377V55.476H113.945C114.304 57.2013 115.023 58.5672 116.174 59.5737C117.324 60.5801 118.833 61.0834 120.703 61.0834C123.794 61.0834 126.166 60.005 127.892 57.8483L132.277 63.0244C131.055 64.6779 129.401 65.9719 127.173 66.9783C124.8 68.0567 122.428 68.5599 119.912 68.5599ZM118.833 43.8298C116.03 43.8298 114.304 45.6989 113.801 49.4372H123.578V48.7183C123.65 47.1367 123.219 45.9865 122.428 45.1238C121.493 44.2611 120.343 43.8298 118.833 43.8298ZM154.491 45.6989L151.328 45.4833C148.308 45.4833 146.295 46.4178 145.433 48.3589V67.9848H135.728V36.9284H144.786L145.145 40.8823C146.799 37.863 149.027 36.3533 151.903 36.3533C152.909 36.3533 153.844 36.497 154.635 36.7127L154.491 45.6989ZM154.994 52.169C154.994 49.0778 155.569 46.2741 156.791 43.9017C158.013 41.4574 159.739 39.5883 161.967 38.2943C164.196 37.0003 166.856 36.3533 169.947 36.3533C174.62 36.3533 178.286 37.7911 180.946 40.6667C183.606 43.5422 184.972 47.4243 184.972 52.3847V52.7441C184.972 57.5608 183.606 61.4428 180.946 64.2465C178.286 67.0502 174.62 68.488 170.019 68.488C165.634 68.488 162.039 67.194 159.379 64.5341C156.719 61.8741 155.282 58.2797 155.066 53.7506L154.994 52.169ZM164.627 52.7441C164.627 55.6197 165.059 57.7045 165.993 59.0704C166.928 60.4364 168.222 61.0834 169.947 61.0834C173.398 61.0834 175.123 58.4234 175.195 53.1036V52.0971C175.195 46.5616 173.398 43.7579 169.875 43.7579C166.64 43.7579 164.915 46.1303 164.627 50.9469V52.7441ZM203.016 68.5599C198.272 68.5599 194.39 67.1221 191.442 64.3184C188.495 61.5147 187.057 57.7764 187.057 53.2474V52.4566C187.057 49.2934 187.632 46.4897 188.854 44.0455C190.004 41.6012 191.73 39.7321 194.03 38.4381C196.259 37.1441 198.991 36.4252 202.082 36.4252C206.467 36.4252 209.846 37.7911 212.434 40.451C214.95 43.1828 216.244 46.9211 216.244 51.7377V55.476H197.05C197.409 57.2013 198.128 58.5672 199.278 59.5737C200.428 60.5801 201.938 61.0834 203.807 61.0834C206.898 61.0834 209.271 60.005 210.996 57.8483L215.382 63.0244C214.159 64.6779 212.506 65.9719 210.277 66.9783C207.905 68.0567 205.533 68.5599 203.016 68.5599ZM201.938 43.8298C199.134 43.8298 197.409 45.6989 196.906 49.4372H206.683V48.7183C206.755 47.1367 206.323 45.9865 205.533 45.1238C204.598 44.2611 203.448 43.8298 201.938 43.8298ZM235.007 59.2861C235.007 58.4953 234.576 57.7764 233.713 57.3451C232.851 56.8419 231.197 56.3386 228.825 55.7635C226.381 55.2603 224.44 54.5414 222.858 53.6787C221.276 52.816 220.126 51.7377 219.264 50.5156C218.473 49.2934 218.041 47.8556 218.041 46.2022C218.041 43.3985 219.264 41.0261 221.564 39.157C223.936 37.2878 226.956 36.4252 230.766 36.4252C234.864 36.4252 238.171 37.3597 240.615 39.2289C243.131 41.098 244.353 43.5422 244.353 46.5616H234.648C234.648 44.0455 233.354 42.8233 230.694 42.8233C229.688 42.8233 228.825 43.1109 228.106 43.686C227.387 44.2611 227.1 44.9082 227.1 45.7708C227.1 46.6335 227.531 47.3524 228.322 47.8556C229.184 48.3589 230.478 48.8621 232.348 49.1497C234.217 49.5091 235.798 49.8686 237.236 50.3718C241.909 51.9534 244.209 54.829 244.209 58.9986C244.209 61.8023 242.987 64.1746 240.471 65.9C237.955 67.6972 234.72 68.5599 230.694 68.5599C228.034 68.5599 225.662 68.0567 223.577 67.1221C221.492 66.1875 219.911 64.8935 218.688 63.2401C217.538 61.5866 216.963 59.8612 216.963 58.064H226.021C226.093 59.5018 226.524 60.5801 227.459 61.2271C228.394 61.8742 229.544 62.2336 230.982 62.2336C232.276 62.2336 233.282 61.946 233.929 61.4428C234.72 60.7958 235.007 60.0769 235.007 59.2861Z" fill="black"/>
<path d="M108.244 31.4091L108.293 15.9092L117.787 15.9387L117.778 18.9918L120.462 19.0001L120.471 15.9471L126.946 15.9673L126.937 19.0203L129.956 19.0297L129.917 31.4766L126.562 31.4662L126.6 19.3212L120.796 19.3031L120.758 31.4481L117.403 31.4377L117.441 19.2927L111.671 19.2747L111.633 31.4197L108.244 31.4091ZM136.689 31.4977L136.698 28.4783L133.645 28.4688L133.675 19.0413L136.728 19.0508L136.737 15.9978L146.198 16.0272L146.189 19.0803L149.275 19.0899L149.265 22.4113L145.843 22.4006L145.852 19.3812L137.062 19.3538L137.054 22.0378L143.16 22.0568L143.149 25.4453L137.043 25.4263L137.035 28.1438L145.825 28.1712L145.835 25.0846L149.257 25.0953L149.246 28.4838L146.16 28.4742L146.15 31.5272L136.689 31.4977ZM156.347 31.559L156.356 28.5395L153.303 28.53L153.333 19.1025L156.386 19.112L156.395 16.059L165.856 16.0885L165.847 19.1415L168.933 19.1511L168.923 22.4725L165.501 22.4619L165.51 19.4424L156.72 19.415L156.712 22.099L162.818 22.118L162.807 25.5065L156.701 25.4875L156.693 28.205L165.483 28.2324L165.493 25.1459L168.915 25.1565L168.904 28.545L165.818 28.5354L165.808 31.5884L156.347 31.559ZM179.025 31.6296L179.034 28.6101L176.014 28.6007L176.043 19.4752L172.99 19.4657L173 16.1107L176.053 16.1202L176.072 10.0477L179.427 10.0582L179.408 16.1307L188.601 16.1593L188.59 19.5143L179.398 19.4857L179.37 28.2757L188.228 28.3033L188.237 25.2502L191.626 25.2608L191.615 28.6493L188.562 28.6398L188.553 31.6593L179.025 31.6296ZM198.055 31.6889L198.064 28.6694L195.011 28.6599L195.05 16.1794L198.439 16.19L198.401 28.335L207.191 28.3623L207.229 16.2173L210.651 16.228L210.612 28.7085L207.525 28.6989L207.516 31.7184L198.055 31.6889ZM214.641 37.6454L214.699 19.2937L217.752 19.3032L217.761 16.2502L227.222 16.2796L227.213 19.3326L230.299 19.3423L230.27 28.7697L227.183 28.7601L227.174 31.7796L218.048 31.7512L218.03 37.6559L214.641 37.6454ZM218.059 28.3962L226.849 28.4236L226.876 19.6336L218.086 19.6062L218.059 28.3962ZM234.318 31.8018L234.328 28.4469L246.507 28.4848L246.515 25.7673L237.39 25.7389L237.399 22.6858L234.346 22.6763L234.357 19.3549L237.41 19.3644L237.419 16.3114L249.967 16.3505L249.956 19.7054L237.744 19.6674L237.736 22.3514L246.861 22.3798L246.852 25.4328L249.938 25.4424L249.928 28.831L246.841 28.8214L246.832 31.8408L234.318 31.8018Z" fill="#65D4BB"/>
</svg>
