<svg viewBox="0 0 2182.68 255.12" xmlns="http://www.w3.org/2000/svg" xmlns:xlink="http://www.w3.org/1999/xlink"><clipPath id="a"><path d="m0 0h2182.68v255.12h-2182.68z"/></clipPath><g clip-path="url(#a)"><path d="m2.48 79.15h32.05c10.24 0 16.44-1.75 20.99-5.58 4.76-3.83 7.03-9.83 7.03-17.17 0-4.86-1.34-9-3.21-11.68-1.86-2.48-3.82-4.24-6.1-5.9 1.14-1.86 2.69-4.34 4.13-6.82 2.17-3.93 3.51-7.34 3.51-12.2 0-6.31-2.79-11.79-7.45-14.99-4.13-2.79-9.3-3.62-17.27-3.62h-33.68v77.97zm12.51-11.79v-21.92h20.47c4.76 0 7.65.41 10.03 1.86 3.1 2.17 4.34 5.07 4.34 9.1 0 3.62-.93 6.31-3.21 8.17-2.27 1.96-5.58 2.79-11.89 2.79zm0-33.71v-20.68h20.06c4.55 0 7.75.21 9.83 1.45 2.38 1.35 3.31 3.52 3.31 6.62s-1.03 5.27-2.48 7.86c-.93 1.55-1.96 3.31-2.9 4.76h-27.82z"/><path d="m83.76 79.15v-59.25l18.3 43.74h11.48l18.3-43.74v59.25h12.31v-77.97h-16.55l-19.64 47.05-19.75-47.05h-16.76v77.97z"/><path d="m181.69 79.15 12.92-48.7 12.93 48.7h16.44l15.3-77.97h-12.61l-12 61.74-13.34-49.95h-13.34l-13.34 49.95-11.99-61.74h-12.82l15.3 77.97z"/><path d="m58.01 168.98v-40.95h-12.41v30.71c-2.79.31-8.17.93-13.24.93-8.79 0-13.86-2.17-16.65-7.76-2.28-4.55-3-11.27-3-20.37s.83-16.13 3.11-20.79c2.89-6.1 7.34-8.48 16.34-8.48 2.79 0 5.9.41 9.1 1.03 4.86.93 9.93 2.07 14.17 3.1v-12.2c-3.2-.82-7.65-1.86-12.41-2.79-3.83-.72-8.07-1.34-12.1-1.34-14.37 0-20.99 5.38-25.33 12.72-4.14 6.94-5.59 16.25-5.59 28.96s1.55 21.1 5.07 27.2c4.24 7.34 10.44 12.62 25.44 12.62 9 0 20.06-1.34 27.51-2.59"/><path d="m82.42 169.81v-28.44h18.3l16.75 28.44h14.58l-17.89-30.3c1.96-2.07 5.17-5.69 7.65-8.69 4.03-4.96 6.52-9.82 6.52-16.85s-2.48-13.13-6.93-16.85c-4.97-4.24-10.76-5.27-20.27-5.27h-31.23v77.97h12.51zm0-40.43v-25.54h17.37c6.62 0 9.93.52 12.2 2.07 2.69 1.86 3.62 4.55 3.62 8.17 0 4.14-1.76 7.14-4.03 10.03-1.34 1.65-3.1 3.72-4.55 5.27z"/><path d="m166.38 90.08c-15.3 0-22.44 4.96-27.3 13.24-4.03 6.82-5.28 17.27-5.28 27.71 0 12.1 1.86 22.23 5.9 28.75 4.76 7.65 11.48 11.79 26.68 11.79 13.24 0 20.27-3.62 25.75-11.58 4.66-6.62 6.72-17.17 6.72-28.96 0-11.17-1.66-22.23-6.72-29.47-5.37-7.75-12.41-11.48-25.75-11.48m0 12c7.03 0 12.51 1.76 15.82 7.55 3 5.07 3.93 13.03 3.93 21.4s-.93 17.48-4.97 22.65c-3.62 4.65-8.58 5.89-14.79 5.89-7.03 0-12.93-1.14-16.34-7.03-2.69-4.86-3.52-13.24-3.52-21.51s.73-16.54 3.41-21.4c3.41-6.2 9.41-7.55 16.44-7.55"/><path d="m208.16 91.84v47.98c0 11.07 1.24 19.03 6.52 24.61 5.17 5.69 11.99 7.14 22.54 7.14 9.93 0 16.85-1.65 22.13-6.93 5.59-5.59 6.83-13.14 6.83-24.82v-47.98h-12.51v48.29c0 8.17-.52 13.03-3.93 16.23-2.9 2.58-7.35 3.21-12.51 3.21s-9.82-.62-12.61-3.31c-3.41-3.31-3.93-8.17-3.93-16.13v-48.29h-12.51z"/><path d="m290.57 169.81v-27.92c8.17 0 15.1 0 19.44-.31 7.24-.41 13.14-1.96 17.48-6.41 4.55-4.76 6.31-11.48 6.31-18.92s-1.96-13.75-6.1-18.1c-4.34-4.45-9.93-6.31-18.51-6.31h-31.12v77.97h12.51zm0-39.92v-26.06h17.27c4.96 0 7.96.52 10.13 2.69s3.11 5.48 3.11 9.72-.52 7.45-2.58 9.72c-2.07 2.48-5.07 3.31-9.72 3.62-4.76.31-11.27.31-18.2.31"/><path d="m21.55 253.89v-50.03h-19.9v-4.32h44.26v4.32h-19.89v50.03z"/><path d="m58.67 255.12c-8.43 0-12.11-2.23-14.63-6.34-2.02-3.32-2.6-7.57-2.6-13.77 0-4.76.29-9.37 2.52-13.55 2.09-3.89 6.06-6.85 13.77-6.85s11.24 2.81 13.33 6.49c1.58 2.81 1.8 5.98 1.8 8.43 0 1.8-.22 4.9-.72 7.5h-26.24c0 2.74.36 6.49 1.73 9.01 1.95 3.53 5.05 4.9 11.03 4.9 4.32 0 9.23-.94 12.26-1.51v4.25c-2.89.58-8.51 1.44-12.26 1.44m9.45-22.13c.14-1.08.29-2.31.29-3.75 0-2.02-.29-4.33-1.22-5.98-1.66-2.96-4.9-4.47-9.44-4.47-5.05 0-8.22 1.51-10.09 5.12-1.3 2.45-1.73 6.85-1.73 9.08h22.2z"/><path d="m97.6 255.12c-7.06 0-10.45-1.8-12.97-6.06-2.09-3.6-2.88-9.08-2.88-13.91 0-4.54.36-9.3 1.59-12.4 2.16-5.34 5.62-8.15 14.27-8.15 3.6 0 8.36 1.37 11.32 2.24v4.25c-2.74-.79-8.08-2.31-11.32-2.31-5.41 0-8.15 1.16-9.95 5.26-1.08 2.45-1.44 6.92-1.44 10.96 0 4.4.72 9.01 2.16 11.6 1.88 3.39 4.83 4.33 9.23 4.33 3.39 0 8.15-1.08 11.32-1.88v4.25c-3.1.72-7.79 1.8-11.32 1.8"/><path d="m118 253.89v-54.35h4.4v18.82c5.05-2.09 9.23-3.75 13.41-3.75 4.47 0 7.21.79 9.51 3.46 2.09 2.38 2.45 5.98 2.45 11.03v24.8h-4.4v-24.72c0-3.39-.22-6.41-1.59-8.15-1.37-1.73-3.17-2.24-5.98-2.24-4.33 0-9.37 2.24-13.41 4.04v31.07h-4.4z"/><path d="m167.38 253.89-11.39-54.35h4.54l10.52 50.03 11.82-41.81h5.92l11.96 41.81 10.45-50.03h4.54l-11.31 54.35h-6.92l-11.68-40.8-11.53 40.8z"/><path d="m249.55 219.94c2.88 3.96 3.46 9.66 3.46 14.92s-.94 10.45-2.52 13.34c-2.38 4.33-6.56 6.92-13.77 6.92s-10.52-1.88-13.19-5.84c-2.02-3.03-3.1-8.72-3.1-14.13 0-4.4.51-9.16 1.88-12.25 2.24-5.05 6.13-8.29 14.42-8.29 6.05 0 10.02 1.51 12.83 5.34m-22.93 4.24c-1.3 2.67-1.73 6.85-1.73 10.81 0 4.47.72 8.94 2.16 11.46 2.02 3.53 5.05 4.47 9.66 4.47s7.71-1.3 9.51-4.33c1.59-2.67 2.31-7.21 2.31-11.97 0-4.32-.36-8-1.95-10.96-2.02-3.75-5.12-4.9-9.87-4.9-5.19 0-8.22 1.59-10.09 5.41"/><path d="m263.54 253.89v-38.06h4.4v4.76c1.73-1.22 3.17-2.16 5.12-3.1 2.24-1.08 5.19-1.95 8.43-2.52v4.47c-2.6.51-4.76 1.15-7.06 2.16-2.31 1.01-4.54 2.38-6.49 3.75v28.54z"/><path d="m288.33 253.89v-54.35h4.4v32.87l17.52-16.58h6.27l-18.38 17.45 20.04 20.61h-6.13l-19.32-19.82v19.82z"/><path d="m322.79 249.06c3.96.87 9.01 1.88 12.9 1.88 3.1 0 5.62-.22 7.57-1.44s2.88-2.96 2.88-5.19c0-1.51-.36-2.95-1.37-3.96-1.23-1.22-3.32-1.87-5.84-2.67l-6.63-2.09c-3.6-1.15-5.7-1.95-7.21-3.32-1.88-1.66-2.74-4.25-2.74-7.21s.86-5.91 3.53-7.93c2.6-1.95 5.55-2.52 10.16-2.52 4.25 0 10.52 1.51 13.12 2.24v4.25c-2.88-.72-9.37-2.31-13.12-2.31s-5.55.36-7.06 1.44c-1.66 1.22-2.16 2.96-2.16 4.83 0 1.73.36 3.32 1.58 4.18 1.08.79 2.74 1.37 5.41 2.24l7.14 2.23c3.68 1.15 5.48 1.95 7.06 3.53 1.59 1.59 2.6 4.18 2.6 6.85 0 3.32-1.23 6.49-4.04 8.43-2.74 1.88-5.91 2.6-10.89 2.6s-9.73-1.08-12.9-1.8v-4.25z"/><path d="m380.53 253.89v-54.35h18.45c7.28 0 11.39.72 14.56 2.96 3.24 2.31 4.76 6.34 4.76 10.74 0 4.76-2.16 8.15-4.83 11.17-2.09 2.31-4.76 5.05-6.34 6.63l13.91 22.85h-5.33l-13.7-22.56h-17.01v22.56zm24.37-26.89c1.95-2.02 3.46-3.6 4.83-5.19 2.09-2.38 3.97-5.12 3.97-8.51s-1.01-6.2-3.89-7.86c-2.24-1.3-5.26-1.59-10.88-1.59h-13.91v23.14h19.9z"/><path d="m454.78 219.94c2.88 3.96 3.46 9.66 3.46 14.92s-.94 10.45-2.52 13.34c-2.38 4.33-6.56 6.92-13.77 6.92s-10.52-1.88-13.19-5.84c-2.02-3.03-3.1-8.72-3.1-14.13 0-4.4.51-9.16 1.88-12.25 2.23-5.05 6.13-8.29 14.42-8.29 6.05 0 10.02 1.51 12.83 5.34m-22.93 4.24c-1.3 2.67-1.73 6.85-1.73 10.81 0 4.47.72 8.94 2.16 11.46 2.02 3.53 5.05 4.47 9.66 4.47s7.71-1.3 9.51-4.33c1.59-2.67 2.31-7.21 2.31-11.97 0-4.32-.36-8-1.95-10.96-2.02-3.75-5.12-4.9-9.87-4.9-5.19 0-8.22 1.59-10.09 5.41"/><path d="m468.76 253.89v-38.06h4.4v2.96c4.76-2.31 8.79-4.18 12.9-4.18s6.13.72 8 2.31c.93.79 1.66 2.09 1.87 2.67 3.68-2.09 8.94-4.97 13.7-4.97 4.47 0 6.99.87 9.01 3.39s2.38 6.2 2.38 11.24v24.65h-4.4v-24.58c0-3.46-.14-6.27-1.37-8.15-1.3-1.95-3.1-2.38-5.62-2.38-4.11 0-9.23 2.88-12.54 4.76v30.35h-4.4v-25.88c0-3.32-.14-5.48-1.15-6.99-1.15-1.73-2.88-2.24-5.48-2.24-4.11 0-9.15 2.59-12.9 4.54v30.56z"/><path d="m558.22 253.89v-6.42c-1.37 1.23-2.74 2.38-4.47 3.68-3.39 2.45-6.06 3.97-9.37 3.97-5.77 0-8.65-2.38-10.53-5.98-1.59-3.03-2.38-8.72-2.38-14.42s.87-10.67 3.03-14.06c3.03-4.69 7.21-6.06 13.05-6.06 4.61 0 9.44 1.8 15.07 3.89v35.39h-4.4zm0-32.51c-3.53-1.3-7.06-2.59-10.67-2.59-4.69 0-7.57 1.23-9.44 4.54-1.51 2.67-2.16 6.99-2.16 11.39s.5 9.37 1.59 11.75c1.37 3.03 3.32 4.47 6.85 4.47 2.38 0 4.76-1.3 7.35-3.32 2.23-1.73 4.68-3.82 6.49-5.41v-20.83z"/><path d="m574.59 253.89v-38.06h4.4v2.81c4.97-2.16 9.66-4.04 13.84-4.04s7.07.72 9.3 3.46c2.09 2.52 2.45 6.27 2.45 11.03v24.8h-4.4v-24.8c0-3.39-.22-6.2-1.51-8-1.3-1.73-3.1-2.31-5.84-2.31-4.32 0-9.87 2.52-13.84 4.33v30.78z"/><path d="m616.32 199.54h4.69v9.52h-4.69zm.15 16.29h4.4v38.06h-4.4z"/><path d="m658.13 253.89v-6.42c-1.37 1.23-2.74 2.38-4.47 3.68-3.39 2.45-6.06 3.97-9.37 3.97-5.77 0-8.65-2.38-10.53-5.98-1.59-3.03-2.38-8.72-2.38-14.42s.87-10.67 3.03-14.06c3.03-4.69 7.21-6.06 13.05-6.06 4.61 0 9.44 1.8 15.07 3.89v35.39h-4.4zm0-32.51c-3.53-1.3-7.06-2.59-10.67-2.59-4.69 0-7.57 1.23-9.44 4.54-1.51 2.67-2.16 6.99-2.16 11.39s.5 9.37 1.59 11.75c1.37 3.03 3.32 4.47 6.85 4.47 2.38 0 4.76-1.3 7.35-3.32 2.23-1.73 4.68-3.82 6.49-5.41v-20.83z"/><path d="m1676.16 26.6c-5.71 0-11.34 1.24-15.31 2.86-3.96-1.63-9.59-2.87-15.31-2.87-25.16 0-47.88 23.79-47.88 56.44 0 35.6 29.07 63.12 63.18 63.12 34.1 0 63.19-27.52 63.19-63.11 0-32.65-22.72-56.44-47.88-56.44m-15.29 19.39c4.85 2.88 11.25 11.24 11.25 20.67 0 6.92-4.56 12.36-11.25 12.36s-11.25-5.44-11.25-12.36c0-9.43 6.41-17.79 11.26-20.67m-.02 84.62c-26.08 0-47.65-20.98-47.65-47.88 0-24.56 17.73-41.34 31.66-40.72-6.6 6.57-10.6 16.15-10.6 25.43 0 15.95 12.66 27.13 26.6 27.13s26.6-11.18 26.6-27.13c0-9.28-4-18.85-10.59-25.43 13.93-.62 31.65 16.16 31.65 40.72 0 26.9-21.58 47.88-47.66 47.88" fill-rule="evenodd"/><path d="m1815.03 53.85v13s18.43 0 19.83 0v48.81h14.04s0-47.36 0-48.81h19.83v-13s-53.7 0-53.7 0z"/><path d="m2046.12 53.87h-35.35s0 13.1 0 13.1h34.42c5.05 0 7.02 2.31 7.02 8.23v2.18c-1.41 0-28.52 0-28.52 0-10.85 0-16.24 5.42-16.25 17.68v2.92c0 12.61 5.59 17.68 16.83 17.68h41.82s0-40.62 0-40.62c0-15.57-5.14-21.17-19.98-21.17m-20.37 48.59c-2.13 0-4.51-1.08-4.51-6.39s2.35-6.23 4.51-6.23h26.46v12.62c-1.42 0-26.47 0-26.47 0"/><path d="m2162.69 53.88h-35.35s0 13.1 0 13.1h34.42c5.05 0 7.02 2.31 7.02 8.23v2.18c-1.42 0-28.52 0-28.52 0-10.84 0-16.24 5.42-16.24 17.68v2.92c0 12.61 5.59 17.68 16.83 17.68h41.83s0-40.62 0-40.62c0-15.57-5.15-21.17-19.99-21.17m-20.38 48.59c-2.13 0-4.51-1.08-4.51-6.39s2.36-6.23 4.51-6.23h26.46v12.62c-1.41 0-26.47 0-26.47 0"/><path d="m1873.19 53.86v13s18.44 0 19.83 0v48.81h14.05s0-47.36 0-48.81h19.83v-13s-53.7 0-53.7 0z"/><path d="m2068.93 53.87v13s18.43 0 19.82 0v48.81h14.05s0-47.36 0-48.81h19.82v-13s-53.7 0-53.7 0z"/><path d="m2002 94.01v-18.49c0-16.19-6.28-21.65-20.44-21.66h-37.59s0 61.79 0 61.79h38.25c15.03 0 19.79-7.47 19.79-21.64m-14.35.27c0 5.92-2 8.22-7.04 8.22 0 0-21.21 0-22.61 0v-35.48h22.61c5.05 0 7.04 2.31 7.04 8.23z"/><path d="m1795.22 100.93c-.3-.57-19.06-37.12-21.35-40.73-2.65-4.16-5.86-7.05-12.04-7.05-5.73 0-12.52 2.54-12.52 16.3v46.21s13.84 0 13.84 0 0-35.77 0-38.54c0-2.76-.17-6.86-.21-7.69-.03-.68 0-1.32.34-1.52.4-.23.8.14 1.07.65s17.66 34.92 21.35 40.73c2.65 4.16 5.87 7.05 12.04 7.05 5.73 0 12.51-2.54 12.51-16.3v-46.21s-13.84 0-13.84 0v38.54s.16 6.87.2 7.69c.03.68 0 1.32-.34 1.52-.4.23-.79-.14-1.07-.65"/><path d="m1500.88 2.29h2.3v168.16h-2.3z"/><path d="m988.81 0c-47.68 0-86.33 38.65-86.34 86.32 0 47.68 38.64 86.33 86.32 86.34 47.68 0 86.33-38.64 86.34-86.32 0-47.68-38.64-86.34-86.32-86.34m80.71 86.34c0 44.58-36.14 80.71-80.72 80.71-44.57 0-80.71-36.15-80.71-80.72 0-44.58 36.15-80.71 80.72-80.71 44.58 0 80.71 36.15 80.71 80.72"/><path d="m988.81 35.13v2.81c26.68 0 48.39 21.71 48.38 48.39h2.81c0-28.27-22.92-51.2-51.19-51.2m-.01 99.59c-26.68 0-48.39-21.71-48.38-48.39h-2.81c0 28.28 22.92 51.2 51.19 51.2"/><path d="m1030.64 49.71c1.17 1.26 2.86 3.29 3.81 4.52l17.48-11.09c-.87-1.15-2.26-2.88-3.3-4.1l-11.07 7.32-.76.65.57-.83 4.88-9.76-3.45-3.46-9.76 4.89-.82.56.66-.76 7.32-11.07c-1.29-1.1-2.52-2.1-4.11-3.32l-11.1 17.46c1.41 1.08 3.26 2.67 4.44 3.75l10.45-5.42.67-.49-.49.66-5.42 10.46z"/><path d="m990.98 27.57 4.78-10.7.3-.94-.09.99.5 14.29c1.68.16 3.41.39 5.11.67l-.78-21.18c-2.38-.26-4.76-.45-7.14-.55l-4.71 11.68-.17.87-.16-.87-4.7-11.68c-2.38.1-4.75.29-7.14.55l-.78 21.18c1.71-.28 3.44-.51 5.12-.67l.5-14.29-.09-.99.31.94 4.77 10.7h4.35z"/><path d="m952.35 44.44c2.76-2.91 4.33-6.27 1.56-9.48-1.5-1.75-4.03-2.13-6.12-1.26l-.2.08.07-.18c.31-.82.51-3.46-1.74-5.28-1.09-.89-2.47-1.22-3.86-1.08-2.59.26-4.59 2.03-10.02 8.09-1.64 1.83-4.03 4.71-5.46 6.58 0 0 14.92 14.16 14.92 14.16 4.96-5.48 6.97-7.52 10.87-11.62m-19.49-3.47c3.01-3.67 6.2-7 7.65-8.33.46-.42.95-.83 1.56-.99.98-.27 1.99.43 2.22 1.43.23 1.01-.41 1.97-1.11 2.76-1.59 1.79-7.42 7.89-7.42 7.89zm5.84 5.54s5.67-6 7.53-7.92c.73-.76 1.21-1.22 1.72-1.47.66-.32 1.36-.39 2.01.04.63.42.92 1.15.76 1.87-.19.86-.88 1.67-1.47 2.3-.78.84-7.51 8.04-7.52 8.05l-3.02-2.87z"/><path d="m988.81 35.14v51.19s-51.2 0-51.2 0c0-28.29 22.91-51.19 51.2-51.19" fill="#0166b1"/><path d="m1040 86.33c0 28.29-22.91 51.19-51.2 51.19v-51.19s51.2 0 51.2 0z" fill="#0166b1"/><path d="m1233.6 99.93h-5.3v-27.15h7.9l6.92 21.68 6.86-21.68h7.9s0 27.15 0 27.15h-5.47v-20.1s-6.35 20.1-6.35 20.1h-5.92l-6.53-20.25v20.25zm36.06 0h-5.62v-27.15h5.63v27.15zm11.55 0h-5.4v-27.15h6.63l10.82 19.69v-19.69s5.39 0 5.39 0v27.15s-6.63 0-6.63 0l-10.8-19.59v19.59zm29.22 0h-5.61s0-27.15 0-27.15h5.61zm39.89 10.01h-25.75c1.38-3.19 2.46-6.54 3.27-10.01h32.5s8.57-8.56 8.57-8.56h-39.73c.14-1.66.22-3.32.22-5.01s-.09-3.36-.22-5.01h49.73s8.57-8.57 8.57-8.57h-59.64c-.81-3.47-1.89-6.82-3.27-10.02h72.91s8.57-8.57 8.57-8.57h-86.04c-10.66-16.74-29.37-27.88-50.65-27.88s-39.99 11.13-50.65 27.87h-86.04s8.57 8.57 8.57 8.57h72.92c-1.38 3.21-2.47 6.56-3.27 10.02h-59.65s8.57 8.57 8.57 8.57h49.74c-.14 1.65-.23 3.32-.23 5.01s.09 3.35.23 5h-39.72s8.56 8.57 8.56 8.57h32.5c.8 3.47 1.89 6.81 3.27 10.01h-25.76s8.57 8.57 8.57 8.57h21.74c10.66 16.74 29.38 27.89 50.65 27.89 21.28 0 39.99-11.14 50.66-27.88h21.73s8.57-8.57 8.57-8.57zm-80.96 27.87c-28.38 0-51.46-23.08-51.46-51.46s23.09-51.47 51.47-51.46c28.38 0 51.46 23.09 51.46 51.47s-23.09 51.46-51.47 51.45"/></g></svg>