<?xml version="1.0" encoding="UTF-8"?>
<svg id="Ebene_1" xmlns="http://www.w3.org/2000/svg" version="1.1" viewBox="0 0 1803.3 512">
  <!-- Generator: Adobe Illustrator 30.2.1, SVG Export Plug-In . SVG Version: 2.1.1 Build 1)  -->
  <defs>
    <style>
      .st0 {
        fill: #0073aa;
      }
    </style>
  </defs>
  <path class="st0" d="M625.2,249.5c-1.8,1.7-2.9,3.2-5.4,7.3l.3-13c-4.7.4-9.4.6-14,.6h-14.6v3.6h13l.2,14.4v38.7l-.2,12.7h-13v3.6h39.8v-3.6h-11.6v-12.7c-.1,0-.1-18.5-.1-18.5.1-10,.1-24.6,9.7-31.3,4.2-2.9,8.4-3.2,10.3-3.2s4.4.4,6,1.4c3,1.8,5.1,5.2,5.7,12.1.2,3.3.2,6.8.2,10.1v29.3l-.2,12.7h-11.9v3.6h39.1v-3.6h-12.1l-.2-12.7v-18.1c.3-10,.6-21.8,8.5-29.3,4.8-4.5,9.8-5,12.4-5s4.4-.1,6.9,2.1c4.5,3.6,4.5,12.2,4.5,17.2.2,11-.2,22.1-.3,33l-.2,12.9h-11.8v3.6h39.4v-3.6h-12.4l-.2-12.7.4-34.9c0-3.6-.1-7.6-1.2-11.2-1.4-3.9-3.3-6.1-4.7-7.3-5.4-5.1-12.8-5-14.9-5-4.8,0-14.9.4-22.8,10.4-.9,1.2-2,2.9-3.6,5.9-1.1-4.4-1.7-6.2-3-8.2-5.4-8.2-15.2-8.5-18.1-8.5s-12.7.4-19.9,7.1h0Z"/>
  <path class="st0" d="M744.2,256.6c-6.8,10-6.9,19.7-6.9,24,0,16.8,6.3,25.4,11.8,30.2,6.8,6,14,8,22.9,8s17.8,0,26.7-12.4c2.4-3.3,3.6-6.3,5.3-10.1l-3.9-1.4c-1.7,4.5-2.3,5.7-3.8,7.9-2.1,3.2-8.4,11.5-20.1,11.5s-11.5-.8-16.6-8.3c-5.6-8.3-5.4-20.6-5.4-29.9h50.1c-.2-1.8-.3-6.9-2.1-12.2-4.4-13.2-16.1-21.3-30-21.3s-19.2,1.3-27.9,14.1h0ZM762.2,249.3c3.5-2.7,6.8-2.9,8.4-2.9,2.4,0,4.7.6,6.8,1.7,8.4,4.4,8.7,15.7,8.9,23.6l-32,.2c.6-7.4,1.2-17.5,7.8-22.5h0Z"/>
  <path class="st0" d="M823.1,224.4l-.3,20h-11.6v4.2h11.6l-.3,51.4c0,.6-.3,5.9,1.1,9.4,2.4,7.1,9.5,8.9,16.1,8.9s11.3.2,16.6-7.4c.9-1.2,1.7-2.4,3-5.3l-3.2-1.5c-.6,1.2-3.6,8.9-10.7,8.9s-3.2-.4-4.5-1.4c-3.8-2.9-3.8-8.5-3.8-12.7l.2-50.3h16v-4.2h-16l.3-20h-14.5,0Z"/>
  <path class="st0" d="M873.7,256.6c-6.8,10-6.9,19.7-6.9,24,0,16.8,6.3,25.4,11.8,30.2,6.8,6,14,8,22.9,8s17.8,0,26.7-12.4c2.4-3.3,3.6-6.3,5.3-10.1l-3.9-1.4c-1.7,4.5-2.3,5.7-3.8,7.9-2.1,3.2-8.4,11.5-20.1,11.5s-11.5-.8-16.6-8.3c-5.6-8.3-5.4-20.6-5.4-29.9h50.1c-.2-1.8-.3-6.9-2.1-12.2-4.4-13.2-16.1-21.3-30-21.3s-19.2,1.3-27.9,14.1h0ZM891.6,249.3c3.5-2.7,6.8-2.9,8.5-2.9,2.4,0,4.7.6,6.8,1.7,8.4,4.4,8.8,15.7,8.9,23.6l-32,.2c.6-7.4,1.2-17.5,7.8-22.5h0Z"/>
  <path class="st0" d="M980.8,242.2c-9.2,0-19.2,3.9-25.5,10.9-3.9,4.4-9.7,13.5-9.7,28s1.3,11.8,2.3,14.4c3.5,9.8,11,18.1,21.1,21.6,1.8.6,5.7,1.7,11,1.7,16.9,0,25.5-10.6,28.8-15.6,5.7-9.2,6-18.7,6-22.5,0-14.4-6.2-29-19.8-35.4-5.4-2.5-10.2-3.1-13.2-3.1s-.8,0-1.2,0h0ZM964.5,302.2c-1.8-7.1-1.8-20.4-1.8-20.7,0-4.8.3-12.4.9-17.2,2-14.7,9.4-18.1,16.6-18.3,2.1,0,9.7.2,13.7,6.5,2.9,4.5,3.2,11,3.3,12.2.6,5.3.8,10.7.8,16,0,10-.6,18-1.5,21.6-3,11.5-11.6,12.4-16.2,12.4-11.8,0-14.8-8.5-15.8-12.5h0Z"/>
  <path class="st0" d="M1090.8,247.1c-17.5,9.1-18.6,28.6-18.6,34.2,0,20.6,13.1,37.5,34.7,37.5s23.7-8.8,27-13.9c2.1-3.2,3.6-7.3,5-10.9l-3.6-1.1c-.2.8-1.5,5-3.3,8.3-2.1,3.6-8.6,12.8-21.4,12.8s-17.6-8.3-20.2-18.7c-1.4-6-1.4-13-1.4-14.7,0-13.5,2.1-21.9,5.6-26.8,4.2-6.2,10.7-7,13.3-7s9.5.6,12.5,7.6c1.1,2.9,1.1,6.1,1.1,7.1,0,2.9-.3,6.8,2.4,8.8,1.7,1.2,4.1,1.2,4.7,1.2,4.5.2,6.6-2.7,7.4-4.2.4-1.1.6-2.1.6-3.3,0-5.7-4.2-10.9-5.1-11.8-.5-.8-1.1-1.2-1.8-1.8-7.8-7-18.9-7.4-21.7-7.4s-9.8.2-17.1,4.1h0Z"/>
  <path class="st0" d="M1185.9,242.2c-9.2,0-19.2,3.9-25.5,10.9-3.9,4.4-9.7,13.5-9.7,28s1.4,11.8,2.3,14.4c3.5,9.8,11,18.1,21.1,21.6,1.8.6,5.7,1.7,11,1.7,16.9,0,25.5-10.6,28.8-15.6,5.7-9.2,6-18.7,6-22.5,0-14.4-6.2-29-19.8-35.4-5.4-2.5-10.2-3.1-13.2-3.1s-.8,0-1.2,0h0ZM1169.6,302.2c-1.8-7.1-1.8-20.4-1.8-20.7,0-4.8.3-12.4.9-17.2,2-14.7,9.4-18.1,16.6-18.3,2.1,0,9.7.2,13.7,6.5,2.9,4.5,3.2,11,3.3,12.2.6,5.3.8,10.7.8,16,0,10-.6,18-1.5,21.6-3,11.5-11.6,12.4-16.1,12.4-11.8,0-14.8-8.5-15.8-12.5h0Z"/>
  <path class="st0" d="M1286.1,243.1c-11.5,0-18.1,5-21.3,8.6-1.5,1.5-3.5,4.4-4.7,6.2l.3-14.2c-4.8.3-9.7.6-14.5.6h-14.2v3.6h13.1v13.3c.1,0,.1,40.7.1,40.7v11.8h-13.3v3.6h40.4v-3.6h-12.4l-.3-11.8v-19.9c.3-8.5.6-17.4,5.7-24.6,1.4-2,6.6-9.1,15.2-9.1s10.7,8.6,10.9,16c0,3.3.2,6.6.2,10v27.7l-.3,11.8h-11.9v3.6h39.1v-3.6h-11.8l-.2-11.8v-23.6c.5-13.8.8-21.2-2.9-27.1-4.7-8-14.4-8.2-17.2-8.2h-.3Z"/>
  <path class="st0" d="M1337.4,224.4l-.3,20h-11.6v4.2h11.6l-.3,51.4c0,.6-.3,5.9,1.1,9.4,2.4,7.1,9.5,8.9,16.2,8.9s11.3.2,16.6-7.4c.9-1.2,1.7-2.4,3-5.3l-3.2-1.5c-.6,1.2-3.6,8.9-10.7,8.9s-3.2-.4-4.5-1.4c-3.8-2.9-3.8-8.5-3.8-12.7l.2-50.3h16v-4.2h-16l.3-20h-14.5Z"/>
  <path class="st0" d="M1407.4,254.9c-1.1,2-2.1,4.1-3.2,6.2l.3-17.4c-4.7.3-9.4.6-14,.6h-13.9v3.6h12.5l.3,12.6v40.5l-.3,12.7h-12.5v3.6h40.4v-3.6h-12.8l-.3-12.7v-11.3c.3-10.7.4-21.2,5.4-30.8,3.3-6.5,7.6-10.8,10.7-10.9.9,0,1.5.3,1.8.4,2.3.9,2.1,3.3,2.1,4.1,0,2.3-.6,4.5-.6,6.8-.1,6.3,5.3,7.9,7.4,7.9,3.6,0,7.8-2.3,7.8-10s-.6-10.1-7.7-13.1c-2.6-1.2-5-1.2-6-1.2-5.4,0-11.9,2.1-17.5,12.1h0s0,0,0,0h0Z"/>
  <path class="st0" d="M1482.4,242.2c-9.2,0-19.2,3.9-25.5,10.9-3.9,4.4-9.7,13.5-9.7,28s1.4,11.8,2.3,14.4c3.5,9.8,11,18.1,21.1,21.6,1.8.6,5.7,1.7,11,1.7,16.9,0,25.5-10.6,28.8-15.6,5.7-9.2,6-18.7,6-22.5,0-14.4-6.2-29-19.8-35.4-5.4-2.5-10.2-3.1-13.2-3.1s-.8,0-1.2,0h0ZM1466.1,302.2c-1.8-7.1-1.8-20.4-1.8-20.7,0-4.8.3-12.4.9-17.2,2-14.7,9.3-18.1,16.6-18.3,2.1,0,9.7.2,13.7,6.5,2.9,4.5,3.2,11,3.3,12.2.6,5.3.8,10.7.8,16,0,10-.6,18-1.5,21.6-3,11.5-11.6,12.4-16.2,12.4-11.8,0-14.8-8.5-15.8-12.5h0Z"/>
  <path class="st0" d="M1543.2,210.6h-14.8v3.5h13.1v12.7c.1,0,.1,72.9.1,72.9v14.1h-13.3v3.6h40.1v-3.6h-11.8l-.2-14.1v-72.9l.2-16.9c-4.5.5-9.1.6-13.6.8h0Z"/>
  <path class="st0" d="M562.2,239.9h4v193.1h-4v-193.1h0Z"/>
  <path class="st0" d="M1042.2,129.7h4v193.1h-4v-193.1h0Z"/>
  <path class="st0" d="M1606.2,163.9h4v193.2h-4v-193.2Z"/>
  <path class="st0" d="M214.6,259.8h24.4v12.7h-24.4v-12.7Z"/>
  <path class="st0" d="M291.2,259.8h24.2v12.7h-24.2v-12.7Z"/>
  <path class="st0" d="M291.1,239.6v12.7h24.4c.2-4.2.5-8.5,1.1-12.7h-25.6,0Z"/>
  <path class="st0" d="M214.6,239.6v12.7h24.6c.1-4.1.3-8.4.8-12.7h-25.3Z"/>
  <path class="st0" d="M248.4,204.8c-3,2.7-4.7,5.2-8.9,11.9l.5-21.3c-7.6.7-15.3,1-23,1h-23.9v5.9h21.2l.3,23.5v6.2h26.5c1.9-9.7,5.8-18.7,13.8-24.2,6.9-4.7,13.8-5.2,16.8-5.2s7.2.8,9.9,2.2c4.9,3,8.4,8.4,9.4,19.8.1,2.4.2,4.9.2,7.4h27c1.9-7.7,5.1-14.8,11-20.5,7.9-7.4,16.1-8.2,20.2-8.2s7.7-.3,11.9,3.5c6.6,5.3,10.3,17,11,25.2h29.3c1.6-8.9,4-15.5,7.3-20,6.9-10.2,17.5-11.4,21.7-11.4s15.6,1,20.5,12.4c1.7,4.7,1.7,9.9,1.7,11.6,0,4.7-.5,11.1,4,14.4,2.7,2,6.7,2,7.6,2,7.4.2,10.9-4.5,12.1-6.9.7-1.7,1-3.5,1-5.4,0-9.4-6.9-17.8-8.4-19.3-.7-1.2-1.7-2-3-3-12.8-11.4-30.9-12.1-35.5-12.1s-16.1.3-27.9,6.7c-4.8,2.5-8.7,5.5-12.1,8.7-2.4-3.7-5.3-6.3-6.8-7.7-8.9-8.4-21.5-8.2-25-8.2-7.9,0-24.4.7-37.3,17.1-1.5,2-3.2,4.7-5.9,9.7-1.7-7.2-2.7-10.1-4.9-13.4-8.9-13.4-24.9-13.9-29.6-13.9s-20.7.7-32.6,11.6h0Z"/>
  <path class="st0" d="M372.5,239.6v12.7h27.4c0-4.6.3-8.8.7-12.7h-28.1Z"/>
  <path class="st0" d="M372.5,259.8c.2,4.3.7,8.6,1.5,12.7h26.7c-.6-4.8-.8-9.4-.9-12.7h-27.3Z"/>
  <path class="st0" d="M214.6,280v9.1l-.3,20.8h-21.2v5.9h65.2v-5.9h-19l-.3-20.8v-9.1h-24.4Z"/>
  <path class="st0" d="M291.2,280v9.1l-.3,20.8h-19.5v5.9h44.5v-5.9h-.3l-.2-20.8v-9.1h-24.2Z"/>
  <path class="st0" d="M470.2,289.4c-3.5,5.9-14.1,21-35.1,21s-28.8-13.4-33-30.4h-25.9c7.6,22.2,26.4,38,53,38s38.8-14.3,44.2-22.8c3.5-5.2,5.9-11.9,8.2-17.8l-5.9-1.7c-.3,1.2-2.5,8.2-5.4,13.6h0Z"/>
</svg>