<?xml version="1.0" encoding="UTF-8"?>
<svg id="Layer_1" xmlns="http://www.w3.org/2000/svg" version="1.1" viewBox="0 0 311.11 143.14">
  <!-- Generator: Adobe Illustrator 29.1.0, SVG Export Plug-In . SVG Version: 2.1.0 Build 142)  -->
  <defs>
    <style>
      .st0 {
        fill: #40403e;
      }
    </style>
  </defs>
  <path class="st0" d="M198.28,53.3h-32.56l-7.51,14.29c-1.02,2.21-2.72,4.71-2.72,4.71h-.34s-1.53-2.5-2.72-4.71l-7.51-14.29h-32.55l25.58,39.48-25.47,39.52h32l8.63-16.5c.85-1.53,2.04-4.5,2.04-4.5h.34s1.19,2.97,2.04,4.5l8.77,16.5h32.02l-25.47-39.52,25.42-39.48Z"/>
  <path class="st0" d="M88.06,71.79c1.32-1.69,13.16-16.16,13.16-30.64,0-25-20.49-38.91-45.48-38.91C24.34,2.25,10.62,21.42,10.62,40.96c0,11.47,5.07,19.55,12.22,25.75-4.14,3.2-18.61,15.41-18.61,32.7,0,21.43,17.1,41.72,49.81,41.72s49.81-20.49,49.81-40.97c0-13.53-6.77-22.18-15.79-28.38ZM54.98,31.19c8.83,0,14.1,4.89,14.1,12.4,0,8.27-3.57,14.47-4.7,16.54-11.84-5.07-21.61-9.59-21.61-18.42,0-5.83,3.76-10.53,12.22-10.53ZM54.04,112.2c-9.02,0-16.16-6.95-16.16-15.6,0-7.33,3.95-12.97,7.14-16.35,13.16,6.01,25.19,10.53,25.19,18.23,0,8.83-6.2,13.72-16.16,13.72Z"/>
  <path class="st0" d="M290.33,71.79c1.32-1.69,13.16-16.16,13.16-30.64,0-25-20.49-38.91-45.48-38.91-31.39,0-45.11,19.17-45.11,38.72,0,11.47,5.07,19.55,12.22,25.75-4.14,3.2-18.61,15.41-18.61,32.7,0,21.43,17.1,41.72,49.81,41.72s49.81-20.49,49.81-40.97c0-13.53-6.77-22.18-15.79-28.38ZM257.25,31.19c8.83,0,14.1,4.89,14.1,12.4,0,8.27-3.57,14.47-4.7,16.54-11.84-5.07-21.61-9.59-21.61-18.42,0-5.83,3.76-10.53,12.22-10.53ZM256.31,112.2c-9.02,0-16.16-6.95-16.16-15.6,0-7.33,3.95-12.97,7.14-16.35,13.16,6.01,25.19,10.53,25.19,18.23,0,8.83-6.2,13.72-16.16,13.72Z"/>
</svg>