<?xml version="1.0" encoding="UTF-8"?> <svg xmlns="http://www.w3.org/2000/svg" width="1358" height="278" viewBox="0 0 1358 278" fill="none"><path fill-rule="evenodd" clip-rule="evenodd" d="M429.968 173.721C429.968 165.457 428.51 158.509 425.594 152.878C422.803 147.41 418.678 142.734 413.6 139.284C408.159 135.674 402.086 133.123 395.699 131.766C388.459 130.161 381.062 129.376 373.647 129.427H320.805V273.364H355.566V219.056H372.841C380.094 219.077 387.325 218.259 394.39 216.617C400.904 215.167 407.102 212.547 412.682 208.886C417.976 205.365 422.309 200.582 425.291 194.968C428.402 189.172 429.961 182.09 429.968 173.721ZM393.17 182.359C391.803 184.609 389.875 186.467 387.576 187.751C385.084 189.15 382.371 190.111 379.554 190.593C376.467 191.149 373.337 191.422 370.201 191.41H355.566V157.454H370.816C373.84 157.446 376.861 157.652 379.856 158.069C382.589 158.419 385.24 159.244 387.688 160.508C389.936 161.681 391.83 163.435 393.17 165.588C394.619 168.119 395.325 171.008 395.206 173.923C395.315 176.868 394.611 179.787 393.17 182.359ZM481.4 129.405L420.984 273.341H458.8L469.373 245.08H525.068L536.256 273.341H574.878L515.111 129.405H481.4ZM479.364 217.221L497.657 167.825L515.558 217.221H479.364ZM688.953 197.463C694.234 190.817 696.874 182.612 696.874 172.849C696.874 164.584 695.315 157.674 692.198 152.117C689.2 146.681 684.908 142.07 679.7 138.691C674.29 135.234 668.297 132.789 662.012 131.475C655.364 130.047 648.583 129.335 641.784 129.349H586.905V273.285H620.85V216.158H632.699L663.947 273.285H704.605L666.991 211.683C676.344 208.871 683.665 204.131 688.953 197.463ZM660.188 182.459C658.672 184.717 656.593 186.541 654.158 187.751C651.58 189.008 648.826 189.864 645.99 190.291C643.085 190.753 640.149 190.989 637.208 190.996H620.649V157.431H639.233C641.933 157.438 644.629 157.644 647.299 158.047C649.933 158.401 652.489 159.191 654.863 160.385C657.086 161.515 658.985 163.194 660.378 165.263C661.905 167.73 662.654 170.599 662.527 173.498C662.673 176.653 661.858 179.778 660.188 182.459V182.459ZM705.422 159.087H746.08V273.341H780.842V159.087H821.5V129.405H705.411L705.422 159.087ZM935.34 223.33H934.725L876.994 129.405H837.342V273.341H871.086L870.281 179.215H870.885L928.829 273.341H968.267V129.405H934.512L935.34 223.33ZM1031.49 213.775H1091.26V185.917H1031.48V158.673H1094.71V129.405H997.938V273.341H1098.36V243.659H1031.48L1031.49 213.775ZM1223.38 197.463C1228.68 190.817 1231.32 182.612 1231.31 172.849C1231.31 164.584 1229.75 157.674 1226.64 152.117C1223.63 146.681 1219.34 142.069 1214.13 138.691C1208.72 135.234 1202.73 132.789 1196.45 131.475C1189.8 130.048 1183.02 129.335 1176.22 129.349H1121.33V273.285H1155.28V216.158H1167.13L1198.34 273.341H1239L1201.4 211.739C1210.77 208.89 1218.1 204.131 1223.38 197.463ZM1194.6 182.415C1193.09 184.676 1191.01 186.501 1188.57 187.707C1186 188.963 1183.24 189.819 1180.41 190.246C1177.5 190.709 1174.57 190.944 1171.62 190.951H1155.08V157.387H1173.73C1176.43 157.394 1179.12 157.599 1181.79 158.002C1184.42 158.358 1186.98 159.148 1189.35 160.34C1191.57 161.47 1193.47 163.149 1194.86 165.218C1196.39 167.683 1197.14 170.554 1197.01 173.453C1197.15 176.63 1196.31 179.773 1194.6 182.459V182.415ZM1338.19 198.928C1333.79 195.637 1328.92 193 1323.76 191.097C1318.47 189.143 1313.38 187.349 1308.51 185.715C1305.16 184.596 1302.08 183.578 1299.36 182.56C1296.92 181.668 1294.58 180.544 1292.36 179.204C1290.56 178.139 1289.03 176.677 1287.88 174.93C1286.81 173.082 1286.28 170.968 1286.36 168.832C1286.25 166.35 1286.93 163.897 1288.28 161.817C1289.54 160.006 1291.17 158.48 1293.06 157.342C1295.03 156.163 1297.2 155.369 1299.46 155.004C1301.78 154.605 1304.12 154.403 1306.48 154.399C1311.31 154.488 1316.06 155.634 1320.41 157.756C1324.97 159.802 1328.97 162.905 1332.1 166.807L1354.25 143.424C1347.8 137.559 1340.23 133.064 1332 130.21C1324.01 127.318 1315.59 125.805 1307.09 125.735C1300.3 125.735 1293.53 126.592 1286.95 128.286C1280.55 129.864 1274.49 132.582 1269.05 136.308C1263.78 139.958 1259.4 144.755 1256.24 150.338C1253 156.029 1251.37 162.873 1251.36 170.868C1251.2 176.555 1252.27 182.21 1254.52 187.438C1256.5 191.817 1259.33 195.757 1262.85 199.029C1266.35 202.243 1270.33 204.886 1274.65 206.861C1279.04 208.889 1283.55 210.652 1288.16 212.142C1292.9 213.633 1297.14 215.025 1300.87 216.315C1304.13 217.388 1307.26 218.818 1310.21 220.578C1312.47 221.91 1314.44 223.675 1316.01 225.769C1317.4 227.795 1318.12 230.213 1318.04 232.672C1318.11 235.211 1317.55 237.727 1316.42 240C1315.39 241.964 1313.89 243.641 1312.05 244.878C1310.1 246.149 1307.93 247.045 1305.65 247.519C1303.18 248.068 1300.65 248.342 1298.12 248.336C1292.13 248.261 1286.24 246.762 1280.94 243.961C1275.58 241.366 1270.83 237.659 1267.01 233.086L1244.25 256.257C1250.97 263.129 1259.18 268.378 1268.23 271.607C1277.79 275.188 1287.91 277.015 1298.12 277C1305.06 277.015 1311.97 276.054 1318.65 274.147C1325.05 272.381 1331.05 269.416 1336.34 265.409C1341.53 261.436 1345.74 256.322 1348.64 250.461C1351.7 244.442 1353.23 237.293 1353.22 229.014C1353.22 221.831 1351.8 215.834 1348.96 211.023C1346.2 206.321 1342.54 202.211 1338.19 198.928V198.928Z" fill="#3F4A39"></path><path fill-rule="evenodd" clip-rule="evenodd" d="M914.16 46.4224C911.615 44.5059 908.813 42.9578 905.835 41.824C902.815 40.7052 899.895 39.5864 897.075 38.7137C894.591 37.9641 892.32 37.2257 890.25 36.476C888.387 35.8347 886.612 34.9587 884.969 33.8692C883.575 32.941 882.408 31.7094 881.557 30.2666C880.672 28.7142 880.224 26.9513 880.259 25.1648C880.201 23.2251 880.693 21.3087 881.68 19.6378C882.606 18.1312 883.86 16.8536 885.35 15.9009C886.881 14.9326 888.558 14.2185 890.317 13.7864C892.103 13.3401 893.937 13.1109 895.777 13.1038C898.947 13.1282 902.069 13.8744 904.907 15.2855C907.642 16.5036 910.046 18.3561 911.922 20.6895L922.103 9.50126C918.653 6.32163 914.57 3.90803 910.121 2.41909C905.748 0.881983 901.15 0.0841702 896.516 0.0583946C892.552 0.054747 888.605 0.577726 884.779 1.61357C881.09 2.56937 877.598 4.16757 874.464 6.33497C871.461 8.43353 868.959 11.1689 867.135 14.3458C865.198 17.8873 864.233 21.8788 864.338 25.9144C864.226 29.4763 864.907 33.0187 866.33 36.2859C867.563 38.9488 869.316 41.3379 871.488 43.312C873.605 45.218 876.015 46.7707 878.626 47.9104C881.22 49.0525 883.876 50.0498 886.581 50.8977L894.412 53.5046C896.672 54.2299 898.841 55.2095 900.879 56.4247C902.583 57.4423 904.06 58.7978 905.22 60.4077C906.349 62.1159 906.917 64.1343 906.842 66.1808C906.916 68.2831 906.421 70.3663 905.41 72.2112C904.474 73.8103 903.203 75.1881 901.685 76.2502C900.126 77.3369 898.376 78.1189 896.527 78.5549C891.07 79.9193 885.301 79.2346 880.315 76.6306C876.886 75.0393 873.918 72.6022 871.689 69.5484L860.456 79.9871C864.053 84.2151 868.676 87.4476 873.882 89.374C879.229 91.4686 884.921 92.5462 890.664 92.5514C894.83 92.5731 898.976 91.9851 902.971 90.806C906.676 89.7443 910.139 87.9695 913.164 85.5812C916.102 83.214 918.476 80.2212 920.112 76.8208C921.923 72.9756 922.819 68.7632 922.73 64.5137C922.861 60.7589 922.025 57.0334 920.302 53.6947C918.792 50.8632 916.699 48.3844 914.16 46.4224V46.4224ZM1011.5 77.369C1013.58 75.8383 1015.49 74.0906 1017.2 72.1553C1019.15 70.0149 1020.82 67.635 1022.17 65.0731C1023.69 62.2104 1024.88 59.1853 1025.72 56.0554C1026.66 52.4889 1027.12 48.8128 1027.08 45.1246C1027.16 38.8407 1025.98 32.6047 1023.6 26.7871C1021.38 21.4129 1018.06 16.5645 1013.85 12.5556C1009.57 8.51374 1004.52 5.36462 999.011 3.29181C993.054 1.05545 986.734 -0.0597541 980.371 0.0024671C973.991 -0.0546172 967.654 1.06032 961.676 3.29181C956.126 5.36589 951.039 8.51383 946.706 12.5556C942.464 16.5624 939.103 21.4093 936.838 26.7871C934.418 32.5938 933.211 38.8342 933.291 45.1246C933.189 51.6205 934.328 58.0762 936.648 64.1446C938.734 69.5105 941.977 74.3506 946.147 78.32C950.404 82.263 955.444 85.2668 960.937 87.1363C967.121 89.2806 973.626 90.3478 980.17 90.2914H1033.21V77.604H1011.43L1011.5 77.369ZM1007.89 58.047C1006.51 61.7256 1004.4 65.0862 1001.68 67.9261C998.988 70.6898 995.751 72.8683 992.175 74.3258C984.456 77.3838 975.862 77.3838 968.143 74.3258C964.607 72.8664 961.414 70.6869 958.767 67.9261C956.09 65.0794 954.019 61.7183 952.681 58.047C951.161 53.9291 950.403 49.5695 950.443 45.1805C950.403 40.9273 951.185 36.7064 952.748 32.7504C954.176 29.0964 956.309 25.7587 959.024 22.9271C961.724 20.1551 964.954 17.9556 968.523 16.4603C972.275 14.8768 976.31 14.0736 980.383 14.0996C984.559 14.0453 988.702 14.8488 992.555 16.4603C996.087 17.9628 999.28 20.1623 1001.94 22.9271C1004.6 25.7516 1006.65 29.096 1007.96 32.7504C1010.82 40.9472 1010.78 49.8784 1007.84 58.047H1007.89ZM1098.7 57.3533C1098.69 59.9363 1098.36 62.5082 1097.7 65.006C1097.07 67.4422 1095.95 69.7254 1094.41 71.7189C1092.79 73.7818 1090.7 75.4399 1088.33 76.5635C1085.35 77.7967 1082.16 78.4315 1078.95 78.4315C1075.73 78.4315 1072.54 77.7967 1069.56 76.5635C1067.19 75.443 1065.1 73.7844 1063.48 71.7189C1061.94 69.7254 1060.82 67.4422 1060.19 65.006C1059.53 62.5082 1059.2 59.9363 1059.19 57.3533V2.28484H1043.53V57.9686C1043.45 62.8823 1044.35 67.7625 1046.18 72.3232C1047.85 76.4421 1050.39 80.1515 1053.63 83.1981C1056.87 86.2141 1060.67 88.5601 1064.82 90.1012C1073.9 93.338 1083.81 93.338 1092.89 90.1012C1097.05 88.5795 1100.85 86.2312 1104.08 83.1981C1107.3 80.1334 1109.83 76.4289 1111.53 72.3232C1113.41 67.7747 1114.34 62.8901 1114.27 57.9686V2.28484H1098.61L1098.7 57.3533ZM1158.81 2.29604L1120.56 90.3026H1138.07L1146.02 70.1638H1184.15L1192.35 90.3026H1210.26L1172.37 2.29604H1158.81ZM1151.35 56.7268L1165.14 20.9245L1178.68 56.7268H1151.35ZM1276.45 43.0659C1280.05 39.0531 1281.85 33.8543 1281.85 27.4695C1281.98 23.3648 1281.04 19.2971 1279.12 15.666C1277.36 12.5063 1274.87 9.81908 1271.85 7.83422C1268.68 5.78203 1265.17 4.32597 1261.48 3.53792C1257.52 2.66766 1253.48 2.2325 1249.43 2.24011H1218.87V90.2466H1234.53V53.0011H1245.96L1266.33 90.2914H1285.22L1261.72 51.2557C1267.37 50.1567 1272.53 47.2885 1276.45 43.0659V43.0659ZM1254.07 39.7095C1251.85 40.0404 1249.6 40.205 1247.36 40.2017H1234.52V15.4534H1248.69C1250.74 15.4592 1252.8 15.6276 1254.83 15.9569C1256.79 16.2502 1258.68 16.8825 1260.42 17.8253C1262.06 18.709 1263.46 19.9617 1264.53 21.4839C1265.67 23.238 1266.23 25.3026 1266.14 27.3912C1266.24 29.691 1265.63 31.9657 1264.41 33.914C1263.29 35.5728 1261.78 36.9205 1260 37.8298C1258.12 38.7755 1256.1 39.4103 1254.02 39.7095H1254.07ZM1312.71 76.3733V51.5018H1353.07V38.3333H1312.66V15.9569H1355.27V2.28484H1297.01V90.2914H1357.5V76.3621L1312.71 76.3733Z" fill="#3F4A39"></path><path fill-rule="evenodd" clip-rule="evenodd" d="M348.51 78.7218H348.264L319.689 2.28381H310L343.565 90.2904H352.996L386.639 2.28381H377.129L348.51 78.7218ZM398.689 90.2904H407.64V2.28381H398.689V90.2904ZM486.64 81.4629C482.117 83.527 477.201 84.5881 472.229 84.5732C466.993 84.6524 461.801 83.5951 457.013 81.4741C452.643 79.5139 448.729 76.6636 445.523 73.1052C442.338 69.5405 439.869 65.3964 438.251 60.8989C436.544 56.2176 435.684 51.2698 435.711 46.2871C435.686 41.3057 436.527 36.3579 438.195 31.6641C439.768 27.1649 442.208 23.018 445.377 19.4578C448.584 15.9027 452.498 13.0561 456.868 11.1001C461.702 8.96286 466.944 7.90523 472.229 8.00097C474.891 7.97849 477.544 8.31342 480.117 8.99674C482.441 9.62473 484.691 10.4986 486.83 11.6036C488.788 12.6006 490.605 13.8535 492.234 15.3293C493.649 16.5778 494.897 18.0029 495.948 19.5696L503.411 14.0986C501.858 11.8886 499.97 9.93342 497.817 8.30308C495.513 6.55209 493.012 5.07642 490.365 3.90611C487.552 2.65747 484.616 1.70509 481.605 1.06433C478.484 0.391283 475.299 0.0536921 472.106 0.0573637C465.868 0.000285099 459.68 1.183 453.903 3.53688C448.446 5.7353 443.491 9.01441 439.334 13.177C435.177 17.3396 431.905 22.2998 429.714 27.7594C427.344 33.6454 426.161 39.9422 426.234 46.2871C426.149 52.618 427.288 58.9057 429.591 64.8036C431.751 70.2582 434.985 75.2233 439.101 79.4042C443.244 83.571 448.193 86.8489 453.646 89.0373C459.482 91.4054 465.73 92.5919 472.028 92.528C475.732 92.5597 479.425 92.1121 483.015 91.1966C486.214 90.3745 489.302 89.1686 492.211 87.6052C494.868 86.1672 497.331 84.3964 499.54 82.3355C501.577 80.4343 503.391 78.3059 504.944 75.9918L497.985 71.5165C495.211 75.8303 491.279 79.277 486.64 81.4629V81.4629ZM509.497 10.2386H538.933V90.2904H547.884V10.2386H577.331V2.28381H509.497V10.2386ZM660.605 13.1588C656.443 9.01627 651.499 5.74182 646.061 3.52569C634.372 -1.11338 621.354 -1.11338 609.665 3.52569C604.214 5.73179 599.264 9.01515 595.112 13.1791C590.959 17.3431 587.69 22.3022 585.499 27.7594C580.86 39.6718 580.86 52.8913 585.499 64.8036C587.69 70.2608 590.959 75.2199 595.112 79.3839C599.264 83.5479 604.214 86.8312 609.665 89.0373C621.352 93.6866 634.374 93.6866 646.061 89.0373C651.52 86.8389 656.479 83.5586 660.638 79.394C664.797 75.2293 668.07 70.2663 670.261 64.8036C674.9 52.8913 674.9 39.6718 670.261 27.7594C668.045 22.2989 664.763 17.3351 660.605 13.1588V13.1588ZM661.78 60.966C660.222 65.4655 657.78 69.608 654.597 73.15C651.379 76.6811 647.468 79.511 643.107 81.4629C638.297 83.515 633.121 84.5728 627.891 84.5728C622.661 84.5728 617.485 83.515 612.675 81.4629C608.316 79.5082 604.405 76.6788 601.185 73.15C597.99 69.609 595.533 65.4671 593.957 60.966C590.645 51.4833 590.645 41.158 593.957 31.6753C595.539 27.1717 597.987 23.0213 601.162 19.4578C604.37 15.8986 608.283 13.0449 612.653 11.0777C617.465 9.03256 622.64 7.97851 627.869 7.97851C633.097 7.97851 638.272 9.03256 643.085 11.0777C647.466 13.0456 651.387 15.9076 654.597 19.4801C657.777 23.0408 660.225 27.1922 661.802 31.6977C665.114 41.1804 665.114 51.5057 661.802 60.9884L661.78 60.966ZM734.694 46.1417C737.328 45.0485 739.732 43.4654 741.776 41.4762C743.861 39.4298 745.509 36.9815 746.621 34.2795C747.733 31.5775 748.284 28.6781 748.243 25.7567C748.356 21.9852 747.59 18.2391 746.005 14.8146C744.57 11.8934 742.408 9.38942 739.728 7.54229C736.831 5.58992 733.582 4.21828 730.163 3.50336C726.226 2.64848 722.208 2.232 718.18 2.26148H692.335V90.268H701.286V49.1401H716.188L740.534 90.2904H751.465L725.732 48.4017C728.814 48.106 731.834 47.3518 734.694 46.1641V46.1417ZM701.286 41.4091V9.97011H717.184C720.227 9.94575 723.263 10.2345 726.247 10.8316C728.716 11.3076 731.075 12.237 733.206 13.5728C735.084 14.7826 736.624 16.4495 737.681 18.4172C738.821 20.6913 739.375 23.2143 739.292 25.7567C739.292 30.9779 737.345 34.8901 733.452 37.4932C729.558 40.0963 724.013 41.4016 716.815 41.4091H701.286ZM818.673 2.25028L791.966 44.8774L765.506 2.25028H754.318L787.234 52.3399V90.2568H796.184V52.3735L829.134 2.28381L818.673 2.25028Z" fill="#3F4A39"></path><path d="M197.051 129.778L149.387 82.1569C149.387 82.1569 145.594 78.3672 140.891 78.3672C136.119 78.3672 132.28 82.1635 132.28 82.1635L84.6656 129.775C84.6656 129.775 81.0143 133.4 81.0176 138.343C81.0176 143.184 84.6656 146.829 84.6656 146.829L132.28 194.427C132.28 194.427 136.215 198.292 140.894 198.292C145.574 198.292 149.39 194.433 149.39 194.433L197.051 146.822C197.051 146.822 201.124 142.755 201.121 138.336C201.121 133.848 197.051 129.778 197.051 129.778Z" fill="#65A74E"></path><path d="M271.643 118.389L162.543 9.49067C162.543 9.49067 153.059 0 142.758 0C132.295 0 122.811 9.49067 122.811 9.49067L111.844 20.4774L218.04 126.631C218.04 126.631 223.642 132.233 223.642 138.379C223.642 144.449 218.04 150.035 218.04 150.035L152.584 215.425L183.449 246.22L271.643 158.125C271.643 158.125 281.137 148.641 281.137 138.353C281.137 127.86 271.643 118.389 271.643 118.389Z" fill="#FFE86B"></path><path d="M63.1228 150.598C63.1228 150.598 57.5207 144.996 57.5207 138.847C57.5207 132.77 63.1228 127.201 63.1228 127.201L128.585 61.7979L97.7242 31.0027L9.49726 119.095C9.49726 119.095 0 128.579 0 138.867C0 149.33 9.49726 158.814 9.49726 158.814L118.623 267.719C118.623 267.719 128.108 277.21 138.412 277.21C148.878 277.21 158.366 267.719 158.366 267.719L169.333 256.732L63.1228 150.598Z" fill="#46597C"></path></svg> 