<svg viewBox="-259.1 60 900 450" xmlns="http://www.w3.org/2000/svg" preserveAspectRatio="xMidYMid meet"><path d="m271.38 225.12h-145.87l3.72-8.75h138.94z" fill="#febf44"/><path d="m317.21 156.84-13.13 15.34 7.97 19.16-15.35-13.14-19.15 7.97 13.13-15.35-7.97-19.15 15.35 13.14z" fill="#febf44"/><path d="m136.79 122.51-20.85 11.47.84 24.43-11.47-20.86-24.43.84 20.86-11.47-.84-24.43 11.47 20.86z" fill="#febf44"/><path d="m280.49 71.85-11.66-2.21-7.43 9.65 2.22-11.65-9.66-7.43 11.66 2.21 7.43-9.66-2.21 11.66z" fill="#febf44"/><g fill="#005372"><path d="m263.11 446.48a17.52 17.52 0 0 0 1.7-7.65v-58.95a1.38 1.38 0 0 0 -.23-.83s-.08-.1-.36-.1h-14a.29.29 0 0 0 -.29.13 1.23 1.23 0 0 0 -.25.8v57.87a6.71 6.71 0 0 1 -1.7 4.49 6 6 0 0 1 -2.17 1.54 7.85 7.85 0 0 1 -5.76 0 6.36 6.36 0 0 1 -2.16-1.47 6 6 0 0 1 -1.34-2.16 6.87 6.87 0 0 1 -.43-2.4v-57.93a2.64 2.64 0 0 0 -.12-.82h-14.65v.06a1.43 1.43 0 0 0 -.21.81v59a17.49 17.49 0 0 0 1.7 7.65 20.34 20.34 0 0 0 4.7 6.27 22.75 22.75 0 0 0 7 4.25 24.07 24.07 0 0 0 17 0 22.5 22.5 0 0 0 7-4.25 20.21 20.21 0 0 0 4.57-6.31z"/><path d="m323.28 446a22 22 0 0 0 1.62-8.79v-38.31a21.73 21.73 0 0 0 -1.62-8.75 17.06 17.06 0 0 0 -4.43-6.15 19 19 0 0 0 -6.72-3.73 29 29 0 0 0 -8.57-1.32h-21.63c-.66 0-.82.08-.82.87v76.61c0 .71.11.82.82.82h21.76a26.77 26.77 0 0 0 8.45-1.3 19.26 19.26 0 0 0 6.71-3.76 17 17 0 0 0 4.43-6.19zm-13.52-9.36a6.22 6.22 0 0 1 -1.71 4.43 6.34 6.34 0 0 1 -4.34 1.93h-7.46v-49.83h7.38a7.19 7.19 0 0 1 4.27 1.56c1.23 1 1.86 2.7 1.86 5z"/><path d="m204.27 447.29a19.81 19.81 0 0 0 1.71-8.46v-41.46a19.83 19.83 0 0 0 -1.71-8.47 17.72 17.72 0 0 0 -4.66-6.14 21 21 0 0 0 -7-3.8 27.32 27.32 0 0 0 -8.57-1.32 27 27 0 0 0 -8.54 1.32 20.56 20.56 0 0 0 -6.92 3.83 18.06 18.06 0 0 0 -4.58 6.21 19.68 19.68 0 0 0 -1.72 8.41v41.46a19.18 19.18 0 0 0 1.72 8.26 18.38 18.38 0 0 0 4.67 6.18 21 21 0 0 0 6.93 3.91 27.79 27.79 0 0 0 17.09.05 20.62 20.62 0 0 0 7-3.8 17.63 17.63 0 0 0 4.58-6.18zm-13.37-9.54a6.87 6.87 0 0 1 -.43 2.4 6.08 6.08 0 0 1 -1.34 2.17 6.49 6.49 0 0 1 -2.16 1.46 7.82 7.82 0 0 1 -5.76 0 6 6 0 0 1 -2.15-1.49 6.13 6.13 0 0 1 -1.29-2.14 6.87 6.87 0 0 1 -.43-2.4v-39.3a6.54 6.54 0 0 1 .47-2.45 6.23 6.23 0 0 1 1.41-2.14 7 7 0 0 1 2.12-1.45 6.85 6.85 0 0 1 2.75-.55 7.06 7.06 0 0 1 2.77.55 6.78 6.78 0 0 1 2.16 1.45 6.23 6.23 0 0 1 1.41 2.14 6.75 6.75 0 0 1 .47 2.45z"/><path d="m116.72 457.25h32.74a.32.32 0 0 0 .15 0 2.05 2.05 0 0 0 .11-.8v-12.67a1.72 1.72 0 0 0 -.12-.76h-18.51v-63.2c0-.79-.15-.87-.82-.87h-13.55c-.56 0-.77 0-.77.87v76.61c.05.78.16.82.77.82z"/><path d="m99.25 447.28a20.32 20.32 0 0 0 1.66-8.45v-9.06a3.29 3.29 0 0 0 -.06-.72 2.8 2.8 0 0 0 -.53 0h-13.84-.35a3.65 3.65 0 0 0 -.08.86v7.86a7.24 7.24 0 0 1 -.39 2.35 6.65 6.65 0 0 1 -1.2 2.12 6 6 0 0 1 -2.12 1.56 7.54 7.54 0 0 1 -5.64 0 6.12 6.12 0 0 1 -2.17-1.52 6.35 6.35 0 0 1 -1.32-2.12 6.79 6.79 0 0 1 -.44-2.39v-39.55a6.49 6.49 0 0 1 1.65-4.41 6.2 6.2 0 0 1 4.88-1.95 6.6 6.6 0 0 1 2.83.6 6.26 6.26 0 0 1 2 1.57 6.82 6.82 0 0 1 1.22 2.08 6.49 6.49 0 0 1 .44 2.28v5.92a2.61 2.61 0 0 0 0 .86s.18 0 .43 0h13.78a1.54 1.54 0 0 0 .5-.06 6.52 6.52 0 0 0 .09-1.1v-6.27a23.73 23.73 0 0 0 -1.18-7.35 17.93 17.93 0 0 0 -3.66-6.39 18.58 18.58 0 0 0 -6.5-4.59 24.3 24.3 0 0 0 -9.72-1.75 25.88 25.88 0 0 0 -9 1.5 20.46 20.46 0 0 0 -6.87 4.12 18.32 18.32 0 0 0 -4.38 6.22 19.94 19.94 0 0 0 -1.56 7.89v41.46a19.68 19.68 0 0 0 1.72 8.41 17.9 17.9 0 0 0 4.66 6.17 20.54 20.54 0 0 0 6.9 3.8 28 28 0 0 0 17 0 19.54 19.54 0 0 0 6.73-3.82 18.17 18.17 0 0 0 4.52-6.13z"/><path d="m204.06 501.11s.11-.07.14-.29l.57-4h6l.57 4.05c0 .21.1.26.13.28a.67.67 0 0 0 .39.12h5.89s0-.12 0-.25l-6.83-30.69c-.1-.42-.29-.46-.5-.46h-5.26c-.26 0-.42.08-.52.47l-6.8 30.66a.89.89 0 0 0 0 .34l5.87-.09a.67.67 0 0 0 .35-.14zm3.19-23.73h1.09l1.74 14.07h-4.58z"/><path d="m251.17 501.23a1.49 1.49 0 0 0 0-.25l-3.42-12.43.27-.22a8.4 8.4 0 0 0 2-2.58 8.06 8.06 0 0 0 .78-3.68v-4a7.81 7.81 0 0 0 -.66-3.18 8.24 8.24 0 0 0 -1.82-2.61 8.52 8.52 0 0 0 -2.72-1.79 8.82 8.82 0 0 0 -3.39-.65h-8.43c-.29 0-.36.05-.36.39v30.64c0 .31 0 .37.36.37h5.42c.28 0 .35-.05.35-.37v-10.37h3.17l2.23 10.31a2.78 2.78 0 0 0 .09.41h6.15zm-6.5-18.93a2.34 2.34 0 0 1 -.67 1.7 2.39 2.39 0 0 1 -1.8.7h-2.66v-9.1h2.64a2.53 2.53 0 0 1 1.76.64 2.31 2.31 0 0 1 .74 1.79z"/><path d="m283 471.86a7.81 7.81 0 0 0 -2.7-1.5 12.15 12.15 0 0 0 -3.44-.53h-8.65c-.29 0-.37.05-.37.39v30.64c0 .31.06.37.37.37h8.7a10.85 10.85 0 0 0 3.39-.52 7.74 7.74 0 0 0 2.7-1.51 6.92 6.92 0 0 0 1.78-2.48 9 9 0 0 0 .65-3.54v-15.33a8.88 8.88 0 0 0 -.65-3.52 6.84 6.84 0 0 0 -1.78-2.47zm-3.7 21.1a2.44 2.44 0 0 1 -2.38 2.5h-2.92v-19.86h2.92a2.77 2.77 0 0 1 1.68.61 2.42 2.42 0 0 1 .73 2z"/><path d="m149.25 501.23c.31 0 .36-.06.36-.37v-30.64c0-.34-.08-.39-.36-.39h-5.4c-.29 0-.37.05-.37.39v30.64c0 .31.06.37.37.37z"/><path d="m109.59 501.23c.27 0 .43-.07.51-.45l1.32-7.66.1-2.31h1.09l.19 2.37 1.72 7.61c.09.42.28.46.49.46h4.87c.2 0 .4 0 .53-.49l7-30.66a.83.83 0 0 0 0-.34l-5.69.09a.67.67 0 0 0 -.39.12s-.11.07-.14.28l-4.3 21.15-1.92-13 1.94-8.27a1.08 1.08 0 0 0 0-.33l-5.69.09a.68.68 0 0 0 -.4.12s-.1.07-.14.28l-3.09 21.2-4.32-21.19c0-.22-.11-.27-.14-.29a.65.65 0 0 0 -.39-.12h-5.6s0 .13 0 .25l7 30.68c.09.43.28.47.49.47z"/><path d="m182.26 501.23s.07-.05.07-.25v-5.47a.62.62 0 0 0 -.05-.29h-10l9.59-21a1.17 1.17 0 0 0 0-.2v-3.93a.56.56 0 0 0 0-.27h-15.22s-.07.09-.07.28v5a.56.56 0 0 0 0 .28h8.82l-9.07 21c0 .1-.08.19-.11.29a1.25 1.25 0 0 0 0 .32v4a.53.53 0 0 0 0 .25z"/><path d="m324 233.87h-37.7l-64-133 46.76 24.4-73.49-87.11-83.3 195.71h-37.55v8.75h44.81a48.9 48.9 0 0 0 -8 9.23 44.26 44.26 0 0 0 5.88 88.15c1.2 0 2.41-.05 3.62-.16a44 44 0 0 0 59.22 12.06 37.62 37.62 0 0 0 26.46-1.9 39.12 39.12 0 0 0 4.12-2.13 42.33 42.33 0 0 0 62.35-17.66 35.58 35.58 0 0 0 14.25-65.62 44.24 44.24 0 0 0 -7.55-22h44.12zm-125.95-179.2 35.72 42.33-30.77-16 73.55 152.9h-154.77zm83.07 216.42a26.84 26.84 0 0 1 -11.12 50.65l-1.23.05a26.68 26.68 0 0 1 -16.07-5.32l-5.23 7a35.23 35.23 0 0 0 15.94 6.65 33.74 33.74 0 0 1 -28.79 16.36 33.16 33.16 0 0 1 -16.38-4.27 39.27 39.27 0 0 0 3.65-4.14l-7-5.29a30.89 30.89 0 0 1 -4.48 4.72l-2.09 1.5a29.75 29.75 0 0 1 -38.39-3.19l-6.18 6.19a38.61 38.61 0 0 0 6.46 5.21 35.23 35.23 0 0 1 -39.54-9.29 44.12 44.12 0 0 0 12-5.9l-5-7.16a35.41 35.41 0 0 1 -15.38 6 36 36 0 0 1 -4.83.34 35.51 35.51 0 0 1 -3-70.89l2.23-.19a35.24 35.24 0 0 1 17.29 4.12l4.11-7.72a44 44 0 0 0 -15.31-4.83 39.81 39.81 0 0 1 12.47-9.09h133.38a35.48 35.48 0 0 1 9.45 17.86 36 36 0 0 0 -9.35-1.26v8.8a26.56 26.56 0 0 1 10.41 2.1z"/><path d="m147.33 278.37a38.39 38.39 0 0 0 -26.47 13.2l6.61 5.74a29.9 29.9 0 0 1 45.05-.09l6.58-5.77a38.39 38.39 0 0 0 -31.77-13.08z"/><path d="m225.44 278.37a38.39 38.39 0 0 0 -26.44 13.2l6.6 5.74a29.91 29.91 0 0 1 45.06-.09l6.58-5.77a38.39 38.39 0 0 0 -31.8-13.08z"/></g></svg>