<svg id="QIAGEN_Logo" data-name="QIAGEN Logo" xmlns="http://www.w3.org/2000/svg" viewBox="0 0 1000 842"><circle cx="909.3902" cy="500.2125" r="90.6098" fill="#004d9f"/><circle cx="704.6956" cy="500.2125" r="90.6098" fill="#004d9f"/><circle cx="500.0003" cy="500.2125" r="90.6098" fill="#004d9f"/><circle cx="295.3051" cy="500.2125" r="90.6098" fill="#004d9f"/><circle cx="90.6098" cy="500.2125" r="90.6098" fill="#004d9f"/><circle cx="909.3902" cy="295.4097" r="90.6098" fill="#87a6d5"/><circle cx="704.6956" cy="295.4097" r="90.6098" fill="#87a6d5"/><circle cx="500.0003" cy="295.4097" r="90.6098" fill="#87a6d5"/><circle cx="295.3051" cy="295.4097" r="90.6098" fill="#87a6d5"/><circle cx="90.6098" cy="295.4097" r="90.6098" fill="#87a6d5"/><circle cx="909.3902" cy="90.6099" r="90.6098" fill="#cee0f3"/><circle cx="704.6956" cy="90.6099" r="90.6098" fill="#cee0f3"/><circle cx="500.0003" cy="90.6099" r="90.6098" fill="#cee0f3"/><circle cx="295.3051" cy="90.6099" r="90.6098" fill="#cee0f3"/><circle cx="90.6098" cy="90.6099" r="90.6098" fill="#cee0f3"/><path d="M215.8377,727.2022c.1983,29.4433-19.002,64.493-25.5488,71.0432l32.9323,32.9331L178.0569,842l-18.3487-19.29c-15.0548,6.1161-29.9673,10.9638-49.864,10.8092C49.4208,833.0471-1.9644,784.2919.3408,723.9083c2.2042-57.766,49.8168-101.8472,107.6183-101.9142,58.7669-.07,107.4833,46.44,107.8786,105.2081Zm-107.4139-63.833c34.6784.1852,61.3,28.2476,62.8631,62.8938.7177,15.8974-4.9923,34.3437-10.1682,39.5189l-15.994-17.8777L99.4891,754.96l31.05,33.4045a80.988,80.988,0,0,1-25.4058,3.2948c-35.2077-1.6644-61.5691-32.0882-60.3091-67.315a63.05,63.05,0,0,1,63.5992-60.9755Z" fill="#e0003c" fill-rule="evenodd"/><polygon points="809.277 629.118 850.345 629.118 937.155 750.317 937.155 629.118 982.336 629.118 982.336 828.123 939.815 828.123 852.029 705.946 852.029 828.123 809.277 828.123 809.277 629.118 809.277 629.118" fill="#e0003c"/><polygon points="226.704 628.355 249.881 628.355 273.054 628.355 273.054 827.361 226.704 827.361 226.704 628.355 226.704 628.355" fill="#e0003c"/><polygon points="674.186 628.355 792.018 628.355 792.018 666.982 721.123 666.982 721.123 706.913 792.018 706.913 792.018 747.826 721.123 747.826 721.123 788.733 792.018 788.733 792.018 827.361 674.186 827.361 674.186 628.355 674.186 628.355" fill="#e0003c"/><path d="M351.314,628.3548h54.2725l75.2953,199.0061h-50.36l-14.1784-35.6945H339.09l-14.6678,35.6945H274.55v-.4894L351.314,628.3548Zm26.8915,52.3189,24.4458,73.344h-50.36l25.9142-73.344Z" fill="#e0003c" fill-rule="evenodd"/><path d="M654.668,673.731c-2.9253-7.8417-30.4634-54.5589-96.4569-52.1858-69.2827,2.4938-102.8781,62.0771-101.4758,107.3042,1.8984,61.2492,46.49,105.4047,105.7488,105.4047,48.9015,0,105.8132-30.53,104.7384-111.3886H567.7063v37.3211l51.16.1994c-9.5019,24.6781-33.5938,31.8-55.4334,31.7846-31.8508-.0206-62.602-29.2421-62.5739-63.3212.03-37.32,28.8246-64.1764,60.697-64.5576,25.142-.3016,45.1493,9.6482,56.0022,26.1L654.668,673.731Z" fill="#e0003c"/></svg>