<?xml version="1.0" encoding="UTF-8"?>
<svg width="300" height="66" enable-background="new 0 0 467.2 103.3" viewBox="0 0 467.2 103.3" xmlns="http://www.w3.org/2000/svg"><g fill="#1e1e1e"><g><path d="m96.4 57.3h.2c2.6 3.5 7.4 5.2 13.4 5.2h3.1c12.4 0 21.5-3.2 21.5-17.5v-8.7c0-13.3-5.9-18-21.1-18h-4.7c-6.7 0-10.4 2.3-12.1 4.7h-.2v-21.1h-9.5v59.3h9.3zm0-21.3c0-9.9 6.4-10.1 14.9-10.1h1c8.4 0 12.9 1.4 12.9 11v6.7c0 8-2.1 11.5-13.2 11.5h-2.1c-10.6 0-13.4-2.9-13.4-10.9z"/><path d="m247.7 19.4h-12.5v-3.8c0-3.7 2.4-6.6 7.5-6.6h9.3v-7.1h-12.4c-7.5 0-13.8 3.9-13.8 13.7v3.8h-5v7.5h5v35.6h9.4v-35.6h12.5z"/><path d="m193.7 48.8c0 9.8 6.3 13.8 13.8 13.8h11.6v-7.5h-9.3c-5.1 0-6.7-2.6-6.7-6.2v-22h12.6v-7.5h-12.6v-17.5h-9.3v17.5h-5v7.5h5z"/><path d="m301.3 1.9h9.3v9.5h-9.3z"/><path d="m301.3 18.4h9.4v44.2h-9.4z"/><path d="m158.7 62.6h8.4c11.3 0 16.5-3.6 17.8-9.9l-8.3-2.5c-1.4 3.9-4.7 4.9-12 4.9h-2.2c-12 0-13.9-1.5-13.9-10.9h37.1v-8.2c0-14.8-7.7-17.5-20-17.5h-4.6c-9.7 0-21.5 1.7-21.5 16.8v10.4c0 14.5 10.3 16.9 19.2 16.9m-10.2-27.4c0-8.5 4-9.3 13.6-9.3h1.9c10.8 0 12.2 2.7 12.2 8.3v2.4h-27.7z"/><path d="m272.1 18.4h-3.5c-12.7 0-18.2 3.9-18.5 9.7l8.9 3c.4-4 5-5.2 11.9-5.2 10.3 0 12.8.6 12.8 8.1v4.1h-.2c-2.3-3.2-5.5-4-13.6-4h-3.6c-11.9 0-18.9 3-18.9 12.4v2.7c0 7.8 3 13.4 15.4 13.4h9.1c9 0 9.9-1.5 11.7-4.1h.1v4.1h9.3v-28.5c0-12.3-8.2-15.7-20.9-15.7m11.6 31c0 4.2-2.8 5.7-13.9 5.7h-2.5c-9.4 0-10.6-1.8-10.6-5.4v-2.4c0-4.2 2.3-5.7 10.1-5.7h4.2c7.1 0 12.7 1.4 12.7 6z"/><path d="m339.2 18.4c-4.5-.2-8.7 2.1-11 5.9h-.3v-5.9h-8.9v44.2h9.4v-26.6c0-5.4 3.1-10.1 10.3-10.1 5.2 0 7.7 1.4 8.2 2.9l5.9-4c-1.4-4-5.3-6.5-13.6-6.4"/><path d="m69.8 2.1h-24.2v12.1h-12.9l25 29.2 25-29.2h-12.9z"/><path d="m.8 50.1h12.9v12.2h24.2v-12.2h13l-25.1-29.2z"/></g><g><path d="m86.8 102v-25.5h3.8v25.5zm13.3 0-5.8-10h-4l-1.2-.3.5-2.7v-.6h4.7c1 0 1.9-.2 2.5-.6s1.1-.9 1.3-1.5c.3-.7.4-1.4.4-2.2 0-1-.2-1.9-.5-2.5s-.8-1-1.5-1.3-1.5-.4-2.5-.4h-3.5v-.8l-1.5-2.6h1.6 1.6s1 0 1.4 0c3 0 5.2.6 6.7 1.7s2.2 3 2.2 5.5c0 .8-.1 1.6-.3 2.5s-.5 1.6-1 2.3-1.1 1.3-1.9 1.9c-.8.5-1.8.9-2.9 1.1l-.4-.5c.5 0 1 0 1.3.1s.6.2.9.5.6.7.9 1.2l5.3 9.2z"/><path d="m114.7 102.5c-1.9 0-3.5-.5-4.8-1.5-1.4-1-2.4-2.5-3.2-4.5-.7-2-1.1-4.4-1.1-7.3 0-4.2.8-7.5 2.5-9.7 1.7-2.3 3.9-3.4 6.6-3.4 2.8 0 5 1.1 6.7 3.4 1.6 2.3 2.5 5.5 2.5 9.7 0 2.9-.4 5.4-1.1 7.3-.7 2-1.8 3.5-3.1 4.5-1.5 1-3.1 1.5-5 1.5zm0-3.6c1.6 0 2.9-.7 3.8-2.2s1.3-4 1.3-7.5c0-3.4-.4-5.9-1.3-7.3s-2.2-2.2-3.8-2.2-2.9.7-3.8 2.2c-.9 1.4-1.4 3.9-1.4 7.3 0 3.5.5 6 1.4 7.5 1 1.4 2.2 2.2 3.8 2.2z"/><path d="m125.7 102 .5-25.4h5.5l2.4 10.1.8 4.3h.1l.8-4.3 2.3-10.1h5.5l.4 25.4h-3.5l-.2-7.2.2-15.1h-.3l-1.3 5.6-2.7 10.2h-2.5l-2.9-10.2-1.3-5.6h-.3l.2 15.1-.2 7.2z"/><path d="m144.3 102 8.2-25.4h5l8.1 25.4h-4.1l-2.3-7.6 2.2 1.6h-12.2l1.3-3.3h9.8l-1.2 1.7-2.7-9-1.5-5.8h-.1l-1.5 5.8-5 16.6z"/><path d="m166.9 102v-25.5h4.7l6.4 15.5 2.1 5.4h.1l-.6-5.5v-15.4h3.8v25.5h-4.7l-6.4-15.3-2-5.3h-.1l.5 5.7v14.9z"/><path d="m187.5 102v-3.6h5.8v-16.8c0-.4.1-.7.2-.9.2-.2.4-.4.7-.5h-6.7v-3.6h15.5v3.6h-5.8v16.8c0 .4-.1.7-.2.9-.2.3-.4.4-.7.5h6.7v3.6z"/><path d="m204.7 102 8.2-25.4h5l8.1 25.4h-4.1l-2.3-7.6 2.2 1.6h-12.2l1.3-3.3h9.8l-1.2 1.7-2.7-9-1.5-5.8h-.1l-1.5 5.8-5 16.6z"/><path d="m247.5 102v-25.5h3.9v25.5zm3.9 0-.8-3.6h3.4c1.4 0 2.6-.3 3.6-1s1.9-1.7 2.4-3 .9-3.1.9-5.2c0-2.2-.3-4-.8-5.3s-1.3-2.2-2.4-2.8c-1-.6-2.3-.8-3.8-.8h-3.6l.9-3.6h2.4c3.5 0 6.3 1 8.2 3s3 5.2 3 9.6c0 2.8-.5 5.2-1.5 7.1s-2.3 3.3-4 4.3-3.6 1.5-5.7 1.5h-2.2z"/><path d="m267.9 102v-25.5h15v3.3h-12.9l1.8-1.6v9.9l-1.8-1.2h11.5v3.3h-10.7l1-1.4v11.7l-1.8-2h13.5v3.4h-15.6z"/><path d="m293.2 102-7.2-25.5h4.5l4.1 17.1 1 4.7h.3l1.1-4.7 4.1-17.1h4.5l-7.1 25.4h-5.3z"/><path d="m308.2 102v-25.5h15v3.3h-12.9l1.8-1.6v9.9l-1.8-1.2h11.5v3.3h-10.7l1-1.4v11.7l-1.8-2h13.5v3.4h-15.6z"/><path d="m328.5 102v-25.5h3.9v23.7l-1.9-1.9h13.6v3.6h-15.6z"/><path d="m356.2 102.5c-1.9 0-3.5-.5-4.8-1.5-1.4-1-2.4-2.5-3.2-4.5-.7-2-1.1-4.4-1.1-7.3 0-4.2.8-7.5 2.5-9.7 1.7-2.3 3.9-3.4 6.6-3.4 2.8 0 5 1.1 6.7 3.4 1.6 2.3 2.4 5.5 2.4 9.7 0 2.9-.4 5.4-1.1 7.3-.7 2-1.8 3.5-3.1 4.5-1.4 1-3 1.5-4.9 1.5zm0-3.6c1.6 0 2.9-.7 3.8-2.2s1.3-4 1.3-7.5c0-3.4-.4-5.9-1.3-7.3s-2.2-2.2-3.8-2.2-2.9.7-3.8 2.2c-.9 1.4-1.4 3.9-1.4 7.3 0 3.5.5 6 1.4 7.5 1 1.4 2.2 2.2 3.8 2.2z"/><path d="m368.5 102v-25.5h3.9v25.5zm5.1-8.7c-.3 0-.6-.1-.8-.4-.2-.2-.4-.6-.4-1l-1.2-1.2 1.2-1h5.1c1 0 1.9-.2 2.6-.5.7-.4 1.2-.9 1.6-1.6s.5-1.7.5-2.8c0-1.2-.2-2.1-.6-2.8s-1-1.1-1.7-1.4-1.6-.4-2.7-.4h-4.8l-1.5-3.7h1.5 1.8s1.2 0 1.8 0h1.3c2.9 0 5.2.6 6.7 1.9s2.3 3.4 2.3 6.3c0 1.1-.1 2.1-.4 3.1s-.8 1.9-1.5 2.7-1.6 1.5-2.7 2-2.5.7-4.1.7h-4z"/><path d="m387.4 102 .5-25.4h5.5l2.4 10.1.8 4.3h.1l.8-4.3 2.3-10.1h5.5l.5 25.4h-3.5l-.2-7.2.2-15.1h-.3l-1.3 5.6-2.7 10.2h-2.5l-2.9-10.2-1.3-5.6h-.3l.2 15.1-.2 7.2z"/><path d="m408.8 102v-25.5h15v3.3h-12.9l1.8-1.6v9.9l-1.8-1.2h11.5v3.3h-10.7l1-1.4v11.7l-1.8-2h13.5v3.4h-15.6z"/><path d="m428.5 102v-25.5h4.7l6.4 15.4 2.1 5.4h.1l-.6-5.5v-15.3h3.8v25.5h-4.7l-6.3-15.3-2-5.3h-.1l.5 5.7v14.9z"/><path d="m454.9 102v-20.5c0-.4.1-.7.2-.9.2-.3.4-.4.7-.5h-7.7v-3.5h17.5v3.4h-6.8v22z"/></g></g></svg>