<svg width="1002" height="716" viewBox="0 0 1002 716" fill="none" xmlns="http://www.w3.org/2000/svg">
<g clip-path="url(#clip0_8_42)">
<path d="M499.2 411.555C432.36 411.555 373.91 403.615 330.15 388.58C301.75 378.822 277.68 365.877 260.54 351.124C242.32 335.446 232.69 318.421 232.69 301.899C232.69 270.272 267.26 239.287 325.17 219.007C372.67 202.374 434.48 193.218 499.21 193.218C563.94 193.218 623.73 202.213 670.94 218.534C698.54 228.082 721.83 240.423 738.29 254.232C756.22 269.267 765.7 285.759 765.7 301.899C765.7 334.783 727.05 368.068 664.85 388.771C620.73 403.464 561.91 411.544 499.21 411.544L499.2 411.555ZM499.2 216.102C437.86 216.102 377.16 225.037 332.66 240.614C294.24 254.071 255.46 278.241 255.46 301.899C255.46 311.386 262.53 322.702 275.35 333.737C290.32 346.621 311.82 358.099 337.51 366.922C378.92 381.143 434.83 388.661 499.19 388.661C559.52 388.661 615.8 380.982 657.67 367.043C684.44 358.129 706.77 346.652 722.25 333.848C735.57 322.823 742.91 311.477 742.91 301.899C742.91 292.884 736.08 282.201 723.68 271.799C709.32 259.759 688.51 248.815 663.5 240.162C618.61 224.635 560.26 216.092 499.18 216.092L499.2 216.102Z" fill="url(#paint0_linear_8_42)"/>
<path d="M391.07 540.486C381.43 540.486 372.86 538.396 365.64 534.205C338.39 518.406 328.94 472.83 340.37 412.288C349.74 362.621 372.73 304.231 405.09 247.85C436.82 192.545 475.05 143.933 512.72 110.999C534.74 91.7437 557.01 77.6335 577.14 70.1965C599.06 62.0962 618 62.0761 631.92 70.1463C660.26 86.568 669.65 136.848 656.42 201.369C647.04 247.127 624.62 302.382 593.29 356.963C559.91 415.143 523.86 462.066 489.05 492.658C466.46 512.507 443.27 526.989 421.98 534.547C410.83 538.506 400.44 540.486 391.07 540.486ZM607.58 86.9901C601.11 86.9901 593.45 88.5578 585 91.6834C567.44 98.1757 547.62 110.819 527.67 128.265C491.85 159.581 455.32 206.113 424.82 259.287C394.15 312.713 371.53 370.028 362.75 416.55C355.17 456.73 356.64 502.568 377.03 514.386C385.21 519.12 398.48 518.617 414.41 512.969C433 506.367 453.64 493.392 474.07 475.433C507.02 446.468 541.43 401.555 573.58 345.526C603.72 293.005 625.23 240.172 634.13 196.746C639.82 168.978 641.09 143.803 637.78 123.914C634.93 106.809 628.82 94.7487 620.56 89.9649C617.12 87.975 612.73 86.98 607.59 86.98L607.58 86.9901Z" fill="url(#paint1_linear_8_42)"/>
<path d="M607.26 540.697C581.47 540.697 548.69 525.019 514.58 495.523C476.46 462.549 437.61 413.384 405.18 357.074C373.35 301.809 350.54 244.252 340.95 195.018C335.35 166.224 334.31 139.783 337.95 118.547C341.92 95.412 351.36 78.9099 365.27 70.8297C393.58 54.3577 441.61 71.292 490.61 115.02C525.35 146.014 561.79 193.138 593.21 247.69C626.71 305.849 649.16 360.672 658.13 406.218C663.96 435.805 664.86 463.232 660.74 485.533C656.36 509.241 646.53 526.145 632.3 534.416C625.05 538.637 616.61 540.697 607.25 540.697H607.26ZM424.89 345.627C455.62 398.982 493.73 447.303 529.44 478.186C560.28 504.859 600.53 526.467 620.91 514.618C629.08 509.864 635.28 498.055 638.36 481.372C641.96 461.885 641.07 437.444 635.8 410.67C627.32 367.566 605.78 315.175 573.51 259.167C543.28 206.676 508.47 161.561 475.5 132.145C454.41 113.321 433.33 99.6531 414.55 92.608C398.38 86.5479 384.94 85.8444 376.68 90.6483C368.92 95.1607 363.14 106.457 360.4 122.446C357.22 140.979 358.23 164.556 363.31 190.636C372.43 237.449 394.3 292.492 424.9 345.627H424.89Z" fill="url(#paint2_linear_8_42)"/>
<mask id="mask0_8_42" style="mask-type:luminance" maskUnits="userSpaceOnUse" x="335" y="16" width="329" height="525">
<path d="M658.13 406.218C653.56 383.013 645.43 357.214 633.95 329.527C630.21 320.502 651.68 224.484 656.43 201.369C662.69 170.867 664 142.788 660.23 120.145C656.18 95.8239 644.37 81.3419 631.93 70.1462C500.96 -47.7906 379.73 62.4278 365.27 70.8296C351.36 78.9098 341.92 95.4119 337.95 118.547C334.31 139.783 335.35 166.234 340.95 195.017C347.4 228.142 367.91 322.974 363.9 333.225C352.89 361.305 344.97 387.907 340.37 412.278C335.01 440.66 334.23 466.689 338.1 487.543C342.28 510.045 351.8 526.185 365.64 534.205C372.86 538.386 381.42 540.476 391.06 540.476C400.7 540.476 410.82 538.496 421.97 534.537C443.26 526.979 466.45 512.497 489.04 492.648C492.73 489.402 496.45 485.965 500.18 482.337C504.99 486.99 509.79 491.382 514.57 495.522C536.36 514.366 558.41 528.044 578.32 535.089C588.75 538.778 598.52 540.617 607.39 540.617C616.79 540.617 625.19 538.547 632.3 534.406C646.53 526.135 656.36 509.231 660.74 485.523C664.86 463.212 663.96 435.785 658.13 406.208V406.218Z" fill="white"/>
</mask>
<g mask="url(#mask0_8_42)">
<path d="M499.3 419.605C505.32 419.605 549.42 483.443 562.81 569.621H609.79C609.79 569.621 607.81 439.434 602.23 331.848C602.19 331.275 602.15 330.652 602.13 330.039C602.25 330.16 602.41 330.25 602.53 330.361C602.79 330.602 603.1 330.733 603.41 330.733C603.8 330.733 604.2 330.532 604.47 330.15C604.93 329.466 604.83 328.482 604.23 327.939C603.51 327.296 602.73 326.693 601.92 326.13C601.79 323.859 601.64 321.517 601.48 319.055C601.55 319.115 601.63 319.155 601.68 319.226C601.95 319.467 602.25 319.577 602.56 319.577C602.96 319.577 603.35 319.376 603.6 319.014C604.07 318.351 603.96 317.376 603.37 316.834C602.71 316.241 601.99 315.698 601.23 315.165C601.09 312.914 600.95 310.603 600.79 308.241C600.82 308.281 600.86 308.291 600.87 308.321C601.13 308.552 601.43 308.653 601.74 308.653C602.12 308.653 602.51 308.472 602.77 308.11C603.23 307.477 603.12 306.522 602.54 306C601.92 305.447 601.24 304.934 600.52 304.452C600.37 302.211 600.23 299.97 600.06 297.678C600.07 297.678 600.07 297.678 600.08 297.698C600.33 297.92 600.63 298.03 600.92 298.03C601.3 298.03 601.68 297.849 601.94 297.497C602.39 296.874 602.29 295.95 601.71 295.437C601.12 294.905 600.48 294.432 599.79 293.96C599.64 291.759 599.47 289.548 599.3 287.317C599.55 287.518 599.85 287.638 600.13 287.638C600.51 287.638 600.89 287.447 601.14 287.106C601.58 286.493 601.48 285.598 600.92 285.086C600.34 284.583 599.71 284.121 599.04 283.669C598.88 281.498 598.71 279.317 598.55 277.156C598.79 277.357 599.08 277.478 599.36 277.478C599.73 277.478 600.11 277.307 600.34 276.965C600.78 276.372 600.69 275.478 600.12 275.006C599.57 274.503 598.93 274.051 598.28 273.619C598.11 271.478 597.95 269.357 597.81 267.257C598.03 267.458 598.31 267.548 598.61 267.548C598.96 267.548 599.34 267.388 599.58 267.056C600.03 266.473 599.93 265.619 599.37 265.136C598.82 264.654 598.18 264.212 597.53 263.79C597.38 261.669 597.21 259.589 597.05 257.549C597.3 257.76 597.57 257.86 597.85 257.86C598.21 257.86 598.59 257.689 598.82 257.378C599.25 256.805 599.16 255.961 598.62 255.498C598.09 255.036 597.4 254.664 596.79 254.262C596.62 252.142 596.45 250.071 596.29 248.061C596.31 248.061 596.31 248.072 596.31 248.082C596.56 248.293 596.84 248.383 597.12 248.383C597.49 248.383 597.84 248.212 598.08 247.901C598.51 247.338 598.42 246.514 597.88 246.062C597.34 245.609 596.67 245.227 596.03 244.835C595.87 242.735 595.71 240.695 595.55 238.755C595.56 238.775 595.6 238.785 595.62 238.795C595.85 238.996 596.13 239.097 596.4 239.097C596.76 239.097 597.12 238.936 597.36 238.624C597.78 238.082 597.7 237.278 597.16 236.826C596.62 236.363 595.95 235.991 595.29 235.589C595.13 233.469 594.97 231.489 594.81 229.65C594.86 229.69 594.9 229.71 594.93 229.73C595.17 229.921 595.45 230.012 595.73 230.012C596.09 230.012 596.43 229.851 596.67 229.569C597.09 229.027 597 228.243 596.48 227.801C595.91 227.328 595.25 226.936 594.58 226.554C594.4 224.273 594.23 222.333 594.11 220.736C594.16 220.776 594.22 220.806 594.28 220.856C594.5 221.037 594.8 221.127 595.07 221.127C595.41 221.127 595.76 220.977 595.99 220.685C596.42 220.173 596.34 219.399 595.82 218.967C595.24 218.474 594.55 218.082 593.86 217.7C593.78 216.635 593.72 216.012 593.72 216.012L595.87 212.464L587.46 141.853L590.21 137.331L586.88 133.572L585.54 117.723C586.16 117.472 586.75 117.1 587.24 116.597C589.28 114.557 589.28 111.231 587.24 109.191C587.18 109.14 587.14 109.08 587.09 109.04C587.93 109.402 588.95 109.221 589.64 108.527C590.55 107.603 590.55 106.125 589.64 105.201C590.55 106.115 592.04 106.115 592.95 105.201C593.87 104.276 593.87 102.799 592.95 101.874C594.47 103.402 596.95 103.402 598.48 101.874C600.01 100.347 600.01 97.8542 598.48 96.3065C596.95 94.7789 594.46 94.7789 592.95 96.3065C593.87 95.3919 593.87 93.8945 592.95 92.9799C592.04 92.0654 590.55 92.0654 589.64 92.9799C590.55 92.0654 590.55 90.5679 589.64 89.6534C588.73 88.7187 587.24 88.7187 586.33 89.6534C587.85 88.1157 587.85 85.6334 586.33 84.0957C584.8 82.5581 582.32 82.5581 580.8 84.0957C579.28 85.6133 579.27 88.0755 580.77 89.6132C579.86 88.7489 578.4 88.7489 577.48 89.6534C576.6 90.5478 576.58 91.985 577.43 92.9096H577.41C576.5 92.0754 575.08 92.0754 574.18 92.9799C573.3 93.8543 573.26 95.2713 574.07 96.1959C572.54 94.7788 570.14 94.809 568.65 96.2964C567.13 97.8441 567.13 100.326 568.65 101.864C570.15 103.362 572.55 103.392 574.08 101.944H574.1C573.27 102.869 573.3 104.306 574.19 105.191C575.1 106.095 576.54 106.105 577.47 105.221C576.6 106.145 576.6 107.613 577.49 108.517C578.19 109.211 579.19 109.382 580.06 109.03C580 109.08 579.95 109.12 579.88 109.181C577.87 111.221 577.87 114.547 579.88 116.587C580.38 117.09 580.97 117.462 581.58 117.713L580.24 133.562L576.91 137.321L579.65 141.843L571.25 212.454L573.39 216.002C573.39 216.002 573.34 216.625 573.23 217.69C572.55 218.092 571.88 218.474 571.3 218.957C570.78 219.389 570.69 220.163 571.12 220.675C571.54 221.208 572.31 221.278 572.84 220.856C572.88 220.806 572.94 220.786 572.99 220.746C572.85 222.344 572.68 224.293 572.49 226.564C571.84 226.956 571.17 227.338 570.63 227.801C570.58 227.831 570.58 227.881 570.56 227.911L555.31 218.816L555.01 215.148C555.24 215.329 555.49 215.439 555.74 215.439C556.11 215.439 556.48 215.268 556.74 214.937C557.17 214.354 557.07 213.479 556.52 213.007C555.98 212.535 555.37 212.103 554.73 211.691L554.22 205.439C554.47 205.63 554.73 205.741 555 205.741C555.37 205.741 555.73 205.57 555.97 205.248C556.41 204.676 556.32 203.831 555.76 203.359C555.24 202.907 554.57 202.535 553.95 202.143L553.45 195.932H553.47C553.7 196.143 553.99 196.234 554.27 196.234C554.64 196.234 555 196.073 555.24 195.761C555.66 195.198 555.58 194.374 555.04 193.922C554.49 193.46 553.82 193.088 553.19 192.696L552.7 186.616C552.7 186.616 552.75 186.646 552.77 186.656C553 186.867 553.3 186.957 553.57 186.957C553.93 186.957 554.28 186.797 554.51 186.485C554.93 185.952 554.85 185.138 554.32 184.686C553.77 184.224 553.1 183.842 552.44 183.44L551.96 177.5C551.96 177.5 552.04 177.551 552.09 177.591C552.32 177.772 552.61 177.872 552.87 177.872C553.23 177.872 553.59 177.711 553.81 177.41C554.24 176.887 554.16 176.093 553.62 175.661C553.06 175.189 552.38 174.797 551.7 174.405L551.24 168.596C551.24 168.596 551.36 168.656 551.42 168.697C551.66 168.898 551.92 168.988 552.2 168.988C552.55 168.988 552.89 168.837 553.12 168.546C553.55 168.023 553.46 167.259 552.93 166.817C552.37 166.335 551.68 165.933 551 165.541L550.86 163.863L552.99 160.325L544.59 89.7036L547.33 85.1811L544 81.4224L542.68 65.5735C543.29 65.3223 543.86 64.9505 544.36 64.4379C546.4 62.3877 546.4 59.0813 544.36 57.0411C544.31 56.9808 544.25 56.9406 544.2 56.8904C545.05 57.2421 546.07 57.0713 546.75 56.3778C547.66 55.4633 547.66 53.9658 546.75 53.0613C547.66 53.9658 549.15 53.9658 550.07 53.0613C550.98 52.1367 550.98 50.6493 550.07 49.7348C551.58 51.2624 554.07 51.2624 555.6 49.7348C557.13 48.1971 557.13 45.6947 555.6 44.1671C554.07 42.6395 551.58 42.6395 550.07 44.1671C550.98 43.2425 550.98 41.7651 550.07 40.8405C549.15 39.9159 547.66 39.9159 546.75 40.8405C547.66 39.9159 547.66 38.4285 546.75 37.514C545.84 36.5894 544.35 36.5894 543.45 37.514C544.97 35.9763 544.97 33.494 543.45 31.9463C541.92 30.4187 539.44 30.4187 537.91 31.9463C536.4 33.4739 536.39 35.9361 537.89 37.4738V37.4939C536.97 36.5994 535.51 36.5994 534.6 37.514C533.7 38.4084 533.69 39.8456 534.53 40.7601V40.7802C533.62 39.9159 532.17 39.9461 531.29 40.8405C530.42 41.7149 530.39 43.1319 531.2 44.0465L531.17 44.0766C529.64 42.6495 527.24 42.6696 525.76 44.1771C524.23 45.7047 524.23 48.2071 525.76 49.7448C527.25 51.2422 529.67 51.2523 531.2 49.8152L531.22 49.8353C530.39 50.7599 530.42 52.1769 531.29 53.0714C532.2 53.9759 533.65 53.9759 534.57 53.0714C533.69 54.006 533.69 55.4733 534.6 56.3778C535.29 57.0713 536.3 57.2421 537.15 56.8904C537.1 56.9406 537.05 56.9909 536.99 57.0411C534.95 59.0813 534.95 62.3877 536.99 64.4379C537.49 64.9505 538.07 65.3223 538.69 65.5735L537.35 81.4224L534.03 85.1811L536.76 89.7036L528.37 160.325L530.51 163.863L530.38 165.531C529.68 165.923 529.01 166.335 528.42 166.817C527.9 167.259 527.82 168.013 528.24 168.546C528.67 169.068 529.42 169.129 529.95 168.697C530 168.656 530.08 168.626 530.14 168.586L529.66 174.405C528.99 174.807 528.31 175.199 527.75 175.661C527.22 176.093 527.14 176.877 527.57 177.41C527.98 177.953 528.77 178.023 529.29 177.591C529.32 177.551 529.37 177.541 529.41 177.5L528.93 183.44C528.28 183.842 527.61 184.214 527.06 184.686C526.52 185.138 526.44 185.952 526.86 186.485C527.3 187.038 528.07 187.108 528.61 186.656C528.63 186.656 528.68 186.636 528.68 186.606L528.2 192.676C527.57 193.078 526.89 193.45 526.34 193.922C525.79 194.374 525.71 195.198 526.14 195.761C526.57 196.324 527.37 196.404 527.91 195.932H527.93L527.43 202.143C526.81 202.535 526.14 202.907 525.61 203.359C525.06 203.831 524.97 204.676 525.42 205.248C525.85 205.801 526.63 205.892 527.16 205.449L526.66 211.691C526.02 212.113 525.42 212.545 524.88 213.007C524.32 213.479 524.22 214.354 524.66 214.937C525.08 215.499 525.84 215.58 526.38 215.168L525.86 221.55C525.25 221.962 524.65 222.404 524.12 222.876C523.55 223.369 523.45 224.243 523.89 224.846C524.31 225.399 525.01 225.509 525.58 225.127L525.05 231.66C524.44 232.082 523.87 232.524 523.32 232.976C522.76 233.479 522.66 234.383 523.12 234.996C523.51 235.559 524.2 235.65 524.75 235.318L524.22 242.001C523.63 242.423 523.05 242.856 522.53 243.328C521.95 243.84 521.85 244.755 522.32 245.388C522.7 245.931 523.37 246.051 523.92 245.75L523.37 252.594C522.78 253.016 522.23 253.448 521.71 253.89C521.12 254.423 521.02 255.368 521.49 256.011C521.87 256.544 522.5 256.674 523.05 256.413L522.48 263.458C521.94 263.86 521.39 264.292 520.88 264.734C520.29 265.267 520.18 266.242 520.65 266.895C521.02 267.438 521.62 267.569 522.18 267.347L521.6 274.563C521.07 274.975 520.52 275.387 520.05 275.83C519.43 276.392 519.33 277.377 519.8 278.051C520.16 278.573 520.77 278.744 521.28 278.543L521.18 279.759L520.93 292.573L509.37 288.302L509.24 286.714L511.38 283.176L502.98 212.545L505.72 208.012L502.39 204.264L501.06 188.435C501.67 188.173 502.25 187.792 502.74 187.289C504.78 185.239 504.78 181.932 502.74 179.882C502.69 179.832 502.63 179.782 502.58 179.732C503.43 180.103 504.45 179.933 505.13 179.229C506.05 178.314 506.05 176.817 505.13 175.902C506.05 176.817 507.54 176.817 508.45 175.902C509.36 174.978 509.36 173.501 508.45 172.566C509.97 174.114 512.45 174.114 513.97 172.566C515.51 171.038 515.51 168.556 513.97 167.018C512.45 165.471 509.96 165.471 508.45 167.018C509.36 166.094 509.36 164.596 508.45 163.682C507.54 162.777 506.05 162.777 505.13 163.682C506.05 162.777 506.05 161.27 505.13 160.355C504.23 159.441 502.74 159.441 501.83 160.355C503.35 158.817 503.35 156.325 501.83 154.797C500.3 153.26 497.82 153.26 496.29 154.797C494.78 156.315 494.77 158.787 496.27 160.315C495.35 159.441 493.9 159.441 492.99 160.355C492.09 161.25 492.09 162.687 492.93 163.611H492.92C492.01 162.777 490.58 162.787 489.69 163.682C488.81 164.566 488.78 165.973 489.59 166.888L489.57 166.918C488.04 165.501 485.65 165.511 484.15 167.028C482.62 168.556 482.62 171.038 484.15 172.576C485.65 174.083 488.06 174.114 489.59 172.656L489.62 172.686C488.79 173.601 488.8 175.028 489.7 175.913C490.6 176.827 492.04 176.827 492.97 175.943V175.963C492.1 176.877 492.1 178.335 493 179.249C493.69 179.943 494.69 180.113 495.55 179.762C495.5 179.802 495.44 179.852 495.38 179.902C493.34 181.953 493.34 185.269 495.38 187.309C495.89 187.812 496.46 188.194 497.08 188.455L495.74 204.284L492.43 208.032L495.16 212.565L486.76 283.196L488.89 286.734L488.76 288.332L477.28 292.583L477.01 279.769L476.91 278.553C477.45 278.754 478.03 278.593 478.4 278.061C478.86 277.387 478.76 276.402 478.16 275.84C477.66 275.387 477.14 274.985 476.59 274.573L476.01 267.357C476.56 267.579 477.16 267.428 477.54 266.905C478.01 266.252 477.9 265.277 477.31 264.744C476.8 264.292 476.26 263.87 475.7 263.468L475.13 256.423C475.67 256.684 476.32 256.564 476.7 256.021C477.15 255.378 477.04 254.433 476.47 253.901C475.96 253.448 475.4 253.026 474.82 252.604L474.28 245.75C474.82 246.051 475.5 245.931 475.88 245.388C476.33 244.755 476.23 243.84 475.65 243.328C475.13 242.856 474.57 242.423 473.97 242.001L473.44 235.318C473.98 235.65 474.66 235.559 475.09 234.996C475.54 234.383 475.42 233.479 474.86 232.976C474.33 232.524 473.75 232.082 473.14 231.66L472.61 225.127C473.17 225.499 473.88 225.399 474.3 224.846C474.74 224.253 474.65 223.369 474.07 222.876C473.53 222.404 472.95 221.972 472.33 221.56L471.81 215.168C472.36 215.58 473.1 215.499 473.52 214.937C473.97 214.354 473.87 213.479 473.32 213.007C472.77 212.535 472.18 212.103 471.54 211.691L471.03 205.449C471.57 205.892 472.37 205.801 472.78 205.248C473.22 204.676 473.13 203.831 472.58 203.359C472.04 202.907 471.39 202.535 470.76 202.143L470.25 195.932C470.25 195.932 470.27 195.932 470.28 195.932C470.84 196.404 471.61 196.324 472.05 195.761C472.48 195.198 472.4 194.374 471.85 193.922C471.31 193.45 470.64 193.088 470.01 192.676L469.51 186.616C469.51 186.616 469.56 186.646 469.59 186.656C470.12 187.108 470.91 187.038 471.33 186.485C471.77 185.952 471.68 185.138 471.13 184.686C470.59 184.224 469.91 183.842 469.25 183.44L468.77 177.5C468.77 177.5 468.86 177.551 468.92 177.591C469.45 178.023 470.22 177.953 470.63 177.41C471.06 176.877 470.98 176.093 470.45 175.661C469.89 175.189 469.21 174.797 468.53 174.405L468.07 168.586C468.07 168.586 468.19 168.656 468.24 168.697C468.76 169.139 469.52 169.068 469.95 168.546C470.38 168.013 470.29 167.259 469.76 166.817C469.18 166.335 468.51 165.933 467.82 165.541L467.68 163.863L469.81 160.325L461.41 89.7036L464.15 85.1811L460.82 81.4224L459.48 65.5735C460.09 65.3223 460.68 64.9505 461.18 64.4379C463.2 62.3877 463.2 59.0813 461.18 57.0411C461.13 56.9808 461.07 56.9406 461.01 56.8904C461.85 57.2421 462.87 57.0713 463.56 56.3778C464.47 55.4733 464.48 54.006 463.6 53.0714C464.52 53.9658 465.98 53.9658 466.87 53.0613C467.76 52.1568 467.79 50.7398 466.95 49.8252L466.98 49.8051C468.51 51.2423 470.92 51.2322 472.41 49.7348C473.94 48.1971 473.94 45.6947 472.41 44.1671C470.92 42.6596 468.53 42.6395 466.99 44.0666V44.0364C467.79 43.1219 467.76 41.7149 466.87 40.8305C465.99 39.936 464.57 39.9059 463.64 40.7702V40.7501C464.48 39.8355 464.46 38.3883 463.57 37.5039C462.67 36.5894 461.21 36.5793 460.3 37.4838V37.4637C461.79 35.9261 461.79 33.4638 460.27 31.9362C458.74 30.4086 456.25 30.4086 454.74 31.9362C453.22 33.4839 453.22 35.9763 454.74 37.5039C453.82 36.5793 452.35 36.5793 451.42 37.5039C450.52 38.4185 450.52 39.9059 451.42 40.8305C450.53 39.9059 449.03 39.9059 448.12 40.8305C447.2 41.7551 447.2 43.2425 448.12 44.157C446.59 42.6294 444.11 42.6294 442.58 44.157C441.06 45.6846 441.06 48.1871 442.58 49.7247C444.11 51.2523 446.59 51.2523 448.12 49.7247C447.2 50.6393 447.2 52.1267 448.12 53.0513C449.03 53.9558 450.52 53.9558 451.42 53.0513C450.52 53.9558 450.52 55.4532 451.42 56.3678C452.11 57.0612 453.13 57.2321 453.98 56.8803C453.93 56.9306 453.87 56.9808 453.82 57.031C451.77 59.0712 451.77 62.3777 453.82 64.4279C454.32 64.9404 454.9 65.3123 455.52 65.5635L454.18 81.4124L450.86 85.171L453.6 89.6935L445.2 160.315L447.34 163.853L447.2 165.521C446.51 165.913 445.84 166.325 445.26 166.807C444.74 167.249 444.65 168.003 445.07 168.536C445.32 168.827 445.65 168.978 446 168.978C446.27 168.978 446.55 168.888 446.78 168.687C446.84 168.646 446.91 168.616 446.97 168.576L446.5 174.395C445.82 174.797 445.14 175.189 444.58 175.651C444.05 176.083 443.96 176.877 444.38 177.4C444.61 177.701 444.98 177.862 445.33 177.862C445.6 177.862 445.88 177.762 446.12 177.581C446.15 177.541 446.2 177.531 446.25 177.49L445.76 183.43C445.11 183.832 444.44 184.204 443.88 184.676C443.35 185.128 443.27 185.942 443.68 186.475C443.93 186.787 444.28 186.947 444.63 186.947C444.9 186.947 445.2 186.847 445.43 186.646C445.45 186.646 445.49 186.626 445.51 186.596L445.01 192.686C444.37 193.078 443.71 193.45 443.16 193.912C442.61 194.364 442.54 195.188 442.96 195.751C443.2 196.063 443.56 196.224 443.91 196.224C444.19 196.224 444.49 196.123 444.71 195.922C444.71 195.922 444.73 195.922 444.74 195.922L444.23 202.133C443.61 202.525 442.95 202.897 442.41 203.349C441.85 203.821 441.77 204.666 442.2 205.238C442.45 205.55 442.81 205.731 443.17 205.731C443.45 205.731 443.73 205.62 443.95 205.429L443.45 211.68C442.81 212.103 442.2 212.535 441.66 212.997C441.1 213.469 441.01 214.344 441.44 214.927C441.69 215.258 442.06 215.429 442.42 215.429C442.69 215.429 442.94 215.309 443.16 215.138L442.87 218.806L427.62 227.901C427.62 227.901 427.58 227.811 427.54 227.791C427 227.328 426.34 226.946 425.67 226.554C425.48 224.283 425.32 222.333 425.18 220.736C425.23 220.776 425.29 220.796 425.34 220.846C425.87 221.268 426.62 221.198 427.04 220.665C427.47 220.153 427.39 219.379 426.86 218.947C426.28 218.454 425.6 218.072 424.92 217.68C424.83 216.615 424.78 215.992 424.78 215.992L426.92 212.444L418.51 141.833L421.25 137.31L417.94 133.552L416.61 117.703C417.21 117.452 417.79 117.08 418.3 116.577C420.34 114.537 420.34 111.211 418.3 109.17C418.25 109.12 418.2 109.08 418.15 109.02C419 109.371 420 109.201 420.69 108.507C421.6 107.613 421.6 106.135 420.73 105.221C421.66 106.105 423.11 106.085 424.02 105.181C424.9 104.296 424.92 102.869 424.09 101.955H424.1C425.64 103.382 428.05 103.352 429.54 101.854C431.07 100.326 431.07 97.8341 429.54 96.2864C428.06 94.799 425.66 94.7688 424.12 96.1959H424.1C424.92 95.2512 424.89 93.8442 424.02 92.9699C423.12 92.0754 421.69 92.0653 420.78 92.8995H420.77C421.6 91.9749 421.59 90.5277 420.7 89.6433C419.8 88.7388 418.33 88.7388 417.42 89.6132C418.9 88.0655 418.9 85.6032 417.38 84.0857C415.86 82.548 413.37 82.548 411.85 84.0857C410.33 85.6233 410.33 88.1057 411.85 89.6433C410.94 88.7087 409.44 88.7087 408.54 89.6433C407.63 90.5579 407.63 92.0553 408.54 92.9699C407.63 92.0553 406.14 92.0553 405.23 92.9699C404.31 93.8844 404.32 95.3819 405.23 96.2964C403.71 94.7688 401.22 94.7688 399.7 96.2964C398.17 97.8441 398.17 100.337 399.7 101.864C401.22 103.392 403.71 103.392 405.23 101.864C404.31 102.789 404.32 104.266 405.23 105.191C406.15 106.105 407.63 106.105 408.54 105.191C407.63 106.105 407.63 107.593 408.54 108.517C409.23 109.211 410.24 109.382 411.09 109.03C411.03 109.08 410.98 109.13 410.94 109.181C408.9 111.221 408.9 114.547 410.94 116.587C411.44 117.09 412.02 117.462 412.64 117.713L411.3 133.562L407.97 137.321L410.72 141.843L402.32 212.454L404.46 216.002C404.46 216.002 404.41 216.625 404.32 217.69C403.63 218.092 402.95 218.474 402.39 218.957C401.86 219.389 401.78 220.163 402.19 220.675C402.44 220.977 402.78 221.117 403.12 221.117C403.39 221.117 403.68 221.027 403.9 220.846C403.95 220.796 404.02 220.766 404.08 220.725C403.95 222.323 403.79 224.263 403.6 226.544C402.94 226.936 402.25 227.328 401.7 227.791C401.16 228.233 401.09 229.017 401.51 229.559C401.75 229.841 402.09 230.002 402.45 230.002C402.73 230.002 403.01 229.911 403.24 229.72C403.27 229.69 403.31 229.68 403.35 229.64C403.19 231.489 403.04 233.469 402.86 235.579C402.22 235.981 401.55 236.353 401.01 236.816C400.47 237.268 400.38 238.072 400.82 238.614C401.05 238.926 401.41 239.087 401.76 239.087C402.04 239.087 402.32 238.986 402.55 238.785C402.57 238.775 402.59 238.765 402.61 238.745C402.46 240.685 402.3 242.715 402.13 244.815C401.5 245.207 400.83 245.579 400.29 246.031C399.75 246.484 399.65 247.308 400.09 247.871C400.34 248.182 400.7 248.353 401.05 248.353C401.33 248.353 401.61 248.262 401.85 248.051C401.85 248.051 401.85 248.031 401.87 248.031C401.7 250.051 401.54 252.122 401.38 254.242C400.76 254.634 400.08 255.006 399.56 255.468C399.01 255.931 398.91 256.775 399.35 257.348C399.59 257.659 399.95 257.83 400.33 257.83C400.61 257.83 400.89 257.73 401.12 257.519C400.96 259.569 400.8 261.649 400.63 263.76C400 264.192 399.37 264.624 398.81 265.106C398.26 265.589 398.16 266.443 398.61 267.026C398.85 267.357 399.22 267.518 399.59 267.518C399.86 267.518 400.15 267.418 400.38 267.227C400.22 269.337 400.06 271.458 399.9 273.588C399.25 274.021 398.62 274.473 398.07 274.975C397.5 275.458 397.39 276.342 397.85 276.935C398.1 277.277 398.46 277.448 398.84 277.448C399.12 277.448 399.39 277.327 399.63 277.126C399.47 279.297 399.31 281.458 399.15 283.638C398.48 284.081 397.86 284.553 397.28 285.056C396.71 285.568 396.6 286.463 397.07 287.076C397.32 287.417 397.69 287.608 398.07 287.608C398.36 287.608 398.65 287.488 398.89 287.287C398.73 289.508 398.58 291.729 398.41 293.93C397.73 294.392 397.08 294.874 396.48 295.397C395.9 295.91 395.81 296.834 396.26 297.457C396.51 297.809 396.9 297.99 397.28 297.99C397.57 297.99 397.87 297.879 398.12 297.658C398.13 297.658 398.14 297.648 398.14 297.638C397.98 299.93 397.83 302.171 397.68 304.412C396.97 304.894 396.29 305.407 395.67 305.96C395.08 306.482 394.98 307.437 395.43 308.07C395.69 308.432 396.08 308.613 396.46 308.613C396.77 308.613 397.07 308.512 397.33 308.281C397.35 308.251 397.39 308.251 397.42 308.201C397.26 310.573 397.1 312.874 396.97 315.135C396.21 315.658 395.5 316.19 394.83 316.793C394.24 317.326 394.14 318.301 394.6 318.974C394.87 319.336 395.25 319.537 395.66 319.537C395.95 319.537 396.25 319.416 396.51 319.185C396.58 319.115 396.65 319.075 396.73 319.025C396.57 321.487 396.42 323.828 396.31 326.1C395.48 326.673 394.71 327.266 394 327.909C393.39 328.461 393.29 329.446 393.75 330.12C394.02 330.502 394.41 330.703 394.8 330.703C395.11 330.703 395.43 330.582 395.68 330.331C395.81 330.23 395.96 330.13 396.09 330.009C396.06 330.622 396.01 331.245 395.98 331.818C394.49 360.581 387.7 557.823 388.68 569.591H435.8C449.16 483.412 493.17 419.575 499.22 419.575L499.3 419.605ZM594.33 331.728C595.24 331.667 595.95 332.421 595.95 333.296L596.87 373.646C596.89 374.511 596.18 375.264 595.31 375.274C595.29 375.274 595.28 375.284 595.27 375.284C594.41 375.284 593.69 374.581 593.67 373.707L592.77 333.376C592.74 332.481 593.45 331.748 594.33 331.728ZM582.19 329.798C582.19 328.914 582.91 328.2 583.79 328.2C584.67 328.2 585.39 328.924 585.39 329.818L585.15 370.149C585.14 371.033 584.42 371.757 583.55 371.757H583.53C582.64 371.757 581.94 371.023 581.94 370.129L582.19 329.788V329.798ZM572.35 326.512C572.37 325.627 573.13 325.034 573.98 324.944C574.87 324.944 575.58 325.678 575.56 326.562L574.92 366.45C574.9 367.335 574.19 368.038 573.32 368.038H573.28C572.41 368.018 571.71 367.285 571.72 366.4L572.36 326.512H572.35ZM557.28 235.489C557.66 235.489 558.04 235.328 558.28 234.966C558.56 234.594 558.6 234.112 558.48 233.68L571.16 242.634C571.11 243.368 571.04 244.102 570.98 244.856C570.37 245.247 569.74 245.589 569.23 246.031C568.68 246.484 568.6 247.308 569.02 247.871C569.45 248.423 570.17 248.474 570.72 248.082C570.56 250.092 570.38 252.182 570.21 254.303C569.63 254.684 569 255.036 568.48 255.458C567.94 255.931 567.86 256.775 568.28 257.348C568.69 257.88 569.4 257.961 569.94 257.609C569.78 259.649 569.62 261.74 569.45 263.85C568.84 264.252 568.27 264.664 567.75 265.116C567.18 265.589 567.09 266.453 567.53 267.036C567.94 267.569 568.63 267.659 569.17 267.317C569.01 269.428 568.84 271.548 568.69 273.679C568.08 274.091 567.52 274.513 566.99 274.975C566.43 275.458 566.32 276.352 566.78 276.945C567.18 277.478 567.88 277.578 568.42 277.247C568.25 279.407 568.08 281.578 567.92 283.749C567.32 284.171 566.76 284.603 566.22 285.066C565.65 285.578 565.54 286.473 565.99 287.086C566.4 287.648 567.09 287.749 567.67 287.397C567.5 289.628 567.32 291.829 567.18 294.04C566.56 294.472 565.96 294.925 565.42 295.407C564.85 295.92 564.73 296.844 565.19 297.467C565.62 298.04 566.35 298.141 566.91 297.759C566.76 300.05 566.6 302.301 566.44 304.532C565.79 304.985 565.19 305.477 564.61 305.98C564.04 306.502 563.93 307.457 564.39 308.09C564.82 308.713 565.62 308.814 566.2 308.361C566.04 310.713 565.89 313.025 565.75 315.256C565.06 315.748 564.41 316.261 563.79 316.824C563.2 317.356 563.08 318.331 563.54 318.974C564.01 319.648 564.87 319.728 565.46 319.205C565.48 319.185 565.51 319.175 565.53 319.155C565.38 321.607 565.24 323.959 565.13 326.18C564.36 326.723 563.61 327.306 562.94 327.929C562.34 328.482 562.23 329.466 562.7 330.14C563.17 330.813 564.04 330.914 564.63 330.351C564.74 330.27 564.85 330.19 564.95 330.11C564.93 330.482 564.91 330.873 564.9 331.235C564.41 342.24 563.54 369.707 562.57 402.269L560.22 279.729L560.11 278.423C560.27 278.483 560.41 278.603 560.56 278.603C560.97 278.603 561.34 278.402 561.62 278.021C562.08 277.347 561.97 276.362 561.36 275.799C560.87 275.347 560.36 274.945 559.8 274.533L559.21 267.237C559.37 267.317 559.52 267.428 559.7 267.428C560.1 267.428 560.49 267.237 560.74 266.855C561.2 266.202 561.09 265.227 560.49 264.694C560 264.242 559.45 263.82 558.9 263.418L558.32 256.313C558.49 256.403 558.66 256.524 558.86 256.524C559.26 256.524 559.64 256.333 559.9 255.971C560.36 255.338 560.26 254.383 559.67 253.85C559.15 253.398 558.6 252.976 558.03 252.554L557.47 245.649C557.66 245.75 557.85 245.881 558.06 245.881C558.45 245.881 558.83 245.7 559.08 245.348C559.53 244.715 559.43 243.8 558.85 243.288C558.33 242.815 557.77 242.383 557.17 241.961L556.63 235.248C556.83 235.368 557.04 235.479 557.27 235.479L557.28 235.489ZM561.03 448.288C561.65 448.288 566.92 456.107 566.92 465.724H555.13C555.13 456.107 560.41 448.288 561.03 448.288ZM576.6 448.288C577.22 448.288 582.49 456.107 582.49 465.724H570.7C570.7 456.107 575.98 448.288 576.6 448.288ZM550.97 316.301C551.86 316.301 552.57 317.025 552.57 317.909L552.63 358.25C552.63 359.144 551.9 359.848 551.02 359.858C550.13 359.858 549.42 359.144 549.42 358.25L549.35 317.909C549.35 317.015 550.07 316.301 550.95 316.291L550.97 316.301ZM539.15 314.361C539.15 313.467 539.78 312.703 540.77 312.784C541.66 312.784 542.36 313.517 542.34 314.412L541.74 354.742C541.72 355.617 541.02 356.33 540.14 356.33H540.12C539.23 356.31 538.52 355.586 538.53 354.692L539.14 314.361H539.15ZM528.95 311.085C528.97 310.201 529.74 309.437 530.59 309.507C531.48 309.517 532.19 310.251 532.17 311.135L531.51 351.024C531.51 351.898 530.79 352.612 529.93 352.612C529.92 352.612 529.91 352.612 529.9 352.612C529.01 352.591 528.31 351.868 528.32 350.984L528.95 311.095V311.085ZM518.71 402.56H518.61L518.5 401.354C518.58 401.384 518.66 401.384 518.73 401.394L518.7 402.56H518.71ZM518.81 397.857C518.59 397.696 518.4 397.515 518.18 397.354L517.61 390.169C517.76 390.229 517.93 390.269 518.09 390.269C518.41 390.269 518.72 390.108 518.97 389.857L518.81 397.867V397.857ZM520.69 305.859L519.02 387.686C519.02 387.686 518.94 387.576 518.9 387.525C518.39 387.073 517.85 386.631 517.28 386.239L516.72 379.224C516.89 379.314 517.07 379.365 517.25 379.365C517.65 379.365 518.02 379.174 518.29 378.802C518.74 378.159 518.64 377.224 518.06 376.691C517.55 376.239 517 375.787 516.41 375.385L515.86 368.561C516.04 368.662 516.25 368.712 516.46 368.712C516.84 368.712 517.22 368.521 517.48 368.169C517.94 367.546 517.82 366.621 517.25 366.099C516.72 365.636 516.17 365.204 515.57 364.782L515.03 358.129C515.22 358.25 515.45 358.31 515.66 358.31C516.04 358.31 516.41 358.129 516.66 357.777C517.11 357.164 517.02 356.27 516.44 355.757C515.91 355.295 515.33 354.853 514.72 354.441L514.2 347.938C514.42 348.069 514.66 348.149 514.89 348.149C515.27 348.149 515.63 347.979 515.88 347.637C516.33 347.044 516.21 346.16 515.67 345.657C515.13 345.195 514.53 344.742 513.91 344.33L513.39 337.969C513.62 338.13 513.88 338.22 514.14 338.22C514.51 338.22 514.87 338.049 515.12 337.707C515.57 337.125 515.46 336.27 514.9 335.778C514.36 335.305 513.77 334.863 513.12 334.451L512.62 328.22C512.85 328.411 513.12 328.512 513.39 328.512C513.76 328.512 514.13 328.341 514.36 328.019C514.8 327.446 514.71 326.602 514.16 326.14C513.61 325.647 512.99 325.215 512.33 324.803L511.86 318.703C511.86 318.703 511.86 318.703 511.88 318.723C512.12 318.924 512.4 319.014 512.68 319.014C513.04 319.014 513.4 318.854 513.64 318.542C514.08 317.979 513.98 317.145 513.44 316.703C512.87 316.221 512.25 315.778 511.6 315.376L511.1 309.397C511.1 309.397 511.16 309.427 511.17 309.447C511.42 309.658 511.7 309.738 511.97 309.738C512.33 309.738 512.68 309.588 512.92 309.286C513.35 308.743 513.26 307.929 512.73 307.467C512.15 307.005 511.52 306.552 510.85 306.15L510.49 301.769L520.68 305.829L520.69 305.859ZM404.62 373.707C404.6 374.591 403.88 375.284 403.02 375.284C403 375.284 403 375.274 402.99 375.274C402.11 375.274 401.4 374.521 401.42 373.646L402.32 333.296C402.34 332.421 403.01 331.667 403.96 331.728C404.85 331.748 405.55 332.481 405.52 333.376L404.62 373.707ZM414.75 371.757H414.74C413.86 371.757 413.15 371.043 413.14 370.149L412.89 329.818C412.89 328.924 413.6 328.21 414.48 328.2C414.48 328.2 414.486 328.2 414.5 328.2C415.38 328.2 416.09 328.914 416.09 329.798L416.34 370.139C416.35 371.023 415.63 371.767 414.74 371.767L414.75 371.757ZM425.01 368.038H424.97C424.09 368.038 423.38 367.335 423.37 366.45L422.74 326.562C422.72 325.678 423.42 324.944 424.3 324.944C425.15 325.024 425.92 325.637 425.93 326.512L426.57 366.4C426.59 367.285 425.88 368.018 425.01 368.038ZM429.86 277.257C430.4 277.588 431.1 277.488 431.49 276.955C431.94 276.362 431.84 275.468 431.27 274.985C430.75 274.523 430.18 274.091 429.58 273.689C429.42 271.558 429.25 269.428 429.09 267.327C429.63 267.679 430.32 267.579 430.73 267.046C431.17 266.463 431.07 265.599 430.51 265.126C430 264.664 429.42 264.262 428.82 263.86C428.65 261.75 428.49 259.659 428.32 257.609C428.86 257.971 429.57 257.89 429.98 257.358C430.42 256.785 430.32 255.941 429.78 255.468C429.27 255.046 428.64 254.694 428.06 254.313C427.88 252.192 427.72 250.092 427.55 248.092C428.09 248.484 428.82 248.423 429.24 247.881C429.67 247.318 429.57 246.494 429.04 246.041C428.53 245.599 427.9 245.258 427.29 244.866C427.22 244.122 427.16 243.378 427.11 242.644L439.8 233.7C439.67 234.132 439.72 234.605 440.01 234.976C440.25 235.338 440.62 235.499 441.02 235.499C441.24 235.499 441.44 235.388 441.65 235.268L441.11 241.971C440.51 242.393 439.95 242.825 439.43 243.298C438.85 243.81 438.75 244.725 439.19 245.358C439.45 245.72 439.83 245.891 440.21 245.891C440.42 245.891 440.61 245.77 440.8 245.659L440.24 252.564C439.66 252.986 439.11 253.418 438.59 253.86C438.02 254.393 437.92 255.348 438.38 255.981C438.63 256.343 439.01 256.534 439.4 256.534C439.6 256.534 439.78 256.413 439.96 256.323L439.38 263.428C438.83 263.83 438.28 264.262 437.78 264.704C437.18 265.237 437.08 266.212 437.54 266.865C437.8 267.237 438.19 267.438 438.58 267.438C438.75 267.438 438.91 267.327 439.07 267.247L438.49 274.543C437.95 274.955 437.42 275.367 436.93 275.809C436.32 276.372 436.21 277.357 436.67 278.031C436.94 278.412 437.34 278.613 437.74 278.613C437.89 278.613 438.03 278.493 438.17 278.433L438.06 279.739L435.72 402.279C434.76 369.717 433.9 342.25 433.4 331.245C433.39 330.884 433.36 330.492 433.35 330.12C433.44 330.21 433.56 330.281 433.66 330.361C434.25 330.924 435.12 330.823 435.59 330.15C436.05 329.466 435.95 328.482 435.34 327.939C434.67 327.316 433.94 326.733 433.14 326.2C433.03 323.979 432.91 321.627 432.75 319.165C432.77 319.185 432.8 319.185 432.81 319.215C433.4 319.748 434.26 319.658 434.72 318.984C435.18 318.341 435.08 317.366 434.49 316.834C433.87 316.271 433.21 315.758 432.51 315.266C432.37 313.035 432.22 310.723 432.06 308.372C432.65 308.824 433.44 308.723 433.88 308.1C434.33 307.467 434.23 306.512 433.65 305.99C433.08 305.487 432.46 304.995 431.81 304.542C431.66 302.321 431.5 300.07 431.34 297.769C431.9 298.151 432.63 298.04 433.06 297.477C433.51 296.854 433.4 295.93 432.82 295.417C432.28 294.935 431.7 294.482 431.08 294.05C430.92 291.859 430.76 289.628 430.59 287.407C431.15 287.759 431.85 287.648 432.25 287.096C432.71 286.483 432.6 285.588 432.04 285.076C431.5 284.613 430.93 284.181 430.33 283.759C430.17 281.588 430.01 279.417 429.84 277.257H429.86ZM430.48 465.724C430.48 456.107 435.74 448.288 436.38 448.288C437.02 448.288 442.28 456.107 442.28 465.724H430.48ZM414.43 465.724C414.43 456.107 419.69 448.288 420.33 448.288C420.97 448.288 426.23 456.107 426.23 465.724H414.43ZM448.86 358.25C448.86 359.144 448.14 359.858 447.26 359.858C446.38 359.858 445.66 359.134 445.66 358.25L445.73 317.909C445.73 317.015 446.45 316.301 447.34 316.301C448.22 316.301 448.94 317.025 448.94 317.919L448.86 358.26V358.25ZM458.17 356.33H458.14C457.28 356.33 456.56 355.617 456.55 354.742L455.93 314.412C455.92 313.517 456.62 312.784 457.51 312.784C457.51 312.784 457.51 312.784 457.53 312.784C458.4 312.784 459.11 313.497 459.13 314.371L459.74 354.702C459.76 355.596 459.04 356.32 458.17 356.34V356.33ZM468.4 352.602H468.38C467.5 352.602 466.79 351.908 466.78 351.014L466.13 311.125C466.13 310.241 466.82 309.507 467.72 309.497C468.72 309.427 469.32 310.191 469.34 311.075L469.99 350.963C469.99 351.858 469.29 352.581 468.41 352.592L468.4 352.602ZM479.62 402.56H479.57V401.354C479.57 401.354 479.66 401.384 479.72 401.354L479.62 402.56ZM480.04 397.354C479.85 397.495 479.68 397.656 479.49 397.806L479.33 389.877C479.71 390.209 480.17 390.359 480.63 390.169L480.04 397.364V397.354ZM487.38 306.181C486.68 306.583 486.04 307.025 485.47 307.497C484.94 307.959 484.84 308.774 485.28 309.316C485.71 309.859 486.48 309.929 487.02 309.477C487.04 309.457 487.07 309.437 487.09 309.427L486.62 315.407C485.94 315.809 485.32 316.251 484.76 316.733C484.22 317.175 484.12 318.009 484.57 318.572C485 319.125 485.79 319.205 486.33 318.753C486.33 318.743 486.34 318.733 486.35 318.733L485.86 324.833C485.19 325.245 484.59 325.678 484.03 326.17C483.48 326.632 483.39 327.467 483.83 328.049C484.26 328.612 485.02 328.703 485.57 328.25L485.08 334.481C484.44 334.893 483.84 335.336 483.29 335.808C482.73 336.29 482.64 337.155 483.07 337.738C483.5 338.3 484.24 338.401 484.8 337.999L484.28 344.361C483.66 344.763 483.08 345.225 482.53 345.687C481.97 346.18 481.88 347.074 482.32 347.667C482.72 348.22 483.44 348.33 484 347.969L483.47 354.471C482.86 354.883 482.28 355.325 481.75 355.787C481.18 356.3 481.08 357.194 481.54 357.807C481.94 358.35 482.63 358.491 483.18 358.149L482.64 364.802C482.04 365.224 481.48 365.667 480.95 366.119C480.38 366.631 480.27 367.556 480.73 368.189C481.11 368.732 481.78 368.873 482.33 368.581L481.78 375.395C481.2 375.807 480.66 376.259 480.14 376.712C479.55 377.224 479.45 378.179 479.91 378.822C480.29 379.355 480.94 379.515 481.47 379.244L480.91 386.249C480.34 386.661 479.81 387.103 479.31 387.545C479.28 387.566 479.27 387.596 479.25 387.626L477.58 305.879L487.7 301.849L487.35 306.201L487.38 306.181Z" fill="#58C4DC"/>
</g>
<path d="M491.24 490.719L476.07 473.654C508.41 444.629 542.12 400.329 573.56 345.536C603.7 293.015 625.21 240.182 634.11 196.756C639.8 168.988 641.07 143.813 637.76 123.924C634.91 106.819 628.8 94.7587 620.54 89.9749C612.77 85.4725 600.15 86.0855 584.99 91.6834C567.43 98.1757 547.61 110.819 527.66 128.265C526.03 129.692 524.37 131.18 522.73 132.667L507.43 115.723C509.18 114.125 510.96 112.537 512.72 110.999C534.74 91.7437 557.01 77.6335 577.14 70.1965C599.06 62.0962 618 62.0761 631.92 70.1463C660.26 86.568 669.65 136.848 656.42 201.369C647.04 247.127 624.62 302.382 593.29 356.963C560.65 413.846 525.36 460.096 491.24 490.719Z" fill="#303030"/>
<path d="M499.2 411.555C432.36 411.555 373.91 403.615 330.15 388.58C301.75 378.822 277.68 365.877 260.54 351.124C242.32 335.446 232.69 318.421 232.69 301.899C232.69 270.272 267.26 239.288 325.17 219.007C330.28 217.218 335.66 215.489 341.16 213.851L347.59 235.8C342.44 237.328 337.42 238.946 332.65 240.614C279.32 259.297 255.45 284.854 255.45 301.899C255.45 318.944 281.13 347.566 337.51 366.923C378.92 381.143 434.83 388.661 499.19 388.661C517.75 388.661 536.15 387.927 553.86 386.49L555.7 409.303C537.38 410.791 518.37 411.545 499.19 411.545L499.2 411.555Z" fill="#303030"/>
<path d="M391.07 540.486C381.43 540.486 372.86 538.396 365.64 534.205C338.39 518.406 328.94 472.83 340.37 412.288C341.12 408.319 341.97 404.228 342.9 400.128L365.1 405.213C364.23 409.042 363.44 412.861 362.74 416.55C352.22 472.317 362.33 505.864 377.02 514.386C392.32 523.25 429.21 514.849 474.06 475.433C477.14 472.729 480.28 469.835 483.4 466.83L499.16 483.352C495.79 486.598 492.39 489.734 489.05 492.668C466.46 512.517 443.27 526.999 421.98 534.557C410.83 538.516 400.44 540.496 391.07 540.496V540.486Z" fill="#303030"/>
<path d="M50.41 671.568H40.43V698.753H22V621.901H52.09C61.16 621.901 68.25 623.921 73.36 627.961C78.47 632.001 81.03 637.72 81.03 645.096C81.03 650.443 79.95 654.865 77.8 658.382C75.65 661.9 72.28 664.744 67.69 666.925L83.66 697.959V698.753H63.91L50.41 671.568ZM40.43 657.317H52.09C55.59 657.317 58.23 656.393 59.99 654.543C61.76 652.694 62.64 650.111 62.64 646.795C62.64 643.478 61.75 640.875 59.96 638.986C58.17 637.096 55.55 636.152 52.08 636.152H40.42V657.317H40.43Z" fill="#303030"/>
<path d="M139.59 666.131H110.6V684.502H144.84V698.753H92.1602V621.901H144.94V636.202H110.59V652.403H139.58V666.131H139.59Z" fill="#303030"/>
<path d="M195.78 684.392H170.52L166.11 698.753H146.42L174.47 621.901H191.8L220.06 698.753H200.26L195.8 684.392H195.78ZM174.93 670.091H191.37L183.12 643.438L174.93 670.091Z" fill="#303030"/>
<path d="M286.38 672.724C286.13 678.07 284.7 682.794 282.07 686.894C279.44 690.995 275.76 694.171 271.01 696.422C266.26 698.673 260.85 699.799 254.76 699.799C244.71 699.799 236.8 696.512 231.02 689.929C225.24 683.347 222.35 674.061 222.35 662.061V658.262C222.35 650.734 223.65 644.142 226.26 638.494C228.87 632.845 232.62 628.484 237.53 625.398C242.43 622.323 248.1 620.775 254.55 620.775C263.83 620.775 271.29 623.228 276.92 628.142C282.56 633.046 285.76 639.82 286.53 648.433H268.15C268.01 643.75 266.84 640.393 264.63 638.353C262.42 636.313 259.06 635.298 254.55 635.298C250.04 635.298 246.6 637.016 244.47 640.473C242.33 643.921 241.21 649.428 241.11 656.996V662.433C241.11 670.633 242.13 676.493 244.18 680.01C246.23 683.528 249.76 685.286 254.76 685.286C259 685.286 262.24 684.281 264.48 682.281C266.72 680.281 267.91 677.096 268.05 672.724H286.38Z" fill="#303030"/>
<path d="M353.6 636.202H330.65V698.753H312.22V636.202H289.69V621.901H353.61V636.202H353.6Z" fill="#303030"/>
<path d="M388.9 698.753V621.901H411.48C419.67 621.901 425.89 623.599 430.12 626.996C434.36 630.393 436.47 635.408 436.47 642.021C436.47 646.001 435.39 649.458 433.24 652.403C431.09 655.347 428.14 657.448 424.39 658.714C428.84 659.699 432.42 661.9 435.13 665.307C437.84 668.714 439.2 672.653 439.2 677.126C439.2 683.909 437.02 689.216 432.66 693.035C428.3 696.854 422.23 698.763 414.46 698.763H388.88L388.9 698.753ZM395.36 656.362H413.01C418.4 656.252 422.58 654.975 425.54 652.533C428.5 650.081 429.98 646.513 429.98 641.83C429.98 636.895 428.45 633.257 425.38 630.906C422.32 628.564 417.69 627.388 411.49 627.388H395.37V656.362H395.36ZM395.36 661.86V693.266H414.74C420.27 693.266 424.66 691.849 427.9 689.025C431.14 686.201 432.76 682.271 432.76 677.246C432.76 672.503 431.21 668.754 428.11 666C425.01 663.247 420.73 661.86 415.27 661.86H395.37H395.36Z" fill="#58C4DC"/>
<path d="M496.09 677.166H461.37L453.49 698.753H446.72L475.66 621.901H481.81L510.75 698.753H504.03L496.1 677.166H496.09ZM463.37 671.668H494.04L478.7 629.81L463.36 671.668H463.37Z" fill="#58C4DC"/>
<path d="M550.55 666.714H528.33V698.753H521.82V621.901H546.66C554.82 621.901 561.19 623.881 565.78 627.861C570.37 631.83 572.66 637.388 572.66 644.523C572.66 649.448 571.22 653.78 568.35 657.548C565.48 661.307 561.63 663.91 556.8 665.347L575.92 698.07V698.753H569.04L550.55 666.714ZM528.34 661.216H548.14C553.57 661.216 557.93 659.669 561.22 656.563C564.51 653.458 566.16 649.448 566.16 644.513C566.16 639.086 564.44 634.875 561.01 631.881C557.58 628.886 552.76 627.388 546.57 627.388H528.35V661.227L528.34 661.216Z" fill="#58C4DC"/>
<path d="M644.41 674.784C643.53 682.874 640.65 689.065 635.77 693.366C630.89 697.668 624.38 699.808 616.26 699.808C610.59 699.808 605.57 698.381 601.21 695.527C596.85 692.673 593.48 688.643 591.1 683.417C588.72 678.191 587.51 672.221 587.48 665.498V655.518C587.48 648.694 588.67 642.644 591.05 637.358C593.43 632.081 596.85 628.011 601.32 625.137C605.78 622.273 610.92 620.835 616.73 620.835C624.92 620.835 631.39 623.056 636.14 627.489C640.88 631.921 643.64 638.061 644.41 645.91H637.9C636.29 632.855 629.23 626.333 616.73 626.333C609.8 626.333 604.27 628.936 600.16 634.152C596.04 639.368 593.99 646.563 593.99 655.759V665.166C593.99 674.04 595.99 681.115 600 686.402C604.01 691.688 609.43 694.321 616.25 694.321C623.07 694.321 628.1 692.693 631.53 689.437C634.96 686.181 637.08 681.296 637.89 674.794H644.4L644.41 674.784Z" fill="#58C4DC"/>
<path d="M702.34 661.91H666.57V693.266H707.69V698.753H660.11V621.901H707.43V627.388H666.57V656.423H702.34V661.91Z" fill="#58C4DC"/>
<path d="M727.81 693.256H765.57V698.743H721.3V621.891H727.81V693.256Z" fill="#58C4DC"/>
<path d="M831.06 664.493C831.06 671.568 829.84 677.779 827.41 683.126C824.98 688.472 821.5 692.593 816.98 695.477C812.46 698.361 807.25 699.809 801.33 699.809C792.4 699.809 785.19 696.593 779.69 690.171C774.19 683.749 771.44 675.086 771.44 664.171V656.252C771.44 649.247 772.67 643.046 775.14 637.649C777.61 632.252 781.1 628.092 785.62 625.197C790.14 622.293 795.34 620.846 801.22 620.846C807.1 620.846 812.29 622.273 816.79 625.117C821.29 627.971 824.76 632.001 827.21 637.207C829.66 642.413 830.94 648.453 831.04 655.307V664.493H831.06ZM824.6 656.151C824.6 646.895 822.52 639.649 818.35 634.403C814.18 629.157 808.48 626.534 801.23 626.534C793.98 626.534 788.46 629.167 784.24 634.423C780.02 639.679 777.91 647.026 777.91 656.463V664.483C777.91 673.598 780.01 680.824 784.21 686.151C788.41 691.477 794.12 694.15 801.33 694.15C808.54 694.15 814.35 691.517 818.45 686.261C822.55 681.005 824.59 673.669 824.59 664.282V656.151H824.6Z" fill="#58C4DC"/>
<path d="M904.27 698.753H897.81L853.85 632.986V698.753H847.34V621.901H853.85L897.86 687.718V621.901H904.27V698.753Z" fill="#58C4DC"/>
<path d="M965.93 677.166H931.21L923.33 698.753H916.56L945.5 621.901H951.65L980.59 698.753H973.87L965.94 677.166H965.93ZM933.21 671.668H963.88L948.54 629.81L933.2 671.668H933.21Z" fill="#58C4DC"/>
<path d="M499.2 411.555C491.91 411.555 484.58 411.454 477.42 411.263L478.04 388.39C484.99 388.581 492.12 388.671 499.21 388.671C559.54 388.671 615.82 380.993 657.69 367.053C659.78 366.36 661.9 365.626 664 364.873L671.62 386.44C669.36 387.244 667.08 388.038 664.84 388.782C620.73 403.465 561.9 411.555 499.2 411.555Z" fill="#303030"/>
</g>
<defs>
<linearGradient id="paint0_linear_8_42" x1="503.01" y1="411.866" x2="495.324" y2="192.929" gradientUnits="userSpaceOnUse">
<stop offset="0.9" stop-color="#303030"/>
<stop offset="0.93" stop-color="#2A2A2A"/>
<stop offset="0.96" stop-color="#1B1B1B"/>
<stop offset="1"/>
</linearGradient>
<linearGradient id="paint1_linear_8_42" x1="594.29" y1="355.385" x2="403.665" y2="250.245" gradientUnits="userSpaceOnUse">
<stop offset="0.76" stop-color="#303030"/>
<stop offset="0.88" stop-color="#2E2E2E"/>
<stop offset="0.93" stop-color="#272727"/>
<stop offset="0.96" stop-color="#1A1A1A"/>
<stop offset="0.99" stop-color="#090909"/>
<stop offset="1"/>
</linearGradient>
<linearGradient id="paint2_linear_8_42" x1="409.37" y1="372.852" x2="589.829" y2="232.563" gradientUnits="userSpaceOnUse">
<stop offset="0.61" stop-color="#303030"/>
<stop offset="0.72" stop-color="#2A2A2A"/>
<stop offset="0.84" stop-color="#1B1B1B"/>
<stop offset="0.98" stop-color="#030303"/>
<stop offset="1"/>
</linearGradient>
<clipPath id="clip0_8_42">
<rect width="1002" height="716" fill="white"/>
</clipPath>
</defs>
</svg>
