<svg width="322" height="317" viewBox="0 0 322 317" fill="none" xmlns="http://www.w3.org/2000/svg">
<g clip-path="url(#clip0_18515_236)">
<mask id="mask0_18515_236" style="mask-type:luminance" maskUnits="userSpaceOnUse" x="0" y="0" width="322" height="317">
<path d="M321.619 0H0.753906V316.499H321.619V0Z" fill="white"/>
</mask>
<g mask="url(#mask0_18515_236)">
<path d="M25.1468 93.4759V66.5734C25.1468 62.1533 24.0008 59.6432 21.2724 59.6432H17.7254V104.826H1.02734V2.23677H22.6366C34.4235 2.23677 41.6266 9.16701 41.6266 21.6633V39.5618C41.6266 45.4007 40.1532 50.1482 33.5504 53.2586C40.0441 56.5873 41.6266 61.3348 41.6266 67.2282V93.4213C41.6266 97.132 42.1722 101.061 43.7002 104.772H27.0567C25.4196 101.497 25.1468 97.0228 25.1468 93.4759ZM25.1468 40.2167V21.6633C25.1468 17.0795 24.0008 14.5693 21.2724 14.5693H17.7254V47.1469H21.2724C24.0008 47.1469 25.1468 44.6367 25.1468 40.2167ZM47.4109 104.826V2.23677H79.6065V15.8244H63.9452V46.1647H77.9148V59.7523H63.9452V91.2931H79.6065V104.881H47.4109V104.826ZM93.9581 2.23677H113.112L125.444 104.826H109.237L107.437 82.453H98.8693L97.0685 104.826H81.6255L93.9581 2.23677ZM101.598 47.8563L99.9606 68.9199H106.291L104.49 47.8563L103.344 30.0669H102.907L101.598 47.8563ZM167.299 63.1902V85.236C167.299 98.4962 160.641 105.863 148.036 105.863C135.376 105.863 127.627 98.4962 127.627 85.236V21.7178C127.627 8.45761 135.43 1.09082 148.036 1.09082C160.696 1.09082 167.299 8.45761 167.299 21.7178V42.9451H151.746V20.4628C151.746 16.1518 150.601 13.6962 148.036 13.6962C145.253 13.6962 144.161 16.2064 144.161 20.4628V86.6002C144.161 90.7474 145.307 93.2576 148.036 93.2576C150.655 93.2576 151.746 90.7474 151.746 86.6002V63.1902H167.299ZM207.843 15.8244H196.929V104.881H180.45V15.8244H169.536V2.23677H207.952V15.8244H207.843Z" fill="#8232FF"/>
<path d="M0.808475 113.448H17.2883V197.921C17.2883 202.068 18.2705 204.578 20.8352 204.578C23.4 204.578 24.3276 202.068 24.3276 197.921V113.448H40.8074V196.502C40.8074 209.762 33.4406 217.129 20.8352 217.129C8.22984 217.129 0.753906 209.762 0.753906 196.502V113.448H0.808475ZM64.2175 113.448L72.9485 164.906H73.2213V113.448H87.5183V216.037H72.7848L61.1616 156.012H60.8888V216.037H46.5917V113.448H64.2175ZM93.5209 216.037V113.448H110.164V216.037H93.5209ZM144.597 216.037H126.044L113.821 113.448H130.901L134.775 167.635L135.648 181.332H136.085L136.958 167.635L140.832 113.448H157.039L144.597 216.037ZM160.586 216.037V113.448H192.782V127.036H177.12V157.376H191.09V170.963H177.12V202.45H192.782V215.983H160.586V216.037ZM221.43 204.687V177.785C221.43 173.365 220.284 170.854 217.556 170.854H214.009V216.037H197.365V113.448H218.975C230.762 113.448 237.965 120.378 237.965 132.874V150.773C237.965 156.612 236.491 161.359 229.888 164.47C236.382 167.798 237.965 172.546 237.965 178.439V204.632C237.965 208.343 238.51 212.272 240.038 215.983H223.395C221.703 212.709 221.43 208.289 221.43 204.687ZM221.43 151.428V132.874C221.43 128.291 220.284 125.78 217.556 125.78H214.009V158.358H217.556C220.339 158.358 221.43 155.848 221.43 151.428ZM281.456 133.093V152.356H266.013V131.565C266.013 127.418 264.867 124.907 262.302 124.907C259.738 124.907 258.755 127.418 258.755 131.565V144.225C258.755 149.954 260.556 151.864 264.758 155.848L272.67 163.051C279.437 169.545 281.783 173.746 281.783 184.115V196.338C281.783 209.762 274.144 217.129 261.92 217.129C249.588 217.129 242.658 209.762 242.658 196.338V176.639H258.21V197.866C258.21 202.013 259.356 204.523 261.92 204.523C264.485 204.523 265.576 202.013 265.576 197.866V184.606C265.576 178.876 264.376 177.675 260.01 173.801L251.825 166.434C245.823 160.868 242.712 156.012 242.712 146.462V133.202C242.712 119.778 250.188 112.411 262.575 112.411C274.908 112.411 281.456 119.669 281.456 133.093ZM286.695 216.037V113.448H318.89V127.036H303.229V157.376H317.253V170.963H303.284V202.45H318.89V215.983H286.695V216.037Z" fill="#8232FF"/>
<path d="M270.98 96.4775C260.339 96.4775 250.626 88.4559 244.841 74.8683C231.254 69.1385 223.177 59.4253 223.068 48.7844C223.068 38.1434 231.09 28.3756 244.678 22.5913C250.407 9.00368 260.121 0.927497 270.762 0.818359H270.816C281.457 0.818359 291.17 8.83998 296.955 22.4276C310.542 28.1573 318.618 37.8706 318.618 48.5115V50.094H318.564C317.854 60.1347 309.942 69.1931 297.009 74.65C291.389 88.3468 281.675 96.4775 270.98 96.4775ZM270.871 4.09249C261.321 4.09249 252.59 11.7321 247.461 24.5012L247.188 25.1015L246.588 25.3743C233.873 30.6129 226.233 39.3985 226.233 48.8389C226.233 58.2793 233.873 67.0649 246.588 72.249L247.188 72.5218L247.461 73.1221C252.754 85.782 261.485 93.3671 270.925 93.3671H270.98C280.42 93.3671 289.206 85.7275 294.39 72.9584L294.663 72.3581L295.263 72.0853C307.923 66.7921 315.508 58.0611 315.508 48.6207V48.2387C315.29 38.9074 307.705 30.3401 295.154 25.2106L294.554 24.9378L294.281 24.3375C289.042 11.623 280.311 4.03792 270.871 4.09249Z" fill="#8232FF"/>
<path d="M271.034 97.4054H269.998C259.52 96.9688 249.916 88.8926 244.132 75.5778C230.435 69.739 222.195 59.6983 222.195 48.7845C222.195 37.9253 230.326 27.8847 244.023 21.8821C249.862 8.23989 259.902 0 270.816 0H270.871C281.73 0 291.771 8.18532 297.719 21.8275C311.415 27.721 319.655 37.7071 319.655 48.6208V51.131H319.546C318.4 61.1171 310.597 70.0118 297.882 75.5233C291.88 89.1655 281.948 97.4054 271.034 97.4054ZM270.816 1.85534C260.666 1.90991 251.171 9.82239 245.66 23.028L245.551 23.3555L245.223 23.4646C231.963 29.1398 224.105 38.5802 224.105 48.8391C224.105 59.098 232.018 68.4839 245.223 73.9953L245.551 74.1045L245.66 74.4319C251.226 87.583 260.666 95.4955 270.871 95.4955H271.362C281.403 95.2226 290.625 87.3647 296.082 74.3773L296.191 74.0499L296.518 73.9408C309.123 68.5385 316.763 59.862 317.472 50.1488L317.527 49.3848V48.5663C317.527 38.3073 309.615 28.9215 296.409 23.41L296.082 23.3009L295.972 22.9735C290.461 9.76782 281.021 1.85534 270.816 1.85534ZM271.034 94.2949C261.103 94.2949 252.044 86.4916 246.642 73.4497L246.533 73.1768L246.26 73.0677C233.218 67.7745 225.36 58.7161 225.36 48.8937C225.36 39.0713 233.164 29.9037 246.206 24.5014L246.478 24.3923L246.533 24.1194C251.881 11.0775 260.939 3.21956 270.816 3.21956H270.871C280.693 3.21956 289.806 11.0229 295.208 24.0649L295.318 24.3377L295.59 24.3923C308.523 29.6854 316.327 38.6347 316.545 48.348V48.73C316.545 58.5524 308.741 67.7199 295.7 73.1222L295.427 73.2314L295.372 73.5042C289.97 86.437 280.911 94.2949 271.034 94.2949ZM270.816 5.02033C261.758 5.02033 253.3 12.4417 248.279 24.7743L247.897 25.7565L246.915 26.193C234.582 31.2679 227.216 39.7807 227.216 48.8391C227.216 57.8975 234.637 66.3557 246.97 71.376L247.952 71.758L248.334 72.7403C253.409 85.0182 261.867 92.4396 270.925 92.4396H270.98C280.038 92.4396 288.496 85.0182 293.517 72.6857L293.899 71.7034L294.881 71.3215C307.214 66.2466 314.58 57.7338 314.58 48.6754V48.2934C314.362 39.3987 306.995 31.1042 294.826 26.0839L293.844 25.7019L293.462 24.7197C288.333 12.3326 279.875 5.02033 270.816 5.02033Z" fill="#8232FF"/>
<path d="M300.391 88.0739C296.735 88.0739 292.424 87.1463 287.567 85.2909C277.636 81.4711 266.613 74.268 256.354 64.9367C246.15 55.66 237.91 45.2922 233.217 35.7972C228.306 25.8111 227.924 17.8441 232.071 13.3149C236.163 8.78564 244.185 8.5128 254.608 12.4963C264.539 16.3161 275.562 23.5192 285.821 32.8505C296.08 42.1818 304.265 52.6044 308.904 62.0446C313.815 72.0307 314.251 79.9977 310.104 84.527C307.921 86.928 304.593 88.0739 300.391 88.0739ZM241.729 13.042C238.51 13.042 236.054 13.8605 234.526 15.5522C231.416 18.8809 232.071 25.702 236.273 34.2693C240.802 43.3823 248.714 53.4229 258.646 62.5357C268.577 71.5941 279.327 78.6335 288.822 82.2351C297.717 85.6183 304.538 85.6183 307.594 82.2351C313.597 75.6868 305.357 55.2235 283.475 35.3061C273.543 26.1931 262.793 19.2083 253.353 15.5522C248.823 13.9151 244.949 13.042 241.729 13.042Z" fill="#8232FF"/>
<path d="M300.39 89.0568C296.571 89.0568 292.15 88.0746 287.239 86.2192C277.253 82.3994 266.067 75.0872 255.698 65.7013C245.33 56.2609 237.036 45.8385 232.343 36.1798C227.268 25.8663 226.886 17.5172 231.306 12.7152C235.672 7.91312 244.075 7.47657 254.88 11.6238C264.866 15.4436 276.053 22.7558 286.421 32.1417C296.789 41.5821 305.083 52.0047 309.776 61.6633C314.851 72.0313 315.233 80.3804 310.813 85.237C308.412 87.7472 304.92 89.0568 300.39 89.0568ZM241.729 10.6416C237.8 10.6416 234.799 11.7329 232.725 13.9703C228.851 18.1721 229.396 25.8117 234.089 35.4158C238.728 44.8016 246.804 55.115 257.008 64.3917C267.158 73.6684 278.181 80.8169 287.949 84.5276C292.642 86.3284 296.843 87.256 300.445 87.256C304.374 87.256 307.484 86.1647 309.449 83.9273C313.323 79.7255 312.777 72.0859 308.085 62.4818C303.446 53.0961 295.37 42.7826 285.166 33.5059C275.016 24.2292 263.993 17.0807 254.225 13.37C249.423 11.5147 245.221 10.6416 241.729 10.6416ZM300.39 85.6735C297.062 85.6735 292.969 84.855 288.494 83.1088C278.89 79.4527 268.031 72.3587 258.045 63.2458C248.004 54.1329 240.037 43.9831 235.453 34.761C231.088 25.8663 230.488 18.6632 233.871 15.0071C235.617 13.1517 238.236 12.1695 241.783 12.1695H242.766C245.931 12.2786 249.641 13.2063 253.789 14.7342C263.338 18.4449 274.143 25.4843 284.183 34.5973C294.442 43.9285 302.464 54.1329 306.884 63.3549C311.14 72.195 311.632 79.2344 308.357 82.836C306.557 84.7459 303.883 85.6735 300.39 85.6735ZM241.238 14.0248C238.509 14.0794 236.436 14.8434 235.181 16.2076C232.398 19.2089 233.107 25.8663 237.036 33.8333C241.456 42.8372 249.314 52.7686 259.191 61.7724C269.013 70.7762 279.654 77.6519 289.04 81.2535C297.553 84.473 304.046 84.5822 306.775 81.5263C309.503 78.5796 308.849 72.0859 304.974 64.0643C300.663 55.0604 292.751 45.0199 282.71 35.8524C272.888 26.8485 262.247 19.9728 252.861 16.3713C248.605 14.7888 244.676 13.8611 241.62 13.8611H241.238V14.0248Z" fill="#8232FF"/>
<path d="M241.729 88.0745C237.528 88.0745 234.254 86.874 232.016 84.4729C227.924 79.9437 228.36 71.9767 233.217 61.9906C237.91 52.4411 246.095 42.1276 256.299 32.7963C266.504 23.465 277.69 16.2074 287.513 12.4421C297.881 8.45861 305.902 8.78602 310.05 13.2607C314.197 17.7353 313.706 25.7569 308.849 35.743C304.102 45.2926 295.971 55.6606 285.712 64.9919C275.453 74.3231 264.321 81.5808 254.499 85.346C249.697 87.2014 245.386 88.0745 241.729 88.0745ZM300.391 13.0424C297.171 13.0424 293.242 13.8609 288.822 15.6071C279.273 19.2087 268.632 26.1389 258.646 35.2519C236.764 55.224 228.524 75.5782 234.526 82.2356C240.529 88.7839 261.593 82.5085 283.475 62.5363C305.357 42.5641 313.597 22.21 307.594 15.6071C306.066 13.9155 303.611 13.0424 300.391 13.0424Z" fill="#8232FF"/>
<path d="M241.73 89.0564C237.201 89.0564 233.709 87.6921 231.308 85.1274C226.942 80.3253 227.27 71.9217 232.345 61.5537C237.038 51.9494 245.332 41.4722 255.7 32.0318C266.068 22.6459 277.255 15.2791 287.241 11.5139C297.991 7.42122 306.34 7.8032 310.815 12.6053C315.18 17.4073 314.853 25.8109 309.723 36.179C305.03 45.7831 296.736 56.2605 286.368 65.7009C276 75.0867 264.813 82.4535 254.827 86.2188C249.916 88.0741 245.496 89.0564 241.73 89.0564ZM300.392 10.6408C296.845 10.6408 292.643 11.5684 287.896 13.3692C278.128 17.0799 267.105 24.2284 256.955 33.5051C246.805 42.7818 238.675 53.0408 234.036 62.4813C229.343 72.0854 228.798 79.7251 232.672 83.9269C234.691 86.1096 237.692 87.2556 241.676 87.2556C245.223 87.2556 249.479 86.3279 254.172 84.5271C263.94 80.8165 274.963 73.6679 285.113 64.3912C295.262 55.1145 303.393 44.8554 308.032 35.415C312.725 25.8109 313.27 18.1713 309.396 13.9695C307.431 11.7322 304.321 10.6408 300.392 10.6408ZM241.785 85.6731C238.293 85.6731 235.564 84.6908 233.873 82.8355C230.598 79.234 231.09 72.0854 235.346 63.3544C239.711 54.1321 247.842 43.9278 257.992 34.5965C268.033 25.4835 278.837 18.3896 288.441 14.7334C292.971 12.9872 297.009 12.1687 300.337 12.1141C303.884 12.1141 306.504 13.0964 308.25 14.9517C311.524 18.5533 311.033 25.7018 306.777 34.4328C302.356 43.7095 294.28 53.8593 284.076 63.1907C273.926 72.5766 263.012 79.6705 253.354 83.2721C248.988 84.8 245.005 85.6731 241.785 85.6731ZM300.392 13.9695C297.282 13.9695 293.353 14.788 289.151 16.4796C279.765 20.0812 269.124 26.9569 259.302 35.9607C249.261 45.0737 241.348 55.1145 237.038 64.173C233.218 72.0854 232.508 78.5791 235.237 81.635C237.965 84.5817 244.513 84.5271 252.753 81.4167C262.139 77.9243 272.835 70.9941 282.875 61.7719C292.916 52.6588 300.829 42.6181 305.139 33.5597C308.959 25.6472 309.669 19.1535 306.886 16.0977C305.631 14.7334 303.339 13.9695 300.392 13.9695Z" fill="#8232FF"/>
<path d="M271.036 58.4981C276.383 58.4981 280.694 54.1871 280.694 48.8393C280.694 43.4916 276.383 39.1807 271.036 39.1807C265.688 39.1807 261.377 43.4916 261.377 48.8393C261.486 54.1871 265.797 58.4981 271.036 58.4981Z" fill="#8232FF"/>
<path d="M36.5498 279.283V298.983C36.5498 310.879 30.6018 317.427 19.3061 317.427C8.01031 317.427 1.08008 310.879 1.08008 298.983V242.177C1.08008 230.281 8.01031 223.678 19.3061 223.678C30.6018 223.678 36.5498 230.226 36.5498 242.177V261.167H22.6893V241.085C22.6893 237.265 21.7071 235.028 19.3606 235.028C16.905 235.028 15.8682 237.265 15.8682 241.085V300.238C15.8682 303.948 16.8505 306.186 19.3606 306.186C21.7071 306.186 22.6893 303.948 22.6893 300.238V279.283H36.5498ZM77.2584 242.177V298.928C77.2584 310.824 70.4373 317.372 59.1415 317.372C47.7364 317.372 40.9153 310.824 40.9153 298.928V242.177C40.9153 230.281 47.7364 223.678 59.1415 223.678C70.4373 223.732 77.2584 230.281 77.2584 242.177ZM55.7037 300.183C55.7037 303.894 56.6859 306.131 59.1961 306.131C61.5425 306.131 62.5248 303.894 62.5248 300.183V240.976C62.5248 237.265 61.5425 235.028 59.1961 235.028C56.7405 235.028 55.7037 237.265 55.7037 240.976V300.183ZM98.1037 224.715L105.907 270.716H106.18V224.715H118.949V316.445H105.798L95.3752 262.749H95.157V316.445H82.3878V224.715H98.1037ZM151.527 276.173H139.139V316.445H124.406V224.715H153V236.883H139.139V264.004H151.527V276.173ZM187.924 255.219V240.976C187.924 237.156 186.942 234.919 184.432 234.919C182.085 234.919 181.103 237.156 181.103 240.976V257.565H167.188V242.067C167.188 230.171 173.136 223.732 184.432 223.732C195.836 223.732 202.658 230.171 202.658 242.067V253.963C202.658 261.167 200.311 267.224 197.473 273.772L184.213 303.785H203.203V316.445H167.188V307.004L184.923 267.606C187.051 263.022 187.924 259.311 187.924 255.219ZM243.148 242.177V298.928C243.148 310.824 236.327 317.372 225.031 317.372C213.626 317.372 206.805 310.824 206.805 298.928V242.177C206.805 230.281 213.626 223.678 225.031 223.678C236.327 223.732 243.148 230.281 243.148 242.177ZM221.538 300.183C221.538 303.894 222.521 306.131 225.031 306.131C227.377 306.131 228.359 303.894 228.359 300.183V240.976C228.359 237.265 227.377 235.028 225.031 235.028C222.575 235.028 221.538 237.265 221.538 240.976V300.183ZM267.54 255.219V240.976C267.54 237.156 266.558 234.919 264.047 234.919C261.701 234.919 260.719 237.156 260.719 240.976V257.565H246.858V242.067C246.858 230.171 252.806 223.732 264.102 223.732C275.507 223.732 282.328 230.171 282.328 242.067V253.963C282.328 261.167 279.982 267.224 277.144 273.772L263.884 303.785H282.874V316.445H246.858V307.004L264.593 267.606C266.667 263.022 267.54 259.311 267.54 255.219ZM314.851 316.445H300.991V297.127H281.4V288.069L297.771 224.715H314.906V285.068H321.236V297.073H314.906V316.445H314.851ZM300.445 251.017L292.369 285.122H300.936V251.017H300.445Z" fill="#8232FF"/>
</g>
</g>
<defs>
<clipPath id="clip0_18515_236">
<rect width="320.865" height="316.499" fill="white" transform="translate(0.75)"/>
</clipPath>
</defs>
</svg>
