<svg width="209" height="82" viewBox="0 0 209 82" fill="none" xmlns="http://www.w3.org/2000/svg">
<path d="M87.4706 21.5162L69.9218 28.4838L52.373 35.4513L82.113 49.3864L80.1449 59.9946L48.5188 44.7232L41.9039 79.0292L32.4734 81.8108L37.4483 55.6859L0 70.9572L2.05009 60.3491L37.1203 46.414L7.38033 32.4789L9.34842 21.8707L41.0018 37.1421L47.5621 2.78157L57.0745 0L52.045 26.1794L89.5207 10.9081L87.4706 21.5162Z" fill="#0F172A"/>
<path d="M115.748 38C107.483 38 102 32.6783 102 24.5C102 16.3217 107.483 11 115.748 11C123.257 11 128.502 14.913 128.502 21.1739V21.7217H123.774V21.1739C123.774 17.1826 121.191 15.0304 115.787 15.0304C109.549 15.0304 106.53 17.9652 106.53 24.5C106.53 31.0348 109.549 33.9304 115.787 33.9304C121.191 33.9304 123.774 31.8174 123.774 27.787V27.2783H128.502V27.787C128.502 34.087 123.297 38 115.748 38Z" fill="#0F172A"/>
<path d="M135.954 37.6087H131.663V11.3913H137.504L145.172 26.5739L147.596 32.013H147.914L150.258 26.5739L157.847 11.3913H163.687V37.6087H159.396V21.5261L159.555 17.7304H159.237L157.608 21.5261L150.258 36.0435H145.093L137.742 21.5261L136.113 17.7304H135.795L135.954 21.5261V37.6087Z" fill="#0F172A"/>
<path d="M178.835 38C170.889 38 166.836 34.5565 166.836 29.0391V28.8043H171.127V29.4304C171.127 32.5609 172.995 34.1261 178.835 34.1261C183.921 34.1261 185.709 33.0304 185.709 30.5652C185.709 28.2957 184.358 27.4348 180.981 26.8087L174.465 25.7522C169.975 24.9696 166.796 22.9348 166.796 18.6304C166.796 14.8348 169.975 11 178.239 11C186.027 11 189.563 14.8348 189.563 19.9609V20.1957H185.312V19.687C185.312 16.4783 183.365 14.8739 177.842 14.8739C172.995 14.8739 171.088 16.0478 171.088 18.3957C171.088 20.6652 172.438 21.4087 175.577 22.0739L182.054 23.1696C187.378 24.1087 190 26.4957 190 30.3304C190 34.3217 186.702 38 178.835 38Z" fill="#0F172A"/>
<path d="M115.452 70.5C107.365 70.5 102 65.1783 102 57C102 48.8217 107.365 43.5 115.452 43.5C122.8 43.5 127.932 47.413 127.932 53.6739V54.2217H123.305V53.6739C123.305 49.6826 120.778 47.5304 115.491 47.5304C109.387 47.5304 106.432 50.4652 106.432 57C106.432 63.5348 109.387 66.4304 115.491 66.4304C120.778 66.4304 123.305 64.3174 123.305 60.287V59.7783H127.932V60.287C127.932 66.587 122.839 70.5 115.452 70.5Z" fill="#0F172A"/>
<path d="M143.816 70.5C135.651 70.5 130.247 65.1783 130.247 57C130.247 48.8217 135.651 43.5 143.816 43.5C152.058 43.5 157.423 48.8217 157.423 57C157.423 65.1783 152.058 70.5 143.816 70.5ZM143.816 66.4304C149.997 66.4304 152.991 63.5348 152.991 57C152.991 50.4652 149.997 47.5304 143.816 47.5304C137.634 47.5304 134.679 50.4652 134.679 57C134.679 63.5348 137.634 66.4304 143.816 66.4304Z" fill="#0F172A"/>
<path d="M164.724 70.1087H160.525V43.8913H165.035L176.698 59.2304L180.08 64.1217H180.391L180.197 59.387V43.8913H184.396V70.1087H179.886L168.145 54.8087L164.879 50.1913H164.568L164.724 54.7304V70.1087Z" fill="#0F172A"/>
<path d="M192.477 70.1087H188.278V43.8913H209V47.687H192.477V55.8261H208.417V59.5826H192.477V70.1087Z" fill="#0F172A"/>
</svg>
