<svg width="411" class="hidden md:block w-3/5" viewBox="0 0 411 185" fill="none" xmlns="http://www.w3.org/2000/svg"> <g clip-path="url(#clip0_429_25)"> <path d="M311.287 0L286.31 5.49142L291.456 28.9459L316.434 23.4789L311.287 0Z" fill="#EFC418"></path> <path d="M377.754 43.3457C375.437 42.4915 373.095 42.345 370.729 42.8576C368.144 43.4189 366.412 44.2731 365.558 45.4202C364.68 46.5429 364.436 48.0073 364.851 49.8134C365.241 51.6194 366.461 52.9374 368.534 53.7672C370.607 54.6214 373.144 55.3292 376.169 55.915C379.193 56.4763 382.462 57.1109 385.974 57.8186C389.486 58.5264 392.853 59.6735 396.097 61.2599C398.024 62.2118 399.804 63.3833 401.463 64.7744L398.146 41.3688L384.73 49.3252C382.389 46.2012 380.047 44.1999 377.754 43.3457Z" fill="#EFC418"></path> <path d="M396.682 109.096C393.121 111.342 388.974 113.001 384.242 114.026C376.486 115.735 369.51 115.491 363.29 113.245C357.07 111.024 351.704 106.509 347.142 99.7243L362.997 88.0825C365.461 91.3285 368.193 93.4275 371.193 94.4281C374.168 95.4288 376.852 95.6728 379.218 95.1359C383.706 94.1597 385.535 91.6946 384.657 87.7408C384.242 85.8371 382.974 84.4459 380.827 83.5429C378.681 82.6643 376.12 81.9077 373.168 81.2487C370.193 80.6141 366.924 79.9796 363.363 79.345C359.802 78.7104 356.436 77.5877 353.24 75.9769C350.069 74.3905 347.191 72.194 344.63 69.3872C342.069 66.5805 340.264 62.7243 339.166 57.7698C338.337 53.938 338.24 50.2283 338.947 46.6649C339.63 43.0772 341.093 39.7823 343.313 36.756C345.533 33.7296 348.508 31.1181 352.192 28.8727C353.533 28.0673 354.948 27.3351 356.46 26.6761L265.845 39.5871L275.358 106.656L293.676 102.629L299.847 130.818L279.431 135.309L281.724 151.344L306.067 147.878L302.92 137.579C306.433 136.334 308.823 134.479 310.116 132.014C311.384 129.549 311.433 125.619 310.262 120.226L292.993 41.5396L320.482 35.4868L337.727 114.002C340.264 125.595 339.264 135.016 334.727 142.265C334.361 142.85 333.971 143.412 333.556 143.949L411.146 132.917L406.39 99.529C406.097 100.017 405.78 100.505 405.439 100.969C403.17 104.117 400.268 106.827 396.682 109.096Z" fill="#EFC418"></path> <path d="M396.975 33.1926L395.267 21.1603L379.925 23.3568C382.389 23.7962 384.73 24.5284 386.925 25.5778C390.828 27.4327 394.194 29.971 396.975 33.1926Z" fill="#EFC418"></path> <path d="M26.2454 180.558C21.0012 175.237 17.562 166.793 15.9033 155.273L10.0249 113.88L3.65869 112.513L8.46386 185.024L30.1725 183.584C28.7334 182.755 27.4162 181.73 26.2454 180.558Z" fill="#FFFFFF"></path> <path d="M84.5416 179.606L70.37 79.9307L102.03 75.4399L116.178 175.091L84.5416 179.606ZM262.918 154.224L234.038 158.324L225.282 96.7466C224.574 91.841 223.355 88.3753 221.623 86.3739C219.891 84.3726 217.476 83.5916 214.354 84.0309C211.769 84.397 209.744 85.715 208.281 87.9604C206.817 90.2301 206.476 94.0131 207.232 99.3093L215.964 160.911L184.328 165.402L175.571 103.824C174.815 98.5039 173.547 94.965 171.791 93.1589C170.01 91.3772 167.839 90.645 165.254 91.0111C163.18 91.304 161.375 92.1582 159.863 93.5738C158.351 94.965 157.204 96.7222 156.448 98.8212L166.278 167.964L134.618 172.479L120.471 72.804L148.619 68.8014L149.863 77.5632L150.253 77.49C155.18 69.5336 162.571 64.8476 172.425 63.432C182.377 62.0164 190.353 65.116 196.329 72.7308C199.134 68.3621 202.573 64.7743 206.671 61.9432C210.744 59.1121 215.574 57.306 221.159 56.5006C230.867 55.1338 238.746 57.2084 244.819 62.7486C250.869 68.3133 254.918 78.0758 256.893 92.0606L260.479 117.248L255.381 40.246L96.9326 50.7407L98.4449 61.4795L69.7114 65.5553L67.8821 52.6688L0 57.184L2.12208 89.2295L7.9273 87.8383L12.3178 60.2592L34.0752 57.1596L37.9535 84.5435L56.3936 81.932L59.6865 105.045L41.2463 107.681L47.5882 152.344C48.0516 155.59 49.2712 157.982 51.2957 159.544C53.2958 161.131 55.9789 161.667 59.345 161.179C61.4183 160.886 63.5647 160.252 65.8088 159.276L70.7359 178.581C69.3212 179.533 67.8333 180.387 66.2966 181.193L263.845 168.111L262.918 154.224Z" fill="#FFFFFF"></path> </g> <defs> <clipPath id="clip0_429_25"> <rect width="411" height="185" fill="white"></rect> </clipPath> </defs> </svg>