<svg
	width="200"
	height="200"
	viewBox="0 0 200 200"
	fill="none"
	xmlns="http://www.w3.org/2000/svg"
>
	<rect width="200" height="200" fill="#063052" />
	<g filter="url(#filter0_d_453_14798)">
		<path
			d="M85.8952 65.5483C83.0123 63.9696 80.0608 62.6654 77.0406 61.6358C74.0891 60.6062 71.3092 60.0914 68.7009 60.0914C65.4748 60.0914 62.9351 60.7435 61.0818 62.0477C59.2286 63.3518 58.3019 65.3081 58.3019 67.9164C58.3019 69.701 58.9883 71.3141 60.3611 72.7555C61.8026 74.1283 63.6215 75.3638 65.818 76.4621C68.0831 77.5603 70.4169 78.5556 72.8193 79.4479C75.0158 80.2716 77.1779 81.2669 79.3058 82.4338C81.5022 83.532 83.4585 84.9391 85.1745 86.6551C86.8905 88.3025 88.2633 90.396 89.2929 92.9357C90.3225 95.4067 90.8373 98.4612 90.8373 102.099C90.8373 105.943 89.842 109.512 87.8514 112.807C85.8609 116.102 82.9437 118.779 79.0998 120.838C75.256 122.828 70.5198 123.824 64.8914 123.824C62.0085 123.824 59.057 123.549 56.0368 123C53.0853 122.382 50.1681 121.49 47.2852 120.323C44.4023 119.088 41.6224 117.543 38.9454 115.69L45.5349 104.055C47.3195 105.36 49.2414 106.526 51.3006 107.556C53.4285 108.517 55.5563 109.272 57.6842 109.821C59.812 110.37 61.7682 110.645 63.5529 110.645C65.3375 110.645 67.1222 110.405 68.9068 109.924C70.7601 109.375 72.2702 108.483 73.437 107.247C74.6726 106.012 75.2903 104.296 75.2903 102.099C75.2903 100.589 74.7755 99.2162 73.7459 97.9807C72.785 96.7452 71.4465 95.6126 69.7305 94.583C68.0831 93.5534 66.2642 92.6611 64.2736 91.9061C61.9398 91.0138 59.5374 89.9842 57.0664 88.8173C54.5954 87.6504 52.2616 86.2433 50.0651 84.5959C47.9373 82.8799 46.187 80.7864 44.8142 78.3154C43.51 75.7757 42.8579 72.6869 42.8579 69.049C42.8579 64.656 43.8189 60.8465 45.7408 57.6204C47.7314 54.3943 50.5113 51.8546 54.0806 50.0014C57.6498 48.0794 61.7682 47.0155 66.4358 46.8096C72.5447 46.8096 77.4868 47.5303 81.262 48.9718C85.1058 50.4132 88.5378 52.1292 91.558 54.1198L85.8952 65.5483ZM158.174 116.719C157.35 117.406 155.806 118.332 153.541 119.499C151.344 120.666 148.633 121.696 145.407 122.588C142.181 123.48 138.612 123.892 134.699 123.824C128.727 123.686 123.373 122.622 118.637 120.632C113.97 118.573 109.989 115.793 106.694 112.292C103.468 108.792 100.997 104.776 99.2808 100.246C97.5648 95.7156 96.7068 90.8765 96.7068 85.7285C96.7068 79.9627 97.5648 74.6774 99.2808 69.8726C101.065 65.0678 103.571 60.9151 106.797 57.4145C110.092 53.9138 114.004 51.2026 118.534 49.2806C123.065 47.3587 128.075 46.3978 133.566 46.3978C138.646 46.3978 143.142 47.0842 147.054 48.457C150.967 49.8298 154.158 51.3055 156.63 52.8842L150.761 66.9898C149.045 65.6856 146.745 64.3471 143.862 62.9743C141.048 61.5329 137.788 60.8122 134.081 60.8122C131.198 60.8122 128.418 61.4299 125.742 62.6654C123.133 63.8323 120.799 65.514 118.74 67.7105C116.75 69.907 115.171 72.481 114.004 75.4325C112.837 78.3154 112.254 81.4728 112.254 84.9048C112.254 88.5427 112.769 91.8718 113.798 94.8919C114.896 97.9121 116.441 100.52 118.431 102.717C120.422 104.845 122.79 106.492 125.536 107.659C128.35 108.826 131.507 109.409 135.008 109.409C139.058 109.409 142.524 108.757 145.407 107.453C148.29 106.149 150.486 104.776 151.996 103.335L158.174 116.719Z"
			fill="white"
		/>
	</g>
	<g clip-path="url(#clip0_453_14798)">
		<path
			d="M166.238 141.734L163.665 144.61C159.765 148.972 154.703 149.043 150.76 144.791L147.639 141.426C143.756 137.239 138.781 137.239 134.899 141.426L131.66 144.917C127.777 149.105 122.803 149.105 118.919 144.917L115.682 141.426C111.797 137.239 106.823 137.239 102.94 141.426L99.7018 144.917C95.8187 149.105 90.8444 149.105 86.9613 144.917L85.3092 143.136L83.6572 141.355C79.7736 137.168 74.6336 137.239 70.7509 141.426L67.6298 144.791C63.687 149.043 58.6246 148.972 54.7242 144.61L52.1515 141.734C48.2511 137.372 43.1896 137.301 39.2458 141.553L34 147.495"
			stroke="#F14C4C"
			stroke-width="12"
			stroke-linecap="round"
		/>
	</g>
	<defs>
		<filter
			id="filter0_d_453_14798"
			x="34.6554"
			y="46.3978"
			width="127.808"
			height="86.1089"
			filterUnits="userSpaceOnUse"
			color-interpolation-filters="sRGB"
		>
			<feFlood flood-opacity="0" result="BackgroundImageFix" />
			<feColorMatrix
				in="SourceAlpha"
				type="matrix"
				values="0 0 0 0 0 0 0 0 0 0 0 0 0 0 0 0 0 0 127 0"
				result="hardAlpha"
			/>
			<feOffset dy="4.29" />
			<feGaussianBlur stdDeviation="2.145" />
			<feComposite in2="hardAlpha" operator="out" />
			<feColorMatrix
				type="matrix"
				values="0 0 0 0 0 0 0 0 0 0 0 0 0 0 0 0 0 0 0.25 0"
			/>
			<feBlend
				mode="normal"
				in2="BackgroundImageFix"
				result="effect1_dropShadow_453_14798"
			/>
			<feBlend
				mode="normal"
				in="SourceGraphic"
				in2="effect1_dropShadow_453_14798"
				result="shape"
			/>
		</filter>
		<clipPath id="clip0_453_14798">
			<rect
				width="145"
				height="22"
				fill="white"
				transform="translate(28 132.25)"
			/>
		</clipPath>
	</defs>
</svg>
